G04 #@! TF.GenerationSoftware,KiCad,Pcbnew,5.1.5-52549c5~84~ubuntu19.10.1*
G04 #@! TF.CreationDate,2020-02-04T21:35:52+01:00*
G04 #@! TF.ProjectId,eduzebox,6564757a-6562-46f7-982e-6b696361645f,rev?*
G04 #@! TF.SameCoordinates,Original*
G04 #@! TF.FileFunction,Legend,Top*
G04 #@! TF.FilePolarity,Positive*
%FSLAX46Y46*%
G04 Gerber Fmt 4.6, Leading zero omitted, Abs format (unit mm)*
G04 Created by KiCad (PCBNEW 5.1.5-52549c5~84~ubuntu19.10.1) date 2020-02-04 21:35:52*
%MOMM*%
%LPD*%
G04 APERTURE LIST*
%ADD10C,0.149860*%
%ADD11C,0.254000*%
%ADD12C,0.076200*%
%ADD13C,0.300000*%
%ADD14C,0.120000*%
%ADD15C,0.150000*%
%ADD16C,0.381000*%
%ADD17C,0.304800*%
G04 APERTURE END LIST*
D10*
X170494476Y-74869523D02*
X170688000Y-74869523D01*
X170784761Y-74809047D01*
X170833142Y-74748571D01*
X170929904Y-74567142D01*
X170978285Y-74325238D01*
X170978285Y-73841428D01*
X170929904Y-73720476D01*
X170881523Y-73660000D01*
X170784761Y-73599523D01*
X170591238Y-73599523D01*
X170494476Y-73660000D01*
X170446095Y-73720476D01*
X170397714Y-73841428D01*
X170397714Y-74143809D01*
X170446095Y-74264761D01*
X170494476Y-74325238D01*
X170591238Y-74385714D01*
X170784761Y-74385714D01*
X170881523Y-74325238D01*
X170929904Y-74264761D01*
X170978285Y-74143809D01*
X171413714Y-74385714D02*
X172187809Y-74385714D01*
X173203809Y-74869523D02*
X172623238Y-74869523D01*
X172913523Y-74869523D02*
X172913523Y-73599523D01*
X172816761Y-73780952D01*
X172720000Y-73901904D01*
X172623238Y-73962380D01*
X173590857Y-73720476D02*
X173639238Y-73660000D01*
X173736000Y-73599523D01*
X173977904Y-73599523D01*
X174074666Y-73660000D01*
X174123047Y-73720476D01*
X174171428Y-73841428D01*
X174171428Y-73962380D01*
X174123047Y-74143809D01*
X173542476Y-74869523D01*
X174171428Y-74869523D01*
X174461714Y-73599523D02*
X174800380Y-74869523D01*
X175139047Y-73599523D01*
X153464380Y-93804619D02*
X153125714Y-93320809D01*
X152883809Y-93804619D02*
X152883809Y-92788619D01*
X153270857Y-92788619D01*
X153367619Y-92837000D01*
X153416000Y-92885380D01*
X153464380Y-92982142D01*
X153464380Y-93127285D01*
X153416000Y-93224047D01*
X153367619Y-93272428D01*
X153270857Y-93320809D01*
X152883809Y-93320809D01*
X153899809Y-93272428D02*
X154238476Y-93272428D01*
X154383619Y-93804619D02*
X153899809Y-93804619D01*
X153899809Y-92788619D01*
X154383619Y-92788619D01*
X154770666Y-93756238D02*
X154915809Y-93804619D01*
X155157714Y-93804619D01*
X155254476Y-93756238D01*
X155302857Y-93707857D01*
X155351238Y-93611095D01*
X155351238Y-93514333D01*
X155302857Y-93417571D01*
X155254476Y-93369190D01*
X155157714Y-93320809D01*
X154964190Y-93272428D01*
X154867428Y-93224047D01*
X154819047Y-93175666D01*
X154770666Y-93078904D01*
X154770666Y-92982142D01*
X154819047Y-92885380D01*
X154867428Y-92837000D01*
X154964190Y-92788619D01*
X155206095Y-92788619D01*
X155351238Y-92837000D01*
X155786666Y-93272428D02*
X156125333Y-93272428D01*
X156270476Y-93804619D02*
X155786666Y-93804619D01*
X155786666Y-92788619D01*
X156270476Y-92788619D01*
X156560761Y-92788619D02*
X157141333Y-92788619D01*
X156851047Y-93804619D02*
X156851047Y-92788619D01*
X181277380Y-76278619D02*
X181470904Y-76278619D01*
X181567666Y-76327000D01*
X181664428Y-76423761D01*
X181712809Y-76617285D01*
X181712809Y-76955952D01*
X181664428Y-77149476D01*
X181567666Y-77246238D01*
X181470904Y-77294619D01*
X181277380Y-77294619D01*
X181180619Y-77246238D01*
X181083857Y-77149476D01*
X181035476Y-76955952D01*
X181035476Y-76617285D01*
X181083857Y-76423761D01*
X181180619Y-76327000D01*
X181277380Y-76278619D01*
X182486904Y-76762428D02*
X182148238Y-76762428D01*
X182148238Y-77294619D02*
X182148238Y-76278619D01*
X182632047Y-76278619D01*
X183357761Y-76762428D02*
X183019095Y-76762428D01*
X183019095Y-77294619D02*
X183019095Y-76278619D01*
X183502904Y-76278619D01*
X181616047Y-63578619D02*
X181809571Y-63578619D01*
X181906333Y-63627000D01*
X182003095Y-63723761D01*
X182051476Y-63917285D01*
X182051476Y-64255952D01*
X182003095Y-64449476D01*
X181906333Y-64546238D01*
X181809571Y-64594619D01*
X181616047Y-64594619D01*
X181519285Y-64546238D01*
X181422523Y-64449476D01*
X181374142Y-64255952D01*
X181374142Y-63917285D01*
X181422523Y-63723761D01*
X181519285Y-63627000D01*
X181616047Y-63578619D01*
X182486904Y-64594619D02*
X182486904Y-63578619D01*
X183067476Y-64594619D01*
X183067476Y-63578619D01*
D11*
X119380000Y-95909190D02*
X119331619Y-95957571D01*
X119380000Y-96005952D01*
X119428380Y-95957571D01*
X119380000Y-95909190D01*
X119380000Y-96005952D01*
D10*
X153325285Y-83644619D02*
X152744714Y-83644619D01*
X153035000Y-83644619D02*
X153035000Y-82628619D01*
X152938238Y-82773761D01*
X152841476Y-82870523D01*
X152744714Y-82918904D01*
X164077952Y-59762571D02*
X164852047Y-59762571D01*
X164465000Y-60149619D02*
X164465000Y-59375523D01*
X158362952Y-72462571D02*
X159137047Y-72462571D01*
X158750000Y-72849619D02*
X158750000Y-72075523D01*
X152012952Y-72462571D02*
X152787047Y-72462571D01*
X152400000Y-72849619D02*
X152400000Y-72075523D01*
D12*
X94974228Y-59356171D02*
X94974228Y-59791600D01*
X94945200Y-59878685D01*
X94887142Y-59936742D01*
X94800057Y-59965771D01*
X94742000Y-59965771D01*
X95554800Y-59965771D02*
X95264514Y-59965771D01*
X95264514Y-59356171D01*
X96106342Y-59907714D02*
X96077314Y-59936742D01*
X95990228Y-59965771D01*
X95932171Y-59965771D01*
X95845085Y-59936742D01*
X95787028Y-59878685D01*
X95758000Y-59820628D01*
X95728971Y-59704514D01*
X95728971Y-59617428D01*
X95758000Y-59501314D01*
X95787028Y-59443257D01*
X95845085Y-59385200D01*
X95932171Y-59356171D01*
X95990228Y-59356171D01*
X96077314Y-59385200D01*
X96106342Y-59414228D01*
X96541771Y-59356171D02*
X96541771Y-59791600D01*
X96512742Y-59878685D01*
X96454685Y-59936742D01*
X96367600Y-59965771D01*
X96309542Y-59965771D01*
X97122342Y-59965771D02*
X96832057Y-59965771D01*
X96832057Y-59356171D01*
X97673885Y-59907714D02*
X97644857Y-59936742D01*
X97557771Y-59965771D01*
X97499714Y-59965771D01*
X97412628Y-59936742D01*
X97354571Y-59878685D01*
X97325542Y-59820628D01*
X97296514Y-59704514D01*
X97296514Y-59617428D01*
X97325542Y-59501314D01*
X97354571Y-59443257D01*
X97412628Y-59385200D01*
X97499714Y-59356171D01*
X97557771Y-59356171D01*
X97644857Y-59385200D01*
X97673885Y-59414228D01*
X98109314Y-59356171D02*
X98109314Y-59791600D01*
X98080285Y-59878685D01*
X98022228Y-59936742D01*
X97935142Y-59965771D01*
X97877085Y-59965771D01*
X98689885Y-59965771D02*
X98399600Y-59965771D01*
X98399600Y-59356171D01*
X99241428Y-59907714D02*
X99212400Y-59936742D01*
X99125314Y-59965771D01*
X99067257Y-59965771D01*
X98980171Y-59936742D01*
X98922114Y-59878685D01*
X98893085Y-59820628D01*
X98864057Y-59704514D01*
X98864057Y-59617428D01*
X98893085Y-59501314D01*
X98922114Y-59443257D01*
X98980171Y-59385200D01*
X99067257Y-59356171D01*
X99125314Y-59356171D01*
X99212400Y-59385200D01*
X99241428Y-59414228D01*
X99676857Y-59356171D02*
X99676857Y-59791600D01*
X99647828Y-59878685D01*
X99589771Y-59936742D01*
X99502685Y-59965771D01*
X99444628Y-59965771D01*
X100257428Y-59965771D02*
X99967142Y-59965771D01*
X99967142Y-59356171D01*
X100808971Y-59907714D02*
X100779942Y-59936742D01*
X100692857Y-59965771D01*
X100634800Y-59965771D01*
X100547714Y-59936742D01*
X100489657Y-59878685D01*
X100460628Y-59820628D01*
X100431600Y-59704514D01*
X100431600Y-59617428D01*
X100460628Y-59501314D01*
X100489657Y-59443257D01*
X100547714Y-59385200D01*
X100634800Y-59356171D01*
X100692857Y-59356171D01*
X100779942Y-59385200D01*
X100808971Y-59414228D01*
D13*
X142425000Y-95777857D02*
X142925000Y-95777857D01*
X143139285Y-96563571D02*
X142425000Y-96563571D01*
X142425000Y-95063571D01*
X143139285Y-95063571D01*
X144425000Y-96563571D02*
X144425000Y-95063571D01*
X144425000Y-96492142D02*
X144282142Y-96563571D01*
X143996428Y-96563571D01*
X143853571Y-96492142D01*
X143782142Y-96420714D01*
X143710714Y-96277857D01*
X143710714Y-95849285D01*
X143782142Y-95706428D01*
X143853571Y-95635000D01*
X143996428Y-95563571D01*
X144282142Y-95563571D01*
X144425000Y-95635000D01*
X145139285Y-95063571D02*
X145139285Y-96277857D01*
X145210714Y-96420714D01*
X145282142Y-96492142D01*
X145425000Y-96563571D01*
X145710714Y-96563571D01*
X145853571Y-96492142D01*
X145925000Y-96420714D01*
X145996428Y-96277857D01*
X145996428Y-95063571D01*
X146567857Y-95563571D02*
X147353571Y-95563571D01*
X146567857Y-96563571D01*
X147353571Y-96563571D01*
X148496428Y-96492142D02*
X148353571Y-96563571D01*
X148067857Y-96563571D01*
X147925000Y-96492142D01*
X147853571Y-96349285D01*
X147853571Y-95777857D01*
X147925000Y-95635000D01*
X148067857Y-95563571D01*
X148353571Y-95563571D01*
X148496428Y-95635000D01*
X148567857Y-95777857D01*
X148567857Y-95920714D01*
X147853571Y-96063571D01*
X149210714Y-96563571D02*
X149210714Y-95063571D01*
X149210714Y-95635000D02*
X149353571Y-95563571D01*
X149639285Y-95563571D01*
X149782142Y-95635000D01*
X149853571Y-95706428D01*
X149925000Y-95849285D01*
X149925000Y-96277857D01*
X149853571Y-96420714D01*
X149782142Y-96492142D01*
X149639285Y-96563571D01*
X149353571Y-96563571D01*
X149210714Y-96492142D01*
X150782142Y-96563571D02*
X150639285Y-96492142D01*
X150567857Y-96420714D01*
X150496428Y-96277857D01*
X150496428Y-95849285D01*
X150567857Y-95706428D01*
X150639285Y-95635000D01*
X150782142Y-95563571D01*
X150996428Y-95563571D01*
X151139285Y-95635000D01*
X151210714Y-95706428D01*
X151282142Y-95849285D01*
X151282142Y-96277857D01*
X151210714Y-96420714D01*
X151139285Y-96492142D01*
X150996428Y-96563571D01*
X150782142Y-96563571D01*
X151782142Y-96563571D02*
X152567857Y-95563571D01*
X151782142Y-95563571D02*
X152567857Y-96563571D01*
X154139285Y-95563571D02*
X154496428Y-96563571D01*
X154853571Y-95563571D01*
X155353571Y-95206428D02*
X155425000Y-95135000D01*
X155567857Y-95063571D01*
X155925000Y-95063571D01*
X156067857Y-95135000D01*
X156139285Y-95206428D01*
X156210714Y-95349285D01*
X156210714Y-95492142D01*
X156139285Y-95706428D01*
X155282142Y-96563571D01*
X156210714Y-96563571D01*
X160210714Y-95206428D02*
X160282142Y-95135000D01*
X160425000Y-95063571D01*
X160782142Y-95063571D01*
X160925000Y-95135000D01*
X160996428Y-95206428D01*
X161067857Y-95349285D01*
X161067857Y-95492142D01*
X160996428Y-95706428D01*
X160139285Y-96563571D01*
X161067857Y-96563571D01*
X161996428Y-95063571D02*
X162139285Y-95063571D01*
X162282142Y-95135000D01*
X162353571Y-95206428D01*
X162425000Y-95349285D01*
X162496428Y-95635000D01*
X162496428Y-95992142D01*
X162425000Y-96277857D01*
X162353571Y-96420714D01*
X162282142Y-96492142D01*
X162139285Y-96563571D01*
X161996428Y-96563571D01*
X161853571Y-96492142D01*
X161782142Y-96420714D01*
X161710714Y-96277857D01*
X161639285Y-95992142D01*
X161639285Y-95635000D01*
X161710714Y-95349285D01*
X161782142Y-95206428D01*
X161853571Y-95135000D01*
X161996428Y-95063571D01*
X163067857Y-95206428D02*
X163139285Y-95135000D01*
X163282142Y-95063571D01*
X163639285Y-95063571D01*
X163782142Y-95135000D01*
X163853571Y-95206428D01*
X163925000Y-95349285D01*
X163925000Y-95492142D01*
X163853571Y-95706428D01*
X162996428Y-96563571D01*
X163925000Y-96563571D01*
X164853571Y-95063571D02*
X164996428Y-95063571D01*
X165139285Y-95135000D01*
X165210714Y-95206428D01*
X165282142Y-95349285D01*
X165353571Y-95635000D01*
X165353571Y-95992142D01*
X165282142Y-96277857D01*
X165210714Y-96420714D01*
X165139285Y-96492142D01*
X164996428Y-96563571D01*
X164853571Y-96563571D01*
X164710714Y-96492142D01*
X164639285Y-96420714D01*
X164567857Y-96277857D01*
X164496428Y-95992142D01*
X164496428Y-95635000D01*
X164567857Y-95349285D01*
X164639285Y-95206428D01*
X164710714Y-95135000D01*
X164853571Y-95063571D01*
X169996428Y-96492142D02*
X169853571Y-96563571D01*
X169567857Y-96563571D01*
X169425000Y-96492142D01*
X169353571Y-96349285D01*
X169353571Y-95777857D01*
X169425000Y-95635000D01*
X169567857Y-95563571D01*
X169853571Y-95563571D01*
X169996428Y-95635000D01*
X170067857Y-95777857D01*
X170067857Y-95920714D01*
X169353571Y-96063571D01*
X171353571Y-96563571D02*
X171353571Y-95063571D01*
X171353571Y-96492142D02*
X171210714Y-96563571D01*
X170925000Y-96563571D01*
X170782142Y-96492142D01*
X170710714Y-96420714D01*
X170639285Y-96277857D01*
X170639285Y-95849285D01*
X170710714Y-95706428D01*
X170782142Y-95635000D01*
X170925000Y-95563571D01*
X171210714Y-95563571D01*
X171353571Y-95635000D01*
X172710714Y-95563571D02*
X172710714Y-96563571D01*
X172067857Y-95563571D02*
X172067857Y-96349285D01*
X172139285Y-96492142D01*
X172282142Y-96563571D01*
X172496428Y-96563571D01*
X172639285Y-96492142D01*
X172710714Y-96420714D01*
X174067857Y-96563571D02*
X174067857Y-95777857D01*
X173996428Y-95635000D01*
X173853571Y-95563571D01*
X173567857Y-95563571D01*
X173425000Y-95635000D01*
X174067857Y-96492142D02*
X173925000Y-96563571D01*
X173567857Y-96563571D01*
X173425000Y-96492142D01*
X173353571Y-96349285D01*
X173353571Y-96206428D01*
X173425000Y-96063571D01*
X173567857Y-95992142D01*
X173925000Y-95992142D01*
X174067857Y-95920714D01*
X174782142Y-96563571D02*
X174782142Y-95563571D01*
X174782142Y-95849285D02*
X174853571Y-95706428D01*
X174925000Y-95635000D01*
X175067857Y-95563571D01*
X175210714Y-95563571D01*
X176353571Y-96563571D02*
X176353571Y-95063571D01*
X176353571Y-96492142D02*
X176210714Y-96563571D01*
X175925000Y-96563571D01*
X175782142Y-96492142D01*
X175710714Y-96420714D01*
X175639285Y-96277857D01*
X175639285Y-95849285D01*
X175710714Y-95706428D01*
X175782142Y-95635000D01*
X175925000Y-95563571D01*
X176210714Y-95563571D01*
X176353571Y-95635000D01*
X177282142Y-96563571D02*
X177139285Y-96492142D01*
X177067857Y-96420714D01*
X176996428Y-96277857D01*
X176996428Y-95849285D01*
X177067857Y-95706428D01*
X177139285Y-95635000D01*
X177282142Y-95563571D01*
X177496428Y-95563571D01*
X177639285Y-95635000D01*
X177710714Y-95706428D01*
X177782142Y-95849285D01*
X177782142Y-96277857D01*
X177710714Y-96420714D01*
X177639285Y-96492142D01*
X177496428Y-96563571D01*
X177282142Y-96563571D01*
X178210714Y-95563571D02*
X178782142Y-95563571D01*
X178425000Y-96563571D02*
X178425000Y-95277857D01*
X178496428Y-95135000D01*
X178639285Y-95063571D01*
X178782142Y-95063571D01*
X179282142Y-96563571D02*
X179282142Y-95563571D01*
X179282142Y-95063571D02*
X179210714Y-95135000D01*
X179282142Y-95206428D01*
X179353571Y-95135000D01*
X179282142Y-95063571D01*
X179282142Y-95206428D01*
X180210714Y-96563571D02*
X180067857Y-96492142D01*
X179996428Y-96349285D01*
X179996428Y-95063571D01*
X180996428Y-96563571D02*
X180853571Y-96492142D01*
X180782142Y-96420714D01*
X180710714Y-96277857D01*
X180710714Y-95849285D01*
X180782142Y-95706428D01*
X180853571Y-95635000D01*
X180996428Y-95563571D01*
X181210714Y-95563571D01*
X181353571Y-95635000D01*
X181425000Y-95706428D01*
X181496428Y-95849285D01*
X181496428Y-96277857D01*
X181425000Y-96420714D01*
X181353571Y-96492142D01*
X181210714Y-96563571D01*
X180996428Y-96563571D01*
D14*
X186615000Y-80580000D02*
G75*
G02X187115000Y-81080000I0J-500000D01*
G01*
X187115000Y-91080000D02*
G75*
G02X186615000Y-91580000I-500000J0D01*
G01*
X186615000Y-80580000D02*
X185815000Y-80580000D01*
X187115000Y-86220000D02*
X187115000Y-81080000D01*
X186615000Y-91580000D02*
X185815000Y-91580000D01*
X187115000Y-87020000D02*
X187115000Y-91080000D01*
X187115000Y-87020000D02*
X187115000Y-86220000D01*
X180235000Y-93450000D02*
X172655000Y-93450000D01*
X185815000Y-93450000D02*
X182595000Y-93450000D01*
X185815000Y-78700000D02*
X185815000Y-93450000D01*
X182585000Y-78700000D02*
X185815000Y-78700000D01*
X172655000Y-78700000D02*
X180235000Y-78700000D01*
X171315000Y-83400000D02*
X171315000Y-80110000D01*
X136450000Y-87256252D02*
X136450000Y-86733748D01*
X137870000Y-87256252D02*
X137870000Y-86733748D01*
X92055000Y-91165000D02*
X92055000Y-94255000D01*
X97115000Y-92710000D02*
G75*
G03X97115000Y-92710000I-2500000J0D01*
G01*
X97605000Y-92709538D02*
G75*
G02X92055000Y-94254830I-2990000J-462D01*
G01*
X97605000Y-92710462D02*
G75*
G03X92055000Y-91165170I-2990000J462D01*
G01*
X181685000Y-110560000D02*
X179185000Y-110560000D01*
X181685000Y-111560000D02*
X181685000Y-110560000D01*
X138185000Y-111560000D02*
X181685000Y-111560000D01*
X138185000Y-110560000D02*
X138185000Y-111560000D01*
X140685000Y-110560000D02*
X138185000Y-110560000D01*
X149185000Y-110560000D02*
X149185000Y-99060000D01*
X148185000Y-99060000D02*
X148185000Y-110560000D01*
X171685000Y-99060000D02*
X171685000Y-110560000D01*
X170685000Y-99060000D02*
X170685000Y-110560000D01*
X179185000Y-110560000D02*
X179185000Y-99060000D01*
X140685000Y-110560000D02*
X179185000Y-110560000D01*
X140685000Y-99060000D02*
X140685000Y-110560000D01*
X179185000Y-99060000D02*
X140685000Y-99060000D01*
X174685000Y-97060000D02*
X174685000Y-99060000D01*
X145185000Y-97060000D02*
X174685000Y-97060000D01*
X145185000Y-99060000D02*
X145185000Y-97060000D01*
X135965000Y-110560000D02*
X133465000Y-110560000D01*
X135965000Y-111560000D02*
X135965000Y-110560000D01*
X92465000Y-111560000D02*
X135965000Y-111560000D01*
X92465000Y-110560000D02*
X92465000Y-111560000D01*
X94965000Y-110560000D02*
X92465000Y-110560000D01*
X103465000Y-110560000D02*
X103465000Y-99060000D01*
X102465000Y-99060000D02*
X102465000Y-110560000D01*
X125965000Y-99060000D02*
X125965000Y-110560000D01*
X124965000Y-99060000D02*
X124965000Y-110560000D01*
X133465000Y-110560000D02*
X133465000Y-99060000D01*
X94965000Y-110560000D02*
X133465000Y-110560000D01*
X94965000Y-99060000D02*
X94965000Y-110560000D01*
X133465000Y-99060000D02*
X94965000Y-99060000D01*
X128965000Y-97060000D02*
X128965000Y-99060000D01*
X99465000Y-97060000D02*
X128965000Y-97060000D01*
X99465000Y-99060000D02*
X99465000Y-97060000D01*
X151352500Y-71420000D02*
X155437500Y-71420000D01*
X151352500Y-69550000D02*
X151352500Y-71420000D01*
X155437500Y-69550000D02*
X151352500Y-69550000D01*
X157702500Y-71420000D02*
X161787500Y-71420000D01*
X157702500Y-69550000D02*
X157702500Y-71420000D01*
X161787500Y-69550000D02*
X157702500Y-69550000D01*
X149988748Y-67385000D02*
X150511252Y-67385000D01*
X149988748Y-65965000D02*
X150511252Y-65965000D01*
D15*
X184545000Y-68390000D02*
X184545000Y-66090000D01*
X184545000Y-74690000D02*
X184545000Y-72490000D01*
X179945000Y-74690000D02*
X179945000Y-66090000D01*
D14*
X162298748Y-67385000D02*
X162821252Y-67385000D01*
X162298748Y-65965000D02*
X162821252Y-65965000D01*
X156338748Y-65965000D02*
X156861252Y-65965000D01*
X156338748Y-67385000D02*
X156861252Y-67385000D01*
X136450000Y-94598748D02*
X136450000Y-95121252D01*
X137870000Y-94598748D02*
X137870000Y-95121252D01*
X125691995Y-94387097D02*
X125322529Y-94756563D01*
X124687903Y-93383005D02*
X124318437Y-93752471D01*
X163465000Y-64430000D02*
X165465000Y-64430000D01*
X165465000Y-64430000D02*
X165465000Y-60580000D01*
X163465000Y-64430000D02*
X163465000Y-60580000D01*
X91625000Y-85724538D02*
G75*
G03X97175000Y-87269830I2990000J-462D01*
G01*
X91625000Y-85725462D02*
G75*
G02X97175000Y-84180170I2990000J462D01*
G01*
X97115000Y-85725000D02*
G75*
G03X97115000Y-85725000I-2500000J0D01*
G01*
X97175000Y-87270000D02*
X97175000Y-84180000D01*
X168120000Y-66555000D02*
X168120000Y-58055000D01*
X168120000Y-58055000D02*
X177320000Y-58055000D01*
X177320000Y-58055000D02*
X177320000Y-72755000D01*
X170220000Y-72755000D02*
X168120000Y-72755000D01*
X168120000Y-72755000D02*
X168120000Y-70955000D01*
X175920000Y-73055000D02*
X177620000Y-73055000D01*
X177620000Y-73055000D02*
X177620000Y-71455000D01*
X177320000Y-72755000D02*
X175220000Y-72755000D01*
X151705000Y-81975000D02*
X151705000Y-80645000D01*
X153035000Y-81975000D02*
X151705000Y-81975000D01*
X151705000Y-79375000D02*
X151705000Y-76775000D01*
X154305000Y-79375000D02*
X151705000Y-79375000D01*
X154305000Y-81975000D02*
X154305000Y-79375000D01*
X151705000Y-76775000D02*
X159445000Y-76775000D01*
X154305000Y-81975000D02*
X159445000Y-81975000D01*
X159445000Y-81975000D02*
X159445000Y-76775000D01*
D16*
X94234000Y-57531000D02*
X94234000Y-64389000D01*
X141478000Y-57531000D02*
X141478000Y-64389000D01*
X94234000Y-64389000D02*
X141478000Y-64389000D01*
X141478000Y-67437000D02*
X94259400Y-67437000D01*
X94234000Y-74549000D02*
X94234000Y-67437000D01*
X141478000Y-74549000D02*
X94234000Y-74549000D01*
X141478000Y-67437000D02*
X141478000Y-74549000D01*
X141478000Y-57531000D02*
X94234000Y-57531000D01*
D14*
X146760000Y-89161252D02*
X146760000Y-88638748D01*
X145340000Y-89161252D02*
X145340000Y-88638748D01*
X100255000Y-92336252D02*
X100255000Y-91813748D01*
X101675000Y-92336252D02*
X101675000Y-91813748D01*
X143435000Y-73398748D02*
X143435000Y-73921252D01*
X144855000Y-73398748D02*
X144855000Y-73921252D01*
X90730000Y-79503748D02*
X90730000Y-80026252D01*
X92150000Y-79503748D02*
X92150000Y-80026252D01*
X100255000Y-85463748D02*
X100255000Y-85986252D01*
X101675000Y-85463748D02*
X101675000Y-85986252D01*
X143585000Y-79503748D02*
X143585000Y-80026252D01*
X142165000Y-79503748D02*
X142165000Y-80026252D01*
X138990000Y-79503748D02*
X138990000Y-80026252D01*
X140410000Y-79503748D02*
X140410000Y-80026252D01*
X137235000Y-79503748D02*
X137235000Y-80026252D01*
X135815000Y-79503748D02*
X135815000Y-80026252D01*
X130885000Y-79503748D02*
X130885000Y-80026252D01*
X129465000Y-79503748D02*
X129465000Y-80026252D01*
X106605000Y-79503748D02*
X106605000Y-80026252D01*
X108025000Y-79503748D02*
X108025000Y-80026252D01*
X104850000Y-79503748D02*
X104850000Y-80026252D01*
X103430000Y-79503748D02*
X103430000Y-80026252D01*
X98500000Y-79503748D02*
X98500000Y-80026252D01*
X97080000Y-79503748D02*
X97080000Y-80026252D01*
X93905000Y-79503748D02*
X93905000Y-80026252D01*
X95325000Y-79503748D02*
X95325000Y-80026252D01*
X145340000Y-80026252D02*
X145340000Y-79503748D01*
X146760000Y-80026252D02*
X146760000Y-79503748D01*
X134060000Y-80026252D02*
X134060000Y-79503748D01*
X132640000Y-80026252D02*
X132640000Y-79503748D01*
X100255000Y-80026252D02*
X100255000Y-79503748D01*
X101675000Y-80026252D02*
X101675000Y-79503748D01*
X166241252Y-82475000D02*
X165718748Y-82475000D01*
X166241252Y-83895000D02*
X165718748Y-83895000D01*
X166241252Y-78815000D02*
X165718748Y-78815000D01*
X166241252Y-77395000D02*
X165718748Y-77395000D01*
X166241252Y-88975000D02*
X165718748Y-88975000D01*
X166241252Y-87555000D02*
X165718748Y-87555000D01*
X166241252Y-79935000D02*
X165718748Y-79935000D01*
X166241252Y-81355000D02*
X165718748Y-81355000D01*
X166241252Y-86435000D02*
X165718748Y-86435000D01*
X166241252Y-85015000D02*
X165718748Y-85015000D01*
X166241252Y-90095000D02*
X165718748Y-90095000D01*
X166241252Y-91515000D02*
X165718748Y-91515000D01*
X148665000Y-73921252D02*
X148665000Y-73398748D01*
X147245000Y-73921252D02*
X147245000Y-73398748D01*
X151710000Y-92130000D02*
X158170000Y-92130000D01*
X151710000Y-87600000D02*
X151710000Y-90200000D01*
X151710000Y-85670000D02*
X158170000Y-85670000D01*
X158170000Y-87600000D02*
X158170000Y-90200000D01*
X151710000Y-85700000D02*
X151710000Y-85670000D01*
X151710000Y-92130000D02*
X151710000Y-92100000D01*
X158170000Y-92130000D02*
X158170000Y-92100000D01*
X158170000Y-85670000D02*
X158170000Y-85700000D01*
X161965000Y-64230000D02*
X151725000Y-64230000D01*
X161965000Y-59589000D02*
X151725000Y-59589000D01*
X161965000Y-64230000D02*
X161965000Y-59589000D01*
X151725000Y-64230000D02*
X151725000Y-59589000D01*
X161965000Y-62720000D02*
X151725000Y-62720000D01*
X158695000Y-64230000D02*
X158695000Y-62720000D01*
X154994000Y-64230000D02*
X154994000Y-62720000D01*
X150170000Y-60835000D02*
X149240000Y-60835000D01*
X147010000Y-60835000D02*
X147940000Y-60835000D01*
X147010000Y-60835000D02*
X147010000Y-62995000D01*
X150170000Y-60835000D02*
X150170000Y-62295000D01*
D15*
X119380000Y-94948555D02*
X119786586Y-94541969D01*
X112061445Y-87630000D02*
X112538742Y-87152703D01*
X119380000Y-80311445D02*
X118902703Y-80788742D01*
X126698555Y-87630000D02*
X126221258Y-88107297D01*
X119380000Y-94948555D02*
X118902703Y-94471258D01*
X126698555Y-87630000D02*
X126221258Y-87152703D01*
X119380000Y-80311445D02*
X119857297Y-80788742D01*
X112061445Y-87630000D02*
X112538742Y-88107297D01*
X119786586Y-94541969D02*
X120688148Y-95443530D01*
D14*
X130190000Y-93905000D02*
G75*
G03X135240000Y-93905000I2525000J0D01*
G01*
X130190000Y-87505000D02*
G75*
G02X135240000Y-87505000I2525000J0D01*
G01*
X130190000Y-87505000D02*
X130190000Y-93905000D01*
X135240000Y-87505000D02*
X135240000Y-93905000D01*
D15*
X169517380Y-81403333D02*
X170231666Y-81403333D01*
X170374523Y-81450952D01*
X170469761Y-81546190D01*
X170517380Y-81689047D01*
X170517380Y-81784285D01*
X169612619Y-80974761D02*
X169565000Y-80927142D01*
X169517380Y-80831904D01*
X169517380Y-80593809D01*
X169565000Y-80498571D01*
X169612619Y-80450952D01*
X169707857Y-80403333D01*
X169803095Y-80403333D01*
X169945952Y-80450952D01*
X170517380Y-81022380D01*
X170517380Y-80403333D01*
X139422142Y-87406666D02*
X139469761Y-87454285D01*
X139517380Y-87597142D01*
X139517380Y-87692380D01*
X139469761Y-87835238D01*
X139374523Y-87930476D01*
X139279285Y-87978095D01*
X139088809Y-88025714D01*
X138945952Y-88025714D01*
X138755476Y-87978095D01*
X138660238Y-87930476D01*
X138565000Y-87835238D01*
X138517380Y-87692380D01*
X138517380Y-87597142D01*
X138565000Y-87454285D01*
X138612619Y-87406666D01*
X138517380Y-86501904D02*
X138517380Y-86978095D01*
X138993571Y-87025714D01*
X138945952Y-86978095D01*
X138898333Y-86882857D01*
X138898333Y-86644761D01*
X138945952Y-86549523D01*
X138993571Y-86501904D01*
X139088809Y-86454285D01*
X139326904Y-86454285D01*
X139422142Y-86501904D01*
X139469761Y-86549523D01*
X139517380Y-86644761D01*
X139517380Y-86882857D01*
X139469761Y-86978095D01*
X139422142Y-87025714D01*
X91257380Y-93448095D02*
X90257380Y-93448095D01*
X90257380Y-93210000D01*
X90305000Y-93067142D01*
X90400238Y-92971904D01*
X90495476Y-92924285D01*
X90685952Y-92876666D01*
X90828809Y-92876666D01*
X91019285Y-92924285D01*
X91114523Y-92971904D01*
X91209761Y-93067142D01*
X91257380Y-93210000D01*
X91257380Y-93448095D01*
X90257380Y-92543333D02*
X90257380Y-91924285D01*
X90638333Y-92257619D01*
X90638333Y-92114761D01*
X90685952Y-92019523D01*
X90733571Y-91971904D01*
X90828809Y-91924285D01*
X91066904Y-91924285D01*
X91162142Y-91971904D01*
X91209761Y-92019523D01*
X91257380Y-92114761D01*
X91257380Y-92400476D01*
X91209761Y-92495714D01*
X91162142Y-92543333D01*
X142700476Y-97242380D02*
X143367142Y-98242380D01*
X143367142Y-97242380D02*
X142700476Y-98242380D01*
X143700476Y-97337619D02*
X143748095Y-97290000D01*
X143843333Y-97242380D01*
X144081428Y-97242380D01*
X144176666Y-97290000D01*
X144224285Y-97337619D01*
X144271904Y-97432857D01*
X144271904Y-97528095D01*
X144224285Y-97670952D01*
X143652857Y-98242380D01*
X144271904Y-98242380D01*
X96980476Y-97242380D02*
X97647142Y-98242380D01*
X97647142Y-97242380D02*
X96980476Y-98242380D01*
X98551904Y-98242380D02*
X97980476Y-98242380D01*
X98266190Y-98242380D02*
X98266190Y-97242380D01*
X98170952Y-97385238D01*
X98075714Y-97480476D01*
X97980476Y-97528095D01*
X151019642Y-70651666D02*
X151067261Y-70699285D01*
X151114880Y-70842142D01*
X151114880Y-70937380D01*
X151067261Y-71080238D01*
X150972023Y-71175476D01*
X150876785Y-71223095D01*
X150686309Y-71270714D01*
X150543452Y-71270714D01*
X150352976Y-71223095D01*
X150257738Y-71175476D01*
X150162500Y-71080238D01*
X150114880Y-70937380D01*
X150114880Y-70842142D01*
X150162500Y-70699285D01*
X150210119Y-70651666D01*
X150448214Y-69794523D02*
X151114880Y-69794523D01*
X150067261Y-70032619D02*
X150781547Y-70270714D01*
X150781547Y-69651666D01*
X157369642Y-70651666D02*
X157417261Y-70699285D01*
X157464880Y-70842142D01*
X157464880Y-70937380D01*
X157417261Y-71080238D01*
X157322023Y-71175476D01*
X157226785Y-71223095D01*
X157036309Y-71270714D01*
X156893452Y-71270714D01*
X156702976Y-71223095D01*
X156607738Y-71175476D01*
X156512500Y-71080238D01*
X156464880Y-70937380D01*
X156464880Y-70842142D01*
X156512500Y-70699285D01*
X156560119Y-70651666D01*
X156464880Y-70318333D02*
X156464880Y-69699285D01*
X156845833Y-70032619D01*
X156845833Y-69889761D01*
X156893452Y-69794523D01*
X156941071Y-69746904D01*
X157036309Y-69699285D01*
X157274404Y-69699285D01*
X157369642Y-69746904D01*
X157417261Y-69794523D01*
X157464880Y-69889761D01*
X157464880Y-70175476D01*
X157417261Y-70270714D01*
X157369642Y-70318333D01*
X148067142Y-66841666D02*
X148114761Y-66889285D01*
X148162380Y-67032142D01*
X148162380Y-67127380D01*
X148114761Y-67270238D01*
X148019523Y-67365476D01*
X147924285Y-67413095D01*
X147733809Y-67460714D01*
X147590952Y-67460714D01*
X147400476Y-67413095D01*
X147305238Y-67365476D01*
X147210000Y-67270238D01*
X147162380Y-67127380D01*
X147162380Y-67032142D01*
X147210000Y-66889285D01*
X147257619Y-66841666D01*
X147590952Y-66270238D02*
X147543333Y-66365476D01*
X147495714Y-66413095D01*
X147400476Y-66460714D01*
X147352857Y-66460714D01*
X147257619Y-66413095D01*
X147210000Y-66365476D01*
X147162380Y-66270238D01*
X147162380Y-66079761D01*
X147210000Y-65984523D01*
X147257619Y-65936904D01*
X147352857Y-65889285D01*
X147400476Y-65889285D01*
X147495714Y-65936904D01*
X147543333Y-65984523D01*
X147590952Y-66079761D01*
X147590952Y-66270238D01*
X147638571Y-66365476D01*
X147686190Y-66413095D01*
X147781428Y-66460714D01*
X147971904Y-66460714D01*
X148067142Y-66413095D01*
X148114761Y-66365476D01*
X148162380Y-66270238D01*
X148162380Y-66079761D01*
X148114761Y-65984523D01*
X148067142Y-65936904D01*
X147971904Y-65889285D01*
X147781428Y-65889285D01*
X147686190Y-65936904D01*
X147638571Y-65984523D01*
X147590952Y-66079761D01*
X179049761Y-72323333D02*
X179097380Y-72180476D01*
X179097380Y-71942380D01*
X179049761Y-71847142D01*
X179002142Y-71799523D01*
X178906904Y-71751904D01*
X178811666Y-71751904D01*
X178716428Y-71799523D01*
X178668809Y-71847142D01*
X178621190Y-71942380D01*
X178573571Y-72132857D01*
X178525952Y-72228095D01*
X178478333Y-72275714D01*
X178383095Y-72323333D01*
X178287857Y-72323333D01*
X178192619Y-72275714D01*
X178145000Y-72228095D01*
X178097380Y-72132857D01*
X178097380Y-71894761D01*
X178145000Y-71751904D01*
X178097380Y-71418571D02*
X179097380Y-71180476D01*
X178383095Y-70990000D01*
X179097380Y-70799523D01*
X178097380Y-70561428D01*
X178192619Y-70228095D02*
X178145000Y-70180476D01*
X178097380Y-70085238D01*
X178097380Y-69847142D01*
X178145000Y-69751904D01*
X178192619Y-69704285D01*
X178287857Y-69656666D01*
X178383095Y-69656666D01*
X178525952Y-69704285D01*
X179097380Y-70275714D01*
X179097380Y-69656666D01*
X160377142Y-66841666D02*
X160424761Y-66889285D01*
X160472380Y-67032142D01*
X160472380Y-67127380D01*
X160424761Y-67270238D01*
X160329523Y-67365476D01*
X160234285Y-67413095D01*
X160043809Y-67460714D01*
X159900952Y-67460714D01*
X159710476Y-67413095D01*
X159615238Y-67365476D01*
X159520000Y-67270238D01*
X159472380Y-67127380D01*
X159472380Y-67032142D01*
X159520000Y-66889285D01*
X159567619Y-66841666D01*
X160472380Y-65889285D02*
X160472380Y-66460714D01*
X160472380Y-66175000D02*
X159472380Y-66175000D01*
X159615238Y-66270238D01*
X159710476Y-66365476D01*
X159758095Y-66460714D01*
X154417142Y-66841666D02*
X154464761Y-66889285D01*
X154512380Y-67032142D01*
X154512380Y-67127380D01*
X154464761Y-67270238D01*
X154369523Y-67365476D01*
X154274285Y-67413095D01*
X154083809Y-67460714D01*
X153940952Y-67460714D01*
X153750476Y-67413095D01*
X153655238Y-67365476D01*
X153560000Y-67270238D01*
X153512380Y-67127380D01*
X153512380Y-67032142D01*
X153560000Y-66889285D01*
X153607619Y-66841666D01*
X153607619Y-66460714D02*
X153560000Y-66413095D01*
X153512380Y-66317857D01*
X153512380Y-66079761D01*
X153560000Y-65984523D01*
X153607619Y-65936904D01*
X153702857Y-65889285D01*
X153798095Y-65889285D01*
X153940952Y-65936904D01*
X154512380Y-66508333D01*
X154512380Y-65889285D01*
X139422142Y-94781666D02*
X139469761Y-94829285D01*
X139517380Y-94972142D01*
X139517380Y-95067380D01*
X139469761Y-95210238D01*
X139374523Y-95305476D01*
X139279285Y-95353095D01*
X139088809Y-95400714D01*
X138945952Y-95400714D01*
X138755476Y-95353095D01*
X138660238Y-95305476D01*
X138565000Y-95210238D01*
X138517380Y-95067380D01*
X138517380Y-94972142D01*
X138565000Y-94829285D01*
X138612619Y-94781666D01*
X138517380Y-93924523D02*
X138517380Y-94115000D01*
X138565000Y-94210238D01*
X138612619Y-94257857D01*
X138755476Y-94353095D01*
X138945952Y-94400714D01*
X139326904Y-94400714D01*
X139422142Y-94353095D01*
X139469761Y-94305476D01*
X139517380Y-94210238D01*
X139517380Y-94019761D01*
X139469761Y-93924523D01*
X139422142Y-93876904D01*
X139326904Y-93829285D01*
X139088809Y-93829285D01*
X138993571Y-93876904D01*
X138945952Y-93924523D01*
X138898333Y-94019761D01*
X138898333Y-94210238D01*
X138945952Y-94305476D01*
X138993571Y-94353095D01*
X139088809Y-94400714D01*
X126706649Y-92132648D02*
X126639306Y-92132648D01*
X126504619Y-92065304D01*
X126437275Y-91997961D01*
X126369932Y-91863273D01*
X126369932Y-91728586D01*
X126403603Y-91627571D01*
X126504619Y-91459212D01*
X126605634Y-91358197D01*
X126773993Y-91257182D01*
X126875008Y-91223510D01*
X127009695Y-91223510D01*
X127144382Y-91290854D01*
X127211726Y-91358197D01*
X127279069Y-91492884D01*
X127279069Y-91560228D01*
X127582115Y-91728586D02*
X128053519Y-92199991D01*
X127043367Y-92604052D01*
X166822380Y-62968095D02*
X165822380Y-62968095D01*
X165822380Y-62730000D01*
X165870000Y-62587142D01*
X165965238Y-62491904D01*
X166060476Y-62444285D01*
X166250952Y-62396666D01*
X166393809Y-62396666D01*
X166584285Y-62444285D01*
X166679523Y-62491904D01*
X166774761Y-62587142D01*
X166822380Y-62730000D01*
X166822380Y-62968095D01*
X166822380Y-61444285D02*
X166822380Y-62015714D01*
X166822380Y-61730000D02*
X165822380Y-61730000D01*
X165965238Y-61825238D01*
X166060476Y-61920476D01*
X166108095Y-62015714D01*
X91257380Y-86463095D02*
X90257380Y-86463095D01*
X90257380Y-86225000D01*
X90305000Y-86082142D01*
X90400238Y-85986904D01*
X90495476Y-85939285D01*
X90685952Y-85891666D01*
X90828809Y-85891666D01*
X91019285Y-85939285D01*
X91114523Y-85986904D01*
X91209761Y-86082142D01*
X91257380Y-86225000D01*
X91257380Y-86463095D01*
X90352619Y-85510714D02*
X90305000Y-85463095D01*
X90257380Y-85367857D01*
X90257380Y-85129761D01*
X90305000Y-85034523D01*
X90352619Y-84986904D01*
X90447857Y-84939285D01*
X90543095Y-84939285D01*
X90685952Y-84986904D01*
X91257380Y-85558333D01*
X91257380Y-84939285D01*
X178736666Y-59777380D02*
X178736666Y-60491666D01*
X178689047Y-60634523D01*
X178593809Y-60729761D01*
X178450952Y-60777380D01*
X178355714Y-60777380D01*
X179736666Y-60777380D02*
X179165238Y-60777380D01*
X179450952Y-60777380D02*
X179450952Y-59777380D01*
X179355714Y-59920238D01*
X179260476Y-60015476D01*
X179165238Y-60063095D01*
X149947380Y-79708333D02*
X150661666Y-79708333D01*
X150804523Y-79755952D01*
X150899761Y-79851190D01*
X150947380Y-79994047D01*
X150947380Y-80089285D01*
X149947380Y-79327380D02*
X149947380Y-78708333D01*
X150328333Y-79041666D01*
X150328333Y-78898809D01*
X150375952Y-78803571D01*
X150423571Y-78755952D01*
X150518809Y-78708333D01*
X150756904Y-78708333D01*
X150852142Y-78755952D01*
X150899761Y-78803571D01*
X150947380Y-78898809D01*
X150947380Y-79184523D01*
X150899761Y-79279761D01*
X150852142Y-79327380D01*
D17*
X139192000Y-65205428D02*
X139192000Y-66294000D01*
X139119428Y-66511714D01*
X138974285Y-66656857D01*
X138756571Y-66729428D01*
X138611428Y-66729428D01*
X140570857Y-65713428D02*
X140570857Y-66729428D01*
X140208000Y-65132857D02*
X139845142Y-66221428D01*
X140788571Y-66221428D01*
D15*
X144852380Y-89066666D02*
X144376190Y-89400000D01*
X144852380Y-89638095D02*
X143852380Y-89638095D01*
X143852380Y-89257142D01*
X143900000Y-89161904D01*
X143947619Y-89114285D01*
X144042857Y-89066666D01*
X144185714Y-89066666D01*
X144280952Y-89114285D01*
X144328571Y-89161904D01*
X144376190Y-89257142D01*
X144376190Y-89638095D01*
X144852380Y-88114285D02*
X144852380Y-88685714D01*
X144852380Y-88400000D02*
X143852380Y-88400000D01*
X143995238Y-88495238D01*
X144090476Y-88590476D01*
X144138095Y-88685714D01*
X99767380Y-92241666D02*
X99291190Y-92575000D01*
X99767380Y-92813095D02*
X98767380Y-92813095D01*
X98767380Y-92432142D01*
X98815000Y-92336904D01*
X98862619Y-92289285D01*
X98957857Y-92241666D01*
X99100714Y-92241666D01*
X99195952Y-92289285D01*
X99243571Y-92336904D01*
X99291190Y-92432142D01*
X99291190Y-92813095D01*
X98862619Y-91860714D02*
X98815000Y-91813095D01*
X98767380Y-91717857D01*
X98767380Y-91479761D01*
X98815000Y-91384523D01*
X98862619Y-91336904D01*
X98957857Y-91289285D01*
X99053095Y-91289285D01*
X99195952Y-91336904D01*
X99767380Y-91908333D01*
X99767380Y-91289285D01*
X142692380Y-73826666D02*
X142216190Y-74160000D01*
X142692380Y-74398095D02*
X141692380Y-74398095D01*
X141692380Y-74017142D01*
X141740000Y-73921904D01*
X141787619Y-73874285D01*
X141882857Y-73826666D01*
X142025714Y-73826666D01*
X142120952Y-73874285D01*
X142168571Y-73921904D01*
X142216190Y-74017142D01*
X142216190Y-74398095D01*
X141692380Y-73493333D02*
X141692380Y-72874285D01*
X142073333Y-73207619D01*
X142073333Y-73064761D01*
X142120952Y-72969523D01*
X142168571Y-72921904D01*
X142263809Y-72874285D01*
X142501904Y-72874285D01*
X142597142Y-72921904D01*
X142644761Y-72969523D01*
X142692380Y-73064761D01*
X142692380Y-73350476D01*
X142644761Y-73445714D01*
X142597142Y-73493333D01*
X91273333Y-77922380D02*
X90940000Y-77446190D01*
X90701904Y-77922380D02*
X90701904Y-76922380D01*
X91082857Y-76922380D01*
X91178095Y-76970000D01*
X91225714Y-77017619D01*
X91273333Y-77112857D01*
X91273333Y-77255714D01*
X91225714Y-77350952D01*
X91178095Y-77398571D01*
X91082857Y-77446190D01*
X90701904Y-77446190D01*
X92130476Y-77255714D02*
X92130476Y-77922380D01*
X91892380Y-76874761D02*
X91654285Y-77589047D01*
X92273333Y-77589047D01*
X99512380Y-85891666D02*
X99036190Y-86225000D01*
X99512380Y-86463095D02*
X98512380Y-86463095D01*
X98512380Y-86082142D01*
X98560000Y-85986904D01*
X98607619Y-85939285D01*
X98702857Y-85891666D01*
X98845714Y-85891666D01*
X98940952Y-85939285D01*
X98988571Y-85986904D01*
X99036190Y-86082142D01*
X99036190Y-86463095D01*
X98512380Y-84986904D02*
X98512380Y-85463095D01*
X98988571Y-85510714D01*
X98940952Y-85463095D01*
X98893333Y-85367857D01*
X98893333Y-85129761D01*
X98940952Y-85034523D01*
X98988571Y-84986904D01*
X99083809Y-84939285D01*
X99321904Y-84939285D01*
X99417142Y-84986904D01*
X99464761Y-85034523D01*
X99512380Y-85129761D01*
X99512380Y-85367857D01*
X99464761Y-85463095D01*
X99417142Y-85510714D01*
X142708333Y-77922380D02*
X142375000Y-77446190D01*
X142136904Y-77922380D02*
X142136904Y-76922380D01*
X142517857Y-76922380D01*
X142613095Y-76970000D01*
X142660714Y-77017619D01*
X142708333Y-77112857D01*
X142708333Y-77255714D01*
X142660714Y-77350952D01*
X142613095Y-77398571D01*
X142517857Y-77446190D01*
X142136904Y-77446190D01*
X143565476Y-76922380D02*
X143375000Y-76922380D01*
X143279761Y-76970000D01*
X143232142Y-77017619D01*
X143136904Y-77160476D01*
X143089285Y-77350952D01*
X143089285Y-77731904D01*
X143136904Y-77827142D01*
X143184523Y-77874761D01*
X143279761Y-77922380D01*
X143470238Y-77922380D01*
X143565476Y-77874761D01*
X143613095Y-77827142D01*
X143660714Y-77731904D01*
X143660714Y-77493809D01*
X143613095Y-77398571D01*
X143565476Y-77350952D01*
X143470238Y-77303333D01*
X143279761Y-77303333D01*
X143184523Y-77350952D01*
X143136904Y-77398571D01*
X143089285Y-77493809D01*
X139533333Y-77922380D02*
X139200000Y-77446190D01*
X138961904Y-77922380D02*
X138961904Y-76922380D01*
X139342857Y-76922380D01*
X139438095Y-76970000D01*
X139485714Y-77017619D01*
X139533333Y-77112857D01*
X139533333Y-77255714D01*
X139485714Y-77350952D01*
X139438095Y-77398571D01*
X139342857Y-77446190D01*
X138961904Y-77446190D01*
X139866666Y-76922380D02*
X140533333Y-76922380D01*
X140104761Y-77922380D01*
X136358333Y-77922380D02*
X136025000Y-77446190D01*
X135786904Y-77922380D02*
X135786904Y-76922380D01*
X136167857Y-76922380D01*
X136263095Y-76970000D01*
X136310714Y-77017619D01*
X136358333Y-77112857D01*
X136358333Y-77255714D01*
X136310714Y-77350952D01*
X136263095Y-77398571D01*
X136167857Y-77446190D01*
X135786904Y-77446190D01*
X136929761Y-77350952D02*
X136834523Y-77303333D01*
X136786904Y-77255714D01*
X136739285Y-77160476D01*
X136739285Y-77112857D01*
X136786904Y-77017619D01*
X136834523Y-76970000D01*
X136929761Y-76922380D01*
X137120238Y-76922380D01*
X137215476Y-76970000D01*
X137263095Y-77017619D01*
X137310714Y-77112857D01*
X137310714Y-77160476D01*
X137263095Y-77255714D01*
X137215476Y-77303333D01*
X137120238Y-77350952D01*
X136929761Y-77350952D01*
X136834523Y-77398571D01*
X136786904Y-77446190D01*
X136739285Y-77541428D01*
X136739285Y-77731904D01*
X136786904Y-77827142D01*
X136834523Y-77874761D01*
X136929761Y-77922380D01*
X137120238Y-77922380D01*
X137215476Y-77874761D01*
X137263095Y-77827142D01*
X137310714Y-77731904D01*
X137310714Y-77541428D01*
X137263095Y-77446190D01*
X137215476Y-77398571D01*
X137120238Y-77350952D01*
X130008333Y-77922380D02*
X129675000Y-77446190D01*
X129436904Y-77922380D02*
X129436904Y-76922380D01*
X129817857Y-76922380D01*
X129913095Y-76970000D01*
X129960714Y-77017619D01*
X130008333Y-77112857D01*
X130008333Y-77255714D01*
X129960714Y-77350952D01*
X129913095Y-77398571D01*
X129817857Y-77446190D01*
X129436904Y-77446190D01*
X130484523Y-77922380D02*
X130675000Y-77922380D01*
X130770238Y-77874761D01*
X130817857Y-77827142D01*
X130913095Y-77684285D01*
X130960714Y-77493809D01*
X130960714Y-77112857D01*
X130913095Y-77017619D01*
X130865476Y-76970000D01*
X130770238Y-76922380D01*
X130579761Y-76922380D01*
X130484523Y-76970000D01*
X130436904Y-77017619D01*
X130389285Y-77112857D01*
X130389285Y-77350952D01*
X130436904Y-77446190D01*
X130484523Y-77493809D01*
X130579761Y-77541428D01*
X130770238Y-77541428D01*
X130865476Y-77493809D01*
X130913095Y-77446190D01*
X130960714Y-77350952D01*
X106672142Y-77922380D02*
X106338809Y-77446190D01*
X106100714Y-77922380D02*
X106100714Y-76922380D01*
X106481666Y-76922380D01*
X106576904Y-76970000D01*
X106624523Y-77017619D01*
X106672142Y-77112857D01*
X106672142Y-77255714D01*
X106624523Y-77350952D01*
X106576904Y-77398571D01*
X106481666Y-77446190D01*
X106100714Y-77446190D01*
X107624523Y-77922380D02*
X107053095Y-77922380D01*
X107338809Y-77922380D02*
X107338809Y-76922380D01*
X107243571Y-77065238D01*
X107148333Y-77160476D01*
X107053095Y-77208095D01*
X108243571Y-76922380D02*
X108338809Y-76922380D01*
X108434047Y-76970000D01*
X108481666Y-77017619D01*
X108529285Y-77112857D01*
X108576904Y-77303333D01*
X108576904Y-77541428D01*
X108529285Y-77731904D01*
X108481666Y-77827142D01*
X108434047Y-77874761D01*
X108338809Y-77922380D01*
X108243571Y-77922380D01*
X108148333Y-77874761D01*
X108100714Y-77827142D01*
X108053095Y-77731904D01*
X108005476Y-77541428D01*
X108005476Y-77303333D01*
X108053095Y-77112857D01*
X108100714Y-77017619D01*
X108148333Y-76970000D01*
X108243571Y-76922380D01*
X103497142Y-77922380D02*
X103163809Y-77446190D01*
X102925714Y-77922380D02*
X102925714Y-76922380D01*
X103306666Y-76922380D01*
X103401904Y-76970000D01*
X103449523Y-77017619D01*
X103497142Y-77112857D01*
X103497142Y-77255714D01*
X103449523Y-77350952D01*
X103401904Y-77398571D01*
X103306666Y-77446190D01*
X102925714Y-77446190D01*
X104449523Y-77922380D02*
X103878095Y-77922380D01*
X104163809Y-77922380D02*
X104163809Y-76922380D01*
X104068571Y-77065238D01*
X103973333Y-77160476D01*
X103878095Y-77208095D01*
X105401904Y-77922380D02*
X104830476Y-77922380D01*
X105116190Y-77922380D02*
X105116190Y-76922380D01*
X105020952Y-77065238D01*
X104925714Y-77160476D01*
X104830476Y-77208095D01*
X97147142Y-77922380D02*
X96813809Y-77446190D01*
X96575714Y-77922380D02*
X96575714Y-76922380D01*
X96956666Y-76922380D01*
X97051904Y-76970000D01*
X97099523Y-77017619D01*
X97147142Y-77112857D01*
X97147142Y-77255714D01*
X97099523Y-77350952D01*
X97051904Y-77398571D01*
X96956666Y-77446190D01*
X96575714Y-77446190D01*
X98099523Y-77922380D02*
X97528095Y-77922380D01*
X97813809Y-77922380D02*
X97813809Y-76922380D01*
X97718571Y-77065238D01*
X97623333Y-77160476D01*
X97528095Y-77208095D01*
X98480476Y-77017619D02*
X98528095Y-76970000D01*
X98623333Y-76922380D01*
X98861428Y-76922380D01*
X98956666Y-76970000D01*
X99004285Y-77017619D01*
X99051904Y-77112857D01*
X99051904Y-77208095D01*
X99004285Y-77350952D01*
X98432857Y-77922380D01*
X99051904Y-77922380D01*
X93972142Y-77922380D02*
X93638809Y-77446190D01*
X93400714Y-77922380D02*
X93400714Y-76922380D01*
X93781666Y-76922380D01*
X93876904Y-76970000D01*
X93924523Y-77017619D01*
X93972142Y-77112857D01*
X93972142Y-77255714D01*
X93924523Y-77350952D01*
X93876904Y-77398571D01*
X93781666Y-77446190D01*
X93400714Y-77446190D01*
X94924523Y-77922380D02*
X94353095Y-77922380D01*
X94638809Y-77922380D02*
X94638809Y-76922380D01*
X94543571Y-77065238D01*
X94448333Y-77160476D01*
X94353095Y-77208095D01*
X95257857Y-76922380D02*
X95876904Y-76922380D01*
X95543571Y-77303333D01*
X95686428Y-77303333D01*
X95781666Y-77350952D01*
X95829285Y-77398571D01*
X95876904Y-77493809D01*
X95876904Y-77731904D01*
X95829285Y-77827142D01*
X95781666Y-77874761D01*
X95686428Y-77922380D01*
X95400714Y-77922380D01*
X95305476Y-77874761D01*
X95257857Y-77827142D01*
X145407142Y-77922380D02*
X145073809Y-77446190D01*
X144835714Y-77922380D02*
X144835714Y-76922380D01*
X145216666Y-76922380D01*
X145311904Y-76970000D01*
X145359523Y-77017619D01*
X145407142Y-77112857D01*
X145407142Y-77255714D01*
X145359523Y-77350952D01*
X145311904Y-77398571D01*
X145216666Y-77446190D01*
X144835714Y-77446190D01*
X146359523Y-77922380D02*
X145788095Y-77922380D01*
X146073809Y-77922380D02*
X146073809Y-76922380D01*
X145978571Y-77065238D01*
X145883333Y-77160476D01*
X145788095Y-77208095D01*
X147216666Y-77255714D02*
X147216666Y-77922380D01*
X146978571Y-76874761D02*
X146740476Y-77589047D01*
X147359523Y-77589047D01*
X132707142Y-77922380D02*
X132373809Y-77446190D01*
X132135714Y-77922380D02*
X132135714Y-76922380D01*
X132516666Y-76922380D01*
X132611904Y-76970000D01*
X132659523Y-77017619D01*
X132707142Y-77112857D01*
X132707142Y-77255714D01*
X132659523Y-77350952D01*
X132611904Y-77398571D01*
X132516666Y-77446190D01*
X132135714Y-77446190D01*
X133659523Y-77922380D02*
X133088095Y-77922380D01*
X133373809Y-77922380D02*
X133373809Y-76922380D01*
X133278571Y-77065238D01*
X133183333Y-77160476D01*
X133088095Y-77208095D01*
X134564285Y-76922380D02*
X134088095Y-76922380D01*
X134040476Y-77398571D01*
X134088095Y-77350952D01*
X134183333Y-77303333D01*
X134421428Y-77303333D01*
X134516666Y-77350952D01*
X134564285Y-77398571D01*
X134611904Y-77493809D01*
X134611904Y-77731904D01*
X134564285Y-77827142D01*
X134516666Y-77874761D01*
X134421428Y-77922380D01*
X134183333Y-77922380D01*
X134088095Y-77874761D01*
X134040476Y-77827142D01*
X100322142Y-77922380D02*
X99988809Y-77446190D01*
X99750714Y-77922380D02*
X99750714Y-76922380D01*
X100131666Y-76922380D01*
X100226904Y-76970000D01*
X100274523Y-77017619D01*
X100322142Y-77112857D01*
X100322142Y-77255714D01*
X100274523Y-77350952D01*
X100226904Y-77398571D01*
X100131666Y-77446190D01*
X99750714Y-77446190D01*
X101274523Y-77922380D02*
X100703095Y-77922380D01*
X100988809Y-77922380D02*
X100988809Y-76922380D01*
X100893571Y-77065238D01*
X100798333Y-77160476D01*
X100703095Y-77208095D01*
X102131666Y-76922380D02*
X101941190Y-76922380D01*
X101845952Y-76970000D01*
X101798333Y-77017619D01*
X101703095Y-77160476D01*
X101655476Y-77350952D01*
X101655476Y-77731904D01*
X101703095Y-77827142D01*
X101750714Y-77874761D01*
X101845952Y-77922380D01*
X102036428Y-77922380D01*
X102131666Y-77874761D01*
X102179285Y-77827142D01*
X102226904Y-77731904D01*
X102226904Y-77493809D01*
X102179285Y-77398571D01*
X102131666Y-77350952D01*
X102036428Y-77303333D01*
X101845952Y-77303333D01*
X101750714Y-77350952D01*
X101703095Y-77398571D01*
X101655476Y-77493809D01*
X161527142Y-83637380D02*
X161193809Y-83161190D01*
X160955714Y-83637380D02*
X160955714Y-82637380D01*
X161336666Y-82637380D01*
X161431904Y-82685000D01*
X161479523Y-82732619D01*
X161527142Y-82827857D01*
X161527142Y-82970714D01*
X161479523Y-83065952D01*
X161431904Y-83113571D01*
X161336666Y-83161190D01*
X160955714Y-83161190D01*
X162479523Y-83637380D02*
X161908095Y-83637380D01*
X162193809Y-83637380D02*
X162193809Y-82637380D01*
X162098571Y-82780238D01*
X162003333Y-82875476D01*
X161908095Y-82923095D01*
X162812857Y-82637380D02*
X163479523Y-82637380D01*
X163050952Y-83637380D01*
X161527142Y-78557380D02*
X161193809Y-78081190D01*
X160955714Y-78557380D02*
X160955714Y-77557380D01*
X161336666Y-77557380D01*
X161431904Y-77605000D01*
X161479523Y-77652619D01*
X161527142Y-77747857D01*
X161527142Y-77890714D01*
X161479523Y-77985952D01*
X161431904Y-78033571D01*
X161336666Y-78081190D01*
X160955714Y-78081190D01*
X162479523Y-78557380D02*
X161908095Y-78557380D01*
X162193809Y-78557380D02*
X162193809Y-77557380D01*
X162098571Y-77700238D01*
X162003333Y-77795476D01*
X161908095Y-77843095D01*
X163050952Y-77985952D02*
X162955714Y-77938333D01*
X162908095Y-77890714D01*
X162860476Y-77795476D01*
X162860476Y-77747857D01*
X162908095Y-77652619D01*
X162955714Y-77605000D01*
X163050952Y-77557380D01*
X163241428Y-77557380D01*
X163336666Y-77605000D01*
X163384285Y-77652619D01*
X163431904Y-77747857D01*
X163431904Y-77795476D01*
X163384285Y-77890714D01*
X163336666Y-77938333D01*
X163241428Y-77985952D01*
X163050952Y-77985952D01*
X162955714Y-78033571D01*
X162908095Y-78081190D01*
X162860476Y-78176428D01*
X162860476Y-78366904D01*
X162908095Y-78462142D01*
X162955714Y-78509761D01*
X163050952Y-78557380D01*
X163241428Y-78557380D01*
X163336666Y-78509761D01*
X163384285Y-78462142D01*
X163431904Y-78366904D01*
X163431904Y-78176428D01*
X163384285Y-78081190D01*
X163336666Y-78033571D01*
X163241428Y-77985952D01*
X161772142Y-88717380D02*
X161438809Y-88241190D01*
X161200714Y-88717380D02*
X161200714Y-87717380D01*
X161581666Y-87717380D01*
X161676904Y-87765000D01*
X161724523Y-87812619D01*
X161772142Y-87907857D01*
X161772142Y-88050714D01*
X161724523Y-88145952D01*
X161676904Y-88193571D01*
X161581666Y-88241190D01*
X161200714Y-88241190D01*
X162724523Y-88717380D02*
X162153095Y-88717380D01*
X162438809Y-88717380D02*
X162438809Y-87717380D01*
X162343571Y-87860238D01*
X162248333Y-87955476D01*
X162153095Y-88003095D01*
X163200714Y-88717380D02*
X163391190Y-88717380D01*
X163486428Y-88669761D01*
X163534047Y-88622142D01*
X163629285Y-88479285D01*
X163676904Y-88288809D01*
X163676904Y-87907857D01*
X163629285Y-87812619D01*
X163581666Y-87765000D01*
X163486428Y-87717380D01*
X163295952Y-87717380D01*
X163200714Y-87765000D01*
X163153095Y-87812619D01*
X163105476Y-87907857D01*
X163105476Y-88145952D01*
X163153095Y-88241190D01*
X163200714Y-88288809D01*
X163295952Y-88336428D01*
X163486428Y-88336428D01*
X163581666Y-88288809D01*
X163629285Y-88241190D01*
X163676904Y-88145952D01*
X161527142Y-81097380D02*
X161193809Y-80621190D01*
X160955714Y-81097380D02*
X160955714Y-80097380D01*
X161336666Y-80097380D01*
X161431904Y-80145000D01*
X161479523Y-80192619D01*
X161527142Y-80287857D01*
X161527142Y-80430714D01*
X161479523Y-80525952D01*
X161431904Y-80573571D01*
X161336666Y-80621190D01*
X160955714Y-80621190D01*
X161908095Y-80192619D02*
X161955714Y-80145000D01*
X162050952Y-80097380D01*
X162289047Y-80097380D01*
X162384285Y-80145000D01*
X162431904Y-80192619D01*
X162479523Y-80287857D01*
X162479523Y-80383095D01*
X162431904Y-80525952D01*
X161860476Y-81097380D01*
X162479523Y-81097380D01*
X163098571Y-80097380D02*
X163193809Y-80097380D01*
X163289047Y-80145000D01*
X163336666Y-80192619D01*
X163384285Y-80287857D01*
X163431904Y-80478333D01*
X163431904Y-80716428D01*
X163384285Y-80906904D01*
X163336666Y-81002142D01*
X163289047Y-81049761D01*
X163193809Y-81097380D01*
X163098571Y-81097380D01*
X163003333Y-81049761D01*
X162955714Y-81002142D01*
X162908095Y-80906904D01*
X162860476Y-80716428D01*
X162860476Y-80478333D01*
X162908095Y-80287857D01*
X162955714Y-80192619D01*
X163003333Y-80145000D01*
X163098571Y-80097380D01*
X161527142Y-86177380D02*
X161193809Y-85701190D01*
X160955714Y-86177380D02*
X160955714Y-85177380D01*
X161336666Y-85177380D01*
X161431904Y-85225000D01*
X161479523Y-85272619D01*
X161527142Y-85367857D01*
X161527142Y-85510714D01*
X161479523Y-85605952D01*
X161431904Y-85653571D01*
X161336666Y-85701190D01*
X160955714Y-85701190D01*
X161908095Y-85272619D02*
X161955714Y-85225000D01*
X162050952Y-85177380D01*
X162289047Y-85177380D01*
X162384285Y-85225000D01*
X162431904Y-85272619D01*
X162479523Y-85367857D01*
X162479523Y-85463095D01*
X162431904Y-85605952D01*
X161860476Y-86177380D01*
X162479523Y-86177380D01*
X163431904Y-86177380D02*
X162860476Y-86177380D01*
X163146190Y-86177380D02*
X163146190Y-85177380D01*
X163050952Y-85320238D01*
X162955714Y-85415476D01*
X162860476Y-85463095D01*
X161772142Y-91257380D02*
X161438809Y-90781190D01*
X161200714Y-91257380D02*
X161200714Y-90257380D01*
X161581666Y-90257380D01*
X161676904Y-90305000D01*
X161724523Y-90352619D01*
X161772142Y-90447857D01*
X161772142Y-90590714D01*
X161724523Y-90685952D01*
X161676904Y-90733571D01*
X161581666Y-90781190D01*
X161200714Y-90781190D01*
X162153095Y-90352619D02*
X162200714Y-90305000D01*
X162295952Y-90257380D01*
X162534047Y-90257380D01*
X162629285Y-90305000D01*
X162676904Y-90352619D01*
X162724523Y-90447857D01*
X162724523Y-90543095D01*
X162676904Y-90685952D01*
X162105476Y-91257380D01*
X162724523Y-91257380D01*
X163105476Y-90352619D02*
X163153095Y-90305000D01*
X163248333Y-90257380D01*
X163486428Y-90257380D01*
X163581666Y-90305000D01*
X163629285Y-90352619D01*
X163676904Y-90447857D01*
X163676904Y-90543095D01*
X163629285Y-90685952D01*
X163057857Y-91257380D01*
X163676904Y-91257380D01*
X146757380Y-74302857D02*
X146281190Y-74636190D01*
X146757380Y-74874285D02*
X145757380Y-74874285D01*
X145757380Y-74493333D01*
X145805000Y-74398095D01*
X145852619Y-74350476D01*
X145947857Y-74302857D01*
X146090714Y-74302857D01*
X146185952Y-74350476D01*
X146233571Y-74398095D01*
X146281190Y-74493333D01*
X146281190Y-74874285D01*
X145852619Y-73921904D02*
X145805000Y-73874285D01*
X145757380Y-73779047D01*
X145757380Y-73540952D01*
X145805000Y-73445714D01*
X145852619Y-73398095D01*
X145947857Y-73350476D01*
X146043095Y-73350476D01*
X146185952Y-73398095D01*
X146757380Y-73969523D01*
X146757380Y-73350476D01*
X145757380Y-73017142D02*
X145757380Y-72398095D01*
X146138333Y-72731428D01*
X146138333Y-72588571D01*
X146185952Y-72493333D01*
X146233571Y-72445714D01*
X146328809Y-72398095D01*
X146566904Y-72398095D01*
X146662142Y-72445714D01*
X146709761Y-72493333D01*
X146757380Y-72588571D01*
X146757380Y-72874285D01*
X146709761Y-72969523D01*
X146662142Y-73017142D01*
X149629761Y-90233333D02*
X149677380Y-90090476D01*
X149677380Y-89852380D01*
X149629761Y-89757142D01*
X149582142Y-89709523D01*
X149486904Y-89661904D01*
X149391666Y-89661904D01*
X149296428Y-89709523D01*
X149248809Y-89757142D01*
X149201190Y-89852380D01*
X149153571Y-90042857D01*
X149105952Y-90138095D01*
X149058333Y-90185714D01*
X148963095Y-90233333D01*
X148867857Y-90233333D01*
X148772619Y-90185714D01*
X148725000Y-90138095D01*
X148677380Y-90042857D01*
X148677380Y-89804761D01*
X148725000Y-89661904D01*
X148677380Y-89328571D02*
X149677380Y-89090476D01*
X148963095Y-88900000D01*
X149677380Y-88709523D01*
X148677380Y-88471428D01*
X149677380Y-87566666D02*
X149677380Y-88138095D01*
X149677380Y-87852380D02*
X148677380Y-87852380D01*
X148820238Y-87947619D01*
X148915476Y-88042857D01*
X148963095Y-88138095D01*
X159893095Y-62952380D02*
X159893095Y-63761904D01*
X159940714Y-63857142D01*
X159988333Y-63904761D01*
X160083571Y-63952380D01*
X160274047Y-63952380D01*
X160369285Y-63904761D01*
X160416904Y-63857142D01*
X160464523Y-63761904D01*
X160464523Y-62952380D01*
X161464523Y-63952380D02*
X160893095Y-63952380D01*
X161178809Y-63952380D02*
X161178809Y-62952380D01*
X161083571Y-63095238D01*
X160988333Y-63190476D01*
X160893095Y-63238095D01*
X145502380Y-62356904D02*
X146311904Y-62356904D01*
X146407142Y-62309285D01*
X146454761Y-62261666D01*
X146502380Y-62166428D01*
X146502380Y-61975952D01*
X146454761Y-61880714D01*
X146407142Y-61833095D01*
X146311904Y-61785476D01*
X145502380Y-61785476D01*
X145597619Y-61356904D02*
X145550000Y-61309285D01*
X145502380Y-61214047D01*
X145502380Y-60975952D01*
X145550000Y-60880714D01*
X145597619Y-60833095D01*
X145692857Y-60785476D01*
X145788095Y-60785476D01*
X145930952Y-60833095D01*
X146502380Y-61404523D01*
X146502380Y-60785476D01*
X113960531Y-91971972D02*
X113388111Y-92544392D01*
X113354439Y-92645407D01*
X113354439Y-92712751D01*
X113388111Y-92813766D01*
X113522798Y-92948453D01*
X113623813Y-92982125D01*
X113691157Y-92982125D01*
X113792172Y-92948453D01*
X114364592Y-92376033D01*
X114633966Y-92645407D02*
X115071698Y-93083140D01*
X114566622Y-93116812D01*
X114667637Y-93217827D01*
X114701309Y-93318842D01*
X114701309Y-93386186D01*
X114667637Y-93487201D01*
X114499279Y-93655560D01*
X114398263Y-93689232D01*
X114330920Y-93689232D01*
X114229905Y-93655560D01*
X114027874Y-93453529D01*
X113994202Y-93352514D01*
X113994202Y-93285171D01*
X129516190Y-86836190D02*
X129992380Y-86836190D01*
X128992380Y-87169523D02*
X129516190Y-86836190D01*
X128992380Y-86502857D01*
X129992380Y-85645714D02*
X129992380Y-86217142D01*
X129992380Y-85931428D02*
X128992380Y-85931428D01*
X129135238Y-86026666D01*
X129230476Y-86121904D01*
X129278095Y-86217142D01*
M02*
