G04 #@! TF.GenerationSoftware,KiCad,Pcbnew,5.1.5-52549c5~84~ubuntu19.10.1*
G04 #@! TF.CreationDate,2020-02-04T21:35:52+01:00*
G04 #@! TF.ProjectId,eduzebox,6564757a-6562-46f7-982e-6b696361645f,rev?*
G04 #@! TF.SameCoordinates,Original*
G04 #@! TF.FileFunction,Copper,L2,Bot*
G04 #@! TF.FilePolarity,Positive*
%FSLAX46Y46*%
G04 Gerber Fmt 4.6, Leading zero omitted, Abs format (unit mm)*
G04 Created by KiCad (PCBNEW 5.1.5-52549c5~84~ubuntu19.10.1) date 2020-02-04 21:35:52*
%MOMM*%
%LPD*%
G04 APERTURE LIST*
%ADD10C,1.100000*%
%ADD11C,1.800000*%
%ADD12R,1.800000X1.800000*%
%ADD13O,2.000000X3.000000*%
%ADD14O,3.500000X2.200000*%
%ADD15O,2.500000X1.500000*%
%ADD16R,2.500000X1.500000*%
%ADD17O,1.800000X4.000000*%
%ADD18O,4.000000X1.800000*%
%ADD19R,4.400000X1.800000*%
%ADD20O,1.700000X1.700000*%
%ADD21R,1.700000X1.700000*%
%ADD22O,3.100000X4.100000*%
%ADD23C,1.998980*%
%ADD24R,1.905000X2.000000*%
%ADD25O,1.905000X2.000000*%
%ADD26C,1.500000*%
%ADD27C,0.800000*%
%ADD28C,0.406400*%
%ADD29C,0.254000*%
G04 APERTURE END LIST*
D10*
X181815000Y-83020000D03*
X181815000Y-91020000D03*
D11*
X95885000Y-92710000D03*
D12*
X93345000Y-92710000D03*
D13*
X173185000Y-99060000D03*
X169185000Y-99060000D03*
X165185000Y-99060000D03*
X158685000Y-99060000D03*
X154685000Y-99060000D03*
X150685000Y-99060000D03*
X146685000Y-99060000D03*
X127465000Y-99060000D03*
X123465000Y-99060000D03*
X119465000Y-99060000D03*
X112965000Y-99060000D03*
X108965000Y-99060000D03*
X104965000Y-99060000D03*
X100965000Y-99060000D03*
D14*
X182245000Y-66290000D03*
X182245000Y-74490000D03*
D15*
X182245000Y-68390000D03*
X182245000Y-70390000D03*
D16*
X182245000Y-72390000D03*
D12*
X95885000Y-85725000D03*
D11*
X93345000Y-85725000D03*
D17*
X167920000Y-68755000D03*
D18*
X172720000Y-65955000D03*
D19*
X172720000Y-71755000D03*
D20*
X158115000Y-78105000D03*
X158115000Y-80645000D03*
X155575000Y-78105000D03*
X155575000Y-80645000D03*
X153035000Y-78105000D03*
D21*
X153035000Y-80645000D03*
D22*
X144609820Y-66240660D03*
X91610180Y-66240660D03*
D23*
X137160000Y-73319640D03*
X135255000Y-68239640D03*
X133350000Y-73319640D03*
X131445000Y-68239640D03*
X129540000Y-73319640D03*
X127635000Y-68239640D03*
X125730000Y-73319640D03*
X123825000Y-68239640D03*
X121920000Y-73319640D03*
X120015000Y-68239640D03*
X118110000Y-73319640D03*
X116205000Y-68239640D03*
X114300000Y-73319640D03*
X112395000Y-68239640D03*
X110490000Y-73319640D03*
X108585000Y-68239640D03*
X106680000Y-73319640D03*
X104775000Y-68239640D03*
X102870000Y-73319640D03*
X100965000Y-68239640D03*
X99060000Y-73319640D03*
D24*
X159385000Y-60960000D03*
D25*
X156845000Y-60960000D03*
X154305000Y-60960000D03*
D26*
X132715000Y-93145000D03*
X132715000Y-88265000D03*
D27*
X116840000Y-85090000D03*
X116205000Y-89535000D03*
X146050000Y-91440000D03*
X155575000Y-64770000D03*
X158750000Y-68580000D03*
X150241000Y-60579000D03*
X121920000Y-84455000D03*
X149851000Y-74685000D03*
X130810004Y-97155000D03*
X122555000Y-95250000D03*
X168910000Y-90170000D03*
X120650000Y-92075000D03*
X118745000Y-92710000D03*
X121920000Y-90805000D03*
X143510000Y-87630000D03*
X117475000Y-90805000D03*
X142240000Y-74930000D03*
X123190000Y-86360000D03*
X164465000Y-76200000D03*
X151130000Y-104140000D03*
X154940000Y-102870000D03*
X119764544Y-83569544D03*
X91440000Y-82550000D03*
X163195000Y-84455000D03*
X163195000Y-79375000D03*
D28*
X137173600Y-95250000D02*
X122555000Y-95250000D01*
X153035000Y-80645000D02*
X151778600Y-80645000D01*
X151778600Y-80645000D02*
X137173600Y-95250000D01*
X161303600Y-90170000D02*
X168910000Y-90170000D01*
X153035000Y-80645000D02*
X153035000Y-81901400D01*
X153035000Y-81901400D02*
X161303600Y-90170000D01*
X120650000Y-90932000D02*
X120650000Y-91509315D01*
X122682000Y-88900000D02*
X120650000Y-90932000D01*
X123825000Y-88900000D02*
X122682000Y-88900000D01*
X154321799Y-79391799D02*
X151862439Y-79391799D01*
X120650000Y-91509315D02*
X120650000Y-92075000D01*
X150609238Y-80645000D02*
X132080000Y-80645000D01*
X155575000Y-80645000D02*
X154321799Y-79391799D01*
X151862439Y-79391799D02*
X150609238Y-80645000D01*
X132080000Y-80645000D02*
X123825000Y-88900000D01*
X154321799Y-76851799D02*
X154725001Y-77255001D01*
X133968201Y-76851799D02*
X154321799Y-76851799D01*
X122936000Y-87630000D02*
X123190000Y-87630000D01*
X119634000Y-90932000D02*
X122936000Y-87630000D01*
X119634000Y-91821000D02*
X119634000Y-90932000D01*
X123190000Y-87630000D02*
X133968201Y-76851799D01*
X154725001Y-77255001D02*
X155575000Y-78105000D01*
X118745000Y-92710000D02*
X119634000Y-91821000D01*
X121920000Y-90805000D02*
X140335000Y-90805000D01*
X140335000Y-90805000D02*
X143510000Y-87630000D01*
X128905000Y-75565000D02*
X117475000Y-86995000D01*
X142240000Y-74930000D02*
X141605000Y-75565000D01*
X117475000Y-86995000D02*
X117475000Y-90805000D01*
X141605000Y-75565000D02*
X128905000Y-75565000D01*
X123190000Y-86360000D02*
X133304611Y-76245389D01*
X164419611Y-76245389D02*
X164465000Y-76200000D01*
X133304611Y-76245389D02*
X164419611Y-76245389D01*
X151130000Y-99505000D02*
X150685000Y-99060000D01*
X151130000Y-104140000D02*
X151130000Y-99505000D01*
X154940000Y-99315000D02*
X154685000Y-99060000D01*
X154940000Y-102870000D02*
X154940000Y-99315000D01*
X91440000Y-82550000D02*
X118745000Y-82550000D01*
X118745000Y-82550000D02*
X119764544Y-83569544D01*
X163195000Y-79375000D02*
X163195000Y-84455000D01*
D29*
G36*
X153195563Y-59778685D02*
G01*
X152995684Y-60016911D01*
X152846121Y-60289554D01*
X152752622Y-60586137D01*
X152879430Y-60833000D01*
X154178000Y-60833000D01*
X154178000Y-60813000D01*
X154432000Y-60813000D01*
X154432000Y-60833000D01*
X154452000Y-60833000D01*
X154452000Y-61087000D01*
X154432000Y-61087000D01*
X154432000Y-62430594D01*
X154677980Y-62550563D01*
X154896094Y-62479571D01*
X155171923Y-62335969D01*
X155414437Y-62141315D01*
X155569838Y-61956100D01*
X155717037Y-62135463D01*
X155958765Y-62333845D01*
X156234551Y-62481255D01*
X156533796Y-62572030D01*
X156845000Y-62602681D01*
X157156203Y-62572030D01*
X157455448Y-62481255D01*
X157731234Y-62333845D01*
X157857095Y-62230553D01*
X157901963Y-62314494D01*
X157981315Y-62411185D01*
X158078006Y-62490537D01*
X158188320Y-62549502D01*
X158308018Y-62585812D01*
X158432500Y-62598072D01*
X160337500Y-62598072D01*
X160461982Y-62585812D01*
X160581680Y-62549502D01*
X160691994Y-62490537D01*
X160788685Y-62411185D01*
X160868037Y-62314494D01*
X160927002Y-62204180D01*
X160963312Y-62084482D01*
X160975572Y-61960000D01*
X160975572Y-59960000D01*
X160963312Y-59835518D01*
X160927002Y-59715820D01*
X160926564Y-59715000D01*
X181747120Y-59715000D01*
X181678829Y-59728584D01*
X181325588Y-59874901D01*
X181007679Y-60087320D01*
X180737320Y-60357679D01*
X180524901Y-60675588D01*
X180378584Y-61028829D01*
X180303992Y-61403827D01*
X180303992Y-61786173D01*
X180378584Y-62161171D01*
X180524901Y-62514412D01*
X180737320Y-62832321D01*
X181007679Y-63102680D01*
X181325588Y-63315099D01*
X181678829Y-63461416D01*
X182053827Y-63536008D01*
X182436173Y-63536008D01*
X182811171Y-63461416D01*
X183164412Y-63315099D01*
X183482321Y-63102680D01*
X183752680Y-62832321D01*
X183965099Y-62514412D01*
X184111416Y-62161171D01*
X184125001Y-62092875D01*
X184125001Y-65054965D01*
X183863578Y-64840421D01*
X183562168Y-64679314D01*
X183235119Y-64580105D01*
X182980225Y-64555000D01*
X181509775Y-64555000D01*
X181254881Y-64580105D01*
X180927832Y-64679314D01*
X180626422Y-64840421D01*
X180362234Y-65057234D01*
X180145421Y-65321422D01*
X179984314Y-65622832D01*
X179885105Y-65949881D01*
X179851606Y-66290000D01*
X179885105Y-66630119D01*
X179984314Y-66957168D01*
X180145421Y-67258578D01*
X180362234Y-67522766D01*
X180553994Y-67680139D01*
X180459236Y-67857419D01*
X180380040Y-68118493D01*
X180353299Y-68390000D01*
X180380040Y-68661507D01*
X180459236Y-68922581D01*
X180587843Y-69163188D01*
X180760919Y-69374081D01*
X180780316Y-69390000D01*
X180760919Y-69405919D01*
X180587843Y-69616812D01*
X180459236Y-69857419D01*
X180380040Y-70118493D01*
X180353299Y-70390000D01*
X180380040Y-70661507D01*
X180459236Y-70922581D01*
X180583940Y-71155886D01*
X180543815Y-71188815D01*
X180464463Y-71285506D01*
X180405498Y-71395820D01*
X180369188Y-71515518D01*
X180356928Y-71640000D01*
X180356928Y-73140000D01*
X180368008Y-73252496D01*
X180362234Y-73257234D01*
X180145421Y-73521422D01*
X179984314Y-73822832D01*
X179885105Y-74149881D01*
X179851606Y-74490000D01*
X179885105Y-74830119D01*
X179984314Y-75157168D01*
X180145421Y-75458578D01*
X180362234Y-75722766D01*
X180626422Y-75939579D01*
X180927832Y-76100686D01*
X181254881Y-76199895D01*
X181509775Y-76225000D01*
X182980225Y-76225000D01*
X183235119Y-76199895D01*
X183562168Y-76100686D01*
X183863578Y-75939579D01*
X184125001Y-75725035D01*
X184125000Y-104912120D01*
X184111416Y-104843829D01*
X183965099Y-104490588D01*
X183752680Y-104172679D01*
X183482321Y-103902320D01*
X183164412Y-103689901D01*
X182811171Y-103543584D01*
X182436173Y-103468992D01*
X182053827Y-103468992D01*
X181678829Y-103543584D01*
X181325588Y-103689901D01*
X181007679Y-103902320D01*
X180737320Y-104172679D01*
X180524901Y-104490588D01*
X180378584Y-104843829D01*
X180303992Y-105218827D01*
X180303992Y-105601173D01*
X180378584Y-105976171D01*
X180524901Y-106329412D01*
X180737320Y-106647321D01*
X181007679Y-106917680D01*
X181325588Y-107130099D01*
X181678829Y-107276416D01*
X181747120Y-107290000D01*
X91937880Y-107290000D01*
X92006171Y-107276416D01*
X92359412Y-107130099D01*
X92677321Y-106917680D01*
X92947680Y-106647321D01*
X93160099Y-106329412D01*
X93306416Y-105976171D01*
X93381008Y-105601173D01*
X93381008Y-105218827D01*
X93306416Y-104843829D01*
X93160099Y-104490588D01*
X92947680Y-104172679D01*
X92677321Y-103902320D01*
X92359412Y-103689901D01*
X92006171Y-103543584D01*
X91631173Y-103468992D01*
X91248827Y-103468992D01*
X90873829Y-103543584D01*
X90520588Y-103689901D01*
X90202679Y-103902320D01*
X89932320Y-104172679D01*
X89719901Y-104490588D01*
X89573584Y-104843829D01*
X89560000Y-104912120D01*
X89560000Y-99187000D01*
X99330000Y-99187000D01*
X99330000Y-99687000D01*
X99386193Y-100003532D01*
X99503058Y-100303020D01*
X99676105Y-100573954D01*
X99898683Y-100805922D01*
X100162239Y-100990010D01*
X100456645Y-101119144D01*
X100584566Y-101150124D01*
X100838000Y-101030777D01*
X100838000Y-99187000D01*
X101092000Y-99187000D01*
X101092000Y-101030777D01*
X101345434Y-101150124D01*
X101473355Y-101119144D01*
X101767761Y-100990010D01*
X102031317Y-100805922D01*
X102253895Y-100573954D01*
X102426942Y-100303020D01*
X102543807Y-100003532D01*
X102600000Y-99687000D01*
X102600000Y-99187000D01*
X101092000Y-99187000D01*
X100838000Y-99187000D01*
X99330000Y-99187000D01*
X89560000Y-99187000D01*
X89560000Y-98433000D01*
X99330000Y-98433000D01*
X99330000Y-98933000D01*
X100838000Y-98933000D01*
X100838000Y-97089223D01*
X101092000Y-97089223D01*
X101092000Y-98933000D01*
X102600000Y-98933000D01*
X102600000Y-98479679D01*
X103330000Y-98479679D01*
X103330000Y-99640322D01*
X103353657Y-99880516D01*
X103447148Y-100188715D01*
X103598970Y-100472752D01*
X103803287Y-100721714D01*
X104052249Y-100926031D01*
X104336286Y-101077852D01*
X104644485Y-101171343D01*
X104965000Y-101202911D01*
X105285516Y-101171343D01*
X105593715Y-101077852D01*
X105877752Y-100926031D01*
X106126714Y-100721714D01*
X106331031Y-100472752D01*
X106482852Y-100188715D01*
X106576343Y-99880516D01*
X106600000Y-99640322D01*
X106600000Y-98479679D01*
X107330000Y-98479679D01*
X107330000Y-99640322D01*
X107353657Y-99880516D01*
X107447148Y-100188715D01*
X107598970Y-100472752D01*
X107803287Y-100721714D01*
X108052249Y-100926031D01*
X108336286Y-101077852D01*
X108644485Y-101171343D01*
X108965000Y-101202911D01*
X109285516Y-101171343D01*
X109593715Y-101077852D01*
X109877752Y-100926031D01*
X110126714Y-100721714D01*
X110331031Y-100472752D01*
X110482852Y-100188715D01*
X110576343Y-99880516D01*
X110600000Y-99640322D01*
X110600000Y-98479679D01*
X111330000Y-98479679D01*
X111330000Y-99640322D01*
X111353657Y-99880516D01*
X111447148Y-100188715D01*
X111598970Y-100472752D01*
X111803287Y-100721714D01*
X112052249Y-100926031D01*
X112336286Y-101077852D01*
X112644485Y-101171343D01*
X112965000Y-101202911D01*
X113285516Y-101171343D01*
X113593715Y-101077852D01*
X113877752Y-100926031D01*
X114126714Y-100721714D01*
X114331031Y-100472752D01*
X114482852Y-100188715D01*
X114576343Y-99880516D01*
X114600000Y-99640322D01*
X114600000Y-98479679D01*
X117830000Y-98479679D01*
X117830000Y-99640322D01*
X117853657Y-99880516D01*
X117947148Y-100188715D01*
X118098970Y-100472752D01*
X118303287Y-100721714D01*
X118552249Y-100926031D01*
X118836286Y-101077852D01*
X119144485Y-101171343D01*
X119465000Y-101202911D01*
X119785516Y-101171343D01*
X120093715Y-101077852D01*
X120377752Y-100926031D01*
X120626714Y-100721714D01*
X120831031Y-100472752D01*
X120982852Y-100188715D01*
X121076343Y-99880516D01*
X121100000Y-99640322D01*
X121100000Y-98479679D01*
X121830000Y-98479679D01*
X121830000Y-99640322D01*
X121853657Y-99880516D01*
X121947148Y-100188715D01*
X122098970Y-100472752D01*
X122303287Y-100721714D01*
X122552249Y-100926031D01*
X122836286Y-101077852D01*
X123144485Y-101171343D01*
X123465000Y-101202911D01*
X123785516Y-101171343D01*
X124093715Y-101077852D01*
X124377752Y-100926031D01*
X124626714Y-100721714D01*
X124831031Y-100472752D01*
X124982852Y-100188715D01*
X125076343Y-99880516D01*
X125100000Y-99640322D01*
X125100000Y-98479679D01*
X125830000Y-98479679D01*
X125830000Y-99640322D01*
X125853657Y-99880516D01*
X125947148Y-100188715D01*
X126098970Y-100472752D01*
X126303287Y-100721714D01*
X126552249Y-100926031D01*
X126836286Y-101077852D01*
X127144485Y-101171343D01*
X127465000Y-101202911D01*
X127785516Y-101171343D01*
X128093715Y-101077852D01*
X128377752Y-100926031D01*
X128626714Y-100721714D01*
X128831031Y-100472752D01*
X128982852Y-100188715D01*
X129076343Y-99880516D01*
X129100000Y-99640322D01*
X129100000Y-99187000D01*
X145050000Y-99187000D01*
X145050000Y-99687000D01*
X145106193Y-100003532D01*
X145223058Y-100303020D01*
X145396105Y-100573954D01*
X145618683Y-100805922D01*
X145882239Y-100990010D01*
X146176645Y-101119144D01*
X146304566Y-101150124D01*
X146558000Y-101030777D01*
X146558000Y-99187000D01*
X146812000Y-99187000D01*
X146812000Y-101030777D01*
X147065434Y-101150124D01*
X147193355Y-101119144D01*
X147487761Y-100990010D01*
X147751317Y-100805922D01*
X147973895Y-100573954D01*
X148146942Y-100303020D01*
X148263807Y-100003532D01*
X148320000Y-99687000D01*
X148320000Y-99187000D01*
X146812000Y-99187000D01*
X146558000Y-99187000D01*
X145050000Y-99187000D01*
X129100000Y-99187000D01*
X129100000Y-98479678D01*
X129095403Y-98433000D01*
X145050000Y-98433000D01*
X145050000Y-98933000D01*
X146558000Y-98933000D01*
X146558000Y-97089223D01*
X146812000Y-97089223D01*
X146812000Y-98933000D01*
X148320000Y-98933000D01*
X148320000Y-98479679D01*
X149050000Y-98479679D01*
X149050000Y-99640322D01*
X149073657Y-99880516D01*
X149167148Y-100188715D01*
X149318970Y-100472752D01*
X149523287Y-100721714D01*
X149772249Y-100926031D01*
X150056286Y-101077852D01*
X150291801Y-101149294D01*
X150291800Y-103531504D01*
X150212795Y-103649744D01*
X150134774Y-103838102D01*
X150095000Y-104038061D01*
X150095000Y-104241939D01*
X150134774Y-104441898D01*
X150212795Y-104630256D01*
X150326063Y-104799774D01*
X150470226Y-104943937D01*
X150639744Y-105057205D01*
X150828102Y-105135226D01*
X151028061Y-105175000D01*
X151231939Y-105175000D01*
X151431898Y-105135226D01*
X151620256Y-105057205D01*
X151789774Y-104943937D01*
X151933937Y-104799774D01*
X152047205Y-104630256D01*
X152125226Y-104441898D01*
X152165000Y-104241939D01*
X152165000Y-104038061D01*
X152125226Y-103838102D01*
X152047205Y-103649744D01*
X151968200Y-103531504D01*
X151968200Y-100573682D01*
X152051031Y-100472752D01*
X152202852Y-100188715D01*
X152296343Y-99880516D01*
X152320000Y-99640322D01*
X152320000Y-98479679D01*
X153050000Y-98479679D01*
X153050000Y-99640322D01*
X153073657Y-99880516D01*
X153167148Y-100188715D01*
X153318970Y-100472752D01*
X153523287Y-100721714D01*
X153772249Y-100926031D01*
X154056286Y-101077852D01*
X154101801Y-101091659D01*
X154101800Y-102261504D01*
X154022795Y-102379744D01*
X153944774Y-102568102D01*
X153905000Y-102768061D01*
X153905000Y-102971939D01*
X153944774Y-103171898D01*
X154022795Y-103360256D01*
X154136063Y-103529774D01*
X154280226Y-103673937D01*
X154449744Y-103787205D01*
X154638102Y-103865226D01*
X154838061Y-103905000D01*
X155041939Y-103905000D01*
X155241898Y-103865226D01*
X155430256Y-103787205D01*
X155599774Y-103673937D01*
X155743937Y-103529774D01*
X155857205Y-103360256D01*
X155935226Y-103171898D01*
X155975000Y-102971939D01*
X155975000Y-102768061D01*
X155935226Y-102568102D01*
X155857205Y-102379744D01*
X155778200Y-102261504D01*
X155778200Y-100777942D01*
X155846714Y-100721714D01*
X156051031Y-100472752D01*
X156202852Y-100188715D01*
X156296343Y-99880516D01*
X156320000Y-99640322D01*
X156320000Y-98479679D01*
X157050000Y-98479679D01*
X157050000Y-99640322D01*
X157073657Y-99880516D01*
X157167148Y-100188715D01*
X157318970Y-100472752D01*
X157523287Y-100721714D01*
X157772249Y-100926031D01*
X158056286Y-101077852D01*
X158364485Y-101171343D01*
X158685000Y-101202911D01*
X159005516Y-101171343D01*
X159313715Y-101077852D01*
X159597752Y-100926031D01*
X159846714Y-100721714D01*
X160051031Y-100472752D01*
X160202852Y-100188715D01*
X160296343Y-99880516D01*
X160320000Y-99640322D01*
X160320000Y-98479679D01*
X163550000Y-98479679D01*
X163550000Y-99640322D01*
X163573657Y-99880516D01*
X163667148Y-100188715D01*
X163818970Y-100472752D01*
X164023287Y-100721714D01*
X164272249Y-100926031D01*
X164556286Y-101077852D01*
X164864485Y-101171343D01*
X165185000Y-101202911D01*
X165505516Y-101171343D01*
X165813715Y-101077852D01*
X166097752Y-100926031D01*
X166346714Y-100721714D01*
X166551031Y-100472752D01*
X166702852Y-100188715D01*
X166796343Y-99880516D01*
X166820000Y-99640322D01*
X166820000Y-98479679D01*
X167550000Y-98479679D01*
X167550000Y-99640322D01*
X167573657Y-99880516D01*
X167667148Y-100188715D01*
X167818970Y-100472752D01*
X168023287Y-100721714D01*
X168272249Y-100926031D01*
X168556286Y-101077852D01*
X168864485Y-101171343D01*
X169185000Y-101202911D01*
X169505516Y-101171343D01*
X169813715Y-101077852D01*
X170097752Y-100926031D01*
X170346714Y-100721714D01*
X170551031Y-100472752D01*
X170702852Y-100188715D01*
X170796343Y-99880516D01*
X170820000Y-99640322D01*
X170820000Y-98479679D01*
X171550000Y-98479679D01*
X171550000Y-99640322D01*
X171573657Y-99880516D01*
X171667148Y-100188715D01*
X171818970Y-100472752D01*
X172023287Y-100721714D01*
X172272249Y-100926031D01*
X172556286Y-101077852D01*
X172864485Y-101171343D01*
X173185000Y-101202911D01*
X173505516Y-101171343D01*
X173813715Y-101077852D01*
X174097752Y-100926031D01*
X174346714Y-100721714D01*
X174551031Y-100472752D01*
X174702852Y-100188715D01*
X174796343Y-99880516D01*
X174820000Y-99640322D01*
X174820000Y-98479678D01*
X174796343Y-98239484D01*
X174702852Y-97931285D01*
X174551031Y-97647248D01*
X174346714Y-97398286D01*
X174097751Y-97193969D01*
X173813714Y-97042148D01*
X173505515Y-96948657D01*
X173185000Y-96917089D01*
X172864484Y-96948657D01*
X172556285Y-97042148D01*
X172272248Y-97193969D01*
X172023286Y-97398286D01*
X171818969Y-97647249D01*
X171667148Y-97931286D01*
X171573657Y-98239485D01*
X171550000Y-98479679D01*
X170820000Y-98479679D01*
X170820000Y-98479678D01*
X170796343Y-98239484D01*
X170702852Y-97931285D01*
X170551031Y-97647248D01*
X170346714Y-97398286D01*
X170097751Y-97193969D01*
X169813714Y-97042148D01*
X169505515Y-96948657D01*
X169185000Y-96917089D01*
X168864484Y-96948657D01*
X168556285Y-97042148D01*
X168272248Y-97193969D01*
X168023286Y-97398286D01*
X167818969Y-97647249D01*
X167667148Y-97931286D01*
X167573657Y-98239485D01*
X167550000Y-98479679D01*
X166820000Y-98479679D01*
X166820000Y-98479678D01*
X166796343Y-98239484D01*
X166702852Y-97931285D01*
X166551031Y-97647248D01*
X166346714Y-97398286D01*
X166097751Y-97193969D01*
X165813714Y-97042148D01*
X165505515Y-96948657D01*
X165185000Y-96917089D01*
X164864484Y-96948657D01*
X164556285Y-97042148D01*
X164272248Y-97193969D01*
X164023286Y-97398286D01*
X163818969Y-97647249D01*
X163667148Y-97931286D01*
X163573657Y-98239485D01*
X163550000Y-98479679D01*
X160320000Y-98479679D01*
X160320000Y-98479678D01*
X160296343Y-98239484D01*
X160202852Y-97931285D01*
X160051031Y-97647248D01*
X159846714Y-97398286D01*
X159597751Y-97193969D01*
X159313714Y-97042148D01*
X159005515Y-96948657D01*
X158685000Y-96917089D01*
X158364484Y-96948657D01*
X158056285Y-97042148D01*
X157772248Y-97193969D01*
X157523286Y-97398286D01*
X157318969Y-97647249D01*
X157167148Y-97931286D01*
X157073657Y-98239485D01*
X157050000Y-98479679D01*
X156320000Y-98479679D01*
X156320000Y-98479678D01*
X156296343Y-98239484D01*
X156202852Y-97931285D01*
X156051031Y-97647248D01*
X155846714Y-97398286D01*
X155597751Y-97193969D01*
X155313714Y-97042148D01*
X155005515Y-96948657D01*
X154685000Y-96917089D01*
X154364484Y-96948657D01*
X154056285Y-97042148D01*
X153772248Y-97193969D01*
X153523286Y-97398286D01*
X153318969Y-97647249D01*
X153167148Y-97931286D01*
X153073657Y-98239485D01*
X153050000Y-98479679D01*
X152320000Y-98479679D01*
X152320000Y-98479678D01*
X152296343Y-98239484D01*
X152202852Y-97931285D01*
X152051031Y-97647248D01*
X151846714Y-97398286D01*
X151597751Y-97193969D01*
X151313714Y-97042148D01*
X151005515Y-96948657D01*
X150685000Y-96917089D01*
X150364484Y-96948657D01*
X150056285Y-97042148D01*
X149772248Y-97193969D01*
X149523286Y-97398286D01*
X149318969Y-97647249D01*
X149167148Y-97931286D01*
X149073657Y-98239485D01*
X149050000Y-98479679D01*
X148320000Y-98479679D01*
X148320000Y-98433000D01*
X148263807Y-98116468D01*
X148146942Y-97816980D01*
X147973895Y-97546046D01*
X147751317Y-97314078D01*
X147487761Y-97129990D01*
X147193355Y-97000856D01*
X147065434Y-96969876D01*
X146812000Y-97089223D01*
X146558000Y-97089223D01*
X146304566Y-96969876D01*
X146176645Y-97000856D01*
X145882239Y-97129990D01*
X145618683Y-97314078D01*
X145396105Y-97546046D01*
X145223058Y-97816980D01*
X145106193Y-98116468D01*
X145050000Y-98433000D01*
X129095403Y-98433000D01*
X129076343Y-98239484D01*
X128982852Y-97931285D01*
X128831031Y-97647248D01*
X128626714Y-97398286D01*
X128377751Y-97193969D01*
X128093714Y-97042148D01*
X127785515Y-96948657D01*
X127465000Y-96917089D01*
X127144484Y-96948657D01*
X126836285Y-97042148D01*
X126552248Y-97193969D01*
X126303286Y-97398286D01*
X126098969Y-97647249D01*
X125947148Y-97931286D01*
X125853657Y-98239485D01*
X125830000Y-98479679D01*
X125100000Y-98479679D01*
X125100000Y-98479678D01*
X125076343Y-98239484D01*
X124982852Y-97931285D01*
X124831031Y-97647248D01*
X124626714Y-97398286D01*
X124377751Y-97193969D01*
X124093714Y-97042148D01*
X123785515Y-96948657D01*
X123465000Y-96917089D01*
X123144484Y-96948657D01*
X122836285Y-97042148D01*
X122552248Y-97193969D01*
X122303286Y-97398286D01*
X122098969Y-97647249D01*
X121947148Y-97931286D01*
X121853657Y-98239485D01*
X121830000Y-98479679D01*
X121100000Y-98479679D01*
X121100000Y-98479678D01*
X121076343Y-98239484D01*
X120982852Y-97931285D01*
X120831031Y-97647248D01*
X120626714Y-97398286D01*
X120377751Y-97193969D01*
X120093714Y-97042148D01*
X119785515Y-96948657D01*
X119465000Y-96917089D01*
X119144484Y-96948657D01*
X118836285Y-97042148D01*
X118552248Y-97193969D01*
X118303286Y-97398286D01*
X118098969Y-97647249D01*
X117947148Y-97931286D01*
X117853657Y-98239485D01*
X117830000Y-98479679D01*
X114600000Y-98479679D01*
X114600000Y-98479678D01*
X114576343Y-98239484D01*
X114482852Y-97931285D01*
X114331031Y-97647248D01*
X114126714Y-97398286D01*
X113877751Y-97193969D01*
X113593714Y-97042148D01*
X113285515Y-96948657D01*
X112965000Y-96917089D01*
X112644484Y-96948657D01*
X112336285Y-97042148D01*
X112052248Y-97193969D01*
X111803286Y-97398286D01*
X111598969Y-97647249D01*
X111447148Y-97931286D01*
X111353657Y-98239485D01*
X111330000Y-98479679D01*
X110600000Y-98479679D01*
X110600000Y-98479678D01*
X110576343Y-98239484D01*
X110482852Y-97931285D01*
X110331031Y-97647248D01*
X110126714Y-97398286D01*
X109877751Y-97193969D01*
X109593714Y-97042148D01*
X109285515Y-96948657D01*
X108965000Y-96917089D01*
X108644484Y-96948657D01*
X108336285Y-97042148D01*
X108052248Y-97193969D01*
X107803286Y-97398286D01*
X107598969Y-97647249D01*
X107447148Y-97931286D01*
X107353657Y-98239485D01*
X107330000Y-98479679D01*
X106600000Y-98479679D01*
X106600000Y-98479678D01*
X106576343Y-98239484D01*
X106482852Y-97931285D01*
X106331031Y-97647248D01*
X106126714Y-97398286D01*
X105877751Y-97193969D01*
X105593714Y-97042148D01*
X105285515Y-96948657D01*
X104965000Y-96917089D01*
X104644484Y-96948657D01*
X104336285Y-97042148D01*
X104052248Y-97193969D01*
X103803286Y-97398286D01*
X103598969Y-97647249D01*
X103447148Y-97931286D01*
X103353657Y-98239485D01*
X103330000Y-98479679D01*
X102600000Y-98479679D01*
X102600000Y-98433000D01*
X102543807Y-98116468D01*
X102426942Y-97816980D01*
X102253895Y-97546046D01*
X102031317Y-97314078D01*
X101767761Y-97129990D01*
X101473355Y-97000856D01*
X101345434Y-96969876D01*
X101092000Y-97089223D01*
X100838000Y-97089223D01*
X100584566Y-96969876D01*
X100456645Y-97000856D01*
X100162239Y-97129990D01*
X99898683Y-97314078D01*
X99676105Y-97546046D01*
X99503058Y-97816980D01*
X99386193Y-98116468D01*
X99330000Y-98433000D01*
X89560000Y-98433000D01*
X89560000Y-91810000D01*
X91806928Y-91810000D01*
X91806928Y-93610000D01*
X91819188Y-93734482D01*
X91855498Y-93854180D01*
X91914463Y-93964494D01*
X91993815Y-94061185D01*
X92090506Y-94140537D01*
X92200820Y-94199502D01*
X92320518Y-94235812D01*
X92445000Y-94248072D01*
X94245000Y-94248072D01*
X94369482Y-94235812D01*
X94489180Y-94199502D01*
X94599494Y-94140537D01*
X94696185Y-94061185D01*
X94775537Y-93964494D01*
X94834502Y-93854180D01*
X94840056Y-93835873D01*
X94906495Y-93902312D01*
X95157905Y-94070299D01*
X95437257Y-94186011D01*
X95733816Y-94245000D01*
X96036184Y-94245000D01*
X96332743Y-94186011D01*
X96612095Y-94070299D01*
X96863505Y-93902312D01*
X97077312Y-93688505D01*
X97245299Y-93437095D01*
X97361011Y-93157743D01*
X97420000Y-92861184D01*
X97420000Y-92558816D01*
X97361011Y-92262257D01*
X97245299Y-91982905D01*
X97077312Y-91731495D01*
X96863505Y-91517688D01*
X96612095Y-91349701D01*
X96332743Y-91233989D01*
X96036184Y-91175000D01*
X95733816Y-91175000D01*
X95437257Y-91233989D01*
X95157905Y-91349701D01*
X94906495Y-91517688D01*
X94840056Y-91584127D01*
X94834502Y-91565820D01*
X94775537Y-91455506D01*
X94696185Y-91358815D01*
X94599494Y-91279463D01*
X94489180Y-91220498D01*
X94369482Y-91184188D01*
X94245000Y-91171928D01*
X92445000Y-91171928D01*
X92320518Y-91184188D01*
X92200820Y-91220498D01*
X92090506Y-91279463D01*
X91993815Y-91358815D01*
X91914463Y-91455506D01*
X91855498Y-91565820D01*
X91819188Y-91685518D01*
X91806928Y-91810000D01*
X89560000Y-91810000D01*
X89560000Y-85791553D01*
X91804009Y-85791553D01*
X91846603Y-86090907D01*
X91946778Y-86376199D01*
X92026739Y-86525792D01*
X92280920Y-86609475D01*
X93165395Y-85725000D01*
X92280920Y-84840525D01*
X92026739Y-84924208D01*
X91895842Y-85196775D01*
X91820635Y-85489642D01*
X91804009Y-85791553D01*
X89560000Y-85791553D01*
X89560000Y-84660920D01*
X92460525Y-84660920D01*
X93345000Y-85545395D01*
X93359143Y-85531253D01*
X93538748Y-85710858D01*
X93524605Y-85725000D01*
X93538748Y-85739143D01*
X93359143Y-85918748D01*
X93345000Y-85904605D01*
X92460525Y-86789080D01*
X92544208Y-87043261D01*
X92816775Y-87174158D01*
X93109642Y-87249365D01*
X93411553Y-87265991D01*
X93710907Y-87223397D01*
X93996199Y-87123222D01*
X94145792Y-87043261D01*
X94229474Y-86789082D01*
X94345422Y-86905030D01*
X94392187Y-86858265D01*
X94395498Y-86869180D01*
X94454463Y-86979494D01*
X94533815Y-87076185D01*
X94630506Y-87155537D01*
X94740820Y-87214502D01*
X94860518Y-87250812D01*
X94985000Y-87263072D01*
X96785000Y-87263072D01*
X96909482Y-87250812D01*
X97029180Y-87214502D01*
X97139494Y-87155537D01*
X97236185Y-87076185D01*
X97315537Y-86979494D01*
X97374502Y-86869180D01*
X97410812Y-86749482D01*
X97423072Y-86625000D01*
X97423072Y-84825000D01*
X97410812Y-84700518D01*
X97374502Y-84580820D01*
X97315537Y-84470506D01*
X97236185Y-84373815D01*
X97139494Y-84294463D01*
X97029180Y-84235498D01*
X96909482Y-84199188D01*
X96785000Y-84186928D01*
X94985000Y-84186928D01*
X94860518Y-84199188D01*
X94740820Y-84235498D01*
X94630506Y-84294463D01*
X94533815Y-84373815D01*
X94454463Y-84470506D01*
X94395498Y-84580820D01*
X94392187Y-84591735D01*
X94345422Y-84544970D01*
X94229474Y-84660918D01*
X94145792Y-84406739D01*
X93873225Y-84275842D01*
X93580358Y-84200635D01*
X93278447Y-84184009D01*
X92979093Y-84226603D01*
X92693801Y-84326778D01*
X92544208Y-84406739D01*
X92460525Y-84660920D01*
X89560000Y-84660920D01*
X89560000Y-82448061D01*
X90405000Y-82448061D01*
X90405000Y-82651939D01*
X90444774Y-82851898D01*
X90522795Y-83040256D01*
X90636063Y-83209774D01*
X90780226Y-83353937D01*
X90949744Y-83467205D01*
X91138102Y-83545226D01*
X91338061Y-83585000D01*
X91541939Y-83585000D01*
X91741898Y-83545226D01*
X91930256Y-83467205D01*
X92048496Y-83388200D01*
X118397807Y-83388200D01*
X118741575Y-83731969D01*
X118769318Y-83871442D01*
X118847339Y-84059800D01*
X118960607Y-84229318D01*
X119007948Y-84276659D01*
X116911418Y-86373189D01*
X116879436Y-86399436D01*
X116774691Y-86527069D01*
X116696858Y-86672684D01*
X116648929Y-86830685D01*
X116636800Y-86953831D01*
X116636800Y-86953837D01*
X116632746Y-86995000D01*
X116636800Y-87036163D01*
X116636801Y-90196503D01*
X116557795Y-90314744D01*
X116479774Y-90503102D01*
X116440000Y-90703061D01*
X116440000Y-90906939D01*
X116479774Y-91106898D01*
X116557795Y-91295256D01*
X116671063Y-91464774D01*
X116815226Y-91608937D01*
X116984744Y-91722205D01*
X117173102Y-91800226D01*
X117373061Y-91840000D01*
X117576939Y-91840000D01*
X117776898Y-91800226D01*
X117965256Y-91722205D01*
X118134774Y-91608937D01*
X118278937Y-91464774D01*
X118392205Y-91295256D01*
X118470226Y-91106898D01*
X118510000Y-90906939D01*
X118510000Y-90703061D01*
X118470226Y-90503102D01*
X118392205Y-90314744D01*
X118313200Y-90196504D01*
X118313200Y-87342193D01*
X129252194Y-76403200D01*
X131961406Y-76403200D01*
X123027576Y-85337031D01*
X122888102Y-85364774D01*
X122699744Y-85442795D01*
X122530226Y-85556063D01*
X122386063Y-85700226D01*
X122272795Y-85869744D01*
X122194774Y-86058102D01*
X122155000Y-86258061D01*
X122155000Y-86461939D01*
X122194774Y-86661898D01*
X122272795Y-86850256D01*
X122376231Y-87005060D01*
X122340436Y-87034436D01*
X122314194Y-87066412D01*
X119070413Y-90310194D01*
X119038437Y-90336436D01*
X119012195Y-90368412D01*
X119012192Y-90368415D01*
X118933691Y-90464069D01*
X118855858Y-90609684D01*
X118807929Y-90767685D01*
X118801814Y-90829774D01*
X118795800Y-90890830D01*
X118795800Y-90890837D01*
X118791746Y-90932000D01*
X118795800Y-90973163D01*
X118795800Y-91473806D01*
X118582575Y-91687031D01*
X118443102Y-91714774D01*
X118254744Y-91792795D01*
X118085226Y-91906063D01*
X117941063Y-92050226D01*
X117827795Y-92219744D01*
X117749774Y-92408102D01*
X117710000Y-92608061D01*
X117710000Y-92811939D01*
X117749774Y-93011898D01*
X117827795Y-93200256D01*
X117941063Y-93369774D01*
X118085226Y-93513937D01*
X118254744Y-93627205D01*
X118443102Y-93705226D01*
X118643061Y-93745000D01*
X118846939Y-93745000D01*
X119046898Y-93705226D01*
X119235256Y-93627205D01*
X119404774Y-93513937D01*
X119548937Y-93369774D01*
X119662205Y-93200256D01*
X119740226Y-93011898D01*
X119767969Y-92872425D01*
X119875841Y-92764552D01*
X119990226Y-92878937D01*
X120159744Y-92992205D01*
X120348102Y-93070226D01*
X120548061Y-93110000D01*
X120751939Y-93110000D01*
X120951898Y-93070226D01*
X121140256Y-92992205D01*
X121309774Y-92878937D01*
X121453937Y-92734774D01*
X121567205Y-92565256D01*
X121645226Y-92376898D01*
X121685000Y-92176939D01*
X121685000Y-91973061D01*
X121651961Y-91806961D01*
X121818061Y-91840000D01*
X122021939Y-91840000D01*
X122221898Y-91800226D01*
X122410256Y-91722205D01*
X122528496Y-91643200D01*
X139595007Y-91643200D01*
X136826407Y-94411800D01*
X133275853Y-94411800D01*
X133371043Y-94372371D01*
X133597886Y-94220799D01*
X133790799Y-94027886D01*
X133942371Y-93801043D01*
X134046775Y-93548989D01*
X134100000Y-93281411D01*
X134100000Y-93008589D01*
X134046775Y-92741011D01*
X133942371Y-92488957D01*
X133790799Y-92262114D01*
X133597886Y-92069201D01*
X133371043Y-91917629D01*
X133118989Y-91813225D01*
X132851411Y-91760000D01*
X132578589Y-91760000D01*
X132311011Y-91813225D01*
X132058957Y-91917629D01*
X131832114Y-92069201D01*
X131639201Y-92262114D01*
X131487629Y-92488957D01*
X131383225Y-92741011D01*
X131330000Y-93008589D01*
X131330000Y-93281411D01*
X131383225Y-93548989D01*
X131487629Y-93801043D01*
X131639201Y-94027886D01*
X131832114Y-94220799D01*
X132058957Y-94372371D01*
X132154147Y-94411800D01*
X123163496Y-94411800D01*
X123045256Y-94332795D01*
X122856898Y-94254774D01*
X122656939Y-94215000D01*
X122453061Y-94215000D01*
X122253102Y-94254774D01*
X122064744Y-94332795D01*
X121895226Y-94446063D01*
X121751063Y-94590226D01*
X121637795Y-94759744D01*
X121559774Y-94948102D01*
X121520000Y-95148061D01*
X121520000Y-95351939D01*
X121559774Y-95551898D01*
X121637795Y-95740256D01*
X121751063Y-95909774D01*
X121895226Y-96053937D01*
X122064744Y-96167205D01*
X122253102Y-96245226D01*
X122453061Y-96285000D01*
X122656939Y-96285000D01*
X122856898Y-96245226D01*
X123045256Y-96167205D01*
X123163496Y-96088200D01*
X137132437Y-96088200D01*
X137173600Y-96092254D01*
X137214763Y-96088200D01*
X137214770Y-96088200D01*
X137337916Y-96076071D01*
X137495917Y-96028142D01*
X137641532Y-95950309D01*
X137769164Y-95845564D01*
X137795411Y-95813582D01*
X151701809Y-81907185D01*
X151733815Y-81946185D01*
X151830506Y-82025537D01*
X151940820Y-82084502D01*
X152060518Y-82120812D01*
X152185000Y-82133072D01*
X152229361Y-82133072D01*
X152256858Y-82223716D01*
X152334691Y-82369331D01*
X152408028Y-82458692D01*
X152439437Y-82496964D01*
X152471413Y-82523206D01*
X160681794Y-90733588D01*
X160708036Y-90765564D01*
X160740012Y-90791806D01*
X160740014Y-90791808D01*
X160835668Y-90870309D01*
X160981283Y-90948142D01*
X161139284Y-90996071D01*
X161262430Y-91008200D01*
X161262439Y-91008200D01*
X161303599Y-91012254D01*
X161344759Y-91008200D01*
X168301504Y-91008200D01*
X168419744Y-91087205D01*
X168608102Y-91165226D01*
X168808061Y-91205000D01*
X169011939Y-91205000D01*
X169211898Y-91165226D01*
X169400256Y-91087205D01*
X169569774Y-90973937D01*
X169640423Y-90903288D01*
X180630000Y-90903288D01*
X180630000Y-91136712D01*
X180675539Y-91365652D01*
X180764866Y-91581308D01*
X180894550Y-91775394D01*
X181059606Y-91940450D01*
X181253692Y-92070134D01*
X181469348Y-92159461D01*
X181698288Y-92205000D01*
X181931712Y-92205000D01*
X182160652Y-92159461D01*
X182376308Y-92070134D01*
X182570394Y-91940450D01*
X182735450Y-91775394D01*
X182865134Y-91581308D01*
X182954461Y-91365652D01*
X183000000Y-91136712D01*
X183000000Y-90903288D01*
X182954461Y-90674348D01*
X182865134Y-90458692D01*
X182735450Y-90264606D01*
X182570394Y-90099550D01*
X182376308Y-89969866D01*
X182160652Y-89880539D01*
X181931712Y-89835000D01*
X181698288Y-89835000D01*
X181469348Y-89880539D01*
X181253692Y-89969866D01*
X181059606Y-90099550D01*
X180894550Y-90264606D01*
X180764866Y-90458692D01*
X180675539Y-90674348D01*
X180630000Y-90903288D01*
X169640423Y-90903288D01*
X169713937Y-90829774D01*
X169827205Y-90660256D01*
X169905226Y-90471898D01*
X169945000Y-90271939D01*
X169945000Y-90068061D01*
X169905226Y-89868102D01*
X169827205Y-89679744D01*
X169713937Y-89510226D01*
X169569774Y-89366063D01*
X169400256Y-89252795D01*
X169211898Y-89174774D01*
X169011939Y-89135000D01*
X168808061Y-89135000D01*
X168608102Y-89174774D01*
X168419744Y-89252795D01*
X168301504Y-89331800D01*
X161650794Y-89331800D01*
X154297185Y-81978192D01*
X154336185Y-81946185D01*
X154415537Y-81849494D01*
X154474502Y-81739180D01*
X154496513Y-81666620D01*
X154628368Y-81798475D01*
X154871589Y-81960990D01*
X155141842Y-82072932D01*
X155428740Y-82130000D01*
X155721260Y-82130000D01*
X156008158Y-82072932D01*
X156278411Y-81960990D01*
X156521632Y-81798475D01*
X156728475Y-81591632D01*
X156845000Y-81417240D01*
X156961525Y-81591632D01*
X157168368Y-81798475D01*
X157411589Y-81960990D01*
X157681842Y-82072932D01*
X157968740Y-82130000D01*
X158261260Y-82130000D01*
X158548158Y-82072932D01*
X158818411Y-81960990D01*
X159061632Y-81798475D01*
X159268475Y-81591632D01*
X159430990Y-81348411D01*
X159542932Y-81078158D01*
X159600000Y-80791260D01*
X159600000Y-80498740D01*
X159542932Y-80211842D01*
X159430990Y-79941589D01*
X159268475Y-79698368D01*
X159061632Y-79491525D01*
X158887240Y-79375000D01*
X159039802Y-79273061D01*
X162160000Y-79273061D01*
X162160000Y-79476939D01*
X162199774Y-79676898D01*
X162277795Y-79865256D01*
X162356800Y-79983496D01*
X162356801Y-83846503D01*
X162277795Y-83964744D01*
X162199774Y-84153102D01*
X162160000Y-84353061D01*
X162160000Y-84556939D01*
X162199774Y-84756898D01*
X162277795Y-84945256D01*
X162391063Y-85114774D01*
X162535226Y-85258937D01*
X162704744Y-85372205D01*
X162893102Y-85450226D01*
X163093061Y-85490000D01*
X163296939Y-85490000D01*
X163496898Y-85450226D01*
X163685256Y-85372205D01*
X163854774Y-85258937D01*
X163998937Y-85114774D01*
X164112205Y-84945256D01*
X164190226Y-84756898D01*
X164230000Y-84556939D01*
X164230000Y-84353061D01*
X164190226Y-84153102D01*
X164112205Y-83964744D01*
X164033200Y-83846504D01*
X164033200Y-82903288D01*
X180630000Y-82903288D01*
X180630000Y-83136712D01*
X180675539Y-83365652D01*
X180764866Y-83581308D01*
X180894550Y-83775394D01*
X181059606Y-83940450D01*
X181253692Y-84070134D01*
X181469348Y-84159461D01*
X181698288Y-84205000D01*
X181931712Y-84205000D01*
X182160652Y-84159461D01*
X182376308Y-84070134D01*
X182570394Y-83940450D01*
X182735450Y-83775394D01*
X182865134Y-83581308D01*
X182954461Y-83365652D01*
X183000000Y-83136712D01*
X183000000Y-82903288D01*
X182954461Y-82674348D01*
X182865134Y-82458692D01*
X182735450Y-82264606D01*
X182570394Y-82099550D01*
X182376308Y-81969866D01*
X182160652Y-81880539D01*
X181931712Y-81835000D01*
X181698288Y-81835000D01*
X181469348Y-81880539D01*
X181253692Y-81969866D01*
X181059606Y-82099550D01*
X180894550Y-82264606D01*
X180764866Y-82458692D01*
X180675539Y-82674348D01*
X180630000Y-82903288D01*
X164033200Y-82903288D01*
X164033200Y-79983496D01*
X164112205Y-79865256D01*
X164190226Y-79676898D01*
X164230000Y-79476939D01*
X164230000Y-79273061D01*
X164190226Y-79073102D01*
X164112205Y-78884744D01*
X163998937Y-78715226D01*
X163854774Y-78571063D01*
X163685256Y-78457795D01*
X163496898Y-78379774D01*
X163296939Y-78340000D01*
X163093061Y-78340000D01*
X162893102Y-78379774D01*
X162704744Y-78457795D01*
X162535226Y-78571063D01*
X162391063Y-78715226D01*
X162277795Y-78884744D01*
X162199774Y-79073102D01*
X162160000Y-79273061D01*
X159039802Y-79273061D01*
X159061632Y-79258475D01*
X159268475Y-79051632D01*
X159430990Y-78808411D01*
X159542932Y-78538158D01*
X159600000Y-78251260D01*
X159600000Y-77958740D01*
X159542932Y-77671842D01*
X159430990Y-77401589D01*
X159268475Y-77158368D01*
X159193696Y-77083589D01*
X163924434Y-77083589D01*
X163974744Y-77117205D01*
X164163102Y-77195226D01*
X164363061Y-77235000D01*
X164566939Y-77235000D01*
X164766898Y-77195226D01*
X164955256Y-77117205D01*
X165124774Y-77003937D01*
X165268937Y-76859774D01*
X165382205Y-76690256D01*
X165460226Y-76501898D01*
X165500000Y-76301939D01*
X165500000Y-76098061D01*
X165460226Y-75898102D01*
X165382205Y-75709744D01*
X165268937Y-75540226D01*
X165124774Y-75396063D01*
X164955256Y-75282795D01*
X164766898Y-75204774D01*
X164566939Y-75165000D01*
X164363061Y-75165000D01*
X164163102Y-75204774D01*
X163974744Y-75282795D01*
X163805226Y-75396063D01*
X163794100Y-75407189D01*
X143162618Y-75407189D01*
X143235226Y-75231898D01*
X143275000Y-75031939D01*
X143275000Y-74828061D01*
X143235226Y-74628102D01*
X143157205Y-74439744D01*
X143043937Y-74270226D01*
X142899774Y-74126063D01*
X142730256Y-74012795D01*
X142541898Y-73934774D01*
X142341939Y-73895000D01*
X142138061Y-73895000D01*
X141938102Y-73934774D01*
X141749744Y-74012795D01*
X141580226Y-74126063D01*
X141436063Y-74270226D01*
X141322795Y-74439744D01*
X141244774Y-74628102D01*
X141225142Y-74726800D01*
X137996042Y-74726800D01*
X138201927Y-74589232D01*
X138429592Y-74361567D01*
X138608467Y-74093862D01*
X138731678Y-73796403D01*
X138794490Y-73480623D01*
X138794490Y-73158657D01*
X138731678Y-72842877D01*
X138608467Y-72545418D01*
X138429592Y-72277713D01*
X138201927Y-72050048D01*
X137934222Y-71871173D01*
X137636763Y-71747962D01*
X137320983Y-71685150D01*
X136999017Y-71685150D01*
X136683237Y-71747962D01*
X136385778Y-71871173D01*
X136118073Y-72050048D01*
X135890408Y-72277713D01*
X135711533Y-72545418D01*
X135588322Y-72842877D01*
X135525510Y-73158657D01*
X135525510Y-73480623D01*
X135588322Y-73796403D01*
X135711533Y-74093862D01*
X135890408Y-74361567D01*
X136118073Y-74589232D01*
X136323958Y-74726800D01*
X134186042Y-74726800D01*
X134391927Y-74589232D01*
X134619592Y-74361567D01*
X134798467Y-74093862D01*
X134921678Y-73796403D01*
X134984490Y-73480623D01*
X134984490Y-73158657D01*
X134921678Y-72842877D01*
X134798467Y-72545418D01*
X134619592Y-72277713D01*
X134391927Y-72050048D01*
X134124222Y-71871173D01*
X133826763Y-71747962D01*
X133510983Y-71685150D01*
X133189017Y-71685150D01*
X132873237Y-71747962D01*
X132575778Y-71871173D01*
X132308073Y-72050048D01*
X132080408Y-72277713D01*
X131901533Y-72545418D01*
X131778322Y-72842877D01*
X131715510Y-73158657D01*
X131715510Y-73480623D01*
X131778322Y-73796403D01*
X131901533Y-74093862D01*
X132080408Y-74361567D01*
X132308073Y-74589232D01*
X132513958Y-74726800D01*
X130376042Y-74726800D01*
X130581927Y-74589232D01*
X130809592Y-74361567D01*
X130988467Y-74093862D01*
X131111678Y-73796403D01*
X131174490Y-73480623D01*
X131174490Y-73158657D01*
X131111678Y-72842877D01*
X130988467Y-72545418D01*
X130809592Y-72277713D01*
X130581927Y-72050048D01*
X130314222Y-71871173D01*
X130016763Y-71747962D01*
X129700983Y-71685150D01*
X129379017Y-71685150D01*
X129063237Y-71747962D01*
X128765778Y-71871173D01*
X128498073Y-72050048D01*
X128270408Y-72277713D01*
X128091533Y-72545418D01*
X127968322Y-72842877D01*
X127905510Y-73158657D01*
X127905510Y-73480623D01*
X127968322Y-73796403D01*
X128091533Y-74093862D01*
X128270408Y-74361567D01*
X128498073Y-74589232D01*
X128727910Y-74742804D01*
X128582683Y-74786858D01*
X128437068Y-74864691D01*
X128309436Y-74969436D01*
X128283194Y-75001412D01*
X120471659Y-82812948D01*
X120424318Y-82765607D01*
X120254800Y-82652339D01*
X120066442Y-82574318D01*
X119926969Y-82546575D01*
X119366811Y-81986418D01*
X119340564Y-81954436D01*
X119212932Y-81849691D01*
X119067317Y-81771858D01*
X118909316Y-81723929D01*
X118786170Y-81711800D01*
X118786163Y-81711800D01*
X118745000Y-81707746D01*
X118703837Y-81711800D01*
X92048496Y-81711800D01*
X91930256Y-81632795D01*
X91741898Y-81554774D01*
X91541939Y-81515000D01*
X91338061Y-81515000D01*
X91138102Y-81554774D01*
X90949744Y-81632795D01*
X90780226Y-81746063D01*
X90636063Y-81890226D01*
X90522795Y-82059744D01*
X90444774Y-82248102D01*
X90405000Y-82448061D01*
X89560000Y-82448061D01*
X89560000Y-73158657D01*
X97425510Y-73158657D01*
X97425510Y-73480623D01*
X97488322Y-73796403D01*
X97611533Y-74093862D01*
X97790408Y-74361567D01*
X98018073Y-74589232D01*
X98285778Y-74768107D01*
X98583237Y-74891318D01*
X98899017Y-74954130D01*
X99220983Y-74954130D01*
X99536763Y-74891318D01*
X99834222Y-74768107D01*
X100101927Y-74589232D01*
X100329592Y-74361567D01*
X100508467Y-74093862D01*
X100631678Y-73796403D01*
X100694490Y-73480623D01*
X100694490Y-73158657D01*
X101235510Y-73158657D01*
X101235510Y-73480623D01*
X101298322Y-73796403D01*
X101421533Y-74093862D01*
X101600408Y-74361567D01*
X101828073Y-74589232D01*
X102095778Y-74768107D01*
X102393237Y-74891318D01*
X102709017Y-74954130D01*
X103030983Y-74954130D01*
X103346763Y-74891318D01*
X103644222Y-74768107D01*
X103911927Y-74589232D01*
X104139592Y-74361567D01*
X104318467Y-74093862D01*
X104441678Y-73796403D01*
X104504490Y-73480623D01*
X104504490Y-73158657D01*
X105045510Y-73158657D01*
X105045510Y-73480623D01*
X105108322Y-73796403D01*
X105231533Y-74093862D01*
X105410408Y-74361567D01*
X105638073Y-74589232D01*
X105905778Y-74768107D01*
X106203237Y-74891318D01*
X106519017Y-74954130D01*
X106840983Y-74954130D01*
X107156763Y-74891318D01*
X107454222Y-74768107D01*
X107721927Y-74589232D01*
X107949592Y-74361567D01*
X108128467Y-74093862D01*
X108251678Y-73796403D01*
X108314490Y-73480623D01*
X108314490Y-73158657D01*
X108855510Y-73158657D01*
X108855510Y-73480623D01*
X108918322Y-73796403D01*
X109041533Y-74093862D01*
X109220408Y-74361567D01*
X109448073Y-74589232D01*
X109715778Y-74768107D01*
X110013237Y-74891318D01*
X110329017Y-74954130D01*
X110650983Y-74954130D01*
X110966763Y-74891318D01*
X111264222Y-74768107D01*
X111531927Y-74589232D01*
X111759592Y-74361567D01*
X111938467Y-74093862D01*
X112061678Y-73796403D01*
X112124490Y-73480623D01*
X112124490Y-73158657D01*
X112665510Y-73158657D01*
X112665510Y-73480623D01*
X112728322Y-73796403D01*
X112851533Y-74093862D01*
X113030408Y-74361567D01*
X113258073Y-74589232D01*
X113525778Y-74768107D01*
X113823237Y-74891318D01*
X114139017Y-74954130D01*
X114460983Y-74954130D01*
X114776763Y-74891318D01*
X115074222Y-74768107D01*
X115341927Y-74589232D01*
X115569592Y-74361567D01*
X115748467Y-74093862D01*
X115871678Y-73796403D01*
X115934490Y-73480623D01*
X115934490Y-73158657D01*
X116475510Y-73158657D01*
X116475510Y-73480623D01*
X116538322Y-73796403D01*
X116661533Y-74093862D01*
X116840408Y-74361567D01*
X117068073Y-74589232D01*
X117335778Y-74768107D01*
X117633237Y-74891318D01*
X117949017Y-74954130D01*
X118270983Y-74954130D01*
X118586763Y-74891318D01*
X118884222Y-74768107D01*
X119151927Y-74589232D01*
X119379592Y-74361567D01*
X119558467Y-74093862D01*
X119681678Y-73796403D01*
X119744490Y-73480623D01*
X119744490Y-73158657D01*
X120285510Y-73158657D01*
X120285510Y-73480623D01*
X120348322Y-73796403D01*
X120471533Y-74093862D01*
X120650408Y-74361567D01*
X120878073Y-74589232D01*
X121145778Y-74768107D01*
X121443237Y-74891318D01*
X121759017Y-74954130D01*
X122080983Y-74954130D01*
X122396763Y-74891318D01*
X122694222Y-74768107D01*
X122961927Y-74589232D01*
X123189592Y-74361567D01*
X123368467Y-74093862D01*
X123491678Y-73796403D01*
X123554490Y-73480623D01*
X123554490Y-73158657D01*
X124095510Y-73158657D01*
X124095510Y-73480623D01*
X124158322Y-73796403D01*
X124281533Y-74093862D01*
X124460408Y-74361567D01*
X124688073Y-74589232D01*
X124955778Y-74768107D01*
X125253237Y-74891318D01*
X125569017Y-74954130D01*
X125890983Y-74954130D01*
X126206763Y-74891318D01*
X126504222Y-74768107D01*
X126771927Y-74589232D01*
X126999592Y-74361567D01*
X127178467Y-74093862D01*
X127301678Y-73796403D01*
X127364490Y-73480623D01*
X127364490Y-73158657D01*
X127301678Y-72842877D01*
X127178467Y-72545418D01*
X126999592Y-72277713D01*
X126771927Y-72050048D01*
X126504222Y-71871173D01*
X126206763Y-71747962D01*
X125890983Y-71685150D01*
X125569017Y-71685150D01*
X125253237Y-71747962D01*
X124955778Y-71871173D01*
X124688073Y-72050048D01*
X124460408Y-72277713D01*
X124281533Y-72545418D01*
X124158322Y-72842877D01*
X124095510Y-73158657D01*
X123554490Y-73158657D01*
X123491678Y-72842877D01*
X123368467Y-72545418D01*
X123189592Y-72277713D01*
X122961927Y-72050048D01*
X122694222Y-71871173D01*
X122396763Y-71747962D01*
X122080983Y-71685150D01*
X121759017Y-71685150D01*
X121443237Y-71747962D01*
X121145778Y-71871173D01*
X120878073Y-72050048D01*
X120650408Y-72277713D01*
X120471533Y-72545418D01*
X120348322Y-72842877D01*
X120285510Y-73158657D01*
X119744490Y-73158657D01*
X119681678Y-72842877D01*
X119558467Y-72545418D01*
X119379592Y-72277713D01*
X119151927Y-72050048D01*
X118884222Y-71871173D01*
X118586763Y-71747962D01*
X118270983Y-71685150D01*
X117949017Y-71685150D01*
X117633237Y-71747962D01*
X117335778Y-71871173D01*
X117068073Y-72050048D01*
X116840408Y-72277713D01*
X116661533Y-72545418D01*
X116538322Y-72842877D01*
X116475510Y-73158657D01*
X115934490Y-73158657D01*
X115871678Y-72842877D01*
X115748467Y-72545418D01*
X115569592Y-72277713D01*
X115341927Y-72050048D01*
X115074222Y-71871173D01*
X114776763Y-71747962D01*
X114460983Y-71685150D01*
X114139017Y-71685150D01*
X113823237Y-71747962D01*
X113525778Y-71871173D01*
X113258073Y-72050048D01*
X113030408Y-72277713D01*
X112851533Y-72545418D01*
X112728322Y-72842877D01*
X112665510Y-73158657D01*
X112124490Y-73158657D01*
X112061678Y-72842877D01*
X111938467Y-72545418D01*
X111759592Y-72277713D01*
X111531927Y-72050048D01*
X111264222Y-71871173D01*
X110966763Y-71747962D01*
X110650983Y-71685150D01*
X110329017Y-71685150D01*
X110013237Y-71747962D01*
X109715778Y-71871173D01*
X109448073Y-72050048D01*
X109220408Y-72277713D01*
X109041533Y-72545418D01*
X108918322Y-72842877D01*
X108855510Y-73158657D01*
X108314490Y-73158657D01*
X108251678Y-72842877D01*
X108128467Y-72545418D01*
X107949592Y-72277713D01*
X107721927Y-72050048D01*
X107454222Y-71871173D01*
X107156763Y-71747962D01*
X106840983Y-71685150D01*
X106519017Y-71685150D01*
X106203237Y-71747962D01*
X105905778Y-71871173D01*
X105638073Y-72050048D01*
X105410408Y-72277713D01*
X105231533Y-72545418D01*
X105108322Y-72842877D01*
X105045510Y-73158657D01*
X104504490Y-73158657D01*
X104441678Y-72842877D01*
X104318467Y-72545418D01*
X104139592Y-72277713D01*
X103911927Y-72050048D01*
X103644222Y-71871173D01*
X103346763Y-71747962D01*
X103030983Y-71685150D01*
X102709017Y-71685150D01*
X102393237Y-71747962D01*
X102095778Y-71871173D01*
X101828073Y-72050048D01*
X101600408Y-72277713D01*
X101421533Y-72545418D01*
X101298322Y-72842877D01*
X101235510Y-73158657D01*
X100694490Y-73158657D01*
X100631678Y-72842877D01*
X100508467Y-72545418D01*
X100329592Y-72277713D01*
X100101927Y-72050048D01*
X99834222Y-71871173D01*
X99536763Y-71747962D01*
X99220983Y-71685150D01*
X98899017Y-71685150D01*
X98583237Y-71747962D01*
X98285778Y-71871173D01*
X98018073Y-72050048D01*
X97790408Y-72277713D01*
X97611533Y-72545418D01*
X97488322Y-72842877D01*
X97425510Y-73158657D01*
X89560000Y-73158657D01*
X89560000Y-69930407D01*
X166385000Y-69930407D01*
X166407210Y-70155912D01*
X166494983Y-70445260D01*
X166637519Y-70711926D01*
X166829339Y-70945661D01*
X167063073Y-71137481D01*
X167329739Y-71280017D01*
X167619087Y-71367790D01*
X167920000Y-71397427D01*
X168220912Y-71367790D01*
X168510260Y-71280017D01*
X168776926Y-71137481D01*
X169010661Y-70945661D01*
X169085064Y-70855000D01*
X169881928Y-70855000D01*
X169881928Y-72655000D01*
X169894188Y-72779482D01*
X169930498Y-72899180D01*
X169989463Y-73009494D01*
X170068815Y-73106185D01*
X170165506Y-73185537D01*
X170275820Y-73244502D01*
X170395518Y-73280812D01*
X170520000Y-73293072D01*
X174920000Y-73293072D01*
X175044482Y-73280812D01*
X175164180Y-73244502D01*
X175274494Y-73185537D01*
X175371185Y-73106185D01*
X175450537Y-73009494D01*
X175509502Y-72899180D01*
X175545812Y-72779482D01*
X175558072Y-72655000D01*
X175558072Y-70855000D01*
X175545812Y-70730518D01*
X175509502Y-70610820D01*
X175450537Y-70500506D01*
X175371185Y-70403815D01*
X175274494Y-70324463D01*
X175164180Y-70265498D01*
X175044482Y-70229188D01*
X174920000Y-70216928D01*
X170520000Y-70216928D01*
X170395518Y-70229188D01*
X170275820Y-70265498D01*
X170165506Y-70324463D01*
X170068815Y-70403815D01*
X169989463Y-70500506D01*
X169930498Y-70610820D01*
X169894188Y-70730518D01*
X169881928Y-70855000D01*
X169085064Y-70855000D01*
X169202481Y-70711927D01*
X169345017Y-70445261D01*
X169432790Y-70155913D01*
X169455000Y-69930408D01*
X169455000Y-67579592D01*
X169432790Y-67354087D01*
X169345017Y-67064739D01*
X169202481Y-66798073D01*
X169010661Y-66564339D01*
X168776927Y-66372519D01*
X168510261Y-66229983D01*
X168220913Y-66142210D01*
X167920000Y-66112573D01*
X167619088Y-66142210D01*
X167329740Y-66229983D01*
X167063074Y-66372519D01*
X166829340Y-66564339D01*
X166637520Y-66798073D01*
X166494984Y-67064739D01*
X166407211Y-67354087D01*
X166385001Y-67579592D01*
X166385000Y-69930407D01*
X89560000Y-69930407D01*
X89560000Y-67509214D01*
X89581736Y-67580868D01*
X89784629Y-67960454D01*
X90057676Y-68293164D01*
X90390386Y-68566211D01*
X90769971Y-68769104D01*
X91181845Y-68894045D01*
X91610180Y-68936232D01*
X92038514Y-68894045D01*
X92450388Y-68769104D01*
X92829974Y-68566211D01*
X93162684Y-68293164D01*
X93338724Y-68078657D01*
X99330510Y-68078657D01*
X99330510Y-68400623D01*
X99393322Y-68716403D01*
X99516533Y-69013862D01*
X99695408Y-69281567D01*
X99923073Y-69509232D01*
X100190778Y-69688107D01*
X100488237Y-69811318D01*
X100804017Y-69874130D01*
X101125983Y-69874130D01*
X101441763Y-69811318D01*
X101739222Y-69688107D01*
X102006927Y-69509232D01*
X102234592Y-69281567D01*
X102413467Y-69013862D01*
X102536678Y-68716403D01*
X102599490Y-68400623D01*
X102599490Y-68078657D01*
X103140510Y-68078657D01*
X103140510Y-68400623D01*
X103203322Y-68716403D01*
X103326533Y-69013862D01*
X103505408Y-69281567D01*
X103733073Y-69509232D01*
X104000778Y-69688107D01*
X104298237Y-69811318D01*
X104614017Y-69874130D01*
X104935983Y-69874130D01*
X105251763Y-69811318D01*
X105549222Y-69688107D01*
X105816927Y-69509232D01*
X106044592Y-69281567D01*
X106223467Y-69013862D01*
X106346678Y-68716403D01*
X106409490Y-68400623D01*
X106409490Y-68078657D01*
X106950510Y-68078657D01*
X106950510Y-68400623D01*
X107013322Y-68716403D01*
X107136533Y-69013862D01*
X107315408Y-69281567D01*
X107543073Y-69509232D01*
X107810778Y-69688107D01*
X108108237Y-69811318D01*
X108424017Y-69874130D01*
X108745983Y-69874130D01*
X109061763Y-69811318D01*
X109359222Y-69688107D01*
X109626927Y-69509232D01*
X109854592Y-69281567D01*
X110033467Y-69013862D01*
X110156678Y-68716403D01*
X110219490Y-68400623D01*
X110219490Y-68078657D01*
X110760510Y-68078657D01*
X110760510Y-68400623D01*
X110823322Y-68716403D01*
X110946533Y-69013862D01*
X111125408Y-69281567D01*
X111353073Y-69509232D01*
X111620778Y-69688107D01*
X111918237Y-69811318D01*
X112234017Y-69874130D01*
X112555983Y-69874130D01*
X112871763Y-69811318D01*
X113169222Y-69688107D01*
X113436927Y-69509232D01*
X113664592Y-69281567D01*
X113843467Y-69013862D01*
X113966678Y-68716403D01*
X114029490Y-68400623D01*
X114029490Y-68078657D01*
X114570510Y-68078657D01*
X114570510Y-68400623D01*
X114633322Y-68716403D01*
X114756533Y-69013862D01*
X114935408Y-69281567D01*
X115163073Y-69509232D01*
X115430778Y-69688107D01*
X115728237Y-69811318D01*
X116044017Y-69874130D01*
X116365983Y-69874130D01*
X116681763Y-69811318D01*
X116979222Y-69688107D01*
X117246927Y-69509232D01*
X117474592Y-69281567D01*
X117653467Y-69013862D01*
X117776678Y-68716403D01*
X117839490Y-68400623D01*
X117839490Y-68078657D01*
X118380510Y-68078657D01*
X118380510Y-68400623D01*
X118443322Y-68716403D01*
X118566533Y-69013862D01*
X118745408Y-69281567D01*
X118973073Y-69509232D01*
X119240778Y-69688107D01*
X119538237Y-69811318D01*
X119854017Y-69874130D01*
X120175983Y-69874130D01*
X120491763Y-69811318D01*
X120789222Y-69688107D01*
X121056927Y-69509232D01*
X121284592Y-69281567D01*
X121463467Y-69013862D01*
X121586678Y-68716403D01*
X121649490Y-68400623D01*
X121649490Y-68078657D01*
X122190510Y-68078657D01*
X122190510Y-68400623D01*
X122253322Y-68716403D01*
X122376533Y-69013862D01*
X122555408Y-69281567D01*
X122783073Y-69509232D01*
X123050778Y-69688107D01*
X123348237Y-69811318D01*
X123664017Y-69874130D01*
X123985983Y-69874130D01*
X124301763Y-69811318D01*
X124599222Y-69688107D01*
X124866927Y-69509232D01*
X125094592Y-69281567D01*
X125273467Y-69013862D01*
X125396678Y-68716403D01*
X125459490Y-68400623D01*
X125459490Y-68078657D01*
X126000510Y-68078657D01*
X126000510Y-68400623D01*
X126063322Y-68716403D01*
X126186533Y-69013862D01*
X126365408Y-69281567D01*
X126593073Y-69509232D01*
X126860778Y-69688107D01*
X127158237Y-69811318D01*
X127474017Y-69874130D01*
X127795983Y-69874130D01*
X128111763Y-69811318D01*
X128409222Y-69688107D01*
X128676927Y-69509232D01*
X128904592Y-69281567D01*
X129083467Y-69013862D01*
X129206678Y-68716403D01*
X129269490Y-68400623D01*
X129269490Y-68078657D01*
X129810510Y-68078657D01*
X129810510Y-68400623D01*
X129873322Y-68716403D01*
X129996533Y-69013862D01*
X130175408Y-69281567D01*
X130403073Y-69509232D01*
X130670778Y-69688107D01*
X130968237Y-69811318D01*
X131284017Y-69874130D01*
X131605983Y-69874130D01*
X131921763Y-69811318D01*
X132219222Y-69688107D01*
X132486927Y-69509232D01*
X132714592Y-69281567D01*
X132893467Y-69013862D01*
X133016678Y-68716403D01*
X133079490Y-68400623D01*
X133079490Y-68078657D01*
X133620510Y-68078657D01*
X133620510Y-68400623D01*
X133683322Y-68716403D01*
X133806533Y-69013862D01*
X133985408Y-69281567D01*
X134213073Y-69509232D01*
X134480778Y-69688107D01*
X134778237Y-69811318D01*
X135094017Y-69874130D01*
X135415983Y-69874130D01*
X135731763Y-69811318D01*
X136029222Y-69688107D01*
X136296927Y-69509232D01*
X136524592Y-69281567D01*
X136703467Y-69013862D01*
X136826678Y-68716403D01*
X136889490Y-68400623D01*
X136889490Y-68078657D01*
X136826678Y-67762877D01*
X136703467Y-67465418D01*
X136524592Y-67197713D01*
X136296927Y-66970048D01*
X136029222Y-66791173D01*
X135731763Y-66667962D01*
X135415983Y-66605150D01*
X135094017Y-66605150D01*
X134778237Y-66667962D01*
X134480778Y-66791173D01*
X134213073Y-66970048D01*
X133985408Y-67197713D01*
X133806533Y-67465418D01*
X133683322Y-67762877D01*
X133620510Y-68078657D01*
X133079490Y-68078657D01*
X133016678Y-67762877D01*
X132893467Y-67465418D01*
X132714592Y-67197713D01*
X132486927Y-66970048D01*
X132219222Y-66791173D01*
X131921763Y-66667962D01*
X131605983Y-66605150D01*
X131284017Y-66605150D01*
X130968237Y-66667962D01*
X130670778Y-66791173D01*
X130403073Y-66970048D01*
X130175408Y-67197713D01*
X129996533Y-67465418D01*
X129873322Y-67762877D01*
X129810510Y-68078657D01*
X129269490Y-68078657D01*
X129206678Y-67762877D01*
X129083467Y-67465418D01*
X128904592Y-67197713D01*
X128676927Y-66970048D01*
X128409222Y-66791173D01*
X128111763Y-66667962D01*
X127795983Y-66605150D01*
X127474017Y-66605150D01*
X127158237Y-66667962D01*
X126860778Y-66791173D01*
X126593073Y-66970048D01*
X126365408Y-67197713D01*
X126186533Y-67465418D01*
X126063322Y-67762877D01*
X126000510Y-68078657D01*
X125459490Y-68078657D01*
X125396678Y-67762877D01*
X125273467Y-67465418D01*
X125094592Y-67197713D01*
X124866927Y-66970048D01*
X124599222Y-66791173D01*
X124301763Y-66667962D01*
X123985983Y-66605150D01*
X123664017Y-66605150D01*
X123348237Y-66667962D01*
X123050778Y-66791173D01*
X122783073Y-66970048D01*
X122555408Y-67197713D01*
X122376533Y-67465418D01*
X122253322Y-67762877D01*
X122190510Y-68078657D01*
X121649490Y-68078657D01*
X121586678Y-67762877D01*
X121463467Y-67465418D01*
X121284592Y-67197713D01*
X121056927Y-66970048D01*
X120789222Y-66791173D01*
X120491763Y-66667962D01*
X120175983Y-66605150D01*
X119854017Y-66605150D01*
X119538237Y-66667962D01*
X119240778Y-66791173D01*
X118973073Y-66970048D01*
X118745408Y-67197713D01*
X118566533Y-67465418D01*
X118443322Y-67762877D01*
X118380510Y-68078657D01*
X117839490Y-68078657D01*
X117776678Y-67762877D01*
X117653467Y-67465418D01*
X117474592Y-67197713D01*
X117246927Y-66970048D01*
X116979222Y-66791173D01*
X116681763Y-66667962D01*
X116365983Y-66605150D01*
X116044017Y-66605150D01*
X115728237Y-66667962D01*
X115430778Y-66791173D01*
X115163073Y-66970048D01*
X114935408Y-67197713D01*
X114756533Y-67465418D01*
X114633322Y-67762877D01*
X114570510Y-68078657D01*
X114029490Y-68078657D01*
X113966678Y-67762877D01*
X113843467Y-67465418D01*
X113664592Y-67197713D01*
X113436927Y-66970048D01*
X113169222Y-66791173D01*
X112871763Y-66667962D01*
X112555983Y-66605150D01*
X112234017Y-66605150D01*
X111918237Y-66667962D01*
X111620778Y-66791173D01*
X111353073Y-66970048D01*
X111125408Y-67197713D01*
X110946533Y-67465418D01*
X110823322Y-67762877D01*
X110760510Y-68078657D01*
X110219490Y-68078657D01*
X110156678Y-67762877D01*
X110033467Y-67465418D01*
X109854592Y-67197713D01*
X109626927Y-66970048D01*
X109359222Y-66791173D01*
X109061763Y-66667962D01*
X108745983Y-66605150D01*
X108424017Y-66605150D01*
X108108237Y-66667962D01*
X107810778Y-66791173D01*
X107543073Y-66970048D01*
X107315408Y-67197713D01*
X107136533Y-67465418D01*
X107013322Y-67762877D01*
X106950510Y-68078657D01*
X106409490Y-68078657D01*
X106346678Y-67762877D01*
X106223467Y-67465418D01*
X106044592Y-67197713D01*
X105816927Y-66970048D01*
X105549222Y-66791173D01*
X105251763Y-66667962D01*
X104935983Y-66605150D01*
X104614017Y-66605150D01*
X104298237Y-66667962D01*
X104000778Y-66791173D01*
X103733073Y-66970048D01*
X103505408Y-67197713D01*
X103326533Y-67465418D01*
X103203322Y-67762877D01*
X103140510Y-68078657D01*
X102599490Y-68078657D01*
X102536678Y-67762877D01*
X102413467Y-67465418D01*
X102234592Y-67197713D01*
X102006927Y-66970048D01*
X101739222Y-66791173D01*
X101441763Y-66667962D01*
X101125983Y-66605150D01*
X100804017Y-66605150D01*
X100488237Y-66667962D01*
X100190778Y-66791173D01*
X99923073Y-66970048D01*
X99695408Y-67197713D01*
X99516533Y-67465418D01*
X99393322Y-67762877D01*
X99330510Y-68078657D01*
X93338724Y-68078657D01*
X93435731Y-67960454D01*
X93638624Y-67580869D01*
X93763565Y-67168995D01*
X93795180Y-66848000D01*
X93795180Y-65633321D01*
X93795180Y-65633320D01*
X142424820Y-65633320D01*
X142424820Y-66847999D01*
X142456435Y-67168994D01*
X142581376Y-67580868D01*
X142784269Y-67960454D01*
X143057316Y-68293164D01*
X143390026Y-68566211D01*
X143769611Y-68769104D01*
X144181485Y-68894045D01*
X144609820Y-68936232D01*
X145038154Y-68894045D01*
X145450028Y-68769104D01*
X145829614Y-68566211D01*
X146162324Y-68293164D01*
X146435371Y-67960454D01*
X146638264Y-67580869D01*
X146763205Y-67168995D01*
X146794820Y-66848000D01*
X146794820Y-65955000D01*
X170077573Y-65955000D01*
X170107210Y-66255913D01*
X170194983Y-66545261D01*
X170337519Y-66811927D01*
X170529339Y-67045661D01*
X170763073Y-67237481D01*
X171029739Y-67380017D01*
X171319087Y-67467790D01*
X171544592Y-67490000D01*
X173895408Y-67490000D01*
X174120913Y-67467790D01*
X174410261Y-67380017D01*
X174676927Y-67237481D01*
X174910661Y-67045661D01*
X175102481Y-66811927D01*
X175245017Y-66545261D01*
X175332790Y-66255913D01*
X175362427Y-65955000D01*
X175332790Y-65654087D01*
X175245017Y-65364739D01*
X175102481Y-65098073D01*
X174910661Y-64864339D01*
X174676927Y-64672519D01*
X174410261Y-64529983D01*
X174120913Y-64442210D01*
X173895408Y-64420000D01*
X171544592Y-64420000D01*
X171319087Y-64442210D01*
X171029739Y-64529983D01*
X170763073Y-64672519D01*
X170529339Y-64864339D01*
X170337519Y-65098073D01*
X170194983Y-65364739D01*
X170107210Y-65654087D01*
X170077573Y-65955000D01*
X146794820Y-65955000D01*
X146794820Y-65633321D01*
X146763205Y-65312326D01*
X146638264Y-64900452D01*
X146435371Y-64520866D01*
X146162324Y-64188156D01*
X145829614Y-63915109D01*
X145450029Y-63712216D01*
X145038155Y-63587275D01*
X144609820Y-63545088D01*
X144181486Y-63587275D01*
X143769612Y-63712216D01*
X143390027Y-63915109D01*
X143057317Y-64188156D01*
X142784270Y-64520866D01*
X142581376Y-64900451D01*
X142456435Y-65312325D01*
X142424820Y-65633320D01*
X93795180Y-65633320D01*
X93763565Y-65312326D01*
X93638624Y-64900452D01*
X93435731Y-64520866D01*
X93162684Y-64188156D01*
X92829974Y-63915109D01*
X92450389Y-63712216D01*
X92038515Y-63587275D01*
X91610180Y-63545088D01*
X91181846Y-63587275D01*
X90769972Y-63712216D01*
X90390387Y-63915109D01*
X90057677Y-64188156D01*
X89784630Y-64520866D01*
X89581736Y-64900451D01*
X89560000Y-64972105D01*
X89560000Y-62092880D01*
X89573584Y-62161171D01*
X89719901Y-62514412D01*
X89932320Y-62832321D01*
X90202679Y-63102680D01*
X90520588Y-63315099D01*
X90873829Y-63461416D01*
X91248827Y-63536008D01*
X91631173Y-63536008D01*
X92006171Y-63461416D01*
X92359412Y-63315099D01*
X92677321Y-63102680D01*
X92947680Y-62832321D01*
X93160099Y-62514412D01*
X93306416Y-62161171D01*
X93381008Y-61786173D01*
X93381008Y-61403827D01*
X93367092Y-61333863D01*
X152752622Y-61333863D01*
X152846121Y-61630446D01*
X152995684Y-61903089D01*
X153195563Y-62141315D01*
X153438077Y-62335969D01*
X153713906Y-62479571D01*
X153932020Y-62550563D01*
X154178000Y-62430594D01*
X154178000Y-61087000D01*
X152879430Y-61087000D01*
X152752622Y-61333863D01*
X93367092Y-61333863D01*
X93306416Y-61028829D01*
X93160099Y-60675588D01*
X92947680Y-60357679D01*
X92677321Y-60087320D01*
X92359412Y-59874901D01*
X92006171Y-59728584D01*
X91937880Y-59715000D01*
X153274906Y-59715000D01*
X153195563Y-59778685D01*
G37*
X153195563Y-59778685D02*
X152995684Y-60016911D01*
X152846121Y-60289554D01*
X152752622Y-60586137D01*
X152879430Y-60833000D01*
X154178000Y-60833000D01*
X154178000Y-60813000D01*
X154432000Y-60813000D01*
X154432000Y-60833000D01*
X154452000Y-60833000D01*
X154452000Y-61087000D01*
X154432000Y-61087000D01*
X154432000Y-62430594D01*
X154677980Y-62550563D01*
X154896094Y-62479571D01*
X155171923Y-62335969D01*
X155414437Y-62141315D01*
X155569838Y-61956100D01*
X155717037Y-62135463D01*
X155958765Y-62333845D01*
X156234551Y-62481255D01*
X156533796Y-62572030D01*
X156845000Y-62602681D01*
X157156203Y-62572030D01*
X157455448Y-62481255D01*
X157731234Y-62333845D01*
X157857095Y-62230553D01*
X157901963Y-62314494D01*
X157981315Y-62411185D01*
X158078006Y-62490537D01*
X158188320Y-62549502D01*
X158308018Y-62585812D01*
X158432500Y-62598072D01*
X160337500Y-62598072D01*
X160461982Y-62585812D01*
X160581680Y-62549502D01*
X160691994Y-62490537D01*
X160788685Y-62411185D01*
X160868037Y-62314494D01*
X160927002Y-62204180D01*
X160963312Y-62084482D01*
X160975572Y-61960000D01*
X160975572Y-59960000D01*
X160963312Y-59835518D01*
X160927002Y-59715820D01*
X160926564Y-59715000D01*
X181747120Y-59715000D01*
X181678829Y-59728584D01*
X181325588Y-59874901D01*
X181007679Y-60087320D01*
X180737320Y-60357679D01*
X180524901Y-60675588D01*
X180378584Y-61028829D01*
X180303992Y-61403827D01*
X180303992Y-61786173D01*
X180378584Y-62161171D01*
X180524901Y-62514412D01*
X180737320Y-62832321D01*
X181007679Y-63102680D01*
X181325588Y-63315099D01*
X181678829Y-63461416D01*
X182053827Y-63536008D01*
X182436173Y-63536008D01*
X182811171Y-63461416D01*
X183164412Y-63315099D01*
X183482321Y-63102680D01*
X183752680Y-62832321D01*
X183965099Y-62514412D01*
X184111416Y-62161171D01*
X184125001Y-62092875D01*
X184125001Y-65054965D01*
X183863578Y-64840421D01*
X183562168Y-64679314D01*
X183235119Y-64580105D01*
X182980225Y-64555000D01*
X181509775Y-64555000D01*
X181254881Y-64580105D01*
X180927832Y-64679314D01*
X180626422Y-64840421D01*
X180362234Y-65057234D01*
X180145421Y-65321422D01*
X179984314Y-65622832D01*
X179885105Y-65949881D01*
X179851606Y-66290000D01*
X179885105Y-66630119D01*
X179984314Y-66957168D01*
X180145421Y-67258578D01*
X180362234Y-67522766D01*
X180553994Y-67680139D01*
X180459236Y-67857419D01*
X180380040Y-68118493D01*
X180353299Y-68390000D01*
X180380040Y-68661507D01*
X180459236Y-68922581D01*
X180587843Y-69163188D01*
X180760919Y-69374081D01*
X180780316Y-69390000D01*
X180760919Y-69405919D01*
X180587843Y-69616812D01*
X180459236Y-69857419D01*
X180380040Y-70118493D01*
X180353299Y-70390000D01*
X180380040Y-70661507D01*
X180459236Y-70922581D01*
X180583940Y-71155886D01*
X180543815Y-71188815D01*
X180464463Y-71285506D01*
X180405498Y-71395820D01*
X180369188Y-71515518D01*
X180356928Y-71640000D01*
X180356928Y-73140000D01*
X180368008Y-73252496D01*
X180362234Y-73257234D01*
X180145421Y-73521422D01*
X179984314Y-73822832D01*
X179885105Y-74149881D01*
X179851606Y-74490000D01*
X179885105Y-74830119D01*
X179984314Y-75157168D01*
X180145421Y-75458578D01*
X180362234Y-75722766D01*
X180626422Y-75939579D01*
X180927832Y-76100686D01*
X181254881Y-76199895D01*
X181509775Y-76225000D01*
X182980225Y-76225000D01*
X183235119Y-76199895D01*
X183562168Y-76100686D01*
X183863578Y-75939579D01*
X184125001Y-75725035D01*
X184125000Y-104912120D01*
X184111416Y-104843829D01*
X183965099Y-104490588D01*
X183752680Y-104172679D01*
X183482321Y-103902320D01*
X183164412Y-103689901D01*
X182811171Y-103543584D01*
X182436173Y-103468992D01*
X182053827Y-103468992D01*
X181678829Y-103543584D01*
X181325588Y-103689901D01*
X181007679Y-103902320D01*
X180737320Y-104172679D01*
X180524901Y-104490588D01*
X180378584Y-104843829D01*
X180303992Y-105218827D01*
X180303992Y-105601173D01*
X180378584Y-105976171D01*
X180524901Y-106329412D01*
X180737320Y-106647321D01*
X181007679Y-106917680D01*
X181325588Y-107130099D01*
X181678829Y-107276416D01*
X181747120Y-107290000D01*
X91937880Y-107290000D01*
X92006171Y-107276416D01*
X92359412Y-107130099D01*
X92677321Y-106917680D01*
X92947680Y-106647321D01*
X93160099Y-106329412D01*
X93306416Y-105976171D01*
X93381008Y-105601173D01*
X93381008Y-105218827D01*
X93306416Y-104843829D01*
X93160099Y-104490588D01*
X92947680Y-104172679D01*
X92677321Y-103902320D01*
X92359412Y-103689901D01*
X92006171Y-103543584D01*
X91631173Y-103468992D01*
X91248827Y-103468992D01*
X90873829Y-103543584D01*
X90520588Y-103689901D01*
X90202679Y-103902320D01*
X89932320Y-104172679D01*
X89719901Y-104490588D01*
X89573584Y-104843829D01*
X89560000Y-104912120D01*
X89560000Y-99187000D01*
X99330000Y-99187000D01*
X99330000Y-99687000D01*
X99386193Y-100003532D01*
X99503058Y-100303020D01*
X99676105Y-100573954D01*
X99898683Y-100805922D01*
X100162239Y-100990010D01*
X100456645Y-101119144D01*
X100584566Y-101150124D01*
X100838000Y-101030777D01*
X100838000Y-99187000D01*
X101092000Y-99187000D01*
X101092000Y-101030777D01*
X101345434Y-101150124D01*
X101473355Y-101119144D01*
X101767761Y-100990010D01*
X102031317Y-100805922D01*
X102253895Y-100573954D01*
X102426942Y-100303020D01*
X102543807Y-100003532D01*
X102600000Y-99687000D01*
X102600000Y-99187000D01*
X101092000Y-99187000D01*
X100838000Y-99187000D01*
X99330000Y-99187000D01*
X89560000Y-99187000D01*
X89560000Y-98433000D01*
X99330000Y-98433000D01*
X99330000Y-98933000D01*
X100838000Y-98933000D01*
X100838000Y-97089223D01*
X101092000Y-97089223D01*
X101092000Y-98933000D01*
X102600000Y-98933000D01*
X102600000Y-98479679D01*
X103330000Y-98479679D01*
X103330000Y-99640322D01*
X103353657Y-99880516D01*
X103447148Y-100188715D01*
X103598970Y-100472752D01*
X103803287Y-100721714D01*
X104052249Y-100926031D01*
X104336286Y-101077852D01*
X104644485Y-101171343D01*
X104965000Y-101202911D01*
X105285516Y-101171343D01*
X105593715Y-101077852D01*
X105877752Y-100926031D01*
X106126714Y-100721714D01*
X106331031Y-100472752D01*
X106482852Y-100188715D01*
X106576343Y-99880516D01*
X106600000Y-99640322D01*
X106600000Y-98479679D01*
X107330000Y-98479679D01*
X107330000Y-99640322D01*
X107353657Y-99880516D01*
X107447148Y-100188715D01*
X107598970Y-100472752D01*
X107803287Y-100721714D01*
X108052249Y-100926031D01*
X108336286Y-101077852D01*
X108644485Y-101171343D01*
X108965000Y-101202911D01*
X109285516Y-101171343D01*
X109593715Y-101077852D01*
X109877752Y-100926031D01*
X110126714Y-100721714D01*
X110331031Y-100472752D01*
X110482852Y-100188715D01*
X110576343Y-99880516D01*
X110600000Y-99640322D01*
X110600000Y-98479679D01*
X111330000Y-98479679D01*
X111330000Y-99640322D01*
X111353657Y-99880516D01*
X111447148Y-100188715D01*
X111598970Y-100472752D01*
X111803287Y-100721714D01*
X112052249Y-100926031D01*
X112336286Y-101077852D01*
X112644485Y-101171343D01*
X112965000Y-101202911D01*
X113285516Y-101171343D01*
X113593715Y-101077852D01*
X113877752Y-100926031D01*
X114126714Y-100721714D01*
X114331031Y-100472752D01*
X114482852Y-100188715D01*
X114576343Y-99880516D01*
X114600000Y-99640322D01*
X114600000Y-98479679D01*
X117830000Y-98479679D01*
X117830000Y-99640322D01*
X117853657Y-99880516D01*
X117947148Y-100188715D01*
X118098970Y-100472752D01*
X118303287Y-100721714D01*
X118552249Y-100926031D01*
X118836286Y-101077852D01*
X119144485Y-101171343D01*
X119465000Y-101202911D01*
X119785516Y-101171343D01*
X120093715Y-101077852D01*
X120377752Y-100926031D01*
X120626714Y-100721714D01*
X120831031Y-100472752D01*
X120982852Y-100188715D01*
X121076343Y-99880516D01*
X121100000Y-99640322D01*
X121100000Y-98479679D01*
X121830000Y-98479679D01*
X121830000Y-99640322D01*
X121853657Y-99880516D01*
X121947148Y-100188715D01*
X122098970Y-100472752D01*
X122303287Y-100721714D01*
X122552249Y-100926031D01*
X122836286Y-101077852D01*
X123144485Y-101171343D01*
X123465000Y-101202911D01*
X123785516Y-101171343D01*
X124093715Y-101077852D01*
X124377752Y-100926031D01*
X124626714Y-100721714D01*
X124831031Y-100472752D01*
X124982852Y-100188715D01*
X125076343Y-99880516D01*
X125100000Y-99640322D01*
X125100000Y-98479679D01*
X125830000Y-98479679D01*
X125830000Y-99640322D01*
X125853657Y-99880516D01*
X125947148Y-100188715D01*
X126098970Y-100472752D01*
X126303287Y-100721714D01*
X126552249Y-100926031D01*
X126836286Y-101077852D01*
X127144485Y-101171343D01*
X127465000Y-101202911D01*
X127785516Y-101171343D01*
X128093715Y-101077852D01*
X128377752Y-100926031D01*
X128626714Y-100721714D01*
X128831031Y-100472752D01*
X128982852Y-100188715D01*
X129076343Y-99880516D01*
X129100000Y-99640322D01*
X129100000Y-99187000D01*
X145050000Y-99187000D01*
X145050000Y-99687000D01*
X145106193Y-100003532D01*
X145223058Y-100303020D01*
X145396105Y-100573954D01*
X145618683Y-100805922D01*
X145882239Y-100990010D01*
X146176645Y-101119144D01*
X146304566Y-101150124D01*
X146558000Y-101030777D01*
X146558000Y-99187000D01*
X146812000Y-99187000D01*
X146812000Y-101030777D01*
X147065434Y-101150124D01*
X147193355Y-101119144D01*
X147487761Y-100990010D01*
X147751317Y-100805922D01*
X147973895Y-100573954D01*
X148146942Y-100303020D01*
X148263807Y-100003532D01*
X148320000Y-99687000D01*
X148320000Y-99187000D01*
X146812000Y-99187000D01*
X146558000Y-99187000D01*
X145050000Y-99187000D01*
X129100000Y-99187000D01*
X129100000Y-98479678D01*
X129095403Y-98433000D01*
X145050000Y-98433000D01*
X145050000Y-98933000D01*
X146558000Y-98933000D01*
X146558000Y-97089223D01*
X146812000Y-97089223D01*
X146812000Y-98933000D01*
X148320000Y-98933000D01*
X148320000Y-98479679D01*
X149050000Y-98479679D01*
X149050000Y-99640322D01*
X149073657Y-99880516D01*
X149167148Y-100188715D01*
X149318970Y-100472752D01*
X149523287Y-100721714D01*
X149772249Y-100926031D01*
X150056286Y-101077852D01*
X150291801Y-101149294D01*
X150291800Y-103531504D01*
X150212795Y-103649744D01*
X150134774Y-103838102D01*
X150095000Y-104038061D01*
X150095000Y-104241939D01*
X150134774Y-104441898D01*
X150212795Y-104630256D01*
X150326063Y-104799774D01*
X150470226Y-104943937D01*
X150639744Y-105057205D01*
X150828102Y-105135226D01*
X151028061Y-105175000D01*
X151231939Y-105175000D01*
X151431898Y-105135226D01*
X151620256Y-105057205D01*
X151789774Y-104943937D01*
X151933937Y-104799774D01*
X152047205Y-104630256D01*
X152125226Y-104441898D01*
X152165000Y-104241939D01*
X152165000Y-104038061D01*
X152125226Y-103838102D01*
X152047205Y-103649744D01*
X151968200Y-103531504D01*
X151968200Y-100573682D01*
X152051031Y-100472752D01*
X152202852Y-100188715D01*
X152296343Y-99880516D01*
X152320000Y-99640322D01*
X152320000Y-98479679D01*
X153050000Y-98479679D01*
X153050000Y-99640322D01*
X153073657Y-99880516D01*
X153167148Y-100188715D01*
X153318970Y-100472752D01*
X153523287Y-100721714D01*
X153772249Y-100926031D01*
X154056286Y-101077852D01*
X154101801Y-101091659D01*
X154101800Y-102261504D01*
X154022795Y-102379744D01*
X153944774Y-102568102D01*
X153905000Y-102768061D01*
X153905000Y-102971939D01*
X153944774Y-103171898D01*
X154022795Y-103360256D01*
X154136063Y-103529774D01*
X154280226Y-103673937D01*
X154449744Y-103787205D01*
X154638102Y-103865226D01*
X154838061Y-103905000D01*
X155041939Y-103905000D01*
X155241898Y-103865226D01*
X155430256Y-103787205D01*
X155599774Y-103673937D01*
X155743937Y-103529774D01*
X155857205Y-103360256D01*
X155935226Y-103171898D01*
X155975000Y-102971939D01*
X155975000Y-102768061D01*
X155935226Y-102568102D01*
X155857205Y-102379744D01*
X155778200Y-102261504D01*
X155778200Y-100777942D01*
X155846714Y-100721714D01*
X156051031Y-100472752D01*
X156202852Y-100188715D01*
X156296343Y-99880516D01*
X156320000Y-99640322D01*
X156320000Y-98479679D01*
X157050000Y-98479679D01*
X157050000Y-99640322D01*
X157073657Y-99880516D01*
X157167148Y-100188715D01*
X157318970Y-100472752D01*
X157523287Y-100721714D01*
X157772249Y-100926031D01*
X158056286Y-101077852D01*
X158364485Y-101171343D01*
X158685000Y-101202911D01*
X159005516Y-101171343D01*
X159313715Y-101077852D01*
X159597752Y-100926031D01*
X159846714Y-100721714D01*
X160051031Y-100472752D01*
X160202852Y-100188715D01*
X160296343Y-99880516D01*
X160320000Y-99640322D01*
X160320000Y-98479679D01*
X163550000Y-98479679D01*
X163550000Y-99640322D01*
X163573657Y-99880516D01*
X163667148Y-100188715D01*
X163818970Y-100472752D01*
X164023287Y-100721714D01*
X164272249Y-100926031D01*
X164556286Y-101077852D01*
X164864485Y-101171343D01*
X165185000Y-101202911D01*
X165505516Y-101171343D01*
X165813715Y-101077852D01*
X166097752Y-100926031D01*
X166346714Y-100721714D01*
X166551031Y-100472752D01*
X166702852Y-100188715D01*
X166796343Y-99880516D01*
X166820000Y-99640322D01*
X166820000Y-98479679D01*
X167550000Y-98479679D01*
X167550000Y-99640322D01*
X167573657Y-99880516D01*
X167667148Y-100188715D01*
X167818970Y-100472752D01*
X168023287Y-100721714D01*
X168272249Y-100926031D01*
X168556286Y-101077852D01*
X168864485Y-101171343D01*
X169185000Y-101202911D01*
X169505516Y-101171343D01*
X169813715Y-101077852D01*
X170097752Y-100926031D01*
X170346714Y-100721714D01*
X170551031Y-100472752D01*
X170702852Y-100188715D01*
X170796343Y-99880516D01*
X170820000Y-99640322D01*
X170820000Y-98479679D01*
X171550000Y-98479679D01*
X171550000Y-99640322D01*
X171573657Y-99880516D01*
X171667148Y-100188715D01*
X171818970Y-100472752D01*
X172023287Y-100721714D01*
X172272249Y-100926031D01*
X172556286Y-101077852D01*
X172864485Y-101171343D01*
X173185000Y-101202911D01*
X173505516Y-101171343D01*
X173813715Y-101077852D01*
X174097752Y-100926031D01*
X174346714Y-100721714D01*
X174551031Y-100472752D01*
X174702852Y-100188715D01*
X174796343Y-99880516D01*
X174820000Y-99640322D01*
X174820000Y-98479678D01*
X174796343Y-98239484D01*
X174702852Y-97931285D01*
X174551031Y-97647248D01*
X174346714Y-97398286D01*
X174097751Y-97193969D01*
X173813714Y-97042148D01*
X173505515Y-96948657D01*
X173185000Y-96917089D01*
X172864484Y-96948657D01*
X172556285Y-97042148D01*
X172272248Y-97193969D01*
X172023286Y-97398286D01*
X171818969Y-97647249D01*
X171667148Y-97931286D01*
X171573657Y-98239485D01*
X171550000Y-98479679D01*
X170820000Y-98479679D01*
X170820000Y-98479678D01*
X170796343Y-98239484D01*
X170702852Y-97931285D01*
X170551031Y-97647248D01*
X170346714Y-97398286D01*
X170097751Y-97193969D01*
X169813714Y-97042148D01*
X169505515Y-96948657D01*
X169185000Y-96917089D01*
X168864484Y-96948657D01*
X168556285Y-97042148D01*
X168272248Y-97193969D01*
X168023286Y-97398286D01*
X167818969Y-97647249D01*
X167667148Y-97931286D01*
X167573657Y-98239485D01*
X167550000Y-98479679D01*
X166820000Y-98479679D01*
X166820000Y-98479678D01*
X166796343Y-98239484D01*
X166702852Y-97931285D01*
X166551031Y-97647248D01*
X166346714Y-97398286D01*
X166097751Y-97193969D01*
X165813714Y-97042148D01*
X165505515Y-96948657D01*
X165185000Y-96917089D01*
X164864484Y-96948657D01*
X164556285Y-97042148D01*
X164272248Y-97193969D01*
X164023286Y-97398286D01*
X163818969Y-97647249D01*
X163667148Y-97931286D01*
X163573657Y-98239485D01*
X163550000Y-98479679D01*
X160320000Y-98479679D01*
X160320000Y-98479678D01*
X160296343Y-98239484D01*
X160202852Y-97931285D01*
X160051031Y-97647248D01*
X159846714Y-97398286D01*
X159597751Y-97193969D01*
X159313714Y-97042148D01*
X159005515Y-96948657D01*
X158685000Y-96917089D01*
X158364484Y-96948657D01*
X158056285Y-97042148D01*
X157772248Y-97193969D01*
X157523286Y-97398286D01*
X157318969Y-97647249D01*
X157167148Y-97931286D01*
X157073657Y-98239485D01*
X157050000Y-98479679D01*
X156320000Y-98479679D01*
X156320000Y-98479678D01*
X156296343Y-98239484D01*
X156202852Y-97931285D01*
X156051031Y-97647248D01*
X155846714Y-97398286D01*
X155597751Y-97193969D01*
X155313714Y-97042148D01*
X155005515Y-96948657D01*
X154685000Y-96917089D01*
X154364484Y-96948657D01*
X154056285Y-97042148D01*
X153772248Y-97193969D01*
X153523286Y-97398286D01*
X153318969Y-97647249D01*
X153167148Y-97931286D01*
X153073657Y-98239485D01*
X153050000Y-98479679D01*
X152320000Y-98479679D01*
X152320000Y-98479678D01*
X152296343Y-98239484D01*
X152202852Y-97931285D01*
X152051031Y-97647248D01*
X151846714Y-97398286D01*
X151597751Y-97193969D01*
X151313714Y-97042148D01*
X151005515Y-96948657D01*
X150685000Y-96917089D01*
X150364484Y-96948657D01*
X150056285Y-97042148D01*
X149772248Y-97193969D01*
X149523286Y-97398286D01*
X149318969Y-97647249D01*
X149167148Y-97931286D01*
X149073657Y-98239485D01*
X149050000Y-98479679D01*
X148320000Y-98479679D01*
X148320000Y-98433000D01*
X148263807Y-98116468D01*
X148146942Y-97816980D01*
X147973895Y-97546046D01*
X147751317Y-97314078D01*
X147487761Y-97129990D01*
X147193355Y-97000856D01*
X147065434Y-96969876D01*
X146812000Y-97089223D01*
X146558000Y-97089223D01*
X146304566Y-96969876D01*
X146176645Y-97000856D01*
X145882239Y-97129990D01*
X145618683Y-97314078D01*
X145396105Y-97546046D01*
X145223058Y-97816980D01*
X145106193Y-98116468D01*
X145050000Y-98433000D01*
X129095403Y-98433000D01*
X129076343Y-98239484D01*
X128982852Y-97931285D01*
X128831031Y-97647248D01*
X128626714Y-97398286D01*
X128377751Y-97193969D01*
X128093714Y-97042148D01*
X127785515Y-96948657D01*
X127465000Y-96917089D01*
X127144484Y-96948657D01*
X126836285Y-97042148D01*
X126552248Y-97193969D01*
X126303286Y-97398286D01*
X126098969Y-97647249D01*
X125947148Y-97931286D01*
X125853657Y-98239485D01*
X125830000Y-98479679D01*
X125100000Y-98479679D01*
X125100000Y-98479678D01*
X125076343Y-98239484D01*
X124982852Y-97931285D01*
X124831031Y-97647248D01*
X124626714Y-97398286D01*
X124377751Y-97193969D01*
X124093714Y-97042148D01*
X123785515Y-96948657D01*
X123465000Y-96917089D01*
X123144484Y-96948657D01*
X122836285Y-97042148D01*
X122552248Y-97193969D01*
X122303286Y-97398286D01*
X122098969Y-97647249D01*
X121947148Y-97931286D01*
X121853657Y-98239485D01*
X121830000Y-98479679D01*
X121100000Y-98479679D01*
X121100000Y-98479678D01*
X121076343Y-98239484D01*
X120982852Y-97931285D01*
X120831031Y-97647248D01*
X120626714Y-97398286D01*
X120377751Y-97193969D01*
X120093714Y-97042148D01*
X119785515Y-96948657D01*
X119465000Y-96917089D01*
X119144484Y-96948657D01*
X118836285Y-97042148D01*
X118552248Y-97193969D01*
X118303286Y-97398286D01*
X118098969Y-97647249D01*
X117947148Y-97931286D01*
X117853657Y-98239485D01*
X117830000Y-98479679D01*
X114600000Y-98479679D01*
X114600000Y-98479678D01*
X114576343Y-98239484D01*
X114482852Y-97931285D01*
X114331031Y-97647248D01*
X114126714Y-97398286D01*
X113877751Y-97193969D01*
X113593714Y-97042148D01*
X113285515Y-96948657D01*
X112965000Y-96917089D01*
X112644484Y-96948657D01*
X112336285Y-97042148D01*
X112052248Y-97193969D01*
X111803286Y-97398286D01*
X111598969Y-97647249D01*
X111447148Y-97931286D01*
X111353657Y-98239485D01*
X111330000Y-98479679D01*
X110600000Y-98479679D01*
X110600000Y-98479678D01*
X110576343Y-98239484D01*
X110482852Y-97931285D01*
X110331031Y-97647248D01*
X110126714Y-97398286D01*
X109877751Y-97193969D01*
X109593714Y-97042148D01*
X109285515Y-96948657D01*
X108965000Y-96917089D01*
X108644484Y-96948657D01*
X108336285Y-97042148D01*
X108052248Y-97193969D01*
X107803286Y-97398286D01*
X107598969Y-97647249D01*
X107447148Y-97931286D01*
X107353657Y-98239485D01*
X107330000Y-98479679D01*
X106600000Y-98479679D01*
X106600000Y-98479678D01*
X106576343Y-98239484D01*
X106482852Y-97931285D01*
X106331031Y-97647248D01*
X106126714Y-97398286D01*
X105877751Y-97193969D01*
X105593714Y-97042148D01*
X105285515Y-96948657D01*
X104965000Y-96917089D01*
X104644484Y-96948657D01*
X104336285Y-97042148D01*
X104052248Y-97193969D01*
X103803286Y-97398286D01*
X103598969Y-97647249D01*
X103447148Y-97931286D01*
X103353657Y-98239485D01*
X103330000Y-98479679D01*
X102600000Y-98479679D01*
X102600000Y-98433000D01*
X102543807Y-98116468D01*
X102426942Y-97816980D01*
X102253895Y-97546046D01*
X102031317Y-97314078D01*
X101767761Y-97129990D01*
X101473355Y-97000856D01*
X101345434Y-96969876D01*
X101092000Y-97089223D01*
X100838000Y-97089223D01*
X100584566Y-96969876D01*
X100456645Y-97000856D01*
X100162239Y-97129990D01*
X99898683Y-97314078D01*
X99676105Y-97546046D01*
X99503058Y-97816980D01*
X99386193Y-98116468D01*
X99330000Y-98433000D01*
X89560000Y-98433000D01*
X89560000Y-91810000D01*
X91806928Y-91810000D01*
X91806928Y-93610000D01*
X91819188Y-93734482D01*
X91855498Y-93854180D01*
X91914463Y-93964494D01*
X91993815Y-94061185D01*
X92090506Y-94140537D01*
X92200820Y-94199502D01*
X92320518Y-94235812D01*
X92445000Y-94248072D01*
X94245000Y-94248072D01*
X94369482Y-94235812D01*
X94489180Y-94199502D01*
X94599494Y-94140537D01*
X94696185Y-94061185D01*
X94775537Y-93964494D01*
X94834502Y-93854180D01*
X94840056Y-93835873D01*
X94906495Y-93902312D01*
X95157905Y-94070299D01*
X95437257Y-94186011D01*
X95733816Y-94245000D01*
X96036184Y-94245000D01*
X96332743Y-94186011D01*
X96612095Y-94070299D01*
X96863505Y-93902312D01*
X97077312Y-93688505D01*
X97245299Y-93437095D01*
X97361011Y-93157743D01*
X97420000Y-92861184D01*
X97420000Y-92558816D01*
X97361011Y-92262257D01*
X97245299Y-91982905D01*
X97077312Y-91731495D01*
X96863505Y-91517688D01*
X96612095Y-91349701D01*
X96332743Y-91233989D01*
X96036184Y-91175000D01*
X95733816Y-91175000D01*
X95437257Y-91233989D01*
X95157905Y-91349701D01*
X94906495Y-91517688D01*
X94840056Y-91584127D01*
X94834502Y-91565820D01*
X94775537Y-91455506D01*
X94696185Y-91358815D01*
X94599494Y-91279463D01*
X94489180Y-91220498D01*
X94369482Y-91184188D01*
X94245000Y-91171928D01*
X92445000Y-91171928D01*
X92320518Y-91184188D01*
X92200820Y-91220498D01*
X92090506Y-91279463D01*
X91993815Y-91358815D01*
X91914463Y-91455506D01*
X91855498Y-91565820D01*
X91819188Y-91685518D01*
X91806928Y-91810000D01*
X89560000Y-91810000D01*
X89560000Y-85791553D01*
X91804009Y-85791553D01*
X91846603Y-86090907D01*
X91946778Y-86376199D01*
X92026739Y-86525792D01*
X92280920Y-86609475D01*
X93165395Y-85725000D01*
X92280920Y-84840525D01*
X92026739Y-84924208D01*
X91895842Y-85196775D01*
X91820635Y-85489642D01*
X91804009Y-85791553D01*
X89560000Y-85791553D01*
X89560000Y-84660920D01*
X92460525Y-84660920D01*
X93345000Y-85545395D01*
X93359143Y-85531253D01*
X93538748Y-85710858D01*
X93524605Y-85725000D01*
X93538748Y-85739143D01*
X93359143Y-85918748D01*
X93345000Y-85904605D01*
X92460525Y-86789080D01*
X92544208Y-87043261D01*
X92816775Y-87174158D01*
X93109642Y-87249365D01*
X93411553Y-87265991D01*
X93710907Y-87223397D01*
X93996199Y-87123222D01*
X94145792Y-87043261D01*
X94229474Y-86789082D01*
X94345422Y-86905030D01*
X94392187Y-86858265D01*
X94395498Y-86869180D01*
X94454463Y-86979494D01*
X94533815Y-87076185D01*
X94630506Y-87155537D01*
X94740820Y-87214502D01*
X94860518Y-87250812D01*
X94985000Y-87263072D01*
X96785000Y-87263072D01*
X96909482Y-87250812D01*
X97029180Y-87214502D01*
X97139494Y-87155537D01*
X97236185Y-87076185D01*
X97315537Y-86979494D01*
X97374502Y-86869180D01*
X97410812Y-86749482D01*
X97423072Y-86625000D01*
X97423072Y-84825000D01*
X97410812Y-84700518D01*
X97374502Y-84580820D01*
X97315537Y-84470506D01*
X97236185Y-84373815D01*
X97139494Y-84294463D01*
X97029180Y-84235498D01*
X96909482Y-84199188D01*
X96785000Y-84186928D01*
X94985000Y-84186928D01*
X94860518Y-84199188D01*
X94740820Y-84235498D01*
X94630506Y-84294463D01*
X94533815Y-84373815D01*
X94454463Y-84470506D01*
X94395498Y-84580820D01*
X94392187Y-84591735D01*
X94345422Y-84544970D01*
X94229474Y-84660918D01*
X94145792Y-84406739D01*
X93873225Y-84275842D01*
X93580358Y-84200635D01*
X93278447Y-84184009D01*
X92979093Y-84226603D01*
X92693801Y-84326778D01*
X92544208Y-84406739D01*
X92460525Y-84660920D01*
X89560000Y-84660920D01*
X89560000Y-82448061D01*
X90405000Y-82448061D01*
X90405000Y-82651939D01*
X90444774Y-82851898D01*
X90522795Y-83040256D01*
X90636063Y-83209774D01*
X90780226Y-83353937D01*
X90949744Y-83467205D01*
X91138102Y-83545226D01*
X91338061Y-83585000D01*
X91541939Y-83585000D01*
X91741898Y-83545226D01*
X91930256Y-83467205D01*
X92048496Y-83388200D01*
X118397807Y-83388200D01*
X118741575Y-83731969D01*
X118769318Y-83871442D01*
X118847339Y-84059800D01*
X118960607Y-84229318D01*
X119007948Y-84276659D01*
X116911418Y-86373189D01*
X116879436Y-86399436D01*
X116774691Y-86527069D01*
X116696858Y-86672684D01*
X116648929Y-86830685D01*
X116636800Y-86953831D01*
X116636800Y-86953837D01*
X116632746Y-86995000D01*
X116636800Y-87036163D01*
X116636801Y-90196503D01*
X116557795Y-90314744D01*
X116479774Y-90503102D01*
X116440000Y-90703061D01*
X116440000Y-90906939D01*
X116479774Y-91106898D01*
X116557795Y-91295256D01*
X116671063Y-91464774D01*
X116815226Y-91608937D01*
X116984744Y-91722205D01*
X117173102Y-91800226D01*
X117373061Y-91840000D01*
X117576939Y-91840000D01*
X117776898Y-91800226D01*
X117965256Y-91722205D01*
X118134774Y-91608937D01*
X118278937Y-91464774D01*
X118392205Y-91295256D01*
X118470226Y-91106898D01*
X118510000Y-90906939D01*
X118510000Y-90703061D01*
X118470226Y-90503102D01*
X118392205Y-90314744D01*
X118313200Y-90196504D01*
X118313200Y-87342193D01*
X129252194Y-76403200D01*
X131961406Y-76403200D01*
X123027576Y-85337031D01*
X122888102Y-85364774D01*
X122699744Y-85442795D01*
X122530226Y-85556063D01*
X122386063Y-85700226D01*
X122272795Y-85869744D01*
X122194774Y-86058102D01*
X122155000Y-86258061D01*
X122155000Y-86461939D01*
X122194774Y-86661898D01*
X122272795Y-86850256D01*
X122376231Y-87005060D01*
X122340436Y-87034436D01*
X122314194Y-87066412D01*
X119070413Y-90310194D01*
X119038437Y-90336436D01*
X119012195Y-90368412D01*
X119012192Y-90368415D01*
X118933691Y-90464069D01*
X118855858Y-90609684D01*
X118807929Y-90767685D01*
X118801814Y-90829774D01*
X118795800Y-90890830D01*
X118795800Y-90890837D01*
X118791746Y-90932000D01*
X118795800Y-90973163D01*
X118795800Y-91473806D01*
X118582575Y-91687031D01*
X118443102Y-91714774D01*
X118254744Y-91792795D01*
X118085226Y-91906063D01*
X117941063Y-92050226D01*
X117827795Y-92219744D01*
X117749774Y-92408102D01*
X117710000Y-92608061D01*
X117710000Y-92811939D01*
X117749774Y-93011898D01*
X117827795Y-93200256D01*
X117941063Y-93369774D01*
X118085226Y-93513937D01*
X118254744Y-93627205D01*
X118443102Y-93705226D01*
X118643061Y-93745000D01*
X118846939Y-93745000D01*
X119046898Y-93705226D01*
X119235256Y-93627205D01*
X119404774Y-93513937D01*
X119548937Y-93369774D01*
X119662205Y-93200256D01*
X119740226Y-93011898D01*
X119767969Y-92872425D01*
X119875841Y-92764552D01*
X119990226Y-92878937D01*
X120159744Y-92992205D01*
X120348102Y-93070226D01*
X120548061Y-93110000D01*
X120751939Y-93110000D01*
X120951898Y-93070226D01*
X121140256Y-92992205D01*
X121309774Y-92878937D01*
X121453937Y-92734774D01*
X121567205Y-92565256D01*
X121645226Y-92376898D01*
X121685000Y-92176939D01*
X121685000Y-91973061D01*
X121651961Y-91806961D01*
X121818061Y-91840000D01*
X122021939Y-91840000D01*
X122221898Y-91800226D01*
X122410256Y-91722205D01*
X122528496Y-91643200D01*
X139595007Y-91643200D01*
X136826407Y-94411800D01*
X133275853Y-94411800D01*
X133371043Y-94372371D01*
X133597886Y-94220799D01*
X133790799Y-94027886D01*
X133942371Y-93801043D01*
X134046775Y-93548989D01*
X134100000Y-93281411D01*
X134100000Y-93008589D01*
X134046775Y-92741011D01*
X133942371Y-92488957D01*
X133790799Y-92262114D01*
X133597886Y-92069201D01*
X133371043Y-91917629D01*
X133118989Y-91813225D01*
X132851411Y-91760000D01*
X132578589Y-91760000D01*
X132311011Y-91813225D01*
X132058957Y-91917629D01*
X131832114Y-92069201D01*
X131639201Y-92262114D01*
X131487629Y-92488957D01*
X131383225Y-92741011D01*
X131330000Y-93008589D01*
X131330000Y-93281411D01*
X131383225Y-93548989D01*
X131487629Y-93801043D01*
X131639201Y-94027886D01*
X131832114Y-94220799D01*
X132058957Y-94372371D01*
X132154147Y-94411800D01*
X123163496Y-94411800D01*
X123045256Y-94332795D01*
X122856898Y-94254774D01*
X122656939Y-94215000D01*
X122453061Y-94215000D01*
X122253102Y-94254774D01*
X122064744Y-94332795D01*
X121895226Y-94446063D01*
X121751063Y-94590226D01*
X121637795Y-94759744D01*
X121559774Y-94948102D01*
X121520000Y-95148061D01*
X121520000Y-95351939D01*
X121559774Y-95551898D01*
X121637795Y-95740256D01*
X121751063Y-95909774D01*
X121895226Y-96053937D01*
X122064744Y-96167205D01*
X122253102Y-96245226D01*
X122453061Y-96285000D01*
X122656939Y-96285000D01*
X122856898Y-96245226D01*
X123045256Y-96167205D01*
X123163496Y-96088200D01*
X137132437Y-96088200D01*
X137173600Y-96092254D01*
X137214763Y-96088200D01*
X137214770Y-96088200D01*
X137337916Y-96076071D01*
X137495917Y-96028142D01*
X137641532Y-95950309D01*
X137769164Y-95845564D01*
X137795411Y-95813582D01*
X151701809Y-81907185D01*
X151733815Y-81946185D01*
X151830506Y-82025537D01*
X151940820Y-82084502D01*
X152060518Y-82120812D01*
X152185000Y-82133072D01*
X152229361Y-82133072D01*
X152256858Y-82223716D01*
X152334691Y-82369331D01*
X152408028Y-82458692D01*
X152439437Y-82496964D01*
X152471413Y-82523206D01*
X160681794Y-90733588D01*
X160708036Y-90765564D01*
X160740012Y-90791806D01*
X160740014Y-90791808D01*
X160835668Y-90870309D01*
X160981283Y-90948142D01*
X161139284Y-90996071D01*
X161262430Y-91008200D01*
X161262439Y-91008200D01*
X161303599Y-91012254D01*
X161344759Y-91008200D01*
X168301504Y-91008200D01*
X168419744Y-91087205D01*
X168608102Y-91165226D01*
X168808061Y-91205000D01*
X169011939Y-91205000D01*
X169211898Y-91165226D01*
X169400256Y-91087205D01*
X169569774Y-90973937D01*
X169640423Y-90903288D01*
X180630000Y-90903288D01*
X180630000Y-91136712D01*
X180675539Y-91365652D01*
X180764866Y-91581308D01*
X180894550Y-91775394D01*
X181059606Y-91940450D01*
X181253692Y-92070134D01*
X181469348Y-92159461D01*
X181698288Y-92205000D01*
X181931712Y-92205000D01*
X182160652Y-92159461D01*
X182376308Y-92070134D01*
X182570394Y-91940450D01*
X182735450Y-91775394D01*
X182865134Y-91581308D01*
X182954461Y-91365652D01*
X183000000Y-91136712D01*
X183000000Y-90903288D01*
X182954461Y-90674348D01*
X182865134Y-90458692D01*
X182735450Y-90264606D01*
X182570394Y-90099550D01*
X182376308Y-89969866D01*
X182160652Y-89880539D01*
X181931712Y-89835000D01*
X181698288Y-89835000D01*
X181469348Y-89880539D01*
X181253692Y-89969866D01*
X181059606Y-90099550D01*
X180894550Y-90264606D01*
X180764866Y-90458692D01*
X180675539Y-90674348D01*
X180630000Y-90903288D01*
X169640423Y-90903288D01*
X169713937Y-90829774D01*
X169827205Y-90660256D01*
X169905226Y-90471898D01*
X169945000Y-90271939D01*
X169945000Y-90068061D01*
X169905226Y-89868102D01*
X169827205Y-89679744D01*
X169713937Y-89510226D01*
X169569774Y-89366063D01*
X169400256Y-89252795D01*
X169211898Y-89174774D01*
X169011939Y-89135000D01*
X168808061Y-89135000D01*
X168608102Y-89174774D01*
X168419744Y-89252795D01*
X168301504Y-89331800D01*
X161650794Y-89331800D01*
X154297185Y-81978192D01*
X154336185Y-81946185D01*
X154415537Y-81849494D01*
X154474502Y-81739180D01*
X154496513Y-81666620D01*
X154628368Y-81798475D01*
X154871589Y-81960990D01*
X155141842Y-82072932D01*
X155428740Y-82130000D01*
X155721260Y-82130000D01*
X156008158Y-82072932D01*
X156278411Y-81960990D01*
X156521632Y-81798475D01*
X156728475Y-81591632D01*
X156845000Y-81417240D01*
X156961525Y-81591632D01*
X157168368Y-81798475D01*
X157411589Y-81960990D01*
X157681842Y-82072932D01*
X157968740Y-82130000D01*
X158261260Y-82130000D01*
X158548158Y-82072932D01*
X158818411Y-81960990D01*
X159061632Y-81798475D01*
X159268475Y-81591632D01*
X159430990Y-81348411D01*
X159542932Y-81078158D01*
X159600000Y-80791260D01*
X159600000Y-80498740D01*
X159542932Y-80211842D01*
X159430990Y-79941589D01*
X159268475Y-79698368D01*
X159061632Y-79491525D01*
X158887240Y-79375000D01*
X159039802Y-79273061D01*
X162160000Y-79273061D01*
X162160000Y-79476939D01*
X162199774Y-79676898D01*
X162277795Y-79865256D01*
X162356800Y-79983496D01*
X162356801Y-83846503D01*
X162277795Y-83964744D01*
X162199774Y-84153102D01*
X162160000Y-84353061D01*
X162160000Y-84556939D01*
X162199774Y-84756898D01*
X162277795Y-84945256D01*
X162391063Y-85114774D01*
X162535226Y-85258937D01*
X162704744Y-85372205D01*
X162893102Y-85450226D01*
X163093061Y-85490000D01*
X163296939Y-85490000D01*
X163496898Y-85450226D01*
X163685256Y-85372205D01*
X163854774Y-85258937D01*
X163998937Y-85114774D01*
X164112205Y-84945256D01*
X164190226Y-84756898D01*
X164230000Y-84556939D01*
X164230000Y-84353061D01*
X164190226Y-84153102D01*
X164112205Y-83964744D01*
X164033200Y-83846504D01*
X164033200Y-82903288D01*
X180630000Y-82903288D01*
X180630000Y-83136712D01*
X180675539Y-83365652D01*
X180764866Y-83581308D01*
X180894550Y-83775394D01*
X181059606Y-83940450D01*
X181253692Y-84070134D01*
X181469348Y-84159461D01*
X181698288Y-84205000D01*
X181931712Y-84205000D01*
X182160652Y-84159461D01*
X182376308Y-84070134D01*
X182570394Y-83940450D01*
X182735450Y-83775394D01*
X182865134Y-83581308D01*
X182954461Y-83365652D01*
X183000000Y-83136712D01*
X183000000Y-82903288D01*
X182954461Y-82674348D01*
X182865134Y-82458692D01*
X182735450Y-82264606D01*
X182570394Y-82099550D01*
X182376308Y-81969866D01*
X182160652Y-81880539D01*
X181931712Y-81835000D01*
X181698288Y-81835000D01*
X181469348Y-81880539D01*
X181253692Y-81969866D01*
X181059606Y-82099550D01*
X180894550Y-82264606D01*
X180764866Y-82458692D01*
X180675539Y-82674348D01*
X180630000Y-82903288D01*
X164033200Y-82903288D01*
X164033200Y-79983496D01*
X164112205Y-79865256D01*
X164190226Y-79676898D01*
X164230000Y-79476939D01*
X164230000Y-79273061D01*
X164190226Y-79073102D01*
X164112205Y-78884744D01*
X163998937Y-78715226D01*
X163854774Y-78571063D01*
X163685256Y-78457795D01*
X163496898Y-78379774D01*
X163296939Y-78340000D01*
X163093061Y-78340000D01*
X162893102Y-78379774D01*
X162704744Y-78457795D01*
X162535226Y-78571063D01*
X162391063Y-78715226D01*
X162277795Y-78884744D01*
X162199774Y-79073102D01*
X162160000Y-79273061D01*
X159039802Y-79273061D01*
X159061632Y-79258475D01*
X159268475Y-79051632D01*
X159430990Y-78808411D01*
X159542932Y-78538158D01*
X159600000Y-78251260D01*
X159600000Y-77958740D01*
X159542932Y-77671842D01*
X159430990Y-77401589D01*
X159268475Y-77158368D01*
X159193696Y-77083589D01*
X163924434Y-77083589D01*
X163974744Y-77117205D01*
X164163102Y-77195226D01*
X164363061Y-77235000D01*
X164566939Y-77235000D01*
X164766898Y-77195226D01*
X164955256Y-77117205D01*
X165124774Y-77003937D01*
X165268937Y-76859774D01*
X165382205Y-76690256D01*
X165460226Y-76501898D01*
X165500000Y-76301939D01*
X165500000Y-76098061D01*
X165460226Y-75898102D01*
X165382205Y-75709744D01*
X165268937Y-75540226D01*
X165124774Y-75396063D01*
X164955256Y-75282795D01*
X164766898Y-75204774D01*
X164566939Y-75165000D01*
X164363061Y-75165000D01*
X164163102Y-75204774D01*
X163974744Y-75282795D01*
X163805226Y-75396063D01*
X163794100Y-75407189D01*
X143162618Y-75407189D01*
X143235226Y-75231898D01*
X143275000Y-75031939D01*
X143275000Y-74828061D01*
X143235226Y-74628102D01*
X143157205Y-74439744D01*
X143043937Y-74270226D01*
X142899774Y-74126063D01*
X142730256Y-74012795D01*
X142541898Y-73934774D01*
X142341939Y-73895000D01*
X142138061Y-73895000D01*
X141938102Y-73934774D01*
X141749744Y-74012795D01*
X141580226Y-74126063D01*
X141436063Y-74270226D01*
X141322795Y-74439744D01*
X141244774Y-74628102D01*
X141225142Y-74726800D01*
X137996042Y-74726800D01*
X138201927Y-74589232D01*
X138429592Y-74361567D01*
X138608467Y-74093862D01*
X138731678Y-73796403D01*
X138794490Y-73480623D01*
X138794490Y-73158657D01*
X138731678Y-72842877D01*
X138608467Y-72545418D01*
X138429592Y-72277713D01*
X138201927Y-72050048D01*
X137934222Y-71871173D01*
X137636763Y-71747962D01*
X137320983Y-71685150D01*
X136999017Y-71685150D01*
X136683237Y-71747962D01*
X136385778Y-71871173D01*
X136118073Y-72050048D01*
X135890408Y-72277713D01*
X135711533Y-72545418D01*
X135588322Y-72842877D01*
X135525510Y-73158657D01*
X135525510Y-73480623D01*
X135588322Y-73796403D01*
X135711533Y-74093862D01*
X135890408Y-74361567D01*
X136118073Y-74589232D01*
X136323958Y-74726800D01*
X134186042Y-74726800D01*
X134391927Y-74589232D01*
X134619592Y-74361567D01*
X134798467Y-74093862D01*
X134921678Y-73796403D01*
X134984490Y-73480623D01*
X134984490Y-73158657D01*
X134921678Y-72842877D01*
X134798467Y-72545418D01*
X134619592Y-72277713D01*
X134391927Y-72050048D01*
X134124222Y-71871173D01*
X133826763Y-71747962D01*
X133510983Y-71685150D01*
X133189017Y-71685150D01*
X132873237Y-71747962D01*
X132575778Y-71871173D01*
X132308073Y-72050048D01*
X132080408Y-72277713D01*
X131901533Y-72545418D01*
X131778322Y-72842877D01*
X131715510Y-73158657D01*
X131715510Y-73480623D01*
X131778322Y-73796403D01*
X131901533Y-74093862D01*
X132080408Y-74361567D01*
X132308073Y-74589232D01*
X132513958Y-74726800D01*
X130376042Y-74726800D01*
X130581927Y-74589232D01*
X130809592Y-74361567D01*
X130988467Y-74093862D01*
X131111678Y-73796403D01*
X131174490Y-73480623D01*
X131174490Y-73158657D01*
X131111678Y-72842877D01*
X130988467Y-72545418D01*
X130809592Y-72277713D01*
X130581927Y-72050048D01*
X130314222Y-71871173D01*
X130016763Y-71747962D01*
X129700983Y-71685150D01*
X129379017Y-71685150D01*
X129063237Y-71747962D01*
X128765778Y-71871173D01*
X128498073Y-72050048D01*
X128270408Y-72277713D01*
X128091533Y-72545418D01*
X127968322Y-72842877D01*
X127905510Y-73158657D01*
X127905510Y-73480623D01*
X127968322Y-73796403D01*
X128091533Y-74093862D01*
X128270408Y-74361567D01*
X128498073Y-74589232D01*
X128727910Y-74742804D01*
X128582683Y-74786858D01*
X128437068Y-74864691D01*
X128309436Y-74969436D01*
X128283194Y-75001412D01*
X120471659Y-82812948D01*
X120424318Y-82765607D01*
X120254800Y-82652339D01*
X120066442Y-82574318D01*
X119926969Y-82546575D01*
X119366811Y-81986418D01*
X119340564Y-81954436D01*
X119212932Y-81849691D01*
X119067317Y-81771858D01*
X118909316Y-81723929D01*
X118786170Y-81711800D01*
X118786163Y-81711800D01*
X118745000Y-81707746D01*
X118703837Y-81711800D01*
X92048496Y-81711800D01*
X91930256Y-81632795D01*
X91741898Y-81554774D01*
X91541939Y-81515000D01*
X91338061Y-81515000D01*
X91138102Y-81554774D01*
X90949744Y-81632795D01*
X90780226Y-81746063D01*
X90636063Y-81890226D01*
X90522795Y-82059744D01*
X90444774Y-82248102D01*
X90405000Y-82448061D01*
X89560000Y-82448061D01*
X89560000Y-73158657D01*
X97425510Y-73158657D01*
X97425510Y-73480623D01*
X97488322Y-73796403D01*
X97611533Y-74093862D01*
X97790408Y-74361567D01*
X98018073Y-74589232D01*
X98285778Y-74768107D01*
X98583237Y-74891318D01*
X98899017Y-74954130D01*
X99220983Y-74954130D01*
X99536763Y-74891318D01*
X99834222Y-74768107D01*
X100101927Y-74589232D01*
X100329592Y-74361567D01*
X100508467Y-74093862D01*
X100631678Y-73796403D01*
X100694490Y-73480623D01*
X100694490Y-73158657D01*
X101235510Y-73158657D01*
X101235510Y-73480623D01*
X101298322Y-73796403D01*
X101421533Y-74093862D01*
X101600408Y-74361567D01*
X101828073Y-74589232D01*
X102095778Y-74768107D01*
X102393237Y-74891318D01*
X102709017Y-74954130D01*
X103030983Y-74954130D01*
X103346763Y-74891318D01*
X103644222Y-74768107D01*
X103911927Y-74589232D01*
X104139592Y-74361567D01*
X104318467Y-74093862D01*
X104441678Y-73796403D01*
X104504490Y-73480623D01*
X104504490Y-73158657D01*
X105045510Y-73158657D01*
X105045510Y-73480623D01*
X105108322Y-73796403D01*
X105231533Y-74093862D01*
X105410408Y-74361567D01*
X105638073Y-74589232D01*
X105905778Y-74768107D01*
X106203237Y-74891318D01*
X106519017Y-74954130D01*
X106840983Y-74954130D01*
X107156763Y-74891318D01*
X107454222Y-74768107D01*
X107721927Y-74589232D01*
X107949592Y-74361567D01*
X108128467Y-74093862D01*
X108251678Y-73796403D01*
X108314490Y-73480623D01*
X108314490Y-73158657D01*
X108855510Y-73158657D01*
X108855510Y-73480623D01*
X108918322Y-73796403D01*
X109041533Y-74093862D01*
X109220408Y-74361567D01*
X109448073Y-74589232D01*
X109715778Y-74768107D01*
X110013237Y-74891318D01*
X110329017Y-74954130D01*
X110650983Y-74954130D01*
X110966763Y-74891318D01*
X111264222Y-74768107D01*
X111531927Y-74589232D01*
X111759592Y-74361567D01*
X111938467Y-74093862D01*
X112061678Y-73796403D01*
X112124490Y-73480623D01*
X112124490Y-73158657D01*
X112665510Y-73158657D01*
X112665510Y-73480623D01*
X112728322Y-73796403D01*
X112851533Y-74093862D01*
X113030408Y-74361567D01*
X113258073Y-74589232D01*
X113525778Y-74768107D01*
X113823237Y-74891318D01*
X114139017Y-74954130D01*
X114460983Y-74954130D01*
X114776763Y-74891318D01*
X115074222Y-74768107D01*
X115341927Y-74589232D01*
X115569592Y-74361567D01*
X115748467Y-74093862D01*
X115871678Y-73796403D01*
X115934490Y-73480623D01*
X115934490Y-73158657D01*
X116475510Y-73158657D01*
X116475510Y-73480623D01*
X116538322Y-73796403D01*
X116661533Y-74093862D01*
X116840408Y-74361567D01*
X117068073Y-74589232D01*
X117335778Y-74768107D01*
X117633237Y-74891318D01*
X117949017Y-74954130D01*
X118270983Y-74954130D01*
X118586763Y-74891318D01*
X118884222Y-74768107D01*
X119151927Y-74589232D01*
X119379592Y-74361567D01*
X119558467Y-74093862D01*
X119681678Y-73796403D01*
X119744490Y-73480623D01*
X119744490Y-73158657D01*
X120285510Y-73158657D01*
X120285510Y-73480623D01*
X120348322Y-73796403D01*
X120471533Y-74093862D01*
X120650408Y-74361567D01*
X120878073Y-74589232D01*
X121145778Y-74768107D01*
X121443237Y-74891318D01*
X121759017Y-74954130D01*
X122080983Y-74954130D01*
X122396763Y-74891318D01*
X122694222Y-74768107D01*
X122961927Y-74589232D01*
X123189592Y-74361567D01*
X123368467Y-74093862D01*
X123491678Y-73796403D01*
X123554490Y-73480623D01*
X123554490Y-73158657D01*
X124095510Y-73158657D01*
X124095510Y-73480623D01*
X124158322Y-73796403D01*
X124281533Y-74093862D01*
X124460408Y-74361567D01*
X124688073Y-74589232D01*
X124955778Y-74768107D01*
X125253237Y-74891318D01*
X125569017Y-74954130D01*
X125890983Y-74954130D01*
X126206763Y-74891318D01*
X126504222Y-74768107D01*
X126771927Y-74589232D01*
X126999592Y-74361567D01*
X127178467Y-74093862D01*
X127301678Y-73796403D01*
X127364490Y-73480623D01*
X127364490Y-73158657D01*
X127301678Y-72842877D01*
X127178467Y-72545418D01*
X126999592Y-72277713D01*
X126771927Y-72050048D01*
X126504222Y-71871173D01*
X126206763Y-71747962D01*
X125890983Y-71685150D01*
X125569017Y-71685150D01*
X125253237Y-71747962D01*
X124955778Y-71871173D01*
X124688073Y-72050048D01*
X124460408Y-72277713D01*
X124281533Y-72545418D01*
X124158322Y-72842877D01*
X124095510Y-73158657D01*
X123554490Y-73158657D01*
X123491678Y-72842877D01*
X123368467Y-72545418D01*
X123189592Y-72277713D01*
X122961927Y-72050048D01*
X122694222Y-71871173D01*
X122396763Y-71747962D01*
X122080983Y-71685150D01*
X121759017Y-71685150D01*
X121443237Y-71747962D01*
X121145778Y-71871173D01*
X120878073Y-72050048D01*
X120650408Y-72277713D01*
X120471533Y-72545418D01*
X120348322Y-72842877D01*
X120285510Y-73158657D01*
X119744490Y-73158657D01*
X119681678Y-72842877D01*
X119558467Y-72545418D01*
X119379592Y-72277713D01*
X119151927Y-72050048D01*
X118884222Y-71871173D01*
X118586763Y-71747962D01*
X118270983Y-71685150D01*
X117949017Y-71685150D01*
X117633237Y-71747962D01*
X117335778Y-71871173D01*
X117068073Y-72050048D01*
X116840408Y-72277713D01*
X116661533Y-72545418D01*
X116538322Y-72842877D01*
X116475510Y-73158657D01*
X115934490Y-73158657D01*
X115871678Y-72842877D01*
X115748467Y-72545418D01*
X115569592Y-72277713D01*
X115341927Y-72050048D01*
X115074222Y-71871173D01*
X114776763Y-71747962D01*
X114460983Y-71685150D01*
X114139017Y-71685150D01*
X113823237Y-71747962D01*
X113525778Y-71871173D01*
X113258073Y-72050048D01*
X113030408Y-72277713D01*
X112851533Y-72545418D01*
X112728322Y-72842877D01*
X112665510Y-73158657D01*
X112124490Y-73158657D01*
X112061678Y-72842877D01*
X111938467Y-72545418D01*
X111759592Y-72277713D01*
X111531927Y-72050048D01*
X111264222Y-71871173D01*
X110966763Y-71747962D01*
X110650983Y-71685150D01*
X110329017Y-71685150D01*
X110013237Y-71747962D01*
X109715778Y-71871173D01*
X109448073Y-72050048D01*
X109220408Y-72277713D01*
X109041533Y-72545418D01*
X108918322Y-72842877D01*
X108855510Y-73158657D01*
X108314490Y-73158657D01*
X108251678Y-72842877D01*
X108128467Y-72545418D01*
X107949592Y-72277713D01*
X107721927Y-72050048D01*
X107454222Y-71871173D01*
X107156763Y-71747962D01*
X106840983Y-71685150D01*
X106519017Y-71685150D01*
X106203237Y-71747962D01*
X105905778Y-71871173D01*
X105638073Y-72050048D01*
X105410408Y-72277713D01*
X105231533Y-72545418D01*
X105108322Y-72842877D01*
X105045510Y-73158657D01*
X104504490Y-73158657D01*
X104441678Y-72842877D01*
X104318467Y-72545418D01*
X104139592Y-72277713D01*
X103911927Y-72050048D01*
X103644222Y-71871173D01*
X103346763Y-71747962D01*
X103030983Y-71685150D01*
X102709017Y-71685150D01*
X102393237Y-71747962D01*
X102095778Y-71871173D01*
X101828073Y-72050048D01*
X101600408Y-72277713D01*
X101421533Y-72545418D01*
X101298322Y-72842877D01*
X101235510Y-73158657D01*
X100694490Y-73158657D01*
X100631678Y-72842877D01*
X100508467Y-72545418D01*
X100329592Y-72277713D01*
X100101927Y-72050048D01*
X99834222Y-71871173D01*
X99536763Y-71747962D01*
X99220983Y-71685150D01*
X98899017Y-71685150D01*
X98583237Y-71747962D01*
X98285778Y-71871173D01*
X98018073Y-72050048D01*
X97790408Y-72277713D01*
X97611533Y-72545418D01*
X97488322Y-72842877D01*
X97425510Y-73158657D01*
X89560000Y-73158657D01*
X89560000Y-69930407D01*
X166385000Y-69930407D01*
X166407210Y-70155912D01*
X166494983Y-70445260D01*
X166637519Y-70711926D01*
X166829339Y-70945661D01*
X167063073Y-71137481D01*
X167329739Y-71280017D01*
X167619087Y-71367790D01*
X167920000Y-71397427D01*
X168220912Y-71367790D01*
X168510260Y-71280017D01*
X168776926Y-71137481D01*
X169010661Y-70945661D01*
X169085064Y-70855000D01*
X169881928Y-70855000D01*
X169881928Y-72655000D01*
X169894188Y-72779482D01*
X169930498Y-72899180D01*
X169989463Y-73009494D01*
X170068815Y-73106185D01*
X170165506Y-73185537D01*
X170275820Y-73244502D01*
X170395518Y-73280812D01*
X170520000Y-73293072D01*
X174920000Y-73293072D01*
X175044482Y-73280812D01*
X175164180Y-73244502D01*
X175274494Y-73185537D01*
X175371185Y-73106185D01*
X175450537Y-73009494D01*
X175509502Y-72899180D01*
X175545812Y-72779482D01*
X175558072Y-72655000D01*
X175558072Y-70855000D01*
X175545812Y-70730518D01*
X175509502Y-70610820D01*
X175450537Y-70500506D01*
X175371185Y-70403815D01*
X175274494Y-70324463D01*
X175164180Y-70265498D01*
X175044482Y-70229188D01*
X174920000Y-70216928D01*
X170520000Y-70216928D01*
X170395518Y-70229188D01*
X170275820Y-70265498D01*
X170165506Y-70324463D01*
X170068815Y-70403815D01*
X169989463Y-70500506D01*
X169930498Y-70610820D01*
X169894188Y-70730518D01*
X169881928Y-70855000D01*
X169085064Y-70855000D01*
X169202481Y-70711927D01*
X169345017Y-70445261D01*
X169432790Y-70155913D01*
X169455000Y-69930408D01*
X169455000Y-67579592D01*
X169432790Y-67354087D01*
X169345017Y-67064739D01*
X169202481Y-66798073D01*
X169010661Y-66564339D01*
X168776927Y-66372519D01*
X168510261Y-66229983D01*
X168220913Y-66142210D01*
X167920000Y-66112573D01*
X167619088Y-66142210D01*
X167329740Y-66229983D01*
X167063074Y-66372519D01*
X166829340Y-66564339D01*
X166637520Y-66798073D01*
X166494984Y-67064739D01*
X166407211Y-67354087D01*
X166385001Y-67579592D01*
X166385000Y-69930407D01*
X89560000Y-69930407D01*
X89560000Y-67509214D01*
X89581736Y-67580868D01*
X89784629Y-67960454D01*
X90057676Y-68293164D01*
X90390386Y-68566211D01*
X90769971Y-68769104D01*
X91181845Y-68894045D01*
X91610180Y-68936232D01*
X92038514Y-68894045D01*
X92450388Y-68769104D01*
X92829974Y-68566211D01*
X93162684Y-68293164D01*
X93338724Y-68078657D01*
X99330510Y-68078657D01*
X99330510Y-68400623D01*
X99393322Y-68716403D01*
X99516533Y-69013862D01*
X99695408Y-69281567D01*
X99923073Y-69509232D01*
X100190778Y-69688107D01*
X100488237Y-69811318D01*
X100804017Y-69874130D01*
X101125983Y-69874130D01*
X101441763Y-69811318D01*
X101739222Y-69688107D01*
X102006927Y-69509232D01*
X102234592Y-69281567D01*
X102413467Y-69013862D01*
X102536678Y-68716403D01*
X102599490Y-68400623D01*
X102599490Y-68078657D01*
X103140510Y-68078657D01*
X103140510Y-68400623D01*
X103203322Y-68716403D01*
X103326533Y-69013862D01*
X103505408Y-69281567D01*
X103733073Y-69509232D01*
X104000778Y-69688107D01*
X104298237Y-69811318D01*
X104614017Y-69874130D01*
X104935983Y-69874130D01*
X105251763Y-69811318D01*
X105549222Y-69688107D01*
X105816927Y-69509232D01*
X106044592Y-69281567D01*
X106223467Y-69013862D01*
X106346678Y-68716403D01*
X106409490Y-68400623D01*
X106409490Y-68078657D01*
X106950510Y-68078657D01*
X106950510Y-68400623D01*
X107013322Y-68716403D01*
X107136533Y-69013862D01*
X107315408Y-69281567D01*
X107543073Y-69509232D01*
X107810778Y-69688107D01*
X108108237Y-69811318D01*
X108424017Y-69874130D01*
X108745983Y-69874130D01*
X109061763Y-69811318D01*
X109359222Y-69688107D01*
X109626927Y-69509232D01*
X109854592Y-69281567D01*
X110033467Y-69013862D01*
X110156678Y-68716403D01*
X110219490Y-68400623D01*
X110219490Y-68078657D01*
X110760510Y-68078657D01*
X110760510Y-68400623D01*
X110823322Y-68716403D01*
X110946533Y-69013862D01*
X111125408Y-69281567D01*
X111353073Y-69509232D01*
X111620778Y-69688107D01*
X111918237Y-69811318D01*
X112234017Y-69874130D01*
X112555983Y-69874130D01*
X112871763Y-69811318D01*
X113169222Y-69688107D01*
X113436927Y-69509232D01*
X113664592Y-69281567D01*
X113843467Y-69013862D01*
X113966678Y-68716403D01*
X114029490Y-68400623D01*
X114029490Y-68078657D01*
X114570510Y-68078657D01*
X114570510Y-68400623D01*
X114633322Y-68716403D01*
X114756533Y-69013862D01*
X114935408Y-69281567D01*
X115163073Y-69509232D01*
X115430778Y-69688107D01*
X115728237Y-69811318D01*
X116044017Y-69874130D01*
X116365983Y-69874130D01*
X116681763Y-69811318D01*
X116979222Y-69688107D01*
X117246927Y-69509232D01*
X117474592Y-69281567D01*
X117653467Y-69013862D01*
X117776678Y-68716403D01*
X117839490Y-68400623D01*
X117839490Y-68078657D01*
X118380510Y-68078657D01*
X118380510Y-68400623D01*
X118443322Y-68716403D01*
X118566533Y-69013862D01*
X118745408Y-69281567D01*
X118973073Y-69509232D01*
X119240778Y-69688107D01*
X119538237Y-69811318D01*
X119854017Y-69874130D01*
X120175983Y-69874130D01*
X120491763Y-69811318D01*
X120789222Y-69688107D01*
X121056927Y-69509232D01*
X121284592Y-69281567D01*
X121463467Y-69013862D01*
X121586678Y-68716403D01*
X121649490Y-68400623D01*
X121649490Y-68078657D01*
X122190510Y-68078657D01*
X122190510Y-68400623D01*
X122253322Y-68716403D01*
X122376533Y-69013862D01*
X122555408Y-69281567D01*
X122783073Y-69509232D01*
X123050778Y-69688107D01*
X123348237Y-69811318D01*
X123664017Y-69874130D01*
X123985983Y-69874130D01*
X124301763Y-69811318D01*
X124599222Y-69688107D01*
X124866927Y-69509232D01*
X125094592Y-69281567D01*
X125273467Y-69013862D01*
X125396678Y-68716403D01*
X125459490Y-68400623D01*
X125459490Y-68078657D01*
X126000510Y-68078657D01*
X126000510Y-68400623D01*
X126063322Y-68716403D01*
X126186533Y-69013862D01*
X126365408Y-69281567D01*
X126593073Y-69509232D01*
X126860778Y-69688107D01*
X127158237Y-69811318D01*
X127474017Y-69874130D01*
X127795983Y-69874130D01*
X128111763Y-69811318D01*
X128409222Y-69688107D01*
X128676927Y-69509232D01*
X128904592Y-69281567D01*
X129083467Y-69013862D01*
X129206678Y-68716403D01*
X129269490Y-68400623D01*
X129269490Y-68078657D01*
X129810510Y-68078657D01*
X129810510Y-68400623D01*
X129873322Y-68716403D01*
X129996533Y-69013862D01*
X130175408Y-69281567D01*
X130403073Y-69509232D01*
X130670778Y-69688107D01*
X130968237Y-69811318D01*
X131284017Y-69874130D01*
X131605983Y-69874130D01*
X131921763Y-69811318D01*
X132219222Y-69688107D01*
X132486927Y-69509232D01*
X132714592Y-69281567D01*
X132893467Y-69013862D01*
X133016678Y-68716403D01*
X133079490Y-68400623D01*
X133079490Y-68078657D01*
X133620510Y-68078657D01*
X133620510Y-68400623D01*
X133683322Y-68716403D01*
X133806533Y-69013862D01*
X133985408Y-69281567D01*
X134213073Y-69509232D01*
X134480778Y-69688107D01*
X134778237Y-69811318D01*
X135094017Y-69874130D01*
X135415983Y-69874130D01*
X135731763Y-69811318D01*
X136029222Y-69688107D01*
X136296927Y-69509232D01*
X136524592Y-69281567D01*
X136703467Y-69013862D01*
X136826678Y-68716403D01*
X136889490Y-68400623D01*
X136889490Y-68078657D01*
X136826678Y-67762877D01*
X136703467Y-67465418D01*
X136524592Y-67197713D01*
X136296927Y-66970048D01*
X136029222Y-66791173D01*
X135731763Y-66667962D01*
X135415983Y-66605150D01*
X135094017Y-66605150D01*
X134778237Y-66667962D01*
X134480778Y-66791173D01*
X134213073Y-66970048D01*
X133985408Y-67197713D01*
X133806533Y-67465418D01*
X133683322Y-67762877D01*
X133620510Y-68078657D01*
X133079490Y-68078657D01*
X133016678Y-67762877D01*
X132893467Y-67465418D01*
X132714592Y-67197713D01*
X132486927Y-66970048D01*
X132219222Y-66791173D01*
X131921763Y-66667962D01*
X131605983Y-66605150D01*
X131284017Y-66605150D01*
X130968237Y-66667962D01*
X130670778Y-66791173D01*
X130403073Y-66970048D01*
X130175408Y-67197713D01*
X129996533Y-67465418D01*
X129873322Y-67762877D01*
X129810510Y-68078657D01*
X129269490Y-68078657D01*
X129206678Y-67762877D01*
X129083467Y-67465418D01*
X128904592Y-67197713D01*
X128676927Y-66970048D01*
X128409222Y-66791173D01*
X128111763Y-66667962D01*
X127795983Y-66605150D01*
X127474017Y-66605150D01*
X127158237Y-66667962D01*
X126860778Y-66791173D01*
X126593073Y-66970048D01*
X126365408Y-67197713D01*
X126186533Y-67465418D01*
X126063322Y-67762877D01*
X126000510Y-68078657D01*
X125459490Y-68078657D01*
X125396678Y-67762877D01*
X125273467Y-67465418D01*
X125094592Y-67197713D01*
X124866927Y-66970048D01*
X124599222Y-66791173D01*
X124301763Y-66667962D01*
X123985983Y-66605150D01*
X123664017Y-66605150D01*
X123348237Y-66667962D01*
X123050778Y-66791173D01*
X122783073Y-66970048D01*
X122555408Y-67197713D01*
X122376533Y-67465418D01*
X122253322Y-67762877D01*
X122190510Y-68078657D01*
X121649490Y-68078657D01*
X121586678Y-67762877D01*
X121463467Y-67465418D01*
X121284592Y-67197713D01*
X121056927Y-66970048D01*
X120789222Y-66791173D01*
X120491763Y-66667962D01*
X120175983Y-66605150D01*
X119854017Y-66605150D01*
X119538237Y-66667962D01*
X119240778Y-66791173D01*
X118973073Y-66970048D01*
X118745408Y-67197713D01*
X118566533Y-67465418D01*
X118443322Y-67762877D01*
X118380510Y-68078657D01*
X117839490Y-68078657D01*
X117776678Y-67762877D01*
X117653467Y-67465418D01*
X117474592Y-67197713D01*
X117246927Y-66970048D01*
X116979222Y-66791173D01*
X116681763Y-66667962D01*
X116365983Y-66605150D01*
X116044017Y-66605150D01*
X115728237Y-66667962D01*
X115430778Y-66791173D01*
X115163073Y-66970048D01*
X114935408Y-67197713D01*
X114756533Y-67465418D01*
X114633322Y-67762877D01*
X114570510Y-68078657D01*
X114029490Y-68078657D01*
X113966678Y-67762877D01*
X113843467Y-67465418D01*
X113664592Y-67197713D01*
X113436927Y-66970048D01*
X113169222Y-66791173D01*
X112871763Y-66667962D01*
X112555983Y-66605150D01*
X112234017Y-66605150D01*
X111918237Y-66667962D01*
X111620778Y-66791173D01*
X111353073Y-66970048D01*
X111125408Y-67197713D01*
X110946533Y-67465418D01*
X110823322Y-67762877D01*
X110760510Y-68078657D01*
X110219490Y-68078657D01*
X110156678Y-67762877D01*
X110033467Y-67465418D01*
X109854592Y-67197713D01*
X109626927Y-66970048D01*
X109359222Y-66791173D01*
X109061763Y-66667962D01*
X108745983Y-66605150D01*
X108424017Y-66605150D01*
X108108237Y-66667962D01*
X107810778Y-66791173D01*
X107543073Y-66970048D01*
X107315408Y-67197713D01*
X107136533Y-67465418D01*
X107013322Y-67762877D01*
X106950510Y-68078657D01*
X106409490Y-68078657D01*
X106346678Y-67762877D01*
X106223467Y-67465418D01*
X106044592Y-67197713D01*
X105816927Y-66970048D01*
X105549222Y-66791173D01*
X105251763Y-66667962D01*
X104935983Y-66605150D01*
X104614017Y-66605150D01*
X104298237Y-66667962D01*
X104000778Y-66791173D01*
X103733073Y-66970048D01*
X103505408Y-67197713D01*
X103326533Y-67465418D01*
X103203322Y-67762877D01*
X103140510Y-68078657D01*
X102599490Y-68078657D01*
X102536678Y-67762877D01*
X102413467Y-67465418D01*
X102234592Y-67197713D01*
X102006927Y-66970048D01*
X101739222Y-66791173D01*
X101441763Y-66667962D01*
X101125983Y-66605150D01*
X100804017Y-66605150D01*
X100488237Y-66667962D01*
X100190778Y-66791173D01*
X99923073Y-66970048D01*
X99695408Y-67197713D01*
X99516533Y-67465418D01*
X99393322Y-67762877D01*
X99330510Y-68078657D01*
X93338724Y-68078657D01*
X93435731Y-67960454D01*
X93638624Y-67580869D01*
X93763565Y-67168995D01*
X93795180Y-66848000D01*
X93795180Y-65633321D01*
X93795180Y-65633320D01*
X142424820Y-65633320D01*
X142424820Y-66847999D01*
X142456435Y-67168994D01*
X142581376Y-67580868D01*
X142784269Y-67960454D01*
X143057316Y-68293164D01*
X143390026Y-68566211D01*
X143769611Y-68769104D01*
X144181485Y-68894045D01*
X144609820Y-68936232D01*
X145038154Y-68894045D01*
X145450028Y-68769104D01*
X145829614Y-68566211D01*
X146162324Y-68293164D01*
X146435371Y-67960454D01*
X146638264Y-67580869D01*
X146763205Y-67168995D01*
X146794820Y-66848000D01*
X146794820Y-65955000D01*
X170077573Y-65955000D01*
X170107210Y-66255913D01*
X170194983Y-66545261D01*
X170337519Y-66811927D01*
X170529339Y-67045661D01*
X170763073Y-67237481D01*
X171029739Y-67380017D01*
X171319087Y-67467790D01*
X171544592Y-67490000D01*
X173895408Y-67490000D01*
X174120913Y-67467790D01*
X174410261Y-67380017D01*
X174676927Y-67237481D01*
X174910661Y-67045661D01*
X175102481Y-66811927D01*
X175245017Y-66545261D01*
X175332790Y-66255913D01*
X175362427Y-65955000D01*
X175332790Y-65654087D01*
X175245017Y-65364739D01*
X175102481Y-65098073D01*
X174910661Y-64864339D01*
X174676927Y-64672519D01*
X174410261Y-64529983D01*
X174120913Y-64442210D01*
X173895408Y-64420000D01*
X171544592Y-64420000D01*
X171319087Y-64442210D01*
X171029739Y-64529983D01*
X170763073Y-64672519D01*
X170529339Y-64864339D01*
X170337519Y-65098073D01*
X170194983Y-65364739D01*
X170107210Y-65654087D01*
X170077573Y-65955000D01*
X146794820Y-65955000D01*
X146794820Y-65633321D01*
X146763205Y-65312326D01*
X146638264Y-64900452D01*
X146435371Y-64520866D01*
X146162324Y-64188156D01*
X145829614Y-63915109D01*
X145450029Y-63712216D01*
X145038155Y-63587275D01*
X144609820Y-63545088D01*
X144181486Y-63587275D01*
X143769612Y-63712216D01*
X143390027Y-63915109D01*
X143057317Y-64188156D01*
X142784270Y-64520866D01*
X142581376Y-64900451D01*
X142456435Y-65312325D01*
X142424820Y-65633320D01*
X93795180Y-65633320D01*
X93763565Y-65312326D01*
X93638624Y-64900452D01*
X93435731Y-64520866D01*
X93162684Y-64188156D01*
X92829974Y-63915109D01*
X92450389Y-63712216D01*
X92038515Y-63587275D01*
X91610180Y-63545088D01*
X91181846Y-63587275D01*
X90769972Y-63712216D01*
X90390387Y-63915109D01*
X90057677Y-64188156D01*
X89784630Y-64520866D01*
X89581736Y-64900451D01*
X89560000Y-64972105D01*
X89560000Y-62092880D01*
X89573584Y-62161171D01*
X89719901Y-62514412D01*
X89932320Y-62832321D01*
X90202679Y-63102680D01*
X90520588Y-63315099D01*
X90873829Y-63461416D01*
X91248827Y-63536008D01*
X91631173Y-63536008D01*
X92006171Y-63461416D01*
X92359412Y-63315099D01*
X92677321Y-63102680D01*
X92947680Y-62832321D01*
X93160099Y-62514412D01*
X93306416Y-62161171D01*
X93381008Y-61786173D01*
X93381008Y-61403827D01*
X93367092Y-61333863D01*
X152752622Y-61333863D01*
X152846121Y-61630446D01*
X152995684Y-61903089D01*
X153195563Y-62141315D01*
X153438077Y-62335969D01*
X153713906Y-62479571D01*
X153932020Y-62550563D01*
X154178000Y-62430594D01*
X154178000Y-61087000D01*
X152879430Y-61087000D01*
X152752622Y-61333863D01*
X93367092Y-61333863D01*
X93306416Y-61028829D01*
X93160099Y-60675588D01*
X92947680Y-60357679D01*
X92677321Y-60087320D01*
X92359412Y-59874901D01*
X92006171Y-59728584D01*
X91937880Y-59715000D01*
X153274906Y-59715000D01*
X153195563Y-59778685D01*
G36*
X151593519Y-77748109D02*
G01*
X151714186Y-77978000D01*
X152908000Y-77978000D01*
X152908000Y-77958000D01*
X153162000Y-77958000D01*
X153162000Y-77978000D01*
X153182000Y-77978000D01*
X153182000Y-78232000D01*
X153162000Y-78232000D01*
X153162000Y-78252000D01*
X152908000Y-78252000D01*
X152908000Y-78232000D01*
X151714186Y-78232000D01*
X151593519Y-78461891D01*
X151636937Y-78584289D01*
X151540122Y-78613657D01*
X151394507Y-78691490D01*
X151266875Y-78796235D01*
X151240632Y-78828212D01*
X150262045Y-79806800D01*
X132198594Y-79806800D01*
X134315395Y-77689999D01*
X151614132Y-77689999D01*
X151593519Y-77748109D01*
G37*
X151593519Y-77748109D02*
X151714186Y-77978000D01*
X152908000Y-77978000D01*
X152908000Y-77958000D01*
X153162000Y-77958000D01*
X153162000Y-77978000D01*
X153182000Y-77978000D01*
X153182000Y-78232000D01*
X153162000Y-78232000D01*
X153162000Y-78252000D01*
X152908000Y-78252000D01*
X152908000Y-78232000D01*
X151714186Y-78232000D01*
X151593519Y-78461891D01*
X151636937Y-78584289D01*
X151540122Y-78613657D01*
X151394507Y-78691490D01*
X151266875Y-78796235D01*
X151240632Y-78828212D01*
X150262045Y-79806800D01*
X132198594Y-79806800D01*
X134315395Y-77689999D01*
X151614132Y-77689999D01*
X151593519Y-77748109D01*
M02*
