G04 #@! TF.GenerationSoftware,KiCad,Pcbnew,5.1.5-52549c5~84~ubuntu19.10.1*
G04 #@! TF.CreationDate,2020-02-04T21:35:52+01:00*
G04 #@! TF.ProjectId,eduzebox,6564757a-6562-46f7-982e-6b696361645f,rev?*
G04 #@! TF.SameCoordinates,Original*
G04 #@! TF.FileFunction,Paste,Top*
G04 #@! TF.FilePolarity,Positive*
%FSLAX46Y46*%
G04 Gerber Fmt 4.6, Leading zero omitted, Abs format (unit mm)*
G04 Created by KiCad (PCBNEW 5.1.5-52549c5~84~ubuntu19.10.1) date 2020-02-04 21:35:52*
%MOMM*%
%LPD*%
G04 APERTURE LIST*
%ADD10R,2.200000X1.200000*%
%ADD11R,1.500000X1.600000*%
%ADD12R,1.500000X1.200000*%
%ADD13R,1.600000X0.700000*%
%ADD14C,0.100000*%
%ADD15R,1.100000X1.100000*%
%ADD16R,1.550000X1.300000*%
%ADD17R,0.800000X0.900000*%
G04 APERTURE END LIST*
D10*
X181415000Y-78320000D03*
D11*
X171815000Y-79220000D03*
D10*
X181415000Y-93820000D03*
D12*
X171815000Y-93820000D03*
D13*
X170815000Y-92620000D03*
X170815000Y-91520000D03*
X170815000Y-90420000D03*
X170815000Y-89320000D03*
X170815000Y-88220000D03*
X170815000Y-87120000D03*
X170815000Y-86020000D03*
X170815000Y-84920000D03*
X170815000Y-83820000D03*
D14*
G36*
X137634505Y-87446204D02*
G01*
X137658773Y-87449804D01*
X137682572Y-87455765D01*
X137705671Y-87464030D01*
X137727850Y-87474520D01*
X137748893Y-87487132D01*
X137768599Y-87501747D01*
X137786777Y-87518223D01*
X137803253Y-87536401D01*
X137817868Y-87556107D01*
X137830480Y-87577150D01*
X137840970Y-87599329D01*
X137849235Y-87622428D01*
X137855196Y-87646227D01*
X137858796Y-87670495D01*
X137860000Y-87694999D01*
X137860000Y-88345001D01*
X137858796Y-88369505D01*
X137855196Y-88393773D01*
X137849235Y-88417572D01*
X137840970Y-88440671D01*
X137830480Y-88462850D01*
X137817868Y-88483893D01*
X137803253Y-88503599D01*
X137786777Y-88521777D01*
X137768599Y-88538253D01*
X137748893Y-88552868D01*
X137727850Y-88565480D01*
X137705671Y-88575970D01*
X137682572Y-88584235D01*
X137658773Y-88590196D01*
X137634505Y-88593796D01*
X137610001Y-88595000D01*
X136709999Y-88595000D01*
X136685495Y-88593796D01*
X136661227Y-88590196D01*
X136637428Y-88584235D01*
X136614329Y-88575970D01*
X136592150Y-88565480D01*
X136571107Y-88552868D01*
X136551401Y-88538253D01*
X136533223Y-88521777D01*
X136516747Y-88503599D01*
X136502132Y-88483893D01*
X136489520Y-88462850D01*
X136479030Y-88440671D01*
X136470765Y-88417572D01*
X136464804Y-88393773D01*
X136461204Y-88369505D01*
X136460000Y-88345001D01*
X136460000Y-87694999D01*
X136461204Y-87670495D01*
X136464804Y-87646227D01*
X136470765Y-87622428D01*
X136479030Y-87599329D01*
X136489520Y-87577150D01*
X136502132Y-87556107D01*
X136516747Y-87536401D01*
X136533223Y-87518223D01*
X136551401Y-87501747D01*
X136571107Y-87487132D01*
X136592150Y-87474520D01*
X136614329Y-87464030D01*
X136637428Y-87455765D01*
X136661227Y-87449804D01*
X136685495Y-87446204D01*
X136709999Y-87445000D01*
X137610001Y-87445000D01*
X137634505Y-87446204D01*
G37*
G36*
X137634505Y-85396204D02*
G01*
X137658773Y-85399804D01*
X137682572Y-85405765D01*
X137705671Y-85414030D01*
X137727850Y-85424520D01*
X137748893Y-85437132D01*
X137768599Y-85451747D01*
X137786777Y-85468223D01*
X137803253Y-85486401D01*
X137817868Y-85506107D01*
X137830480Y-85527150D01*
X137840970Y-85549329D01*
X137849235Y-85572428D01*
X137855196Y-85596227D01*
X137858796Y-85620495D01*
X137860000Y-85644999D01*
X137860000Y-86295001D01*
X137858796Y-86319505D01*
X137855196Y-86343773D01*
X137849235Y-86367572D01*
X137840970Y-86390671D01*
X137830480Y-86412850D01*
X137817868Y-86433893D01*
X137803253Y-86453599D01*
X137786777Y-86471777D01*
X137768599Y-86488253D01*
X137748893Y-86502868D01*
X137727850Y-86515480D01*
X137705671Y-86525970D01*
X137682572Y-86534235D01*
X137658773Y-86540196D01*
X137634505Y-86543796D01*
X137610001Y-86545000D01*
X136709999Y-86545000D01*
X136685495Y-86543796D01*
X136661227Y-86540196D01*
X136637428Y-86534235D01*
X136614329Y-86525970D01*
X136592150Y-86515480D01*
X136571107Y-86502868D01*
X136551401Y-86488253D01*
X136533223Y-86471777D01*
X136516747Y-86453599D01*
X136502132Y-86433893D01*
X136489520Y-86412850D01*
X136479030Y-86390671D01*
X136470765Y-86367572D01*
X136464804Y-86343773D01*
X136461204Y-86319505D01*
X136460000Y-86295001D01*
X136460000Y-85644999D01*
X136461204Y-85620495D01*
X136464804Y-85596227D01*
X136470765Y-85572428D01*
X136479030Y-85549329D01*
X136489520Y-85527150D01*
X136502132Y-85506107D01*
X136516747Y-85486401D01*
X136533223Y-85468223D01*
X136551401Y-85451747D01*
X136571107Y-85437132D01*
X136592150Y-85424520D01*
X136614329Y-85414030D01*
X136637428Y-85405765D01*
X136661227Y-85399804D01*
X136685495Y-85396204D01*
X136709999Y-85395000D01*
X137610001Y-85395000D01*
X137634505Y-85396204D01*
G37*
G36*
X155837005Y-69811204D02*
G01*
X155861273Y-69814804D01*
X155885072Y-69820765D01*
X155908171Y-69829030D01*
X155930350Y-69839520D01*
X155951393Y-69852132D01*
X155971099Y-69866747D01*
X155989277Y-69883223D01*
X156005753Y-69901401D01*
X156020368Y-69921107D01*
X156032980Y-69942150D01*
X156043470Y-69964329D01*
X156051735Y-69987428D01*
X156057696Y-70011227D01*
X156061296Y-70035495D01*
X156062500Y-70059999D01*
X156062500Y-70910001D01*
X156061296Y-70934505D01*
X156057696Y-70958773D01*
X156051735Y-70982572D01*
X156043470Y-71005671D01*
X156032980Y-71027850D01*
X156020368Y-71048893D01*
X156005753Y-71068599D01*
X155989277Y-71086777D01*
X155971099Y-71103253D01*
X155951393Y-71117868D01*
X155930350Y-71130480D01*
X155908171Y-71140970D01*
X155885072Y-71149235D01*
X155861273Y-71155196D01*
X155837005Y-71158796D01*
X155812501Y-71160000D01*
X154737499Y-71160000D01*
X154712995Y-71158796D01*
X154688727Y-71155196D01*
X154664928Y-71149235D01*
X154641829Y-71140970D01*
X154619650Y-71130480D01*
X154598607Y-71117868D01*
X154578901Y-71103253D01*
X154560723Y-71086777D01*
X154544247Y-71068599D01*
X154529632Y-71048893D01*
X154517020Y-71027850D01*
X154506530Y-71005671D01*
X154498265Y-70982572D01*
X154492304Y-70958773D01*
X154488704Y-70934505D01*
X154487500Y-70910001D01*
X154487500Y-70059999D01*
X154488704Y-70035495D01*
X154492304Y-70011227D01*
X154498265Y-69987428D01*
X154506530Y-69964329D01*
X154517020Y-69942150D01*
X154529632Y-69921107D01*
X154544247Y-69901401D01*
X154560723Y-69883223D01*
X154578901Y-69866747D01*
X154598607Y-69852132D01*
X154619650Y-69839520D01*
X154641829Y-69829030D01*
X154664928Y-69820765D01*
X154688727Y-69814804D01*
X154712995Y-69811204D01*
X154737499Y-69810000D01*
X155812501Y-69810000D01*
X155837005Y-69811204D01*
G37*
G36*
X152962005Y-69811204D02*
G01*
X152986273Y-69814804D01*
X153010072Y-69820765D01*
X153033171Y-69829030D01*
X153055350Y-69839520D01*
X153076393Y-69852132D01*
X153096099Y-69866747D01*
X153114277Y-69883223D01*
X153130753Y-69901401D01*
X153145368Y-69921107D01*
X153157980Y-69942150D01*
X153168470Y-69964329D01*
X153176735Y-69987428D01*
X153182696Y-70011227D01*
X153186296Y-70035495D01*
X153187500Y-70059999D01*
X153187500Y-70910001D01*
X153186296Y-70934505D01*
X153182696Y-70958773D01*
X153176735Y-70982572D01*
X153168470Y-71005671D01*
X153157980Y-71027850D01*
X153145368Y-71048893D01*
X153130753Y-71068599D01*
X153114277Y-71086777D01*
X153096099Y-71103253D01*
X153076393Y-71117868D01*
X153055350Y-71130480D01*
X153033171Y-71140970D01*
X153010072Y-71149235D01*
X152986273Y-71155196D01*
X152962005Y-71158796D01*
X152937501Y-71160000D01*
X151862499Y-71160000D01*
X151837995Y-71158796D01*
X151813727Y-71155196D01*
X151789928Y-71149235D01*
X151766829Y-71140970D01*
X151744650Y-71130480D01*
X151723607Y-71117868D01*
X151703901Y-71103253D01*
X151685723Y-71086777D01*
X151669247Y-71068599D01*
X151654632Y-71048893D01*
X151642020Y-71027850D01*
X151631530Y-71005671D01*
X151623265Y-70982572D01*
X151617304Y-70958773D01*
X151613704Y-70934505D01*
X151612500Y-70910001D01*
X151612500Y-70059999D01*
X151613704Y-70035495D01*
X151617304Y-70011227D01*
X151623265Y-69987428D01*
X151631530Y-69964329D01*
X151642020Y-69942150D01*
X151654632Y-69921107D01*
X151669247Y-69901401D01*
X151685723Y-69883223D01*
X151703901Y-69866747D01*
X151723607Y-69852132D01*
X151744650Y-69839520D01*
X151766829Y-69829030D01*
X151789928Y-69820765D01*
X151813727Y-69814804D01*
X151837995Y-69811204D01*
X151862499Y-69810000D01*
X152937501Y-69810000D01*
X152962005Y-69811204D01*
G37*
G36*
X162187005Y-69811204D02*
G01*
X162211273Y-69814804D01*
X162235072Y-69820765D01*
X162258171Y-69829030D01*
X162280350Y-69839520D01*
X162301393Y-69852132D01*
X162321099Y-69866747D01*
X162339277Y-69883223D01*
X162355753Y-69901401D01*
X162370368Y-69921107D01*
X162382980Y-69942150D01*
X162393470Y-69964329D01*
X162401735Y-69987428D01*
X162407696Y-70011227D01*
X162411296Y-70035495D01*
X162412500Y-70059999D01*
X162412500Y-70910001D01*
X162411296Y-70934505D01*
X162407696Y-70958773D01*
X162401735Y-70982572D01*
X162393470Y-71005671D01*
X162382980Y-71027850D01*
X162370368Y-71048893D01*
X162355753Y-71068599D01*
X162339277Y-71086777D01*
X162321099Y-71103253D01*
X162301393Y-71117868D01*
X162280350Y-71130480D01*
X162258171Y-71140970D01*
X162235072Y-71149235D01*
X162211273Y-71155196D01*
X162187005Y-71158796D01*
X162162501Y-71160000D01*
X161087499Y-71160000D01*
X161062995Y-71158796D01*
X161038727Y-71155196D01*
X161014928Y-71149235D01*
X160991829Y-71140970D01*
X160969650Y-71130480D01*
X160948607Y-71117868D01*
X160928901Y-71103253D01*
X160910723Y-71086777D01*
X160894247Y-71068599D01*
X160879632Y-71048893D01*
X160867020Y-71027850D01*
X160856530Y-71005671D01*
X160848265Y-70982572D01*
X160842304Y-70958773D01*
X160838704Y-70934505D01*
X160837500Y-70910001D01*
X160837500Y-70059999D01*
X160838704Y-70035495D01*
X160842304Y-70011227D01*
X160848265Y-69987428D01*
X160856530Y-69964329D01*
X160867020Y-69942150D01*
X160879632Y-69921107D01*
X160894247Y-69901401D01*
X160910723Y-69883223D01*
X160928901Y-69866747D01*
X160948607Y-69852132D01*
X160969650Y-69839520D01*
X160991829Y-69829030D01*
X161014928Y-69820765D01*
X161038727Y-69814804D01*
X161062995Y-69811204D01*
X161087499Y-69810000D01*
X162162501Y-69810000D01*
X162187005Y-69811204D01*
G37*
G36*
X159312005Y-69811204D02*
G01*
X159336273Y-69814804D01*
X159360072Y-69820765D01*
X159383171Y-69829030D01*
X159405350Y-69839520D01*
X159426393Y-69852132D01*
X159446099Y-69866747D01*
X159464277Y-69883223D01*
X159480753Y-69901401D01*
X159495368Y-69921107D01*
X159507980Y-69942150D01*
X159518470Y-69964329D01*
X159526735Y-69987428D01*
X159532696Y-70011227D01*
X159536296Y-70035495D01*
X159537500Y-70059999D01*
X159537500Y-70910001D01*
X159536296Y-70934505D01*
X159532696Y-70958773D01*
X159526735Y-70982572D01*
X159518470Y-71005671D01*
X159507980Y-71027850D01*
X159495368Y-71048893D01*
X159480753Y-71068599D01*
X159464277Y-71086777D01*
X159446099Y-71103253D01*
X159426393Y-71117868D01*
X159405350Y-71130480D01*
X159383171Y-71140970D01*
X159360072Y-71149235D01*
X159336273Y-71155196D01*
X159312005Y-71158796D01*
X159287501Y-71160000D01*
X158212499Y-71160000D01*
X158187995Y-71158796D01*
X158163727Y-71155196D01*
X158139928Y-71149235D01*
X158116829Y-71140970D01*
X158094650Y-71130480D01*
X158073607Y-71117868D01*
X158053901Y-71103253D01*
X158035723Y-71086777D01*
X158019247Y-71068599D01*
X158004632Y-71048893D01*
X157992020Y-71027850D01*
X157981530Y-71005671D01*
X157973265Y-70982572D01*
X157967304Y-70958773D01*
X157963704Y-70934505D01*
X157962500Y-70910001D01*
X157962500Y-70059999D01*
X157963704Y-70035495D01*
X157967304Y-70011227D01*
X157973265Y-69987428D01*
X157981530Y-69964329D01*
X157992020Y-69942150D01*
X158004632Y-69921107D01*
X158019247Y-69901401D01*
X158035723Y-69883223D01*
X158053901Y-69866747D01*
X158073607Y-69852132D01*
X158094650Y-69839520D01*
X158116829Y-69829030D01*
X158139928Y-69820765D01*
X158163727Y-69814804D01*
X158187995Y-69811204D01*
X158212499Y-69810000D01*
X159287501Y-69810000D01*
X159312005Y-69811204D01*
G37*
G36*
X151624505Y-65976204D02*
G01*
X151648773Y-65979804D01*
X151672572Y-65985765D01*
X151695671Y-65994030D01*
X151717850Y-66004520D01*
X151738893Y-66017132D01*
X151758599Y-66031747D01*
X151776777Y-66048223D01*
X151793253Y-66066401D01*
X151807868Y-66086107D01*
X151820480Y-66107150D01*
X151830970Y-66129329D01*
X151839235Y-66152428D01*
X151845196Y-66176227D01*
X151848796Y-66200495D01*
X151850000Y-66224999D01*
X151850000Y-67125001D01*
X151848796Y-67149505D01*
X151845196Y-67173773D01*
X151839235Y-67197572D01*
X151830970Y-67220671D01*
X151820480Y-67242850D01*
X151807868Y-67263893D01*
X151793253Y-67283599D01*
X151776777Y-67301777D01*
X151758599Y-67318253D01*
X151738893Y-67332868D01*
X151717850Y-67345480D01*
X151695671Y-67355970D01*
X151672572Y-67364235D01*
X151648773Y-67370196D01*
X151624505Y-67373796D01*
X151600001Y-67375000D01*
X150949999Y-67375000D01*
X150925495Y-67373796D01*
X150901227Y-67370196D01*
X150877428Y-67364235D01*
X150854329Y-67355970D01*
X150832150Y-67345480D01*
X150811107Y-67332868D01*
X150791401Y-67318253D01*
X150773223Y-67301777D01*
X150756747Y-67283599D01*
X150742132Y-67263893D01*
X150729520Y-67242850D01*
X150719030Y-67220671D01*
X150710765Y-67197572D01*
X150704804Y-67173773D01*
X150701204Y-67149505D01*
X150700000Y-67125001D01*
X150700000Y-66224999D01*
X150701204Y-66200495D01*
X150704804Y-66176227D01*
X150710765Y-66152428D01*
X150719030Y-66129329D01*
X150729520Y-66107150D01*
X150742132Y-66086107D01*
X150756747Y-66066401D01*
X150773223Y-66048223D01*
X150791401Y-66031747D01*
X150811107Y-66017132D01*
X150832150Y-66004520D01*
X150854329Y-65994030D01*
X150877428Y-65985765D01*
X150901227Y-65979804D01*
X150925495Y-65976204D01*
X150949999Y-65975000D01*
X151600001Y-65975000D01*
X151624505Y-65976204D01*
G37*
G36*
X149574505Y-65976204D02*
G01*
X149598773Y-65979804D01*
X149622572Y-65985765D01*
X149645671Y-65994030D01*
X149667850Y-66004520D01*
X149688893Y-66017132D01*
X149708599Y-66031747D01*
X149726777Y-66048223D01*
X149743253Y-66066401D01*
X149757868Y-66086107D01*
X149770480Y-66107150D01*
X149780970Y-66129329D01*
X149789235Y-66152428D01*
X149795196Y-66176227D01*
X149798796Y-66200495D01*
X149800000Y-66224999D01*
X149800000Y-67125001D01*
X149798796Y-67149505D01*
X149795196Y-67173773D01*
X149789235Y-67197572D01*
X149780970Y-67220671D01*
X149770480Y-67242850D01*
X149757868Y-67263893D01*
X149743253Y-67283599D01*
X149726777Y-67301777D01*
X149708599Y-67318253D01*
X149688893Y-67332868D01*
X149667850Y-67345480D01*
X149645671Y-67355970D01*
X149622572Y-67364235D01*
X149598773Y-67370196D01*
X149574505Y-67373796D01*
X149550001Y-67375000D01*
X148899999Y-67375000D01*
X148875495Y-67373796D01*
X148851227Y-67370196D01*
X148827428Y-67364235D01*
X148804329Y-67355970D01*
X148782150Y-67345480D01*
X148761107Y-67332868D01*
X148741401Y-67318253D01*
X148723223Y-67301777D01*
X148706747Y-67283599D01*
X148692132Y-67263893D01*
X148679520Y-67242850D01*
X148669030Y-67220671D01*
X148660765Y-67197572D01*
X148654804Y-67173773D01*
X148651204Y-67149505D01*
X148650000Y-67125001D01*
X148650000Y-66224999D01*
X148651204Y-66200495D01*
X148654804Y-66176227D01*
X148660765Y-66152428D01*
X148669030Y-66129329D01*
X148679520Y-66107150D01*
X148692132Y-66086107D01*
X148706747Y-66066401D01*
X148723223Y-66048223D01*
X148741401Y-66031747D01*
X148761107Y-66017132D01*
X148782150Y-66004520D01*
X148804329Y-65994030D01*
X148827428Y-65985765D01*
X148851227Y-65979804D01*
X148875495Y-65976204D01*
X148899999Y-65975000D01*
X149550001Y-65975000D01*
X149574505Y-65976204D01*
G37*
G36*
X163934505Y-65976204D02*
G01*
X163958773Y-65979804D01*
X163982572Y-65985765D01*
X164005671Y-65994030D01*
X164027850Y-66004520D01*
X164048893Y-66017132D01*
X164068599Y-66031747D01*
X164086777Y-66048223D01*
X164103253Y-66066401D01*
X164117868Y-66086107D01*
X164130480Y-66107150D01*
X164140970Y-66129329D01*
X164149235Y-66152428D01*
X164155196Y-66176227D01*
X164158796Y-66200495D01*
X164160000Y-66224999D01*
X164160000Y-67125001D01*
X164158796Y-67149505D01*
X164155196Y-67173773D01*
X164149235Y-67197572D01*
X164140970Y-67220671D01*
X164130480Y-67242850D01*
X164117868Y-67263893D01*
X164103253Y-67283599D01*
X164086777Y-67301777D01*
X164068599Y-67318253D01*
X164048893Y-67332868D01*
X164027850Y-67345480D01*
X164005671Y-67355970D01*
X163982572Y-67364235D01*
X163958773Y-67370196D01*
X163934505Y-67373796D01*
X163910001Y-67375000D01*
X163259999Y-67375000D01*
X163235495Y-67373796D01*
X163211227Y-67370196D01*
X163187428Y-67364235D01*
X163164329Y-67355970D01*
X163142150Y-67345480D01*
X163121107Y-67332868D01*
X163101401Y-67318253D01*
X163083223Y-67301777D01*
X163066747Y-67283599D01*
X163052132Y-67263893D01*
X163039520Y-67242850D01*
X163029030Y-67220671D01*
X163020765Y-67197572D01*
X163014804Y-67173773D01*
X163011204Y-67149505D01*
X163010000Y-67125001D01*
X163010000Y-66224999D01*
X163011204Y-66200495D01*
X163014804Y-66176227D01*
X163020765Y-66152428D01*
X163029030Y-66129329D01*
X163039520Y-66107150D01*
X163052132Y-66086107D01*
X163066747Y-66066401D01*
X163083223Y-66048223D01*
X163101401Y-66031747D01*
X163121107Y-66017132D01*
X163142150Y-66004520D01*
X163164329Y-65994030D01*
X163187428Y-65985765D01*
X163211227Y-65979804D01*
X163235495Y-65976204D01*
X163259999Y-65975000D01*
X163910001Y-65975000D01*
X163934505Y-65976204D01*
G37*
G36*
X161884505Y-65976204D02*
G01*
X161908773Y-65979804D01*
X161932572Y-65985765D01*
X161955671Y-65994030D01*
X161977850Y-66004520D01*
X161998893Y-66017132D01*
X162018599Y-66031747D01*
X162036777Y-66048223D01*
X162053253Y-66066401D01*
X162067868Y-66086107D01*
X162080480Y-66107150D01*
X162090970Y-66129329D01*
X162099235Y-66152428D01*
X162105196Y-66176227D01*
X162108796Y-66200495D01*
X162110000Y-66224999D01*
X162110000Y-67125001D01*
X162108796Y-67149505D01*
X162105196Y-67173773D01*
X162099235Y-67197572D01*
X162090970Y-67220671D01*
X162080480Y-67242850D01*
X162067868Y-67263893D01*
X162053253Y-67283599D01*
X162036777Y-67301777D01*
X162018599Y-67318253D01*
X161998893Y-67332868D01*
X161977850Y-67345480D01*
X161955671Y-67355970D01*
X161932572Y-67364235D01*
X161908773Y-67370196D01*
X161884505Y-67373796D01*
X161860001Y-67375000D01*
X161209999Y-67375000D01*
X161185495Y-67373796D01*
X161161227Y-67370196D01*
X161137428Y-67364235D01*
X161114329Y-67355970D01*
X161092150Y-67345480D01*
X161071107Y-67332868D01*
X161051401Y-67318253D01*
X161033223Y-67301777D01*
X161016747Y-67283599D01*
X161002132Y-67263893D01*
X160989520Y-67242850D01*
X160979030Y-67220671D01*
X160970765Y-67197572D01*
X160964804Y-67173773D01*
X160961204Y-67149505D01*
X160960000Y-67125001D01*
X160960000Y-66224999D01*
X160961204Y-66200495D01*
X160964804Y-66176227D01*
X160970765Y-66152428D01*
X160979030Y-66129329D01*
X160989520Y-66107150D01*
X161002132Y-66086107D01*
X161016747Y-66066401D01*
X161033223Y-66048223D01*
X161051401Y-66031747D01*
X161071107Y-66017132D01*
X161092150Y-66004520D01*
X161114329Y-65994030D01*
X161137428Y-65985765D01*
X161161227Y-65979804D01*
X161185495Y-65976204D01*
X161209999Y-65975000D01*
X161860001Y-65975000D01*
X161884505Y-65976204D01*
G37*
G36*
X155924505Y-65976204D02*
G01*
X155948773Y-65979804D01*
X155972572Y-65985765D01*
X155995671Y-65994030D01*
X156017850Y-66004520D01*
X156038893Y-66017132D01*
X156058599Y-66031747D01*
X156076777Y-66048223D01*
X156093253Y-66066401D01*
X156107868Y-66086107D01*
X156120480Y-66107150D01*
X156130970Y-66129329D01*
X156139235Y-66152428D01*
X156145196Y-66176227D01*
X156148796Y-66200495D01*
X156150000Y-66224999D01*
X156150000Y-67125001D01*
X156148796Y-67149505D01*
X156145196Y-67173773D01*
X156139235Y-67197572D01*
X156130970Y-67220671D01*
X156120480Y-67242850D01*
X156107868Y-67263893D01*
X156093253Y-67283599D01*
X156076777Y-67301777D01*
X156058599Y-67318253D01*
X156038893Y-67332868D01*
X156017850Y-67345480D01*
X155995671Y-67355970D01*
X155972572Y-67364235D01*
X155948773Y-67370196D01*
X155924505Y-67373796D01*
X155900001Y-67375000D01*
X155249999Y-67375000D01*
X155225495Y-67373796D01*
X155201227Y-67370196D01*
X155177428Y-67364235D01*
X155154329Y-67355970D01*
X155132150Y-67345480D01*
X155111107Y-67332868D01*
X155091401Y-67318253D01*
X155073223Y-67301777D01*
X155056747Y-67283599D01*
X155042132Y-67263893D01*
X155029520Y-67242850D01*
X155019030Y-67220671D01*
X155010765Y-67197572D01*
X155004804Y-67173773D01*
X155001204Y-67149505D01*
X155000000Y-67125001D01*
X155000000Y-66224999D01*
X155001204Y-66200495D01*
X155004804Y-66176227D01*
X155010765Y-66152428D01*
X155019030Y-66129329D01*
X155029520Y-66107150D01*
X155042132Y-66086107D01*
X155056747Y-66066401D01*
X155073223Y-66048223D01*
X155091401Y-66031747D01*
X155111107Y-66017132D01*
X155132150Y-66004520D01*
X155154329Y-65994030D01*
X155177428Y-65985765D01*
X155201227Y-65979804D01*
X155225495Y-65976204D01*
X155249999Y-65975000D01*
X155900001Y-65975000D01*
X155924505Y-65976204D01*
G37*
G36*
X157974505Y-65976204D02*
G01*
X157998773Y-65979804D01*
X158022572Y-65985765D01*
X158045671Y-65994030D01*
X158067850Y-66004520D01*
X158088893Y-66017132D01*
X158108599Y-66031747D01*
X158126777Y-66048223D01*
X158143253Y-66066401D01*
X158157868Y-66086107D01*
X158170480Y-66107150D01*
X158180970Y-66129329D01*
X158189235Y-66152428D01*
X158195196Y-66176227D01*
X158198796Y-66200495D01*
X158200000Y-66224999D01*
X158200000Y-67125001D01*
X158198796Y-67149505D01*
X158195196Y-67173773D01*
X158189235Y-67197572D01*
X158180970Y-67220671D01*
X158170480Y-67242850D01*
X158157868Y-67263893D01*
X158143253Y-67283599D01*
X158126777Y-67301777D01*
X158108599Y-67318253D01*
X158088893Y-67332868D01*
X158067850Y-67345480D01*
X158045671Y-67355970D01*
X158022572Y-67364235D01*
X157998773Y-67370196D01*
X157974505Y-67373796D01*
X157950001Y-67375000D01*
X157299999Y-67375000D01*
X157275495Y-67373796D01*
X157251227Y-67370196D01*
X157227428Y-67364235D01*
X157204329Y-67355970D01*
X157182150Y-67345480D01*
X157161107Y-67332868D01*
X157141401Y-67318253D01*
X157123223Y-67301777D01*
X157106747Y-67283599D01*
X157092132Y-67263893D01*
X157079520Y-67242850D01*
X157069030Y-67220671D01*
X157060765Y-67197572D01*
X157054804Y-67173773D01*
X157051204Y-67149505D01*
X157050000Y-67125001D01*
X157050000Y-66224999D01*
X157051204Y-66200495D01*
X157054804Y-66176227D01*
X157060765Y-66152428D01*
X157069030Y-66129329D01*
X157079520Y-66107150D01*
X157092132Y-66086107D01*
X157106747Y-66066401D01*
X157123223Y-66048223D01*
X157141401Y-66031747D01*
X157161107Y-66017132D01*
X157182150Y-66004520D01*
X157204329Y-65994030D01*
X157227428Y-65985765D01*
X157251227Y-65979804D01*
X157275495Y-65976204D01*
X157299999Y-65975000D01*
X157950001Y-65975000D01*
X157974505Y-65976204D01*
G37*
G36*
X137634505Y-95311204D02*
G01*
X137658773Y-95314804D01*
X137682572Y-95320765D01*
X137705671Y-95329030D01*
X137727850Y-95339520D01*
X137748893Y-95352132D01*
X137768599Y-95366747D01*
X137786777Y-95383223D01*
X137803253Y-95401401D01*
X137817868Y-95421107D01*
X137830480Y-95442150D01*
X137840970Y-95464329D01*
X137849235Y-95487428D01*
X137855196Y-95511227D01*
X137858796Y-95535495D01*
X137860000Y-95559999D01*
X137860000Y-96210001D01*
X137858796Y-96234505D01*
X137855196Y-96258773D01*
X137849235Y-96282572D01*
X137840970Y-96305671D01*
X137830480Y-96327850D01*
X137817868Y-96348893D01*
X137803253Y-96368599D01*
X137786777Y-96386777D01*
X137768599Y-96403253D01*
X137748893Y-96417868D01*
X137727850Y-96430480D01*
X137705671Y-96440970D01*
X137682572Y-96449235D01*
X137658773Y-96455196D01*
X137634505Y-96458796D01*
X137610001Y-96460000D01*
X136709999Y-96460000D01*
X136685495Y-96458796D01*
X136661227Y-96455196D01*
X136637428Y-96449235D01*
X136614329Y-96440970D01*
X136592150Y-96430480D01*
X136571107Y-96417868D01*
X136551401Y-96403253D01*
X136533223Y-96386777D01*
X136516747Y-96368599D01*
X136502132Y-96348893D01*
X136489520Y-96327850D01*
X136479030Y-96305671D01*
X136470765Y-96282572D01*
X136464804Y-96258773D01*
X136461204Y-96234505D01*
X136460000Y-96210001D01*
X136460000Y-95559999D01*
X136461204Y-95535495D01*
X136464804Y-95511227D01*
X136470765Y-95487428D01*
X136479030Y-95464329D01*
X136489520Y-95442150D01*
X136502132Y-95421107D01*
X136516747Y-95401401D01*
X136533223Y-95383223D01*
X136551401Y-95366747D01*
X136571107Y-95352132D01*
X136592150Y-95339520D01*
X136614329Y-95329030D01*
X136637428Y-95320765D01*
X136661227Y-95314804D01*
X136685495Y-95311204D01*
X136709999Y-95310000D01*
X137610001Y-95310000D01*
X137634505Y-95311204D01*
G37*
G36*
X137634505Y-93261204D02*
G01*
X137658773Y-93264804D01*
X137682572Y-93270765D01*
X137705671Y-93279030D01*
X137727850Y-93289520D01*
X137748893Y-93302132D01*
X137768599Y-93316747D01*
X137786777Y-93333223D01*
X137803253Y-93351401D01*
X137817868Y-93371107D01*
X137830480Y-93392150D01*
X137840970Y-93414329D01*
X137849235Y-93437428D01*
X137855196Y-93461227D01*
X137858796Y-93485495D01*
X137860000Y-93509999D01*
X137860000Y-94160001D01*
X137858796Y-94184505D01*
X137855196Y-94208773D01*
X137849235Y-94232572D01*
X137840970Y-94255671D01*
X137830480Y-94277850D01*
X137817868Y-94298893D01*
X137803253Y-94318599D01*
X137786777Y-94336777D01*
X137768599Y-94353253D01*
X137748893Y-94367868D01*
X137727850Y-94380480D01*
X137705671Y-94390970D01*
X137682572Y-94399235D01*
X137658773Y-94405196D01*
X137634505Y-94408796D01*
X137610001Y-94410000D01*
X136709999Y-94410000D01*
X136685495Y-94408796D01*
X136661227Y-94405196D01*
X136637428Y-94399235D01*
X136614329Y-94390970D01*
X136592150Y-94380480D01*
X136571107Y-94367868D01*
X136551401Y-94353253D01*
X136533223Y-94336777D01*
X136516747Y-94318599D01*
X136502132Y-94298893D01*
X136489520Y-94277850D01*
X136479030Y-94255671D01*
X136470765Y-94232572D01*
X136464804Y-94208773D01*
X136461204Y-94184505D01*
X136460000Y-94160001D01*
X136460000Y-93509999D01*
X136461204Y-93485495D01*
X136464804Y-93461227D01*
X136470765Y-93437428D01*
X136479030Y-93414329D01*
X136489520Y-93392150D01*
X136502132Y-93371107D01*
X136516747Y-93351401D01*
X136533223Y-93333223D01*
X136551401Y-93316747D01*
X136571107Y-93302132D01*
X136592150Y-93289520D01*
X136614329Y-93279030D01*
X136637428Y-93270765D01*
X136661227Y-93264804D01*
X136685495Y-93261204D01*
X136709999Y-93260000D01*
X137610001Y-93260000D01*
X137634505Y-93261204D01*
G37*
G36*
X125666116Y-92548196D02*
G01*
X125690384Y-92551796D01*
X125714183Y-92557757D01*
X125737282Y-92566022D01*
X125759461Y-92576512D01*
X125780504Y-92589124D01*
X125800210Y-92603739D01*
X125818388Y-92620215D01*
X126454785Y-93256612D01*
X126471261Y-93274790D01*
X126485876Y-93294496D01*
X126498488Y-93315539D01*
X126508978Y-93337718D01*
X126517243Y-93360817D01*
X126523204Y-93384616D01*
X126526804Y-93408884D01*
X126528008Y-93433388D01*
X126526804Y-93457892D01*
X126523204Y-93482160D01*
X126517243Y-93505959D01*
X126508978Y-93529058D01*
X126498488Y-93551237D01*
X126485876Y-93572280D01*
X126471261Y-93591986D01*
X126454785Y-93610164D01*
X125995164Y-94069785D01*
X125976986Y-94086261D01*
X125957280Y-94100876D01*
X125936237Y-94113488D01*
X125914058Y-94123978D01*
X125890959Y-94132243D01*
X125867160Y-94138204D01*
X125842892Y-94141804D01*
X125818388Y-94143008D01*
X125793884Y-94141804D01*
X125769616Y-94138204D01*
X125745817Y-94132243D01*
X125722718Y-94123978D01*
X125700539Y-94113488D01*
X125679496Y-94100876D01*
X125659790Y-94086261D01*
X125641612Y-94069785D01*
X125005215Y-93433388D01*
X124988739Y-93415210D01*
X124974124Y-93395504D01*
X124961512Y-93374461D01*
X124951022Y-93352282D01*
X124942757Y-93329183D01*
X124936796Y-93305384D01*
X124933196Y-93281116D01*
X124931992Y-93256612D01*
X124933196Y-93232108D01*
X124936796Y-93207840D01*
X124942757Y-93184041D01*
X124951022Y-93160942D01*
X124961512Y-93138763D01*
X124974124Y-93117720D01*
X124988739Y-93098014D01*
X125005215Y-93079836D01*
X125464836Y-92620215D01*
X125483014Y-92603739D01*
X125502720Y-92589124D01*
X125523763Y-92576512D01*
X125545942Y-92566022D01*
X125569041Y-92557757D01*
X125592840Y-92551796D01*
X125617108Y-92548196D01*
X125641612Y-92546992D01*
X125666116Y-92548196D01*
G37*
G36*
X124216548Y-93997764D02*
G01*
X124240816Y-94001364D01*
X124264615Y-94007325D01*
X124287714Y-94015590D01*
X124309893Y-94026080D01*
X124330936Y-94038692D01*
X124350642Y-94053307D01*
X124368820Y-94069783D01*
X125005217Y-94706180D01*
X125021693Y-94724358D01*
X125036308Y-94744064D01*
X125048920Y-94765107D01*
X125059410Y-94787286D01*
X125067675Y-94810385D01*
X125073636Y-94834184D01*
X125077236Y-94858452D01*
X125078440Y-94882956D01*
X125077236Y-94907460D01*
X125073636Y-94931728D01*
X125067675Y-94955527D01*
X125059410Y-94978626D01*
X125048920Y-95000805D01*
X125036308Y-95021848D01*
X125021693Y-95041554D01*
X125005217Y-95059732D01*
X124545596Y-95519353D01*
X124527418Y-95535829D01*
X124507712Y-95550444D01*
X124486669Y-95563056D01*
X124464490Y-95573546D01*
X124441391Y-95581811D01*
X124417592Y-95587772D01*
X124393324Y-95591372D01*
X124368820Y-95592576D01*
X124344316Y-95591372D01*
X124320048Y-95587772D01*
X124296249Y-95581811D01*
X124273150Y-95573546D01*
X124250971Y-95563056D01*
X124229928Y-95550444D01*
X124210222Y-95535829D01*
X124192044Y-95519353D01*
X123555647Y-94882956D01*
X123539171Y-94864778D01*
X123524556Y-94845072D01*
X123511944Y-94824029D01*
X123501454Y-94801850D01*
X123493189Y-94778751D01*
X123487228Y-94754952D01*
X123483628Y-94730684D01*
X123482424Y-94706180D01*
X123483628Y-94681676D01*
X123487228Y-94657408D01*
X123493189Y-94633609D01*
X123501454Y-94610510D01*
X123511944Y-94588331D01*
X123524556Y-94567288D01*
X123539171Y-94547582D01*
X123555647Y-94529404D01*
X124015268Y-94069783D01*
X124033446Y-94053307D01*
X124053152Y-94038692D01*
X124074195Y-94026080D01*
X124096374Y-94015590D01*
X124119473Y-94007325D01*
X124143272Y-94001364D01*
X124167540Y-93997764D01*
X124192044Y-93996560D01*
X124216548Y-93997764D01*
G37*
D15*
X164465000Y-63630000D03*
X164465000Y-60830000D03*
D14*
G36*
X146524505Y-87301204D02*
G01*
X146548773Y-87304804D01*
X146572572Y-87310765D01*
X146595671Y-87319030D01*
X146617850Y-87329520D01*
X146638893Y-87342132D01*
X146658599Y-87356747D01*
X146676777Y-87373223D01*
X146693253Y-87391401D01*
X146707868Y-87411107D01*
X146720480Y-87432150D01*
X146730970Y-87454329D01*
X146739235Y-87477428D01*
X146745196Y-87501227D01*
X146748796Y-87525495D01*
X146750000Y-87549999D01*
X146750000Y-88200001D01*
X146748796Y-88224505D01*
X146745196Y-88248773D01*
X146739235Y-88272572D01*
X146730970Y-88295671D01*
X146720480Y-88317850D01*
X146707868Y-88338893D01*
X146693253Y-88358599D01*
X146676777Y-88376777D01*
X146658599Y-88393253D01*
X146638893Y-88407868D01*
X146617850Y-88420480D01*
X146595671Y-88430970D01*
X146572572Y-88439235D01*
X146548773Y-88445196D01*
X146524505Y-88448796D01*
X146500001Y-88450000D01*
X145599999Y-88450000D01*
X145575495Y-88448796D01*
X145551227Y-88445196D01*
X145527428Y-88439235D01*
X145504329Y-88430970D01*
X145482150Y-88420480D01*
X145461107Y-88407868D01*
X145441401Y-88393253D01*
X145423223Y-88376777D01*
X145406747Y-88358599D01*
X145392132Y-88338893D01*
X145379520Y-88317850D01*
X145369030Y-88295671D01*
X145360765Y-88272572D01*
X145354804Y-88248773D01*
X145351204Y-88224505D01*
X145350000Y-88200001D01*
X145350000Y-87549999D01*
X145351204Y-87525495D01*
X145354804Y-87501227D01*
X145360765Y-87477428D01*
X145369030Y-87454329D01*
X145379520Y-87432150D01*
X145392132Y-87411107D01*
X145406747Y-87391401D01*
X145423223Y-87373223D01*
X145441401Y-87356747D01*
X145461107Y-87342132D01*
X145482150Y-87329520D01*
X145504329Y-87319030D01*
X145527428Y-87310765D01*
X145551227Y-87304804D01*
X145575495Y-87301204D01*
X145599999Y-87300000D01*
X146500001Y-87300000D01*
X146524505Y-87301204D01*
G37*
G36*
X146524505Y-89351204D02*
G01*
X146548773Y-89354804D01*
X146572572Y-89360765D01*
X146595671Y-89369030D01*
X146617850Y-89379520D01*
X146638893Y-89392132D01*
X146658599Y-89406747D01*
X146676777Y-89423223D01*
X146693253Y-89441401D01*
X146707868Y-89461107D01*
X146720480Y-89482150D01*
X146730970Y-89504329D01*
X146739235Y-89527428D01*
X146745196Y-89551227D01*
X146748796Y-89575495D01*
X146750000Y-89599999D01*
X146750000Y-90250001D01*
X146748796Y-90274505D01*
X146745196Y-90298773D01*
X146739235Y-90322572D01*
X146730970Y-90345671D01*
X146720480Y-90367850D01*
X146707868Y-90388893D01*
X146693253Y-90408599D01*
X146676777Y-90426777D01*
X146658599Y-90443253D01*
X146638893Y-90457868D01*
X146617850Y-90470480D01*
X146595671Y-90480970D01*
X146572572Y-90489235D01*
X146548773Y-90495196D01*
X146524505Y-90498796D01*
X146500001Y-90500000D01*
X145599999Y-90500000D01*
X145575495Y-90498796D01*
X145551227Y-90495196D01*
X145527428Y-90489235D01*
X145504329Y-90480970D01*
X145482150Y-90470480D01*
X145461107Y-90457868D01*
X145441401Y-90443253D01*
X145423223Y-90426777D01*
X145406747Y-90408599D01*
X145392132Y-90388893D01*
X145379520Y-90367850D01*
X145369030Y-90345671D01*
X145360765Y-90322572D01*
X145354804Y-90298773D01*
X145351204Y-90274505D01*
X145350000Y-90250001D01*
X145350000Y-89599999D01*
X145351204Y-89575495D01*
X145354804Y-89551227D01*
X145360765Y-89527428D01*
X145369030Y-89504329D01*
X145379520Y-89482150D01*
X145392132Y-89461107D01*
X145406747Y-89441401D01*
X145423223Y-89423223D01*
X145441401Y-89406747D01*
X145461107Y-89392132D01*
X145482150Y-89379520D01*
X145504329Y-89369030D01*
X145527428Y-89360765D01*
X145551227Y-89354804D01*
X145575495Y-89351204D01*
X145599999Y-89350000D01*
X146500001Y-89350000D01*
X146524505Y-89351204D01*
G37*
G36*
X101439505Y-92526204D02*
G01*
X101463773Y-92529804D01*
X101487572Y-92535765D01*
X101510671Y-92544030D01*
X101532850Y-92554520D01*
X101553893Y-92567132D01*
X101573599Y-92581747D01*
X101591777Y-92598223D01*
X101608253Y-92616401D01*
X101622868Y-92636107D01*
X101635480Y-92657150D01*
X101645970Y-92679329D01*
X101654235Y-92702428D01*
X101660196Y-92726227D01*
X101663796Y-92750495D01*
X101665000Y-92774999D01*
X101665000Y-93425001D01*
X101663796Y-93449505D01*
X101660196Y-93473773D01*
X101654235Y-93497572D01*
X101645970Y-93520671D01*
X101635480Y-93542850D01*
X101622868Y-93563893D01*
X101608253Y-93583599D01*
X101591777Y-93601777D01*
X101573599Y-93618253D01*
X101553893Y-93632868D01*
X101532850Y-93645480D01*
X101510671Y-93655970D01*
X101487572Y-93664235D01*
X101463773Y-93670196D01*
X101439505Y-93673796D01*
X101415001Y-93675000D01*
X100514999Y-93675000D01*
X100490495Y-93673796D01*
X100466227Y-93670196D01*
X100442428Y-93664235D01*
X100419329Y-93655970D01*
X100397150Y-93645480D01*
X100376107Y-93632868D01*
X100356401Y-93618253D01*
X100338223Y-93601777D01*
X100321747Y-93583599D01*
X100307132Y-93563893D01*
X100294520Y-93542850D01*
X100284030Y-93520671D01*
X100275765Y-93497572D01*
X100269804Y-93473773D01*
X100266204Y-93449505D01*
X100265000Y-93425001D01*
X100265000Y-92774999D01*
X100266204Y-92750495D01*
X100269804Y-92726227D01*
X100275765Y-92702428D01*
X100284030Y-92679329D01*
X100294520Y-92657150D01*
X100307132Y-92636107D01*
X100321747Y-92616401D01*
X100338223Y-92598223D01*
X100356401Y-92581747D01*
X100376107Y-92567132D01*
X100397150Y-92554520D01*
X100419329Y-92544030D01*
X100442428Y-92535765D01*
X100466227Y-92529804D01*
X100490495Y-92526204D01*
X100514999Y-92525000D01*
X101415001Y-92525000D01*
X101439505Y-92526204D01*
G37*
G36*
X101439505Y-90476204D02*
G01*
X101463773Y-90479804D01*
X101487572Y-90485765D01*
X101510671Y-90494030D01*
X101532850Y-90504520D01*
X101553893Y-90517132D01*
X101573599Y-90531747D01*
X101591777Y-90548223D01*
X101608253Y-90566401D01*
X101622868Y-90586107D01*
X101635480Y-90607150D01*
X101645970Y-90629329D01*
X101654235Y-90652428D01*
X101660196Y-90676227D01*
X101663796Y-90700495D01*
X101665000Y-90724999D01*
X101665000Y-91375001D01*
X101663796Y-91399505D01*
X101660196Y-91423773D01*
X101654235Y-91447572D01*
X101645970Y-91470671D01*
X101635480Y-91492850D01*
X101622868Y-91513893D01*
X101608253Y-91533599D01*
X101591777Y-91551777D01*
X101573599Y-91568253D01*
X101553893Y-91582868D01*
X101532850Y-91595480D01*
X101510671Y-91605970D01*
X101487572Y-91614235D01*
X101463773Y-91620196D01*
X101439505Y-91623796D01*
X101415001Y-91625000D01*
X100514999Y-91625000D01*
X100490495Y-91623796D01*
X100466227Y-91620196D01*
X100442428Y-91614235D01*
X100419329Y-91605970D01*
X100397150Y-91595480D01*
X100376107Y-91582868D01*
X100356401Y-91568253D01*
X100338223Y-91551777D01*
X100321747Y-91533599D01*
X100307132Y-91513893D01*
X100294520Y-91492850D01*
X100284030Y-91470671D01*
X100275765Y-91447572D01*
X100269804Y-91423773D01*
X100266204Y-91399505D01*
X100265000Y-91375001D01*
X100265000Y-90724999D01*
X100266204Y-90700495D01*
X100269804Y-90676227D01*
X100275765Y-90652428D01*
X100284030Y-90629329D01*
X100294520Y-90607150D01*
X100307132Y-90586107D01*
X100321747Y-90566401D01*
X100338223Y-90548223D01*
X100356401Y-90531747D01*
X100376107Y-90517132D01*
X100397150Y-90504520D01*
X100419329Y-90494030D01*
X100442428Y-90485765D01*
X100466227Y-90479804D01*
X100490495Y-90476204D01*
X100514999Y-90475000D01*
X101415001Y-90475000D01*
X101439505Y-90476204D01*
G37*
G36*
X144619505Y-74111204D02*
G01*
X144643773Y-74114804D01*
X144667572Y-74120765D01*
X144690671Y-74129030D01*
X144712850Y-74139520D01*
X144733893Y-74152132D01*
X144753599Y-74166747D01*
X144771777Y-74183223D01*
X144788253Y-74201401D01*
X144802868Y-74221107D01*
X144815480Y-74242150D01*
X144825970Y-74264329D01*
X144834235Y-74287428D01*
X144840196Y-74311227D01*
X144843796Y-74335495D01*
X144845000Y-74359999D01*
X144845000Y-75010001D01*
X144843796Y-75034505D01*
X144840196Y-75058773D01*
X144834235Y-75082572D01*
X144825970Y-75105671D01*
X144815480Y-75127850D01*
X144802868Y-75148893D01*
X144788253Y-75168599D01*
X144771777Y-75186777D01*
X144753599Y-75203253D01*
X144733893Y-75217868D01*
X144712850Y-75230480D01*
X144690671Y-75240970D01*
X144667572Y-75249235D01*
X144643773Y-75255196D01*
X144619505Y-75258796D01*
X144595001Y-75260000D01*
X143694999Y-75260000D01*
X143670495Y-75258796D01*
X143646227Y-75255196D01*
X143622428Y-75249235D01*
X143599329Y-75240970D01*
X143577150Y-75230480D01*
X143556107Y-75217868D01*
X143536401Y-75203253D01*
X143518223Y-75186777D01*
X143501747Y-75168599D01*
X143487132Y-75148893D01*
X143474520Y-75127850D01*
X143464030Y-75105671D01*
X143455765Y-75082572D01*
X143449804Y-75058773D01*
X143446204Y-75034505D01*
X143445000Y-75010001D01*
X143445000Y-74359999D01*
X143446204Y-74335495D01*
X143449804Y-74311227D01*
X143455765Y-74287428D01*
X143464030Y-74264329D01*
X143474520Y-74242150D01*
X143487132Y-74221107D01*
X143501747Y-74201401D01*
X143518223Y-74183223D01*
X143536401Y-74166747D01*
X143556107Y-74152132D01*
X143577150Y-74139520D01*
X143599329Y-74129030D01*
X143622428Y-74120765D01*
X143646227Y-74114804D01*
X143670495Y-74111204D01*
X143694999Y-74110000D01*
X144595001Y-74110000D01*
X144619505Y-74111204D01*
G37*
G36*
X144619505Y-72061204D02*
G01*
X144643773Y-72064804D01*
X144667572Y-72070765D01*
X144690671Y-72079030D01*
X144712850Y-72089520D01*
X144733893Y-72102132D01*
X144753599Y-72116747D01*
X144771777Y-72133223D01*
X144788253Y-72151401D01*
X144802868Y-72171107D01*
X144815480Y-72192150D01*
X144825970Y-72214329D01*
X144834235Y-72237428D01*
X144840196Y-72261227D01*
X144843796Y-72285495D01*
X144845000Y-72309999D01*
X144845000Y-72960001D01*
X144843796Y-72984505D01*
X144840196Y-73008773D01*
X144834235Y-73032572D01*
X144825970Y-73055671D01*
X144815480Y-73077850D01*
X144802868Y-73098893D01*
X144788253Y-73118599D01*
X144771777Y-73136777D01*
X144753599Y-73153253D01*
X144733893Y-73167868D01*
X144712850Y-73180480D01*
X144690671Y-73190970D01*
X144667572Y-73199235D01*
X144643773Y-73205196D01*
X144619505Y-73208796D01*
X144595001Y-73210000D01*
X143694999Y-73210000D01*
X143670495Y-73208796D01*
X143646227Y-73205196D01*
X143622428Y-73199235D01*
X143599329Y-73190970D01*
X143577150Y-73180480D01*
X143556107Y-73167868D01*
X143536401Y-73153253D01*
X143518223Y-73136777D01*
X143501747Y-73118599D01*
X143487132Y-73098893D01*
X143474520Y-73077850D01*
X143464030Y-73055671D01*
X143455765Y-73032572D01*
X143449804Y-73008773D01*
X143446204Y-72984505D01*
X143445000Y-72960001D01*
X143445000Y-72309999D01*
X143446204Y-72285495D01*
X143449804Y-72261227D01*
X143455765Y-72237428D01*
X143464030Y-72214329D01*
X143474520Y-72192150D01*
X143487132Y-72171107D01*
X143501747Y-72151401D01*
X143518223Y-72133223D01*
X143536401Y-72116747D01*
X143556107Y-72102132D01*
X143577150Y-72089520D01*
X143599329Y-72079030D01*
X143622428Y-72070765D01*
X143646227Y-72064804D01*
X143670495Y-72061204D01*
X143694999Y-72060000D01*
X144595001Y-72060000D01*
X144619505Y-72061204D01*
G37*
G36*
X91914505Y-80216204D02*
G01*
X91938773Y-80219804D01*
X91962572Y-80225765D01*
X91985671Y-80234030D01*
X92007850Y-80244520D01*
X92028893Y-80257132D01*
X92048599Y-80271747D01*
X92066777Y-80288223D01*
X92083253Y-80306401D01*
X92097868Y-80326107D01*
X92110480Y-80347150D01*
X92120970Y-80369329D01*
X92129235Y-80392428D01*
X92135196Y-80416227D01*
X92138796Y-80440495D01*
X92140000Y-80464999D01*
X92140000Y-81115001D01*
X92138796Y-81139505D01*
X92135196Y-81163773D01*
X92129235Y-81187572D01*
X92120970Y-81210671D01*
X92110480Y-81232850D01*
X92097868Y-81253893D01*
X92083253Y-81273599D01*
X92066777Y-81291777D01*
X92048599Y-81308253D01*
X92028893Y-81322868D01*
X92007850Y-81335480D01*
X91985671Y-81345970D01*
X91962572Y-81354235D01*
X91938773Y-81360196D01*
X91914505Y-81363796D01*
X91890001Y-81365000D01*
X90989999Y-81365000D01*
X90965495Y-81363796D01*
X90941227Y-81360196D01*
X90917428Y-81354235D01*
X90894329Y-81345970D01*
X90872150Y-81335480D01*
X90851107Y-81322868D01*
X90831401Y-81308253D01*
X90813223Y-81291777D01*
X90796747Y-81273599D01*
X90782132Y-81253893D01*
X90769520Y-81232850D01*
X90759030Y-81210671D01*
X90750765Y-81187572D01*
X90744804Y-81163773D01*
X90741204Y-81139505D01*
X90740000Y-81115001D01*
X90740000Y-80464999D01*
X90741204Y-80440495D01*
X90744804Y-80416227D01*
X90750765Y-80392428D01*
X90759030Y-80369329D01*
X90769520Y-80347150D01*
X90782132Y-80326107D01*
X90796747Y-80306401D01*
X90813223Y-80288223D01*
X90831401Y-80271747D01*
X90851107Y-80257132D01*
X90872150Y-80244520D01*
X90894329Y-80234030D01*
X90917428Y-80225765D01*
X90941227Y-80219804D01*
X90965495Y-80216204D01*
X90989999Y-80215000D01*
X91890001Y-80215000D01*
X91914505Y-80216204D01*
G37*
G36*
X91914505Y-78166204D02*
G01*
X91938773Y-78169804D01*
X91962572Y-78175765D01*
X91985671Y-78184030D01*
X92007850Y-78194520D01*
X92028893Y-78207132D01*
X92048599Y-78221747D01*
X92066777Y-78238223D01*
X92083253Y-78256401D01*
X92097868Y-78276107D01*
X92110480Y-78297150D01*
X92120970Y-78319329D01*
X92129235Y-78342428D01*
X92135196Y-78366227D01*
X92138796Y-78390495D01*
X92140000Y-78414999D01*
X92140000Y-79065001D01*
X92138796Y-79089505D01*
X92135196Y-79113773D01*
X92129235Y-79137572D01*
X92120970Y-79160671D01*
X92110480Y-79182850D01*
X92097868Y-79203893D01*
X92083253Y-79223599D01*
X92066777Y-79241777D01*
X92048599Y-79258253D01*
X92028893Y-79272868D01*
X92007850Y-79285480D01*
X91985671Y-79295970D01*
X91962572Y-79304235D01*
X91938773Y-79310196D01*
X91914505Y-79313796D01*
X91890001Y-79315000D01*
X90989999Y-79315000D01*
X90965495Y-79313796D01*
X90941227Y-79310196D01*
X90917428Y-79304235D01*
X90894329Y-79295970D01*
X90872150Y-79285480D01*
X90851107Y-79272868D01*
X90831401Y-79258253D01*
X90813223Y-79241777D01*
X90796747Y-79223599D01*
X90782132Y-79203893D01*
X90769520Y-79182850D01*
X90759030Y-79160671D01*
X90750765Y-79137572D01*
X90744804Y-79113773D01*
X90741204Y-79089505D01*
X90740000Y-79065001D01*
X90740000Y-78414999D01*
X90741204Y-78390495D01*
X90744804Y-78366227D01*
X90750765Y-78342428D01*
X90759030Y-78319329D01*
X90769520Y-78297150D01*
X90782132Y-78276107D01*
X90796747Y-78256401D01*
X90813223Y-78238223D01*
X90831401Y-78221747D01*
X90851107Y-78207132D01*
X90872150Y-78194520D01*
X90894329Y-78184030D01*
X90917428Y-78175765D01*
X90941227Y-78169804D01*
X90965495Y-78166204D01*
X90989999Y-78165000D01*
X91890001Y-78165000D01*
X91914505Y-78166204D01*
G37*
G36*
X101439505Y-86176204D02*
G01*
X101463773Y-86179804D01*
X101487572Y-86185765D01*
X101510671Y-86194030D01*
X101532850Y-86204520D01*
X101553893Y-86217132D01*
X101573599Y-86231747D01*
X101591777Y-86248223D01*
X101608253Y-86266401D01*
X101622868Y-86286107D01*
X101635480Y-86307150D01*
X101645970Y-86329329D01*
X101654235Y-86352428D01*
X101660196Y-86376227D01*
X101663796Y-86400495D01*
X101665000Y-86424999D01*
X101665000Y-87075001D01*
X101663796Y-87099505D01*
X101660196Y-87123773D01*
X101654235Y-87147572D01*
X101645970Y-87170671D01*
X101635480Y-87192850D01*
X101622868Y-87213893D01*
X101608253Y-87233599D01*
X101591777Y-87251777D01*
X101573599Y-87268253D01*
X101553893Y-87282868D01*
X101532850Y-87295480D01*
X101510671Y-87305970D01*
X101487572Y-87314235D01*
X101463773Y-87320196D01*
X101439505Y-87323796D01*
X101415001Y-87325000D01*
X100514999Y-87325000D01*
X100490495Y-87323796D01*
X100466227Y-87320196D01*
X100442428Y-87314235D01*
X100419329Y-87305970D01*
X100397150Y-87295480D01*
X100376107Y-87282868D01*
X100356401Y-87268253D01*
X100338223Y-87251777D01*
X100321747Y-87233599D01*
X100307132Y-87213893D01*
X100294520Y-87192850D01*
X100284030Y-87170671D01*
X100275765Y-87147572D01*
X100269804Y-87123773D01*
X100266204Y-87099505D01*
X100265000Y-87075001D01*
X100265000Y-86424999D01*
X100266204Y-86400495D01*
X100269804Y-86376227D01*
X100275765Y-86352428D01*
X100284030Y-86329329D01*
X100294520Y-86307150D01*
X100307132Y-86286107D01*
X100321747Y-86266401D01*
X100338223Y-86248223D01*
X100356401Y-86231747D01*
X100376107Y-86217132D01*
X100397150Y-86204520D01*
X100419329Y-86194030D01*
X100442428Y-86185765D01*
X100466227Y-86179804D01*
X100490495Y-86176204D01*
X100514999Y-86175000D01*
X101415001Y-86175000D01*
X101439505Y-86176204D01*
G37*
G36*
X101439505Y-84126204D02*
G01*
X101463773Y-84129804D01*
X101487572Y-84135765D01*
X101510671Y-84144030D01*
X101532850Y-84154520D01*
X101553893Y-84167132D01*
X101573599Y-84181747D01*
X101591777Y-84198223D01*
X101608253Y-84216401D01*
X101622868Y-84236107D01*
X101635480Y-84257150D01*
X101645970Y-84279329D01*
X101654235Y-84302428D01*
X101660196Y-84326227D01*
X101663796Y-84350495D01*
X101665000Y-84374999D01*
X101665000Y-85025001D01*
X101663796Y-85049505D01*
X101660196Y-85073773D01*
X101654235Y-85097572D01*
X101645970Y-85120671D01*
X101635480Y-85142850D01*
X101622868Y-85163893D01*
X101608253Y-85183599D01*
X101591777Y-85201777D01*
X101573599Y-85218253D01*
X101553893Y-85232868D01*
X101532850Y-85245480D01*
X101510671Y-85255970D01*
X101487572Y-85264235D01*
X101463773Y-85270196D01*
X101439505Y-85273796D01*
X101415001Y-85275000D01*
X100514999Y-85275000D01*
X100490495Y-85273796D01*
X100466227Y-85270196D01*
X100442428Y-85264235D01*
X100419329Y-85255970D01*
X100397150Y-85245480D01*
X100376107Y-85232868D01*
X100356401Y-85218253D01*
X100338223Y-85201777D01*
X100321747Y-85183599D01*
X100307132Y-85163893D01*
X100294520Y-85142850D01*
X100284030Y-85120671D01*
X100275765Y-85097572D01*
X100269804Y-85073773D01*
X100266204Y-85049505D01*
X100265000Y-85025001D01*
X100265000Y-84374999D01*
X100266204Y-84350495D01*
X100269804Y-84326227D01*
X100275765Y-84302428D01*
X100284030Y-84279329D01*
X100294520Y-84257150D01*
X100307132Y-84236107D01*
X100321747Y-84216401D01*
X100338223Y-84198223D01*
X100356401Y-84181747D01*
X100376107Y-84167132D01*
X100397150Y-84154520D01*
X100419329Y-84144030D01*
X100442428Y-84135765D01*
X100466227Y-84129804D01*
X100490495Y-84126204D01*
X100514999Y-84125000D01*
X101415001Y-84125000D01*
X101439505Y-84126204D01*
G37*
G36*
X143349505Y-78166204D02*
G01*
X143373773Y-78169804D01*
X143397572Y-78175765D01*
X143420671Y-78184030D01*
X143442850Y-78194520D01*
X143463893Y-78207132D01*
X143483599Y-78221747D01*
X143501777Y-78238223D01*
X143518253Y-78256401D01*
X143532868Y-78276107D01*
X143545480Y-78297150D01*
X143555970Y-78319329D01*
X143564235Y-78342428D01*
X143570196Y-78366227D01*
X143573796Y-78390495D01*
X143575000Y-78414999D01*
X143575000Y-79065001D01*
X143573796Y-79089505D01*
X143570196Y-79113773D01*
X143564235Y-79137572D01*
X143555970Y-79160671D01*
X143545480Y-79182850D01*
X143532868Y-79203893D01*
X143518253Y-79223599D01*
X143501777Y-79241777D01*
X143483599Y-79258253D01*
X143463893Y-79272868D01*
X143442850Y-79285480D01*
X143420671Y-79295970D01*
X143397572Y-79304235D01*
X143373773Y-79310196D01*
X143349505Y-79313796D01*
X143325001Y-79315000D01*
X142424999Y-79315000D01*
X142400495Y-79313796D01*
X142376227Y-79310196D01*
X142352428Y-79304235D01*
X142329329Y-79295970D01*
X142307150Y-79285480D01*
X142286107Y-79272868D01*
X142266401Y-79258253D01*
X142248223Y-79241777D01*
X142231747Y-79223599D01*
X142217132Y-79203893D01*
X142204520Y-79182850D01*
X142194030Y-79160671D01*
X142185765Y-79137572D01*
X142179804Y-79113773D01*
X142176204Y-79089505D01*
X142175000Y-79065001D01*
X142175000Y-78414999D01*
X142176204Y-78390495D01*
X142179804Y-78366227D01*
X142185765Y-78342428D01*
X142194030Y-78319329D01*
X142204520Y-78297150D01*
X142217132Y-78276107D01*
X142231747Y-78256401D01*
X142248223Y-78238223D01*
X142266401Y-78221747D01*
X142286107Y-78207132D01*
X142307150Y-78194520D01*
X142329329Y-78184030D01*
X142352428Y-78175765D01*
X142376227Y-78169804D01*
X142400495Y-78166204D01*
X142424999Y-78165000D01*
X143325001Y-78165000D01*
X143349505Y-78166204D01*
G37*
G36*
X143349505Y-80216204D02*
G01*
X143373773Y-80219804D01*
X143397572Y-80225765D01*
X143420671Y-80234030D01*
X143442850Y-80244520D01*
X143463893Y-80257132D01*
X143483599Y-80271747D01*
X143501777Y-80288223D01*
X143518253Y-80306401D01*
X143532868Y-80326107D01*
X143545480Y-80347150D01*
X143555970Y-80369329D01*
X143564235Y-80392428D01*
X143570196Y-80416227D01*
X143573796Y-80440495D01*
X143575000Y-80464999D01*
X143575000Y-81115001D01*
X143573796Y-81139505D01*
X143570196Y-81163773D01*
X143564235Y-81187572D01*
X143555970Y-81210671D01*
X143545480Y-81232850D01*
X143532868Y-81253893D01*
X143518253Y-81273599D01*
X143501777Y-81291777D01*
X143483599Y-81308253D01*
X143463893Y-81322868D01*
X143442850Y-81335480D01*
X143420671Y-81345970D01*
X143397572Y-81354235D01*
X143373773Y-81360196D01*
X143349505Y-81363796D01*
X143325001Y-81365000D01*
X142424999Y-81365000D01*
X142400495Y-81363796D01*
X142376227Y-81360196D01*
X142352428Y-81354235D01*
X142329329Y-81345970D01*
X142307150Y-81335480D01*
X142286107Y-81322868D01*
X142266401Y-81308253D01*
X142248223Y-81291777D01*
X142231747Y-81273599D01*
X142217132Y-81253893D01*
X142204520Y-81232850D01*
X142194030Y-81210671D01*
X142185765Y-81187572D01*
X142179804Y-81163773D01*
X142176204Y-81139505D01*
X142175000Y-81115001D01*
X142175000Y-80464999D01*
X142176204Y-80440495D01*
X142179804Y-80416227D01*
X142185765Y-80392428D01*
X142194030Y-80369329D01*
X142204520Y-80347150D01*
X142217132Y-80326107D01*
X142231747Y-80306401D01*
X142248223Y-80288223D01*
X142266401Y-80271747D01*
X142286107Y-80257132D01*
X142307150Y-80244520D01*
X142329329Y-80234030D01*
X142352428Y-80225765D01*
X142376227Y-80219804D01*
X142400495Y-80216204D01*
X142424999Y-80215000D01*
X143325001Y-80215000D01*
X143349505Y-80216204D01*
G37*
G36*
X140174505Y-80216204D02*
G01*
X140198773Y-80219804D01*
X140222572Y-80225765D01*
X140245671Y-80234030D01*
X140267850Y-80244520D01*
X140288893Y-80257132D01*
X140308599Y-80271747D01*
X140326777Y-80288223D01*
X140343253Y-80306401D01*
X140357868Y-80326107D01*
X140370480Y-80347150D01*
X140380970Y-80369329D01*
X140389235Y-80392428D01*
X140395196Y-80416227D01*
X140398796Y-80440495D01*
X140400000Y-80464999D01*
X140400000Y-81115001D01*
X140398796Y-81139505D01*
X140395196Y-81163773D01*
X140389235Y-81187572D01*
X140380970Y-81210671D01*
X140370480Y-81232850D01*
X140357868Y-81253893D01*
X140343253Y-81273599D01*
X140326777Y-81291777D01*
X140308599Y-81308253D01*
X140288893Y-81322868D01*
X140267850Y-81335480D01*
X140245671Y-81345970D01*
X140222572Y-81354235D01*
X140198773Y-81360196D01*
X140174505Y-81363796D01*
X140150001Y-81365000D01*
X139249999Y-81365000D01*
X139225495Y-81363796D01*
X139201227Y-81360196D01*
X139177428Y-81354235D01*
X139154329Y-81345970D01*
X139132150Y-81335480D01*
X139111107Y-81322868D01*
X139091401Y-81308253D01*
X139073223Y-81291777D01*
X139056747Y-81273599D01*
X139042132Y-81253893D01*
X139029520Y-81232850D01*
X139019030Y-81210671D01*
X139010765Y-81187572D01*
X139004804Y-81163773D01*
X139001204Y-81139505D01*
X139000000Y-81115001D01*
X139000000Y-80464999D01*
X139001204Y-80440495D01*
X139004804Y-80416227D01*
X139010765Y-80392428D01*
X139019030Y-80369329D01*
X139029520Y-80347150D01*
X139042132Y-80326107D01*
X139056747Y-80306401D01*
X139073223Y-80288223D01*
X139091401Y-80271747D01*
X139111107Y-80257132D01*
X139132150Y-80244520D01*
X139154329Y-80234030D01*
X139177428Y-80225765D01*
X139201227Y-80219804D01*
X139225495Y-80216204D01*
X139249999Y-80215000D01*
X140150001Y-80215000D01*
X140174505Y-80216204D01*
G37*
G36*
X140174505Y-78166204D02*
G01*
X140198773Y-78169804D01*
X140222572Y-78175765D01*
X140245671Y-78184030D01*
X140267850Y-78194520D01*
X140288893Y-78207132D01*
X140308599Y-78221747D01*
X140326777Y-78238223D01*
X140343253Y-78256401D01*
X140357868Y-78276107D01*
X140370480Y-78297150D01*
X140380970Y-78319329D01*
X140389235Y-78342428D01*
X140395196Y-78366227D01*
X140398796Y-78390495D01*
X140400000Y-78414999D01*
X140400000Y-79065001D01*
X140398796Y-79089505D01*
X140395196Y-79113773D01*
X140389235Y-79137572D01*
X140380970Y-79160671D01*
X140370480Y-79182850D01*
X140357868Y-79203893D01*
X140343253Y-79223599D01*
X140326777Y-79241777D01*
X140308599Y-79258253D01*
X140288893Y-79272868D01*
X140267850Y-79285480D01*
X140245671Y-79295970D01*
X140222572Y-79304235D01*
X140198773Y-79310196D01*
X140174505Y-79313796D01*
X140150001Y-79315000D01*
X139249999Y-79315000D01*
X139225495Y-79313796D01*
X139201227Y-79310196D01*
X139177428Y-79304235D01*
X139154329Y-79295970D01*
X139132150Y-79285480D01*
X139111107Y-79272868D01*
X139091401Y-79258253D01*
X139073223Y-79241777D01*
X139056747Y-79223599D01*
X139042132Y-79203893D01*
X139029520Y-79182850D01*
X139019030Y-79160671D01*
X139010765Y-79137572D01*
X139004804Y-79113773D01*
X139001204Y-79089505D01*
X139000000Y-79065001D01*
X139000000Y-78414999D01*
X139001204Y-78390495D01*
X139004804Y-78366227D01*
X139010765Y-78342428D01*
X139019030Y-78319329D01*
X139029520Y-78297150D01*
X139042132Y-78276107D01*
X139056747Y-78256401D01*
X139073223Y-78238223D01*
X139091401Y-78221747D01*
X139111107Y-78207132D01*
X139132150Y-78194520D01*
X139154329Y-78184030D01*
X139177428Y-78175765D01*
X139201227Y-78169804D01*
X139225495Y-78166204D01*
X139249999Y-78165000D01*
X140150001Y-78165000D01*
X140174505Y-78166204D01*
G37*
G36*
X136999505Y-78166204D02*
G01*
X137023773Y-78169804D01*
X137047572Y-78175765D01*
X137070671Y-78184030D01*
X137092850Y-78194520D01*
X137113893Y-78207132D01*
X137133599Y-78221747D01*
X137151777Y-78238223D01*
X137168253Y-78256401D01*
X137182868Y-78276107D01*
X137195480Y-78297150D01*
X137205970Y-78319329D01*
X137214235Y-78342428D01*
X137220196Y-78366227D01*
X137223796Y-78390495D01*
X137225000Y-78414999D01*
X137225000Y-79065001D01*
X137223796Y-79089505D01*
X137220196Y-79113773D01*
X137214235Y-79137572D01*
X137205970Y-79160671D01*
X137195480Y-79182850D01*
X137182868Y-79203893D01*
X137168253Y-79223599D01*
X137151777Y-79241777D01*
X137133599Y-79258253D01*
X137113893Y-79272868D01*
X137092850Y-79285480D01*
X137070671Y-79295970D01*
X137047572Y-79304235D01*
X137023773Y-79310196D01*
X136999505Y-79313796D01*
X136975001Y-79315000D01*
X136074999Y-79315000D01*
X136050495Y-79313796D01*
X136026227Y-79310196D01*
X136002428Y-79304235D01*
X135979329Y-79295970D01*
X135957150Y-79285480D01*
X135936107Y-79272868D01*
X135916401Y-79258253D01*
X135898223Y-79241777D01*
X135881747Y-79223599D01*
X135867132Y-79203893D01*
X135854520Y-79182850D01*
X135844030Y-79160671D01*
X135835765Y-79137572D01*
X135829804Y-79113773D01*
X135826204Y-79089505D01*
X135825000Y-79065001D01*
X135825000Y-78414999D01*
X135826204Y-78390495D01*
X135829804Y-78366227D01*
X135835765Y-78342428D01*
X135844030Y-78319329D01*
X135854520Y-78297150D01*
X135867132Y-78276107D01*
X135881747Y-78256401D01*
X135898223Y-78238223D01*
X135916401Y-78221747D01*
X135936107Y-78207132D01*
X135957150Y-78194520D01*
X135979329Y-78184030D01*
X136002428Y-78175765D01*
X136026227Y-78169804D01*
X136050495Y-78166204D01*
X136074999Y-78165000D01*
X136975001Y-78165000D01*
X136999505Y-78166204D01*
G37*
G36*
X136999505Y-80216204D02*
G01*
X137023773Y-80219804D01*
X137047572Y-80225765D01*
X137070671Y-80234030D01*
X137092850Y-80244520D01*
X137113893Y-80257132D01*
X137133599Y-80271747D01*
X137151777Y-80288223D01*
X137168253Y-80306401D01*
X137182868Y-80326107D01*
X137195480Y-80347150D01*
X137205970Y-80369329D01*
X137214235Y-80392428D01*
X137220196Y-80416227D01*
X137223796Y-80440495D01*
X137225000Y-80464999D01*
X137225000Y-81115001D01*
X137223796Y-81139505D01*
X137220196Y-81163773D01*
X137214235Y-81187572D01*
X137205970Y-81210671D01*
X137195480Y-81232850D01*
X137182868Y-81253893D01*
X137168253Y-81273599D01*
X137151777Y-81291777D01*
X137133599Y-81308253D01*
X137113893Y-81322868D01*
X137092850Y-81335480D01*
X137070671Y-81345970D01*
X137047572Y-81354235D01*
X137023773Y-81360196D01*
X136999505Y-81363796D01*
X136975001Y-81365000D01*
X136074999Y-81365000D01*
X136050495Y-81363796D01*
X136026227Y-81360196D01*
X136002428Y-81354235D01*
X135979329Y-81345970D01*
X135957150Y-81335480D01*
X135936107Y-81322868D01*
X135916401Y-81308253D01*
X135898223Y-81291777D01*
X135881747Y-81273599D01*
X135867132Y-81253893D01*
X135854520Y-81232850D01*
X135844030Y-81210671D01*
X135835765Y-81187572D01*
X135829804Y-81163773D01*
X135826204Y-81139505D01*
X135825000Y-81115001D01*
X135825000Y-80464999D01*
X135826204Y-80440495D01*
X135829804Y-80416227D01*
X135835765Y-80392428D01*
X135844030Y-80369329D01*
X135854520Y-80347150D01*
X135867132Y-80326107D01*
X135881747Y-80306401D01*
X135898223Y-80288223D01*
X135916401Y-80271747D01*
X135936107Y-80257132D01*
X135957150Y-80244520D01*
X135979329Y-80234030D01*
X136002428Y-80225765D01*
X136026227Y-80219804D01*
X136050495Y-80216204D01*
X136074999Y-80215000D01*
X136975001Y-80215000D01*
X136999505Y-80216204D01*
G37*
G36*
X130649505Y-78166204D02*
G01*
X130673773Y-78169804D01*
X130697572Y-78175765D01*
X130720671Y-78184030D01*
X130742850Y-78194520D01*
X130763893Y-78207132D01*
X130783599Y-78221747D01*
X130801777Y-78238223D01*
X130818253Y-78256401D01*
X130832868Y-78276107D01*
X130845480Y-78297150D01*
X130855970Y-78319329D01*
X130864235Y-78342428D01*
X130870196Y-78366227D01*
X130873796Y-78390495D01*
X130875000Y-78414999D01*
X130875000Y-79065001D01*
X130873796Y-79089505D01*
X130870196Y-79113773D01*
X130864235Y-79137572D01*
X130855970Y-79160671D01*
X130845480Y-79182850D01*
X130832868Y-79203893D01*
X130818253Y-79223599D01*
X130801777Y-79241777D01*
X130783599Y-79258253D01*
X130763893Y-79272868D01*
X130742850Y-79285480D01*
X130720671Y-79295970D01*
X130697572Y-79304235D01*
X130673773Y-79310196D01*
X130649505Y-79313796D01*
X130625001Y-79315000D01*
X129724999Y-79315000D01*
X129700495Y-79313796D01*
X129676227Y-79310196D01*
X129652428Y-79304235D01*
X129629329Y-79295970D01*
X129607150Y-79285480D01*
X129586107Y-79272868D01*
X129566401Y-79258253D01*
X129548223Y-79241777D01*
X129531747Y-79223599D01*
X129517132Y-79203893D01*
X129504520Y-79182850D01*
X129494030Y-79160671D01*
X129485765Y-79137572D01*
X129479804Y-79113773D01*
X129476204Y-79089505D01*
X129475000Y-79065001D01*
X129475000Y-78414999D01*
X129476204Y-78390495D01*
X129479804Y-78366227D01*
X129485765Y-78342428D01*
X129494030Y-78319329D01*
X129504520Y-78297150D01*
X129517132Y-78276107D01*
X129531747Y-78256401D01*
X129548223Y-78238223D01*
X129566401Y-78221747D01*
X129586107Y-78207132D01*
X129607150Y-78194520D01*
X129629329Y-78184030D01*
X129652428Y-78175765D01*
X129676227Y-78169804D01*
X129700495Y-78166204D01*
X129724999Y-78165000D01*
X130625001Y-78165000D01*
X130649505Y-78166204D01*
G37*
G36*
X130649505Y-80216204D02*
G01*
X130673773Y-80219804D01*
X130697572Y-80225765D01*
X130720671Y-80234030D01*
X130742850Y-80244520D01*
X130763893Y-80257132D01*
X130783599Y-80271747D01*
X130801777Y-80288223D01*
X130818253Y-80306401D01*
X130832868Y-80326107D01*
X130845480Y-80347150D01*
X130855970Y-80369329D01*
X130864235Y-80392428D01*
X130870196Y-80416227D01*
X130873796Y-80440495D01*
X130875000Y-80464999D01*
X130875000Y-81115001D01*
X130873796Y-81139505D01*
X130870196Y-81163773D01*
X130864235Y-81187572D01*
X130855970Y-81210671D01*
X130845480Y-81232850D01*
X130832868Y-81253893D01*
X130818253Y-81273599D01*
X130801777Y-81291777D01*
X130783599Y-81308253D01*
X130763893Y-81322868D01*
X130742850Y-81335480D01*
X130720671Y-81345970D01*
X130697572Y-81354235D01*
X130673773Y-81360196D01*
X130649505Y-81363796D01*
X130625001Y-81365000D01*
X129724999Y-81365000D01*
X129700495Y-81363796D01*
X129676227Y-81360196D01*
X129652428Y-81354235D01*
X129629329Y-81345970D01*
X129607150Y-81335480D01*
X129586107Y-81322868D01*
X129566401Y-81308253D01*
X129548223Y-81291777D01*
X129531747Y-81273599D01*
X129517132Y-81253893D01*
X129504520Y-81232850D01*
X129494030Y-81210671D01*
X129485765Y-81187572D01*
X129479804Y-81163773D01*
X129476204Y-81139505D01*
X129475000Y-81115001D01*
X129475000Y-80464999D01*
X129476204Y-80440495D01*
X129479804Y-80416227D01*
X129485765Y-80392428D01*
X129494030Y-80369329D01*
X129504520Y-80347150D01*
X129517132Y-80326107D01*
X129531747Y-80306401D01*
X129548223Y-80288223D01*
X129566401Y-80271747D01*
X129586107Y-80257132D01*
X129607150Y-80244520D01*
X129629329Y-80234030D01*
X129652428Y-80225765D01*
X129676227Y-80219804D01*
X129700495Y-80216204D01*
X129724999Y-80215000D01*
X130625001Y-80215000D01*
X130649505Y-80216204D01*
G37*
G36*
X107789505Y-80216204D02*
G01*
X107813773Y-80219804D01*
X107837572Y-80225765D01*
X107860671Y-80234030D01*
X107882850Y-80244520D01*
X107903893Y-80257132D01*
X107923599Y-80271747D01*
X107941777Y-80288223D01*
X107958253Y-80306401D01*
X107972868Y-80326107D01*
X107985480Y-80347150D01*
X107995970Y-80369329D01*
X108004235Y-80392428D01*
X108010196Y-80416227D01*
X108013796Y-80440495D01*
X108015000Y-80464999D01*
X108015000Y-81115001D01*
X108013796Y-81139505D01*
X108010196Y-81163773D01*
X108004235Y-81187572D01*
X107995970Y-81210671D01*
X107985480Y-81232850D01*
X107972868Y-81253893D01*
X107958253Y-81273599D01*
X107941777Y-81291777D01*
X107923599Y-81308253D01*
X107903893Y-81322868D01*
X107882850Y-81335480D01*
X107860671Y-81345970D01*
X107837572Y-81354235D01*
X107813773Y-81360196D01*
X107789505Y-81363796D01*
X107765001Y-81365000D01*
X106864999Y-81365000D01*
X106840495Y-81363796D01*
X106816227Y-81360196D01*
X106792428Y-81354235D01*
X106769329Y-81345970D01*
X106747150Y-81335480D01*
X106726107Y-81322868D01*
X106706401Y-81308253D01*
X106688223Y-81291777D01*
X106671747Y-81273599D01*
X106657132Y-81253893D01*
X106644520Y-81232850D01*
X106634030Y-81210671D01*
X106625765Y-81187572D01*
X106619804Y-81163773D01*
X106616204Y-81139505D01*
X106615000Y-81115001D01*
X106615000Y-80464999D01*
X106616204Y-80440495D01*
X106619804Y-80416227D01*
X106625765Y-80392428D01*
X106634030Y-80369329D01*
X106644520Y-80347150D01*
X106657132Y-80326107D01*
X106671747Y-80306401D01*
X106688223Y-80288223D01*
X106706401Y-80271747D01*
X106726107Y-80257132D01*
X106747150Y-80244520D01*
X106769329Y-80234030D01*
X106792428Y-80225765D01*
X106816227Y-80219804D01*
X106840495Y-80216204D01*
X106864999Y-80215000D01*
X107765001Y-80215000D01*
X107789505Y-80216204D01*
G37*
G36*
X107789505Y-78166204D02*
G01*
X107813773Y-78169804D01*
X107837572Y-78175765D01*
X107860671Y-78184030D01*
X107882850Y-78194520D01*
X107903893Y-78207132D01*
X107923599Y-78221747D01*
X107941777Y-78238223D01*
X107958253Y-78256401D01*
X107972868Y-78276107D01*
X107985480Y-78297150D01*
X107995970Y-78319329D01*
X108004235Y-78342428D01*
X108010196Y-78366227D01*
X108013796Y-78390495D01*
X108015000Y-78414999D01*
X108015000Y-79065001D01*
X108013796Y-79089505D01*
X108010196Y-79113773D01*
X108004235Y-79137572D01*
X107995970Y-79160671D01*
X107985480Y-79182850D01*
X107972868Y-79203893D01*
X107958253Y-79223599D01*
X107941777Y-79241777D01*
X107923599Y-79258253D01*
X107903893Y-79272868D01*
X107882850Y-79285480D01*
X107860671Y-79295970D01*
X107837572Y-79304235D01*
X107813773Y-79310196D01*
X107789505Y-79313796D01*
X107765001Y-79315000D01*
X106864999Y-79315000D01*
X106840495Y-79313796D01*
X106816227Y-79310196D01*
X106792428Y-79304235D01*
X106769329Y-79295970D01*
X106747150Y-79285480D01*
X106726107Y-79272868D01*
X106706401Y-79258253D01*
X106688223Y-79241777D01*
X106671747Y-79223599D01*
X106657132Y-79203893D01*
X106644520Y-79182850D01*
X106634030Y-79160671D01*
X106625765Y-79137572D01*
X106619804Y-79113773D01*
X106616204Y-79089505D01*
X106615000Y-79065001D01*
X106615000Y-78414999D01*
X106616204Y-78390495D01*
X106619804Y-78366227D01*
X106625765Y-78342428D01*
X106634030Y-78319329D01*
X106644520Y-78297150D01*
X106657132Y-78276107D01*
X106671747Y-78256401D01*
X106688223Y-78238223D01*
X106706401Y-78221747D01*
X106726107Y-78207132D01*
X106747150Y-78194520D01*
X106769329Y-78184030D01*
X106792428Y-78175765D01*
X106816227Y-78169804D01*
X106840495Y-78166204D01*
X106864999Y-78165000D01*
X107765001Y-78165000D01*
X107789505Y-78166204D01*
G37*
G36*
X104614505Y-78166204D02*
G01*
X104638773Y-78169804D01*
X104662572Y-78175765D01*
X104685671Y-78184030D01*
X104707850Y-78194520D01*
X104728893Y-78207132D01*
X104748599Y-78221747D01*
X104766777Y-78238223D01*
X104783253Y-78256401D01*
X104797868Y-78276107D01*
X104810480Y-78297150D01*
X104820970Y-78319329D01*
X104829235Y-78342428D01*
X104835196Y-78366227D01*
X104838796Y-78390495D01*
X104840000Y-78414999D01*
X104840000Y-79065001D01*
X104838796Y-79089505D01*
X104835196Y-79113773D01*
X104829235Y-79137572D01*
X104820970Y-79160671D01*
X104810480Y-79182850D01*
X104797868Y-79203893D01*
X104783253Y-79223599D01*
X104766777Y-79241777D01*
X104748599Y-79258253D01*
X104728893Y-79272868D01*
X104707850Y-79285480D01*
X104685671Y-79295970D01*
X104662572Y-79304235D01*
X104638773Y-79310196D01*
X104614505Y-79313796D01*
X104590001Y-79315000D01*
X103689999Y-79315000D01*
X103665495Y-79313796D01*
X103641227Y-79310196D01*
X103617428Y-79304235D01*
X103594329Y-79295970D01*
X103572150Y-79285480D01*
X103551107Y-79272868D01*
X103531401Y-79258253D01*
X103513223Y-79241777D01*
X103496747Y-79223599D01*
X103482132Y-79203893D01*
X103469520Y-79182850D01*
X103459030Y-79160671D01*
X103450765Y-79137572D01*
X103444804Y-79113773D01*
X103441204Y-79089505D01*
X103440000Y-79065001D01*
X103440000Y-78414999D01*
X103441204Y-78390495D01*
X103444804Y-78366227D01*
X103450765Y-78342428D01*
X103459030Y-78319329D01*
X103469520Y-78297150D01*
X103482132Y-78276107D01*
X103496747Y-78256401D01*
X103513223Y-78238223D01*
X103531401Y-78221747D01*
X103551107Y-78207132D01*
X103572150Y-78194520D01*
X103594329Y-78184030D01*
X103617428Y-78175765D01*
X103641227Y-78169804D01*
X103665495Y-78166204D01*
X103689999Y-78165000D01*
X104590001Y-78165000D01*
X104614505Y-78166204D01*
G37*
G36*
X104614505Y-80216204D02*
G01*
X104638773Y-80219804D01*
X104662572Y-80225765D01*
X104685671Y-80234030D01*
X104707850Y-80244520D01*
X104728893Y-80257132D01*
X104748599Y-80271747D01*
X104766777Y-80288223D01*
X104783253Y-80306401D01*
X104797868Y-80326107D01*
X104810480Y-80347150D01*
X104820970Y-80369329D01*
X104829235Y-80392428D01*
X104835196Y-80416227D01*
X104838796Y-80440495D01*
X104840000Y-80464999D01*
X104840000Y-81115001D01*
X104838796Y-81139505D01*
X104835196Y-81163773D01*
X104829235Y-81187572D01*
X104820970Y-81210671D01*
X104810480Y-81232850D01*
X104797868Y-81253893D01*
X104783253Y-81273599D01*
X104766777Y-81291777D01*
X104748599Y-81308253D01*
X104728893Y-81322868D01*
X104707850Y-81335480D01*
X104685671Y-81345970D01*
X104662572Y-81354235D01*
X104638773Y-81360196D01*
X104614505Y-81363796D01*
X104590001Y-81365000D01*
X103689999Y-81365000D01*
X103665495Y-81363796D01*
X103641227Y-81360196D01*
X103617428Y-81354235D01*
X103594329Y-81345970D01*
X103572150Y-81335480D01*
X103551107Y-81322868D01*
X103531401Y-81308253D01*
X103513223Y-81291777D01*
X103496747Y-81273599D01*
X103482132Y-81253893D01*
X103469520Y-81232850D01*
X103459030Y-81210671D01*
X103450765Y-81187572D01*
X103444804Y-81163773D01*
X103441204Y-81139505D01*
X103440000Y-81115001D01*
X103440000Y-80464999D01*
X103441204Y-80440495D01*
X103444804Y-80416227D01*
X103450765Y-80392428D01*
X103459030Y-80369329D01*
X103469520Y-80347150D01*
X103482132Y-80326107D01*
X103496747Y-80306401D01*
X103513223Y-80288223D01*
X103531401Y-80271747D01*
X103551107Y-80257132D01*
X103572150Y-80244520D01*
X103594329Y-80234030D01*
X103617428Y-80225765D01*
X103641227Y-80219804D01*
X103665495Y-80216204D01*
X103689999Y-80215000D01*
X104590001Y-80215000D01*
X104614505Y-80216204D01*
G37*
G36*
X98264505Y-78166204D02*
G01*
X98288773Y-78169804D01*
X98312572Y-78175765D01*
X98335671Y-78184030D01*
X98357850Y-78194520D01*
X98378893Y-78207132D01*
X98398599Y-78221747D01*
X98416777Y-78238223D01*
X98433253Y-78256401D01*
X98447868Y-78276107D01*
X98460480Y-78297150D01*
X98470970Y-78319329D01*
X98479235Y-78342428D01*
X98485196Y-78366227D01*
X98488796Y-78390495D01*
X98490000Y-78414999D01*
X98490000Y-79065001D01*
X98488796Y-79089505D01*
X98485196Y-79113773D01*
X98479235Y-79137572D01*
X98470970Y-79160671D01*
X98460480Y-79182850D01*
X98447868Y-79203893D01*
X98433253Y-79223599D01*
X98416777Y-79241777D01*
X98398599Y-79258253D01*
X98378893Y-79272868D01*
X98357850Y-79285480D01*
X98335671Y-79295970D01*
X98312572Y-79304235D01*
X98288773Y-79310196D01*
X98264505Y-79313796D01*
X98240001Y-79315000D01*
X97339999Y-79315000D01*
X97315495Y-79313796D01*
X97291227Y-79310196D01*
X97267428Y-79304235D01*
X97244329Y-79295970D01*
X97222150Y-79285480D01*
X97201107Y-79272868D01*
X97181401Y-79258253D01*
X97163223Y-79241777D01*
X97146747Y-79223599D01*
X97132132Y-79203893D01*
X97119520Y-79182850D01*
X97109030Y-79160671D01*
X97100765Y-79137572D01*
X97094804Y-79113773D01*
X97091204Y-79089505D01*
X97090000Y-79065001D01*
X97090000Y-78414999D01*
X97091204Y-78390495D01*
X97094804Y-78366227D01*
X97100765Y-78342428D01*
X97109030Y-78319329D01*
X97119520Y-78297150D01*
X97132132Y-78276107D01*
X97146747Y-78256401D01*
X97163223Y-78238223D01*
X97181401Y-78221747D01*
X97201107Y-78207132D01*
X97222150Y-78194520D01*
X97244329Y-78184030D01*
X97267428Y-78175765D01*
X97291227Y-78169804D01*
X97315495Y-78166204D01*
X97339999Y-78165000D01*
X98240001Y-78165000D01*
X98264505Y-78166204D01*
G37*
G36*
X98264505Y-80216204D02*
G01*
X98288773Y-80219804D01*
X98312572Y-80225765D01*
X98335671Y-80234030D01*
X98357850Y-80244520D01*
X98378893Y-80257132D01*
X98398599Y-80271747D01*
X98416777Y-80288223D01*
X98433253Y-80306401D01*
X98447868Y-80326107D01*
X98460480Y-80347150D01*
X98470970Y-80369329D01*
X98479235Y-80392428D01*
X98485196Y-80416227D01*
X98488796Y-80440495D01*
X98490000Y-80464999D01*
X98490000Y-81115001D01*
X98488796Y-81139505D01*
X98485196Y-81163773D01*
X98479235Y-81187572D01*
X98470970Y-81210671D01*
X98460480Y-81232850D01*
X98447868Y-81253893D01*
X98433253Y-81273599D01*
X98416777Y-81291777D01*
X98398599Y-81308253D01*
X98378893Y-81322868D01*
X98357850Y-81335480D01*
X98335671Y-81345970D01*
X98312572Y-81354235D01*
X98288773Y-81360196D01*
X98264505Y-81363796D01*
X98240001Y-81365000D01*
X97339999Y-81365000D01*
X97315495Y-81363796D01*
X97291227Y-81360196D01*
X97267428Y-81354235D01*
X97244329Y-81345970D01*
X97222150Y-81335480D01*
X97201107Y-81322868D01*
X97181401Y-81308253D01*
X97163223Y-81291777D01*
X97146747Y-81273599D01*
X97132132Y-81253893D01*
X97119520Y-81232850D01*
X97109030Y-81210671D01*
X97100765Y-81187572D01*
X97094804Y-81163773D01*
X97091204Y-81139505D01*
X97090000Y-81115001D01*
X97090000Y-80464999D01*
X97091204Y-80440495D01*
X97094804Y-80416227D01*
X97100765Y-80392428D01*
X97109030Y-80369329D01*
X97119520Y-80347150D01*
X97132132Y-80326107D01*
X97146747Y-80306401D01*
X97163223Y-80288223D01*
X97181401Y-80271747D01*
X97201107Y-80257132D01*
X97222150Y-80244520D01*
X97244329Y-80234030D01*
X97267428Y-80225765D01*
X97291227Y-80219804D01*
X97315495Y-80216204D01*
X97339999Y-80215000D01*
X98240001Y-80215000D01*
X98264505Y-80216204D01*
G37*
G36*
X95089505Y-80216204D02*
G01*
X95113773Y-80219804D01*
X95137572Y-80225765D01*
X95160671Y-80234030D01*
X95182850Y-80244520D01*
X95203893Y-80257132D01*
X95223599Y-80271747D01*
X95241777Y-80288223D01*
X95258253Y-80306401D01*
X95272868Y-80326107D01*
X95285480Y-80347150D01*
X95295970Y-80369329D01*
X95304235Y-80392428D01*
X95310196Y-80416227D01*
X95313796Y-80440495D01*
X95315000Y-80464999D01*
X95315000Y-81115001D01*
X95313796Y-81139505D01*
X95310196Y-81163773D01*
X95304235Y-81187572D01*
X95295970Y-81210671D01*
X95285480Y-81232850D01*
X95272868Y-81253893D01*
X95258253Y-81273599D01*
X95241777Y-81291777D01*
X95223599Y-81308253D01*
X95203893Y-81322868D01*
X95182850Y-81335480D01*
X95160671Y-81345970D01*
X95137572Y-81354235D01*
X95113773Y-81360196D01*
X95089505Y-81363796D01*
X95065001Y-81365000D01*
X94164999Y-81365000D01*
X94140495Y-81363796D01*
X94116227Y-81360196D01*
X94092428Y-81354235D01*
X94069329Y-81345970D01*
X94047150Y-81335480D01*
X94026107Y-81322868D01*
X94006401Y-81308253D01*
X93988223Y-81291777D01*
X93971747Y-81273599D01*
X93957132Y-81253893D01*
X93944520Y-81232850D01*
X93934030Y-81210671D01*
X93925765Y-81187572D01*
X93919804Y-81163773D01*
X93916204Y-81139505D01*
X93915000Y-81115001D01*
X93915000Y-80464999D01*
X93916204Y-80440495D01*
X93919804Y-80416227D01*
X93925765Y-80392428D01*
X93934030Y-80369329D01*
X93944520Y-80347150D01*
X93957132Y-80326107D01*
X93971747Y-80306401D01*
X93988223Y-80288223D01*
X94006401Y-80271747D01*
X94026107Y-80257132D01*
X94047150Y-80244520D01*
X94069329Y-80234030D01*
X94092428Y-80225765D01*
X94116227Y-80219804D01*
X94140495Y-80216204D01*
X94164999Y-80215000D01*
X95065001Y-80215000D01*
X95089505Y-80216204D01*
G37*
G36*
X95089505Y-78166204D02*
G01*
X95113773Y-78169804D01*
X95137572Y-78175765D01*
X95160671Y-78184030D01*
X95182850Y-78194520D01*
X95203893Y-78207132D01*
X95223599Y-78221747D01*
X95241777Y-78238223D01*
X95258253Y-78256401D01*
X95272868Y-78276107D01*
X95285480Y-78297150D01*
X95295970Y-78319329D01*
X95304235Y-78342428D01*
X95310196Y-78366227D01*
X95313796Y-78390495D01*
X95315000Y-78414999D01*
X95315000Y-79065001D01*
X95313796Y-79089505D01*
X95310196Y-79113773D01*
X95304235Y-79137572D01*
X95295970Y-79160671D01*
X95285480Y-79182850D01*
X95272868Y-79203893D01*
X95258253Y-79223599D01*
X95241777Y-79241777D01*
X95223599Y-79258253D01*
X95203893Y-79272868D01*
X95182850Y-79285480D01*
X95160671Y-79295970D01*
X95137572Y-79304235D01*
X95113773Y-79310196D01*
X95089505Y-79313796D01*
X95065001Y-79315000D01*
X94164999Y-79315000D01*
X94140495Y-79313796D01*
X94116227Y-79310196D01*
X94092428Y-79304235D01*
X94069329Y-79295970D01*
X94047150Y-79285480D01*
X94026107Y-79272868D01*
X94006401Y-79258253D01*
X93988223Y-79241777D01*
X93971747Y-79223599D01*
X93957132Y-79203893D01*
X93944520Y-79182850D01*
X93934030Y-79160671D01*
X93925765Y-79137572D01*
X93919804Y-79113773D01*
X93916204Y-79089505D01*
X93915000Y-79065001D01*
X93915000Y-78414999D01*
X93916204Y-78390495D01*
X93919804Y-78366227D01*
X93925765Y-78342428D01*
X93934030Y-78319329D01*
X93944520Y-78297150D01*
X93957132Y-78276107D01*
X93971747Y-78256401D01*
X93988223Y-78238223D01*
X94006401Y-78221747D01*
X94026107Y-78207132D01*
X94047150Y-78194520D01*
X94069329Y-78184030D01*
X94092428Y-78175765D01*
X94116227Y-78169804D01*
X94140495Y-78166204D01*
X94164999Y-78165000D01*
X95065001Y-78165000D01*
X95089505Y-78166204D01*
G37*
G36*
X146524505Y-80216204D02*
G01*
X146548773Y-80219804D01*
X146572572Y-80225765D01*
X146595671Y-80234030D01*
X146617850Y-80244520D01*
X146638893Y-80257132D01*
X146658599Y-80271747D01*
X146676777Y-80288223D01*
X146693253Y-80306401D01*
X146707868Y-80326107D01*
X146720480Y-80347150D01*
X146730970Y-80369329D01*
X146739235Y-80392428D01*
X146745196Y-80416227D01*
X146748796Y-80440495D01*
X146750000Y-80464999D01*
X146750000Y-81115001D01*
X146748796Y-81139505D01*
X146745196Y-81163773D01*
X146739235Y-81187572D01*
X146730970Y-81210671D01*
X146720480Y-81232850D01*
X146707868Y-81253893D01*
X146693253Y-81273599D01*
X146676777Y-81291777D01*
X146658599Y-81308253D01*
X146638893Y-81322868D01*
X146617850Y-81335480D01*
X146595671Y-81345970D01*
X146572572Y-81354235D01*
X146548773Y-81360196D01*
X146524505Y-81363796D01*
X146500001Y-81365000D01*
X145599999Y-81365000D01*
X145575495Y-81363796D01*
X145551227Y-81360196D01*
X145527428Y-81354235D01*
X145504329Y-81345970D01*
X145482150Y-81335480D01*
X145461107Y-81322868D01*
X145441401Y-81308253D01*
X145423223Y-81291777D01*
X145406747Y-81273599D01*
X145392132Y-81253893D01*
X145379520Y-81232850D01*
X145369030Y-81210671D01*
X145360765Y-81187572D01*
X145354804Y-81163773D01*
X145351204Y-81139505D01*
X145350000Y-81115001D01*
X145350000Y-80464999D01*
X145351204Y-80440495D01*
X145354804Y-80416227D01*
X145360765Y-80392428D01*
X145369030Y-80369329D01*
X145379520Y-80347150D01*
X145392132Y-80326107D01*
X145406747Y-80306401D01*
X145423223Y-80288223D01*
X145441401Y-80271747D01*
X145461107Y-80257132D01*
X145482150Y-80244520D01*
X145504329Y-80234030D01*
X145527428Y-80225765D01*
X145551227Y-80219804D01*
X145575495Y-80216204D01*
X145599999Y-80215000D01*
X146500001Y-80215000D01*
X146524505Y-80216204D01*
G37*
G36*
X146524505Y-78166204D02*
G01*
X146548773Y-78169804D01*
X146572572Y-78175765D01*
X146595671Y-78184030D01*
X146617850Y-78194520D01*
X146638893Y-78207132D01*
X146658599Y-78221747D01*
X146676777Y-78238223D01*
X146693253Y-78256401D01*
X146707868Y-78276107D01*
X146720480Y-78297150D01*
X146730970Y-78319329D01*
X146739235Y-78342428D01*
X146745196Y-78366227D01*
X146748796Y-78390495D01*
X146750000Y-78414999D01*
X146750000Y-79065001D01*
X146748796Y-79089505D01*
X146745196Y-79113773D01*
X146739235Y-79137572D01*
X146730970Y-79160671D01*
X146720480Y-79182850D01*
X146707868Y-79203893D01*
X146693253Y-79223599D01*
X146676777Y-79241777D01*
X146658599Y-79258253D01*
X146638893Y-79272868D01*
X146617850Y-79285480D01*
X146595671Y-79295970D01*
X146572572Y-79304235D01*
X146548773Y-79310196D01*
X146524505Y-79313796D01*
X146500001Y-79315000D01*
X145599999Y-79315000D01*
X145575495Y-79313796D01*
X145551227Y-79310196D01*
X145527428Y-79304235D01*
X145504329Y-79295970D01*
X145482150Y-79285480D01*
X145461107Y-79272868D01*
X145441401Y-79258253D01*
X145423223Y-79241777D01*
X145406747Y-79223599D01*
X145392132Y-79203893D01*
X145379520Y-79182850D01*
X145369030Y-79160671D01*
X145360765Y-79137572D01*
X145354804Y-79113773D01*
X145351204Y-79089505D01*
X145350000Y-79065001D01*
X145350000Y-78414999D01*
X145351204Y-78390495D01*
X145354804Y-78366227D01*
X145360765Y-78342428D01*
X145369030Y-78319329D01*
X145379520Y-78297150D01*
X145392132Y-78276107D01*
X145406747Y-78256401D01*
X145423223Y-78238223D01*
X145441401Y-78221747D01*
X145461107Y-78207132D01*
X145482150Y-78194520D01*
X145504329Y-78184030D01*
X145527428Y-78175765D01*
X145551227Y-78169804D01*
X145575495Y-78166204D01*
X145599999Y-78165000D01*
X146500001Y-78165000D01*
X146524505Y-78166204D01*
G37*
G36*
X133824505Y-78166204D02*
G01*
X133848773Y-78169804D01*
X133872572Y-78175765D01*
X133895671Y-78184030D01*
X133917850Y-78194520D01*
X133938893Y-78207132D01*
X133958599Y-78221747D01*
X133976777Y-78238223D01*
X133993253Y-78256401D01*
X134007868Y-78276107D01*
X134020480Y-78297150D01*
X134030970Y-78319329D01*
X134039235Y-78342428D01*
X134045196Y-78366227D01*
X134048796Y-78390495D01*
X134050000Y-78414999D01*
X134050000Y-79065001D01*
X134048796Y-79089505D01*
X134045196Y-79113773D01*
X134039235Y-79137572D01*
X134030970Y-79160671D01*
X134020480Y-79182850D01*
X134007868Y-79203893D01*
X133993253Y-79223599D01*
X133976777Y-79241777D01*
X133958599Y-79258253D01*
X133938893Y-79272868D01*
X133917850Y-79285480D01*
X133895671Y-79295970D01*
X133872572Y-79304235D01*
X133848773Y-79310196D01*
X133824505Y-79313796D01*
X133800001Y-79315000D01*
X132899999Y-79315000D01*
X132875495Y-79313796D01*
X132851227Y-79310196D01*
X132827428Y-79304235D01*
X132804329Y-79295970D01*
X132782150Y-79285480D01*
X132761107Y-79272868D01*
X132741401Y-79258253D01*
X132723223Y-79241777D01*
X132706747Y-79223599D01*
X132692132Y-79203893D01*
X132679520Y-79182850D01*
X132669030Y-79160671D01*
X132660765Y-79137572D01*
X132654804Y-79113773D01*
X132651204Y-79089505D01*
X132650000Y-79065001D01*
X132650000Y-78414999D01*
X132651204Y-78390495D01*
X132654804Y-78366227D01*
X132660765Y-78342428D01*
X132669030Y-78319329D01*
X132679520Y-78297150D01*
X132692132Y-78276107D01*
X132706747Y-78256401D01*
X132723223Y-78238223D01*
X132741401Y-78221747D01*
X132761107Y-78207132D01*
X132782150Y-78194520D01*
X132804329Y-78184030D01*
X132827428Y-78175765D01*
X132851227Y-78169804D01*
X132875495Y-78166204D01*
X132899999Y-78165000D01*
X133800001Y-78165000D01*
X133824505Y-78166204D01*
G37*
G36*
X133824505Y-80216204D02*
G01*
X133848773Y-80219804D01*
X133872572Y-80225765D01*
X133895671Y-80234030D01*
X133917850Y-80244520D01*
X133938893Y-80257132D01*
X133958599Y-80271747D01*
X133976777Y-80288223D01*
X133993253Y-80306401D01*
X134007868Y-80326107D01*
X134020480Y-80347150D01*
X134030970Y-80369329D01*
X134039235Y-80392428D01*
X134045196Y-80416227D01*
X134048796Y-80440495D01*
X134050000Y-80464999D01*
X134050000Y-81115001D01*
X134048796Y-81139505D01*
X134045196Y-81163773D01*
X134039235Y-81187572D01*
X134030970Y-81210671D01*
X134020480Y-81232850D01*
X134007868Y-81253893D01*
X133993253Y-81273599D01*
X133976777Y-81291777D01*
X133958599Y-81308253D01*
X133938893Y-81322868D01*
X133917850Y-81335480D01*
X133895671Y-81345970D01*
X133872572Y-81354235D01*
X133848773Y-81360196D01*
X133824505Y-81363796D01*
X133800001Y-81365000D01*
X132899999Y-81365000D01*
X132875495Y-81363796D01*
X132851227Y-81360196D01*
X132827428Y-81354235D01*
X132804329Y-81345970D01*
X132782150Y-81335480D01*
X132761107Y-81322868D01*
X132741401Y-81308253D01*
X132723223Y-81291777D01*
X132706747Y-81273599D01*
X132692132Y-81253893D01*
X132679520Y-81232850D01*
X132669030Y-81210671D01*
X132660765Y-81187572D01*
X132654804Y-81163773D01*
X132651204Y-81139505D01*
X132650000Y-81115001D01*
X132650000Y-80464999D01*
X132651204Y-80440495D01*
X132654804Y-80416227D01*
X132660765Y-80392428D01*
X132669030Y-80369329D01*
X132679520Y-80347150D01*
X132692132Y-80326107D01*
X132706747Y-80306401D01*
X132723223Y-80288223D01*
X132741401Y-80271747D01*
X132761107Y-80257132D01*
X132782150Y-80244520D01*
X132804329Y-80234030D01*
X132827428Y-80225765D01*
X132851227Y-80219804D01*
X132875495Y-80216204D01*
X132899999Y-80215000D01*
X133800001Y-80215000D01*
X133824505Y-80216204D01*
G37*
G36*
X101439505Y-80216204D02*
G01*
X101463773Y-80219804D01*
X101487572Y-80225765D01*
X101510671Y-80234030D01*
X101532850Y-80244520D01*
X101553893Y-80257132D01*
X101573599Y-80271747D01*
X101591777Y-80288223D01*
X101608253Y-80306401D01*
X101622868Y-80326107D01*
X101635480Y-80347150D01*
X101645970Y-80369329D01*
X101654235Y-80392428D01*
X101660196Y-80416227D01*
X101663796Y-80440495D01*
X101665000Y-80464999D01*
X101665000Y-81115001D01*
X101663796Y-81139505D01*
X101660196Y-81163773D01*
X101654235Y-81187572D01*
X101645970Y-81210671D01*
X101635480Y-81232850D01*
X101622868Y-81253893D01*
X101608253Y-81273599D01*
X101591777Y-81291777D01*
X101573599Y-81308253D01*
X101553893Y-81322868D01*
X101532850Y-81335480D01*
X101510671Y-81345970D01*
X101487572Y-81354235D01*
X101463773Y-81360196D01*
X101439505Y-81363796D01*
X101415001Y-81365000D01*
X100514999Y-81365000D01*
X100490495Y-81363796D01*
X100466227Y-81360196D01*
X100442428Y-81354235D01*
X100419329Y-81345970D01*
X100397150Y-81335480D01*
X100376107Y-81322868D01*
X100356401Y-81308253D01*
X100338223Y-81291777D01*
X100321747Y-81273599D01*
X100307132Y-81253893D01*
X100294520Y-81232850D01*
X100284030Y-81210671D01*
X100275765Y-81187572D01*
X100269804Y-81163773D01*
X100266204Y-81139505D01*
X100265000Y-81115001D01*
X100265000Y-80464999D01*
X100266204Y-80440495D01*
X100269804Y-80416227D01*
X100275765Y-80392428D01*
X100284030Y-80369329D01*
X100294520Y-80347150D01*
X100307132Y-80326107D01*
X100321747Y-80306401D01*
X100338223Y-80288223D01*
X100356401Y-80271747D01*
X100376107Y-80257132D01*
X100397150Y-80244520D01*
X100419329Y-80234030D01*
X100442428Y-80225765D01*
X100466227Y-80219804D01*
X100490495Y-80216204D01*
X100514999Y-80215000D01*
X101415001Y-80215000D01*
X101439505Y-80216204D01*
G37*
G36*
X101439505Y-78166204D02*
G01*
X101463773Y-78169804D01*
X101487572Y-78175765D01*
X101510671Y-78184030D01*
X101532850Y-78194520D01*
X101553893Y-78207132D01*
X101573599Y-78221747D01*
X101591777Y-78238223D01*
X101608253Y-78256401D01*
X101622868Y-78276107D01*
X101635480Y-78297150D01*
X101645970Y-78319329D01*
X101654235Y-78342428D01*
X101660196Y-78366227D01*
X101663796Y-78390495D01*
X101665000Y-78414999D01*
X101665000Y-79065001D01*
X101663796Y-79089505D01*
X101660196Y-79113773D01*
X101654235Y-79137572D01*
X101645970Y-79160671D01*
X101635480Y-79182850D01*
X101622868Y-79203893D01*
X101608253Y-79223599D01*
X101591777Y-79241777D01*
X101573599Y-79258253D01*
X101553893Y-79272868D01*
X101532850Y-79285480D01*
X101510671Y-79295970D01*
X101487572Y-79304235D01*
X101463773Y-79310196D01*
X101439505Y-79313796D01*
X101415001Y-79315000D01*
X100514999Y-79315000D01*
X100490495Y-79313796D01*
X100466227Y-79310196D01*
X100442428Y-79304235D01*
X100419329Y-79295970D01*
X100397150Y-79285480D01*
X100376107Y-79272868D01*
X100356401Y-79258253D01*
X100338223Y-79241777D01*
X100321747Y-79223599D01*
X100307132Y-79203893D01*
X100294520Y-79182850D01*
X100284030Y-79160671D01*
X100275765Y-79137572D01*
X100269804Y-79113773D01*
X100266204Y-79089505D01*
X100265000Y-79065001D01*
X100265000Y-78414999D01*
X100266204Y-78390495D01*
X100269804Y-78366227D01*
X100275765Y-78342428D01*
X100284030Y-78319329D01*
X100294520Y-78297150D01*
X100307132Y-78276107D01*
X100321747Y-78256401D01*
X100338223Y-78238223D01*
X100356401Y-78221747D01*
X100376107Y-78207132D01*
X100397150Y-78194520D01*
X100419329Y-78184030D01*
X100442428Y-78175765D01*
X100466227Y-78169804D01*
X100490495Y-78166204D01*
X100514999Y-78165000D01*
X101415001Y-78165000D01*
X101439505Y-78166204D01*
G37*
G36*
X165304505Y-82486204D02*
G01*
X165328773Y-82489804D01*
X165352572Y-82495765D01*
X165375671Y-82504030D01*
X165397850Y-82514520D01*
X165418893Y-82527132D01*
X165438599Y-82541747D01*
X165456777Y-82558223D01*
X165473253Y-82576401D01*
X165487868Y-82596107D01*
X165500480Y-82617150D01*
X165510970Y-82639329D01*
X165519235Y-82662428D01*
X165525196Y-82686227D01*
X165528796Y-82710495D01*
X165530000Y-82734999D01*
X165530000Y-83635001D01*
X165528796Y-83659505D01*
X165525196Y-83683773D01*
X165519235Y-83707572D01*
X165510970Y-83730671D01*
X165500480Y-83752850D01*
X165487868Y-83773893D01*
X165473253Y-83793599D01*
X165456777Y-83811777D01*
X165438599Y-83828253D01*
X165418893Y-83842868D01*
X165397850Y-83855480D01*
X165375671Y-83865970D01*
X165352572Y-83874235D01*
X165328773Y-83880196D01*
X165304505Y-83883796D01*
X165280001Y-83885000D01*
X164629999Y-83885000D01*
X164605495Y-83883796D01*
X164581227Y-83880196D01*
X164557428Y-83874235D01*
X164534329Y-83865970D01*
X164512150Y-83855480D01*
X164491107Y-83842868D01*
X164471401Y-83828253D01*
X164453223Y-83811777D01*
X164436747Y-83793599D01*
X164422132Y-83773893D01*
X164409520Y-83752850D01*
X164399030Y-83730671D01*
X164390765Y-83707572D01*
X164384804Y-83683773D01*
X164381204Y-83659505D01*
X164380000Y-83635001D01*
X164380000Y-82734999D01*
X164381204Y-82710495D01*
X164384804Y-82686227D01*
X164390765Y-82662428D01*
X164399030Y-82639329D01*
X164409520Y-82617150D01*
X164422132Y-82596107D01*
X164436747Y-82576401D01*
X164453223Y-82558223D01*
X164471401Y-82541747D01*
X164491107Y-82527132D01*
X164512150Y-82514520D01*
X164534329Y-82504030D01*
X164557428Y-82495765D01*
X164581227Y-82489804D01*
X164605495Y-82486204D01*
X164629999Y-82485000D01*
X165280001Y-82485000D01*
X165304505Y-82486204D01*
G37*
G36*
X167354505Y-82486204D02*
G01*
X167378773Y-82489804D01*
X167402572Y-82495765D01*
X167425671Y-82504030D01*
X167447850Y-82514520D01*
X167468893Y-82527132D01*
X167488599Y-82541747D01*
X167506777Y-82558223D01*
X167523253Y-82576401D01*
X167537868Y-82596107D01*
X167550480Y-82617150D01*
X167560970Y-82639329D01*
X167569235Y-82662428D01*
X167575196Y-82686227D01*
X167578796Y-82710495D01*
X167580000Y-82734999D01*
X167580000Y-83635001D01*
X167578796Y-83659505D01*
X167575196Y-83683773D01*
X167569235Y-83707572D01*
X167560970Y-83730671D01*
X167550480Y-83752850D01*
X167537868Y-83773893D01*
X167523253Y-83793599D01*
X167506777Y-83811777D01*
X167488599Y-83828253D01*
X167468893Y-83842868D01*
X167447850Y-83855480D01*
X167425671Y-83865970D01*
X167402572Y-83874235D01*
X167378773Y-83880196D01*
X167354505Y-83883796D01*
X167330001Y-83885000D01*
X166679999Y-83885000D01*
X166655495Y-83883796D01*
X166631227Y-83880196D01*
X166607428Y-83874235D01*
X166584329Y-83865970D01*
X166562150Y-83855480D01*
X166541107Y-83842868D01*
X166521401Y-83828253D01*
X166503223Y-83811777D01*
X166486747Y-83793599D01*
X166472132Y-83773893D01*
X166459520Y-83752850D01*
X166449030Y-83730671D01*
X166440765Y-83707572D01*
X166434804Y-83683773D01*
X166431204Y-83659505D01*
X166430000Y-83635001D01*
X166430000Y-82734999D01*
X166431204Y-82710495D01*
X166434804Y-82686227D01*
X166440765Y-82662428D01*
X166449030Y-82639329D01*
X166459520Y-82617150D01*
X166472132Y-82596107D01*
X166486747Y-82576401D01*
X166503223Y-82558223D01*
X166521401Y-82541747D01*
X166541107Y-82527132D01*
X166562150Y-82514520D01*
X166584329Y-82504030D01*
X166607428Y-82495765D01*
X166631227Y-82489804D01*
X166655495Y-82486204D01*
X166679999Y-82485000D01*
X167330001Y-82485000D01*
X167354505Y-82486204D01*
G37*
G36*
X167354505Y-77406204D02*
G01*
X167378773Y-77409804D01*
X167402572Y-77415765D01*
X167425671Y-77424030D01*
X167447850Y-77434520D01*
X167468893Y-77447132D01*
X167488599Y-77461747D01*
X167506777Y-77478223D01*
X167523253Y-77496401D01*
X167537868Y-77516107D01*
X167550480Y-77537150D01*
X167560970Y-77559329D01*
X167569235Y-77582428D01*
X167575196Y-77606227D01*
X167578796Y-77630495D01*
X167580000Y-77654999D01*
X167580000Y-78555001D01*
X167578796Y-78579505D01*
X167575196Y-78603773D01*
X167569235Y-78627572D01*
X167560970Y-78650671D01*
X167550480Y-78672850D01*
X167537868Y-78693893D01*
X167523253Y-78713599D01*
X167506777Y-78731777D01*
X167488599Y-78748253D01*
X167468893Y-78762868D01*
X167447850Y-78775480D01*
X167425671Y-78785970D01*
X167402572Y-78794235D01*
X167378773Y-78800196D01*
X167354505Y-78803796D01*
X167330001Y-78805000D01*
X166679999Y-78805000D01*
X166655495Y-78803796D01*
X166631227Y-78800196D01*
X166607428Y-78794235D01*
X166584329Y-78785970D01*
X166562150Y-78775480D01*
X166541107Y-78762868D01*
X166521401Y-78748253D01*
X166503223Y-78731777D01*
X166486747Y-78713599D01*
X166472132Y-78693893D01*
X166459520Y-78672850D01*
X166449030Y-78650671D01*
X166440765Y-78627572D01*
X166434804Y-78603773D01*
X166431204Y-78579505D01*
X166430000Y-78555001D01*
X166430000Y-77654999D01*
X166431204Y-77630495D01*
X166434804Y-77606227D01*
X166440765Y-77582428D01*
X166449030Y-77559329D01*
X166459520Y-77537150D01*
X166472132Y-77516107D01*
X166486747Y-77496401D01*
X166503223Y-77478223D01*
X166521401Y-77461747D01*
X166541107Y-77447132D01*
X166562150Y-77434520D01*
X166584329Y-77424030D01*
X166607428Y-77415765D01*
X166631227Y-77409804D01*
X166655495Y-77406204D01*
X166679999Y-77405000D01*
X167330001Y-77405000D01*
X167354505Y-77406204D01*
G37*
G36*
X165304505Y-77406204D02*
G01*
X165328773Y-77409804D01*
X165352572Y-77415765D01*
X165375671Y-77424030D01*
X165397850Y-77434520D01*
X165418893Y-77447132D01*
X165438599Y-77461747D01*
X165456777Y-77478223D01*
X165473253Y-77496401D01*
X165487868Y-77516107D01*
X165500480Y-77537150D01*
X165510970Y-77559329D01*
X165519235Y-77582428D01*
X165525196Y-77606227D01*
X165528796Y-77630495D01*
X165530000Y-77654999D01*
X165530000Y-78555001D01*
X165528796Y-78579505D01*
X165525196Y-78603773D01*
X165519235Y-78627572D01*
X165510970Y-78650671D01*
X165500480Y-78672850D01*
X165487868Y-78693893D01*
X165473253Y-78713599D01*
X165456777Y-78731777D01*
X165438599Y-78748253D01*
X165418893Y-78762868D01*
X165397850Y-78775480D01*
X165375671Y-78785970D01*
X165352572Y-78794235D01*
X165328773Y-78800196D01*
X165304505Y-78803796D01*
X165280001Y-78805000D01*
X164629999Y-78805000D01*
X164605495Y-78803796D01*
X164581227Y-78800196D01*
X164557428Y-78794235D01*
X164534329Y-78785970D01*
X164512150Y-78775480D01*
X164491107Y-78762868D01*
X164471401Y-78748253D01*
X164453223Y-78731777D01*
X164436747Y-78713599D01*
X164422132Y-78693893D01*
X164409520Y-78672850D01*
X164399030Y-78650671D01*
X164390765Y-78627572D01*
X164384804Y-78603773D01*
X164381204Y-78579505D01*
X164380000Y-78555001D01*
X164380000Y-77654999D01*
X164381204Y-77630495D01*
X164384804Y-77606227D01*
X164390765Y-77582428D01*
X164399030Y-77559329D01*
X164409520Y-77537150D01*
X164422132Y-77516107D01*
X164436747Y-77496401D01*
X164453223Y-77478223D01*
X164471401Y-77461747D01*
X164491107Y-77447132D01*
X164512150Y-77434520D01*
X164534329Y-77424030D01*
X164557428Y-77415765D01*
X164581227Y-77409804D01*
X164605495Y-77406204D01*
X164629999Y-77405000D01*
X165280001Y-77405000D01*
X165304505Y-77406204D01*
G37*
G36*
X167354505Y-87566204D02*
G01*
X167378773Y-87569804D01*
X167402572Y-87575765D01*
X167425671Y-87584030D01*
X167447850Y-87594520D01*
X167468893Y-87607132D01*
X167488599Y-87621747D01*
X167506777Y-87638223D01*
X167523253Y-87656401D01*
X167537868Y-87676107D01*
X167550480Y-87697150D01*
X167560970Y-87719329D01*
X167569235Y-87742428D01*
X167575196Y-87766227D01*
X167578796Y-87790495D01*
X167580000Y-87814999D01*
X167580000Y-88715001D01*
X167578796Y-88739505D01*
X167575196Y-88763773D01*
X167569235Y-88787572D01*
X167560970Y-88810671D01*
X167550480Y-88832850D01*
X167537868Y-88853893D01*
X167523253Y-88873599D01*
X167506777Y-88891777D01*
X167488599Y-88908253D01*
X167468893Y-88922868D01*
X167447850Y-88935480D01*
X167425671Y-88945970D01*
X167402572Y-88954235D01*
X167378773Y-88960196D01*
X167354505Y-88963796D01*
X167330001Y-88965000D01*
X166679999Y-88965000D01*
X166655495Y-88963796D01*
X166631227Y-88960196D01*
X166607428Y-88954235D01*
X166584329Y-88945970D01*
X166562150Y-88935480D01*
X166541107Y-88922868D01*
X166521401Y-88908253D01*
X166503223Y-88891777D01*
X166486747Y-88873599D01*
X166472132Y-88853893D01*
X166459520Y-88832850D01*
X166449030Y-88810671D01*
X166440765Y-88787572D01*
X166434804Y-88763773D01*
X166431204Y-88739505D01*
X166430000Y-88715001D01*
X166430000Y-87814999D01*
X166431204Y-87790495D01*
X166434804Y-87766227D01*
X166440765Y-87742428D01*
X166449030Y-87719329D01*
X166459520Y-87697150D01*
X166472132Y-87676107D01*
X166486747Y-87656401D01*
X166503223Y-87638223D01*
X166521401Y-87621747D01*
X166541107Y-87607132D01*
X166562150Y-87594520D01*
X166584329Y-87584030D01*
X166607428Y-87575765D01*
X166631227Y-87569804D01*
X166655495Y-87566204D01*
X166679999Y-87565000D01*
X167330001Y-87565000D01*
X167354505Y-87566204D01*
G37*
G36*
X165304505Y-87566204D02*
G01*
X165328773Y-87569804D01*
X165352572Y-87575765D01*
X165375671Y-87584030D01*
X165397850Y-87594520D01*
X165418893Y-87607132D01*
X165438599Y-87621747D01*
X165456777Y-87638223D01*
X165473253Y-87656401D01*
X165487868Y-87676107D01*
X165500480Y-87697150D01*
X165510970Y-87719329D01*
X165519235Y-87742428D01*
X165525196Y-87766227D01*
X165528796Y-87790495D01*
X165530000Y-87814999D01*
X165530000Y-88715001D01*
X165528796Y-88739505D01*
X165525196Y-88763773D01*
X165519235Y-88787572D01*
X165510970Y-88810671D01*
X165500480Y-88832850D01*
X165487868Y-88853893D01*
X165473253Y-88873599D01*
X165456777Y-88891777D01*
X165438599Y-88908253D01*
X165418893Y-88922868D01*
X165397850Y-88935480D01*
X165375671Y-88945970D01*
X165352572Y-88954235D01*
X165328773Y-88960196D01*
X165304505Y-88963796D01*
X165280001Y-88965000D01*
X164629999Y-88965000D01*
X164605495Y-88963796D01*
X164581227Y-88960196D01*
X164557428Y-88954235D01*
X164534329Y-88945970D01*
X164512150Y-88935480D01*
X164491107Y-88922868D01*
X164471401Y-88908253D01*
X164453223Y-88891777D01*
X164436747Y-88873599D01*
X164422132Y-88853893D01*
X164409520Y-88832850D01*
X164399030Y-88810671D01*
X164390765Y-88787572D01*
X164384804Y-88763773D01*
X164381204Y-88739505D01*
X164380000Y-88715001D01*
X164380000Y-87814999D01*
X164381204Y-87790495D01*
X164384804Y-87766227D01*
X164390765Y-87742428D01*
X164399030Y-87719329D01*
X164409520Y-87697150D01*
X164422132Y-87676107D01*
X164436747Y-87656401D01*
X164453223Y-87638223D01*
X164471401Y-87621747D01*
X164491107Y-87607132D01*
X164512150Y-87594520D01*
X164534329Y-87584030D01*
X164557428Y-87575765D01*
X164581227Y-87569804D01*
X164605495Y-87566204D01*
X164629999Y-87565000D01*
X165280001Y-87565000D01*
X165304505Y-87566204D01*
G37*
G36*
X165304505Y-79946204D02*
G01*
X165328773Y-79949804D01*
X165352572Y-79955765D01*
X165375671Y-79964030D01*
X165397850Y-79974520D01*
X165418893Y-79987132D01*
X165438599Y-80001747D01*
X165456777Y-80018223D01*
X165473253Y-80036401D01*
X165487868Y-80056107D01*
X165500480Y-80077150D01*
X165510970Y-80099329D01*
X165519235Y-80122428D01*
X165525196Y-80146227D01*
X165528796Y-80170495D01*
X165530000Y-80194999D01*
X165530000Y-81095001D01*
X165528796Y-81119505D01*
X165525196Y-81143773D01*
X165519235Y-81167572D01*
X165510970Y-81190671D01*
X165500480Y-81212850D01*
X165487868Y-81233893D01*
X165473253Y-81253599D01*
X165456777Y-81271777D01*
X165438599Y-81288253D01*
X165418893Y-81302868D01*
X165397850Y-81315480D01*
X165375671Y-81325970D01*
X165352572Y-81334235D01*
X165328773Y-81340196D01*
X165304505Y-81343796D01*
X165280001Y-81345000D01*
X164629999Y-81345000D01*
X164605495Y-81343796D01*
X164581227Y-81340196D01*
X164557428Y-81334235D01*
X164534329Y-81325970D01*
X164512150Y-81315480D01*
X164491107Y-81302868D01*
X164471401Y-81288253D01*
X164453223Y-81271777D01*
X164436747Y-81253599D01*
X164422132Y-81233893D01*
X164409520Y-81212850D01*
X164399030Y-81190671D01*
X164390765Y-81167572D01*
X164384804Y-81143773D01*
X164381204Y-81119505D01*
X164380000Y-81095001D01*
X164380000Y-80194999D01*
X164381204Y-80170495D01*
X164384804Y-80146227D01*
X164390765Y-80122428D01*
X164399030Y-80099329D01*
X164409520Y-80077150D01*
X164422132Y-80056107D01*
X164436747Y-80036401D01*
X164453223Y-80018223D01*
X164471401Y-80001747D01*
X164491107Y-79987132D01*
X164512150Y-79974520D01*
X164534329Y-79964030D01*
X164557428Y-79955765D01*
X164581227Y-79949804D01*
X164605495Y-79946204D01*
X164629999Y-79945000D01*
X165280001Y-79945000D01*
X165304505Y-79946204D01*
G37*
G36*
X167354505Y-79946204D02*
G01*
X167378773Y-79949804D01*
X167402572Y-79955765D01*
X167425671Y-79964030D01*
X167447850Y-79974520D01*
X167468893Y-79987132D01*
X167488599Y-80001747D01*
X167506777Y-80018223D01*
X167523253Y-80036401D01*
X167537868Y-80056107D01*
X167550480Y-80077150D01*
X167560970Y-80099329D01*
X167569235Y-80122428D01*
X167575196Y-80146227D01*
X167578796Y-80170495D01*
X167580000Y-80194999D01*
X167580000Y-81095001D01*
X167578796Y-81119505D01*
X167575196Y-81143773D01*
X167569235Y-81167572D01*
X167560970Y-81190671D01*
X167550480Y-81212850D01*
X167537868Y-81233893D01*
X167523253Y-81253599D01*
X167506777Y-81271777D01*
X167488599Y-81288253D01*
X167468893Y-81302868D01*
X167447850Y-81315480D01*
X167425671Y-81325970D01*
X167402572Y-81334235D01*
X167378773Y-81340196D01*
X167354505Y-81343796D01*
X167330001Y-81345000D01*
X166679999Y-81345000D01*
X166655495Y-81343796D01*
X166631227Y-81340196D01*
X166607428Y-81334235D01*
X166584329Y-81325970D01*
X166562150Y-81315480D01*
X166541107Y-81302868D01*
X166521401Y-81288253D01*
X166503223Y-81271777D01*
X166486747Y-81253599D01*
X166472132Y-81233893D01*
X166459520Y-81212850D01*
X166449030Y-81190671D01*
X166440765Y-81167572D01*
X166434804Y-81143773D01*
X166431204Y-81119505D01*
X166430000Y-81095001D01*
X166430000Y-80194999D01*
X166431204Y-80170495D01*
X166434804Y-80146227D01*
X166440765Y-80122428D01*
X166449030Y-80099329D01*
X166459520Y-80077150D01*
X166472132Y-80056107D01*
X166486747Y-80036401D01*
X166503223Y-80018223D01*
X166521401Y-80001747D01*
X166541107Y-79987132D01*
X166562150Y-79974520D01*
X166584329Y-79964030D01*
X166607428Y-79955765D01*
X166631227Y-79949804D01*
X166655495Y-79946204D01*
X166679999Y-79945000D01*
X167330001Y-79945000D01*
X167354505Y-79946204D01*
G37*
G36*
X167354505Y-85026204D02*
G01*
X167378773Y-85029804D01*
X167402572Y-85035765D01*
X167425671Y-85044030D01*
X167447850Y-85054520D01*
X167468893Y-85067132D01*
X167488599Y-85081747D01*
X167506777Y-85098223D01*
X167523253Y-85116401D01*
X167537868Y-85136107D01*
X167550480Y-85157150D01*
X167560970Y-85179329D01*
X167569235Y-85202428D01*
X167575196Y-85226227D01*
X167578796Y-85250495D01*
X167580000Y-85274999D01*
X167580000Y-86175001D01*
X167578796Y-86199505D01*
X167575196Y-86223773D01*
X167569235Y-86247572D01*
X167560970Y-86270671D01*
X167550480Y-86292850D01*
X167537868Y-86313893D01*
X167523253Y-86333599D01*
X167506777Y-86351777D01*
X167488599Y-86368253D01*
X167468893Y-86382868D01*
X167447850Y-86395480D01*
X167425671Y-86405970D01*
X167402572Y-86414235D01*
X167378773Y-86420196D01*
X167354505Y-86423796D01*
X167330001Y-86425000D01*
X166679999Y-86425000D01*
X166655495Y-86423796D01*
X166631227Y-86420196D01*
X166607428Y-86414235D01*
X166584329Y-86405970D01*
X166562150Y-86395480D01*
X166541107Y-86382868D01*
X166521401Y-86368253D01*
X166503223Y-86351777D01*
X166486747Y-86333599D01*
X166472132Y-86313893D01*
X166459520Y-86292850D01*
X166449030Y-86270671D01*
X166440765Y-86247572D01*
X166434804Y-86223773D01*
X166431204Y-86199505D01*
X166430000Y-86175001D01*
X166430000Y-85274999D01*
X166431204Y-85250495D01*
X166434804Y-85226227D01*
X166440765Y-85202428D01*
X166449030Y-85179329D01*
X166459520Y-85157150D01*
X166472132Y-85136107D01*
X166486747Y-85116401D01*
X166503223Y-85098223D01*
X166521401Y-85081747D01*
X166541107Y-85067132D01*
X166562150Y-85054520D01*
X166584329Y-85044030D01*
X166607428Y-85035765D01*
X166631227Y-85029804D01*
X166655495Y-85026204D01*
X166679999Y-85025000D01*
X167330001Y-85025000D01*
X167354505Y-85026204D01*
G37*
G36*
X165304505Y-85026204D02*
G01*
X165328773Y-85029804D01*
X165352572Y-85035765D01*
X165375671Y-85044030D01*
X165397850Y-85054520D01*
X165418893Y-85067132D01*
X165438599Y-85081747D01*
X165456777Y-85098223D01*
X165473253Y-85116401D01*
X165487868Y-85136107D01*
X165500480Y-85157150D01*
X165510970Y-85179329D01*
X165519235Y-85202428D01*
X165525196Y-85226227D01*
X165528796Y-85250495D01*
X165530000Y-85274999D01*
X165530000Y-86175001D01*
X165528796Y-86199505D01*
X165525196Y-86223773D01*
X165519235Y-86247572D01*
X165510970Y-86270671D01*
X165500480Y-86292850D01*
X165487868Y-86313893D01*
X165473253Y-86333599D01*
X165456777Y-86351777D01*
X165438599Y-86368253D01*
X165418893Y-86382868D01*
X165397850Y-86395480D01*
X165375671Y-86405970D01*
X165352572Y-86414235D01*
X165328773Y-86420196D01*
X165304505Y-86423796D01*
X165280001Y-86425000D01*
X164629999Y-86425000D01*
X164605495Y-86423796D01*
X164581227Y-86420196D01*
X164557428Y-86414235D01*
X164534329Y-86405970D01*
X164512150Y-86395480D01*
X164491107Y-86382868D01*
X164471401Y-86368253D01*
X164453223Y-86351777D01*
X164436747Y-86333599D01*
X164422132Y-86313893D01*
X164409520Y-86292850D01*
X164399030Y-86270671D01*
X164390765Y-86247572D01*
X164384804Y-86223773D01*
X164381204Y-86199505D01*
X164380000Y-86175001D01*
X164380000Y-85274999D01*
X164381204Y-85250495D01*
X164384804Y-85226227D01*
X164390765Y-85202428D01*
X164399030Y-85179329D01*
X164409520Y-85157150D01*
X164422132Y-85136107D01*
X164436747Y-85116401D01*
X164453223Y-85098223D01*
X164471401Y-85081747D01*
X164491107Y-85067132D01*
X164512150Y-85054520D01*
X164534329Y-85044030D01*
X164557428Y-85035765D01*
X164581227Y-85029804D01*
X164605495Y-85026204D01*
X164629999Y-85025000D01*
X165280001Y-85025000D01*
X165304505Y-85026204D01*
G37*
G36*
X165304505Y-90106204D02*
G01*
X165328773Y-90109804D01*
X165352572Y-90115765D01*
X165375671Y-90124030D01*
X165397850Y-90134520D01*
X165418893Y-90147132D01*
X165438599Y-90161747D01*
X165456777Y-90178223D01*
X165473253Y-90196401D01*
X165487868Y-90216107D01*
X165500480Y-90237150D01*
X165510970Y-90259329D01*
X165519235Y-90282428D01*
X165525196Y-90306227D01*
X165528796Y-90330495D01*
X165530000Y-90354999D01*
X165530000Y-91255001D01*
X165528796Y-91279505D01*
X165525196Y-91303773D01*
X165519235Y-91327572D01*
X165510970Y-91350671D01*
X165500480Y-91372850D01*
X165487868Y-91393893D01*
X165473253Y-91413599D01*
X165456777Y-91431777D01*
X165438599Y-91448253D01*
X165418893Y-91462868D01*
X165397850Y-91475480D01*
X165375671Y-91485970D01*
X165352572Y-91494235D01*
X165328773Y-91500196D01*
X165304505Y-91503796D01*
X165280001Y-91505000D01*
X164629999Y-91505000D01*
X164605495Y-91503796D01*
X164581227Y-91500196D01*
X164557428Y-91494235D01*
X164534329Y-91485970D01*
X164512150Y-91475480D01*
X164491107Y-91462868D01*
X164471401Y-91448253D01*
X164453223Y-91431777D01*
X164436747Y-91413599D01*
X164422132Y-91393893D01*
X164409520Y-91372850D01*
X164399030Y-91350671D01*
X164390765Y-91327572D01*
X164384804Y-91303773D01*
X164381204Y-91279505D01*
X164380000Y-91255001D01*
X164380000Y-90354999D01*
X164381204Y-90330495D01*
X164384804Y-90306227D01*
X164390765Y-90282428D01*
X164399030Y-90259329D01*
X164409520Y-90237150D01*
X164422132Y-90216107D01*
X164436747Y-90196401D01*
X164453223Y-90178223D01*
X164471401Y-90161747D01*
X164491107Y-90147132D01*
X164512150Y-90134520D01*
X164534329Y-90124030D01*
X164557428Y-90115765D01*
X164581227Y-90109804D01*
X164605495Y-90106204D01*
X164629999Y-90105000D01*
X165280001Y-90105000D01*
X165304505Y-90106204D01*
G37*
G36*
X167354505Y-90106204D02*
G01*
X167378773Y-90109804D01*
X167402572Y-90115765D01*
X167425671Y-90124030D01*
X167447850Y-90134520D01*
X167468893Y-90147132D01*
X167488599Y-90161747D01*
X167506777Y-90178223D01*
X167523253Y-90196401D01*
X167537868Y-90216107D01*
X167550480Y-90237150D01*
X167560970Y-90259329D01*
X167569235Y-90282428D01*
X167575196Y-90306227D01*
X167578796Y-90330495D01*
X167580000Y-90354999D01*
X167580000Y-91255001D01*
X167578796Y-91279505D01*
X167575196Y-91303773D01*
X167569235Y-91327572D01*
X167560970Y-91350671D01*
X167550480Y-91372850D01*
X167537868Y-91393893D01*
X167523253Y-91413599D01*
X167506777Y-91431777D01*
X167488599Y-91448253D01*
X167468893Y-91462868D01*
X167447850Y-91475480D01*
X167425671Y-91485970D01*
X167402572Y-91494235D01*
X167378773Y-91500196D01*
X167354505Y-91503796D01*
X167330001Y-91505000D01*
X166679999Y-91505000D01*
X166655495Y-91503796D01*
X166631227Y-91500196D01*
X166607428Y-91494235D01*
X166584329Y-91485970D01*
X166562150Y-91475480D01*
X166541107Y-91462868D01*
X166521401Y-91448253D01*
X166503223Y-91431777D01*
X166486747Y-91413599D01*
X166472132Y-91393893D01*
X166459520Y-91372850D01*
X166449030Y-91350671D01*
X166440765Y-91327572D01*
X166434804Y-91303773D01*
X166431204Y-91279505D01*
X166430000Y-91255001D01*
X166430000Y-90354999D01*
X166431204Y-90330495D01*
X166434804Y-90306227D01*
X166440765Y-90282428D01*
X166449030Y-90259329D01*
X166459520Y-90237150D01*
X166472132Y-90216107D01*
X166486747Y-90196401D01*
X166503223Y-90178223D01*
X166521401Y-90161747D01*
X166541107Y-90147132D01*
X166562150Y-90134520D01*
X166584329Y-90124030D01*
X166607428Y-90115765D01*
X166631227Y-90109804D01*
X166655495Y-90106204D01*
X166679999Y-90105000D01*
X167330001Y-90105000D01*
X167354505Y-90106204D01*
G37*
G36*
X148429505Y-72061204D02*
G01*
X148453773Y-72064804D01*
X148477572Y-72070765D01*
X148500671Y-72079030D01*
X148522850Y-72089520D01*
X148543893Y-72102132D01*
X148563599Y-72116747D01*
X148581777Y-72133223D01*
X148598253Y-72151401D01*
X148612868Y-72171107D01*
X148625480Y-72192150D01*
X148635970Y-72214329D01*
X148644235Y-72237428D01*
X148650196Y-72261227D01*
X148653796Y-72285495D01*
X148655000Y-72309999D01*
X148655000Y-72960001D01*
X148653796Y-72984505D01*
X148650196Y-73008773D01*
X148644235Y-73032572D01*
X148635970Y-73055671D01*
X148625480Y-73077850D01*
X148612868Y-73098893D01*
X148598253Y-73118599D01*
X148581777Y-73136777D01*
X148563599Y-73153253D01*
X148543893Y-73167868D01*
X148522850Y-73180480D01*
X148500671Y-73190970D01*
X148477572Y-73199235D01*
X148453773Y-73205196D01*
X148429505Y-73208796D01*
X148405001Y-73210000D01*
X147504999Y-73210000D01*
X147480495Y-73208796D01*
X147456227Y-73205196D01*
X147432428Y-73199235D01*
X147409329Y-73190970D01*
X147387150Y-73180480D01*
X147366107Y-73167868D01*
X147346401Y-73153253D01*
X147328223Y-73136777D01*
X147311747Y-73118599D01*
X147297132Y-73098893D01*
X147284520Y-73077850D01*
X147274030Y-73055671D01*
X147265765Y-73032572D01*
X147259804Y-73008773D01*
X147256204Y-72984505D01*
X147255000Y-72960001D01*
X147255000Y-72309999D01*
X147256204Y-72285495D01*
X147259804Y-72261227D01*
X147265765Y-72237428D01*
X147274030Y-72214329D01*
X147284520Y-72192150D01*
X147297132Y-72171107D01*
X147311747Y-72151401D01*
X147328223Y-72133223D01*
X147346401Y-72116747D01*
X147366107Y-72102132D01*
X147387150Y-72089520D01*
X147409329Y-72079030D01*
X147432428Y-72070765D01*
X147456227Y-72064804D01*
X147480495Y-72061204D01*
X147504999Y-72060000D01*
X148405001Y-72060000D01*
X148429505Y-72061204D01*
G37*
G36*
X148429505Y-74111204D02*
G01*
X148453773Y-74114804D01*
X148477572Y-74120765D01*
X148500671Y-74129030D01*
X148522850Y-74139520D01*
X148543893Y-74152132D01*
X148563599Y-74166747D01*
X148581777Y-74183223D01*
X148598253Y-74201401D01*
X148612868Y-74221107D01*
X148625480Y-74242150D01*
X148635970Y-74264329D01*
X148644235Y-74287428D01*
X148650196Y-74311227D01*
X148653796Y-74335495D01*
X148655000Y-74359999D01*
X148655000Y-75010001D01*
X148653796Y-75034505D01*
X148650196Y-75058773D01*
X148644235Y-75082572D01*
X148635970Y-75105671D01*
X148625480Y-75127850D01*
X148612868Y-75148893D01*
X148598253Y-75168599D01*
X148581777Y-75186777D01*
X148563599Y-75203253D01*
X148543893Y-75217868D01*
X148522850Y-75230480D01*
X148500671Y-75240970D01*
X148477572Y-75249235D01*
X148453773Y-75255196D01*
X148429505Y-75258796D01*
X148405001Y-75260000D01*
X147504999Y-75260000D01*
X147480495Y-75258796D01*
X147456227Y-75255196D01*
X147432428Y-75249235D01*
X147409329Y-75240970D01*
X147387150Y-75230480D01*
X147366107Y-75217868D01*
X147346401Y-75203253D01*
X147328223Y-75186777D01*
X147311747Y-75168599D01*
X147297132Y-75148893D01*
X147284520Y-75127850D01*
X147274030Y-75105671D01*
X147265765Y-75082572D01*
X147259804Y-75058773D01*
X147256204Y-75034505D01*
X147255000Y-75010001D01*
X147255000Y-74359999D01*
X147256204Y-74335495D01*
X147259804Y-74311227D01*
X147265765Y-74287428D01*
X147274030Y-74264329D01*
X147284520Y-74242150D01*
X147297132Y-74221107D01*
X147311747Y-74201401D01*
X147328223Y-74183223D01*
X147346401Y-74166747D01*
X147366107Y-74152132D01*
X147387150Y-74139520D01*
X147409329Y-74129030D01*
X147432428Y-74120765D01*
X147456227Y-74114804D01*
X147480495Y-74111204D01*
X147504999Y-74110000D01*
X148405001Y-74110000D01*
X148429505Y-74111204D01*
G37*
D16*
X158915000Y-91150000D03*
X158915000Y-86650000D03*
X150965000Y-86650000D03*
X150965000Y-91150000D03*
D17*
X147640000Y-62595000D03*
X149540000Y-62595000D03*
X148590000Y-60595000D03*
D14*
G36*
X121306866Y-94824812D02*
G01*
X120917958Y-95213720D01*
X119857298Y-94153060D01*
X120246206Y-93764152D01*
X121306866Y-94824812D01*
G37*
G36*
X121872551Y-94259126D02*
G01*
X121483643Y-94648034D01*
X120422983Y-93587374D01*
X120811891Y-93198466D01*
X121872551Y-94259126D01*
G37*
G36*
X122438236Y-93693441D02*
G01*
X122049328Y-94082349D01*
X120988668Y-93021689D01*
X121377576Y-92632781D01*
X122438236Y-93693441D01*
G37*
G36*
X123003922Y-93127756D02*
G01*
X122615014Y-93516664D01*
X121554354Y-92456004D01*
X121943262Y-92067096D01*
X123003922Y-93127756D01*
G37*
G36*
X123569607Y-92562070D02*
G01*
X123180699Y-92950978D01*
X122120039Y-91890318D01*
X122508947Y-91501410D01*
X123569607Y-92562070D01*
G37*
G36*
X124135293Y-91996385D02*
G01*
X123746385Y-92385293D01*
X122685725Y-91324633D01*
X123074633Y-90935725D01*
X124135293Y-91996385D01*
G37*
G36*
X124700978Y-91430699D02*
G01*
X124312070Y-91819607D01*
X123251410Y-90758947D01*
X123640318Y-90370039D01*
X124700978Y-91430699D01*
G37*
G36*
X125266664Y-90865014D02*
G01*
X124877756Y-91253922D01*
X123817096Y-90193262D01*
X124206004Y-89804354D01*
X125266664Y-90865014D01*
G37*
G36*
X125832349Y-90299328D02*
G01*
X125443441Y-90688236D01*
X124382781Y-89627576D01*
X124771689Y-89238668D01*
X125832349Y-90299328D01*
G37*
G36*
X126398034Y-89733643D02*
G01*
X126009126Y-90122551D01*
X124948466Y-89061891D01*
X125337374Y-88672983D01*
X126398034Y-89733643D01*
G37*
G36*
X126963720Y-89167958D02*
G01*
X126574812Y-89556866D01*
X125514152Y-88496206D01*
X125903060Y-88107298D01*
X126963720Y-89167958D01*
G37*
G36*
X126574812Y-85703134D02*
G01*
X126963720Y-86092042D01*
X125903060Y-87152702D01*
X125514152Y-86763794D01*
X126574812Y-85703134D01*
G37*
G36*
X126009126Y-85137449D02*
G01*
X126398034Y-85526357D01*
X125337374Y-86587017D01*
X124948466Y-86198109D01*
X126009126Y-85137449D01*
G37*
G36*
X125443441Y-84571764D02*
G01*
X125832349Y-84960672D01*
X124771689Y-86021332D01*
X124382781Y-85632424D01*
X125443441Y-84571764D01*
G37*
G36*
X124877756Y-84006078D02*
G01*
X125266664Y-84394986D01*
X124206004Y-85455646D01*
X123817096Y-85066738D01*
X124877756Y-84006078D01*
G37*
G36*
X124312070Y-83440393D02*
G01*
X124700978Y-83829301D01*
X123640318Y-84889961D01*
X123251410Y-84501053D01*
X124312070Y-83440393D01*
G37*
G36*
X123746385Y-82874707D02*
G01*
X124135293Y-83263615D01*
X123074633Y-84324275D01*
X122685725Y-83935367D01*
X123746385Y-82874707D01*
G37*
G36*
X123180699Y-82309022D02*
G01*
X123569607Y-82697930D01*
X122508947Y-83758590D01*
X122120039Y-83369682D01*
X123180699Y-82309022D01*
G37*
G36*
X122615014Y-81743336D02*
G01*
X123003922Y-82132244D01*
X121943262Y-83192904D01*
X121554354Y-82803996D01*
X122615014Y-81743336D01*
G37*
G36*
X122049328Y-81177651D02*
G01*
X122438236Y-81566559D01*
X121377576Y-82627219D01*
X120988668Y-82238311D01*
X122049328Y-81177651D01*
G37*
G36*
X121483643Y-80611966D02*
G01*
X121872551Y-81000874D01*
X120811891Y-82061534D01*
X120422983Y-81672626D01*
X121483643Y-80611966D01*
G37*
G36*
X120917958Y-80046280D02*
G01*
X121306866Y-80435188D01*
X120246206Y-81495848D01*
X119857298Y-81106940D01*
X120917958Y-80046280D01*
G37*
G36*
X118902702Y-81106940D02*
G01*
X118513794Y-81495848D01*
X117453134Y-80435188D01*
X117842042Y-80046280D01*
X118902702Y-81106940D01*
G37*
G36*
X118337017Y-81672626D02*
G01*
X117948109Y-82061534D01*
X116887449Y-81000874D01*
X117276357Y-80611966D01*
X118337017Y-81672626D01*
G37*
G36*
X117771332Y-82238311D02*
G01*
X117382424Y-82627219D01*
X116321764Y-81566559D01*
X116710672Y-81177651D01*
X117771332Y-82238311D01*
G37*
G36*
X117205646Y-82803996D02*
G01*
X116816738Y-83192904D01*
X115756078Y-82132244D01*
X116144986Y-81743336D01*
X117205646Y-82803996D01*
G37*
G36*
X116639961Y-83369682D02*
G01*
X116251053Y-83758590D01*
X115190393Y-82697930D01*
X115579301Y-82309022D01*
X116639961Y-83369682D01*
G37*
G36*
X116074275Y-83935367D02*
G01*
X115685367Y-84324275D01*
X114624707Y-83263615D01*
X115013615Y-82874707D01*
X116074275Y-83935367D01*
G37*
G36*
X115508590Y-84501053D02*
G01*
X115119682Y-84889961D01*
X114059022Y-83829301D01*
X114447930Y-83440393D01*
X115508590Y-84501053D01*
G37*
G36*
X114942904Y-85066738D02*
G01*
X114553996Y-85455646D01*
X113493336Y-84394986D01*
X113882244Y-84006078D01*
X114942904Y-85066738D01*
G37*
G36*
X114377219Y-85632424D02*
G01*
X113988311Y-86021332D01*
X112927651Y-84960672D01*
X113316559Y-84571764D01*
X114377219Y-85632424D01*
G37*
G36*
X113811534Y-86198109D02*
G01*
X113422626Y-86587017D01*
X112361966Y-85526357D01*
X112750874Y-85137449D01*
X113811534Y-86198109D01*
G37*
G36*
X113245848Y-86763794D02*
G01*
X112856940Y-87152702D01*
X111796280Y-86092042D01*
X112185188Y-85703134D01*
X113245848Y-86763794D01*
G37*
G36*
X112856940Y-88107298D02*
G01*
X113245848Y-88496206D01*
X112185188Y-89556866D01*
X111796280Y-89167958D01*
X112856940Y-88107298D01*
G37*
G36*
X113422626Y-88672983D02*
G01*
X113811534Y-89061891D01*
X112750874Y-90122551D01*
X112361966Y-89733643D01*
X113422626Y-88672983D01*
G37*
G36*
X113988311Y-89238668D02*
G01*
X114377219Y-89627576D01*
X113316559Y-90688236D01*
X112927651Y-90299328D01*
X113988311Y-89238668D01*
G37*
G36*
X114553996Y-89804354D02*
G01*
X114942904Y-90193262D01*
X113882244Y-91253922D01*
X113493336Y-90865014D01*
X114553996Y-89804354D01*
G37*
G36*
X115119682Y-90370039D02*
G01*
X115508590Y-90758947D01*
X114447930Y-91819607D01*
X114059022Y-91430699D01*
X115119682Y-90370039D01*
G37*
G36*
X115685367Y-90935725D02*
G01*
X116074275Y-91324633D01*
X115013615Y-92385293D01*
X114624707Y-91996385D01*
X115685367Y-90935725D01*
G37*
G36*
X116251053Y-91501410D02*
G01*
X116639961Y-91890318D01*
X115579301Y-92950978D01*
X115190393Y-92562070D01*
X116251053Y-91501410D01*
G37*
G36*
X116816738Y-92067096D02*
G01*
X117205646Y-92456004D01*
X116144986Y-93516664D01*
X115756078Y-93127756D01*
X116816738Y-92067096D01*
G37*
G36*
X117382424Y-92632781D02*
G01*
X117771332Y-93021689D01*
X116710672Y-94082349D01*
X116321764Y-93693441D01*
X117382424Y-92632781D01*
G37*
G36*
X117948109Y-93198466D02*
G01*
X118337017Y-93587374D01*
X117276357Y-94648034D01*
X116887449Y-94259126D01*
X117948109Y-93198466D01*
G37*
G36*
X118513794Y-93764152D02*
G01*
X118902702Y-94153060D01*
X117842042Y-95213720D01*
X117453134Y-94824812D01*
X118513794Y-93764152D01*
G37*
M02*
