G04 #@! TF.GenerationSoftware,KiCad,Pcbnew,5.1.5-52549c5~84~ubuntu19.10.1*
G04 #@! TF.CreationDate,2020-02-04T21:35:52+01:00*
G04 #@! TF.ProjectId,eduzebox,6564757a-6562-46f7-982e-6b696361645f,rev?*
G04 #@! TF.SameCoordinates,Original*
G04 #@! TF.FileFunction,Soldermask,Top*
G04 #@! TF.FilePolarity,Negative*
%FSLAX46Y46*%
G04 Gerber Fmt 4.6, Leading zero omitted, Abs format (unit mm)*
G04 Created by KiCad (PCBNEW 5.1.5-52549c5~84~ubuntu19.10.1) date 2020-02-04 21:35:52*
%MOMM*%
%LPD*%
G04 APERTURE LIST*
%ADD10C,0.100000*%
G04 APERTURE END LIST*
D10*
G36*
X101171031Y-97524207D02*
G01*
X101369145Y-97584305D01*
X101369148Y-97584306D01*
X101435030Y-97619521D01*
X101551729Y-97681897D01*
X101711765Y-97813235D01*
X101843103Y-97973271D01*
X101843104Y-97973273D01*
X101940694Y-98155851D01*
X101940694Y-98155852D01*
X101940695Y-98155854D01*
X102000793Y-98353968D01*
X102016000Y-98508370D01*
X102016000Y-99611630D01*
X102000793Y-99766032D01*
X101940695Y-99964146D01*
X101940694Y-99964149D01*
X101888939Y-100060975D01*
X101843103Y-100146729D01*
X101711765Y-100306765D01*
X101551729Y-100438103D01*
X101465975Y-100483939D01*
X101369149Y-100535694D01*
X101369146Y-100535695D01*
X101171032Y-100595793D01*
X100965000Y-100616085D01*
X100758969Y-100595793D01*
X100560855Y-100535695D01*
X100560852Y-100535694D01*
X100464026Y-100483939D01*
X100378272Y-100438103D01*
X100218236Y-100306765D01*
X100086898Y-100146729D01*
X100064184Y-100104234D01*
X99989305Y-99964147D01*
X99929207Y-99766030D01*
X99914000Y-99611631D01*
X99914000Y-98508370D01*
X99929207Y-98353971D01*
X99929207Y-98353969D01*
X99989305Y-98155855D01*
X99989306Y-98155852D01*
X100024521Y-98089970D01*
X100086897Y-97973271D01*
X100218235Y-97813235D01*
X100378271Y-97681897D01*
X100464025Y-97636061D01*
X100560851Y-97584306D01*
X100560854Y-97584305D01*
X100758968Y-97524207D01*
X100965000Y-97503915D01*
X101171031Y-97524207D01*
G37*
G36*
X105171031Y-97524207D02*
G01*
X105369145Y-97584305D01*
X105369148Y-97584306D01*
X105435030Y-97619521D01*
X105551729Y-97681897D01*
X105711765Y-97813235D01*
X105843103Y-97973271D01*
X105843104Y-97973273D01*
X105940694Y-98155851D01*
X105940694Y-98155852D01*
X105940695Y-98155854D01*
X106000793Y-98353968D01*
X106016000Y-98508370D01*
X106016000Y-99611630D01*
X106000793Y-99766032D01*
X105940695Y-99964146D01*
X105940694Y-99964149D01*
X105888939Y-100060975D01*
X105843103Y-100146729D01*
X105711765Y-100306765D01*
X105551729Y-100438103D01*
X105465975Y-100483939D01*
X105369149Y-100535694D01*
X105369146Y-100535695D01*
X105171032Y-100595793D01*
X104965000Y-100616085D01*
X104758969Y-100595793D01*
X104560855Y-100535695D01*
X104560852Y-100535694D01*
X104464026Y-100483939D01*
X104378272Y-100438103D01*
X104218236Y-100306765D01*
X104086898Y-100146729D01*
X104064184Y-100104234D01*
X103989305Y-99964147D01*
X103929207Y-99766030D01*
X103914000Y-99611631D01*
X103914000Y-98508370D01*
X103929207Y-98353971D01*
X103929207Y-98353969D01*
X103989305Y-98155855D01*
X103989306Y-98155852D01*
X104024521Y-98089970D01*
X104086897Y-97973271D01*
X104218235Y-97813235D01*
X104378271Y-97681897D01*
X104464025Y-97636061D01*
X104560851Y-97584306D01*
X104560854Y-97584305D01*
X104758968Y-97524207D01*
X104965000Y-97503915D01*
X105171031Y-97524207D01*
G37*
G36*
X173391031Y-97524207D02*
G01*
X173589145Y-97584305D01*
X173589148Y-97584306D01*
X173655030Y-97619521D01*
X173771729Y-97681897D01*
X173931765Y-97813235D01*
X174063103Y-97973271D01*
X174063104Y-97973273D01*
X174160694Y-98155851D01*
X174160694Y-98155852D01*
X174160695Y-98155854D01*
X174220793Y-98353968D01*
X174236000Y-98508370D01*
X174236000Y-99611630D01*
X174220793Y-99766032D01*
X174160695Y-99964146D01*
X174160694Y-99964149D01*
X174108939Y-100060975D01*
X174063103Y-100146729D01*
X173931765Y-100306765D01*
X173771729Y-100438103D01*
X173685975Y-100483939D01*
X173589149Y-100535694D01*
X173589146Y-100535695D01*
X173391032Y-100595793D01*
X173185000Y-100616085D01*
X172978969Y-100595793D01*
X172780855Y-100535695D01*
X172780852Y-100535694D01*
X172684026Y-100483939D01*
X172598272Y-100438103D01*
X172438236Y-100306765D01*
X172306898Y-100146729D01*
X172284184Y-100104235D01*
X172209305Y-99964147D01*
X172149207Y-99766030D01*
X172134000Y-99611631D01*
X172134000Y-98508370D01*
X172149207Y-98353971D01*
X172149207Y-98353969D01*
X172209305Y-98155855D01*
X172209306Y-98155852D01*
X172244521Y-98089970D01*
X172306897Y-97973271D01*
X172438235Y-97813235D01*
X172598271Y-97681897D01*
X172684025Y-97636061D01*
X172780851Y-97584306D01*
X172780854Y-97584305D01*
X172978968Y-97524207D01*
X173185000Y-97503915D01*
X173391031Y-97524207D01*
G37*
G36*
X169391031Y-97524207D02*
G01*
X169589145Y-97584305D01*
X169589148Y-97584306D01*
X169655030Y-97619521D01*
X169771729Y-97681897D01*
X169931765Y-97813235D01*
X170063103Y-97973271D01*
X170063104Y-97973273D01*
X170160694Y-98155851D01*
X170160694Y-98155852D01*
X170160695Y-98155854D01*
X170220793Y-98353968D01*
X170236000Y-98508370D01*
X170236000Y-99611630D01*
X170220793Y-99766032D01*
X170160695Y-99964146D01*
X170160694Y-99964149D01*
X170108939Y-100060975D01*
X170063103Y-100146729D01*
X169931765Y-100306765D01*
X169771729Y-100438103D01*
X169685975Y-100483939D01*
X169589149Y-100535694D01*
X169589146Y-100535695D01*
X169391032Y-100595793D01*
X169185000Y-100616085D01*
X168978969Y-100595793D01*
X168780855Y-100535695D01*
X168780852Y-100535694D01*
X168684026Y-100483939D01*
X168598272Y-100438103D01*
X168438236Y-100306765D01*
X168306898Y-100146729D01*
X168284184Y-100104235D01*
X168209305Y-99964147D01*
X168149207Y-99766030D01*
X168134000Y-99611631D01*
X168134000Y-98508370D01*
X168149207Y-98353971D01*
X168149207Y-98353969D01*
X168209305Y-98155855D01*
X168209306Y-98155852D01*
X168244521Y-98089970D01*
X168306897Y-97973271D01*
X168438235Y-97813235D01*
X168598271Y-97681897D01*
X168684025Y-97636061D01*
X168780851Y-97584306D01*
X168780854Y-97584305D01*
X168978968Y-97524207D01*
X169185000Y-97503915D01*
X169391031Y-97524207D01*
G37*
G36*
X165391031Y-97524207D02*
G01*
X165589145Y-97584305D01*
X165589148Y-97584306D01*
X165655030Y-97619521D01*
X165771729Y-97681897D01*
X165931765Y-97813235D01*
X166063103Y-97973271D01*
X166063104Y-97973273D01*
X166160694Y-98155851D01*
X166160694Y-98155852D01*
X166160695Y-98155854D01*
X166220793Y-98353968D01*
X166236000Y-98508370D01*
X166236000Y-99611630D01*
X166220793Y-99766032D01*
X166160695Y-99964146D01*
X166160694Y-99964149D01*
X166108939Y-100060975D01*
X166063103Y-100146729D01*
X165931765Y-100306765D01*
X165771729Y-100438103D01*
X165685975Y-100483939D01*
X165589149Y-100535694D01*
X165589146Y-100535695D01*
X165391032Y-100595793D01*
X165185000Y-100616085D01*
X164978969Y-100595793D01*
X164780855Y-100535695D01*
X164780852Y-100535694D01*
X164684026Y-100483939D01*
X164598272Y-100438103D01*
X164438236Y-100306765D01*
X164306898Y-100146729D01*
X164284184Y-100104235D01*
X164209305Y-99964147D01*
X164149207Y-99766030D01*
X164134000Y-99611631D01*
X164134000Y-98508370D01*
X164149207Y-98353971D01*
X164149207Y-98353969D01*
X164209305Y-98155855D01*
X164209306Y-98155852D01*
X164244521Y-98089970D01*
X164306897Y-97973271D01*
X164438235Y-97813235D01*
X164598271Y-97681897D01*
X164684025Y-97636061D01*
X164780851Y-97584306D01*
X164780854Y-97584305D01*
X164978968Y-97524207D01*
X165185000Y-97503915D01*
X165391031Y-97524207D01*
G37*
G36*
X158891031Y-97524207D02*
G01*
X159089145Y-97584305D01*
X159089148Y-97584306D01*
X159155030Y-97619521D01*
X159271729Y-97681897D01*
X159431765Y-97813235D01*
X159563103Y-97973271D01*
X159563104Y-97973273D01*
X159660694Y-98155851D01*
X159660694Y-98155852D01*
X159660695Y-98155854D01*
X159720793Y-98353968D01*
X159736000Y-98508370D01*
X159736000Y-99611630D01*
X159720793Y-99766032D01*
X159660695Y-99964146D01*
X159660694Y-99964149D01*
X159608939Y-100060975D01*
X159563103Y-100146729D01*
X159431765Y-100306765D01*
X159271729Y-100438103D01*
X159185975Y-100483939D01*
X159089149Y-100535694D01*
X159089146Y-100535695D01*
X158891032Y-100595793D01*
X158685000Y-100616085D01*
X158478969Y-100595793D01*
X158280855Y-100535695D01*
X158280852Y-100535694D01*
X158184026Y-100483939D01*
X158098272Y-100438103D01*
X157938236Y-100306765D01*
X157806898Y-100146729D01*
X157784184Y-100104235D01*
X157709305Y-99964147D01*
X157649207Y-99766030D01*
X157634000Y-99611631D01*
X157634000Y-98508370D01*
X157649207Y-98353971D01*
X157649207Y-98353969D01*
X157709305Y-98155855D01*
X157709306Y-98155852D01*
X157744521Y-98089970D01*
X157806897Y-97973271D01*
X157938235Y-97813235D01*
X158098271Y-97681897D01*
X158184025Y-97636061D01*
X158280851Y-97584306D01*
X158280854Y-97584305D01*
X158478968Y-97524207D01*
X158685000Y-97503915D01*
X158891031Y-97524207D01*
G37*
G36*
X154891031Y-97524207D02*
G01*
X155089145Y-97584305D01*
X155089148Y-97584306D01*
X155155030Y-97619521D01*
X155271729Y-97681897D01*
X155431765Y-97813235D01*
X155563103Y-97973271D01*
X155563104Y-97973273D01*
X155660694Y-98155851D01*
X155660694Y-98155852D01*
X155660695Y-98155854D01*
X155720793Y-98353968D01*
X155736000Y-98508370D01*
X155736000Y-99611630D01*
X155720793Y-99766032D01*
X155660695Y-99964146D01*
X155660694Y-99964149D01*
X155608939Y-100060975D01*
X155563103Y-100146729D01*
X155431765Y-100306765D01*
X155271729Y-100438103D01*
X155185975Y-100483939D01*
X155089149Y-100535694D01*
X155089146Y-100535695D01*
X154891032Y-100595793D01*
X154685000Y-100616085D01*
X154478969Y-100595793D01*
X154280855Y-100535695D01*
X154280852Y-100535694D01*
X154184026Y-100483939D01*
X154098272Y-100438103D01*
X153938236Y-100306765D01*
X153806898Y-100146729D01*
X153784184Y-100104235D01*
X153709305Y-99964147D01*
X153649207Y-99766030D01*
X153634000Y-99611631D01*
X153634000Y-98508370D01*
X153649207Y-98353971D01*
X153649207Y-98353969D01*
X153709305Y-98155855D01*
X153709306Y-98155852D01*
X153744521Y-98089970D01*
X153806897Y-97973271D01*
X153938235Y-97813235D01*
X154098271Y-97681897D01*
X154184025Y-97636061D01*
X154280851Y-97584306D01*
X154280854Y-97584305D01*
X154478968Y-97524207D01*
X154685000Y-97503915D01*
X154891031Y-97524207D01*
G37*
G36*
X150891031Y-97524207D02*
G01*
X151089145Y-97584305D01*
X151089148Y-97584306D01*
X151155030Y-97619521D01*
X151271729Y-97681897D01*
X151431765Y-97813235D01*
X151563103Y-97973271D01*
X151563104Y-97973273D01*
X151660694Y-98155851D01*
X151660694Y-98155852D01*
X151660695Y-98155854D01*
X151720793Y-98353968D01*
X151736000Y-98508370D01*
X151736000Y-99611630D01*
X151720793Y-99766032D01*
X151660695Y-99964146D01*
X151660694Y-99964149D01*
X151608939Y-100060975D01*
X151563103Y-100146729D01*
X151431765Y-100306765D01*
X151271729Y-100438103D01*
X151185975Y-100483939D01*
X151089149Y-100535694D01*
X151089146Y-100535695D01*
X150891032Y-100595793D01*
X150685000Y-100616085D01*
X150478969Y-100595793D01*
X150280855Y-100535695D01*
X150280852Y-100535694D01*
X150184026Y-100483939D01*
X150098272Y-100438103D01*
X149938236Y-100306765D01*
X149806898Y-100146729D01*
X149784184Y-100104235D01*
X149709305Y-99964147D01*
X149649207Y-99766030D01*
X149634000Y-99611631D01*
X149634000Y-98508370D01*
X149649207Y-98353971D01*
X149649207Y-98353969D01*
X149709305Y-98155855D01*
X149709306Y-98155852D01*
X149744521Y-98089970D01*
X149806897Y-97973271D01*
X149938235Y-97813235D01*
X150098271Y-97681897D01*
X150184025Y-97636061D01*
X150280851Y-97584306D01*
X150280854Y-97584305D01*
X150478968Y-97524207D01*
X150685000Y-97503915D01*
X150891031Y-97524207D01*
G37*
G36*
X127671031Y-97524207D02*
G01*
X127869145Y-97584305D01*
X127869148Y-97584306D01*
X127935030Y-97619521D01*
X128051729Y-97681897D01*
X128211765Y-97813235D01*
X128343103Y-97973271D01*
X128343104Y-97973273D01*
X128440694Y-98155851D01*
X128440694Y-98155852D01*
X128440695Y-98155854D01*
X128500793Y-98353968D01*
X128516000Y-98508370D01*
X128516000Y-99611630D01*
X128500793Y-99766032D01*
X128440695Y-99964146D01*
X128440694Y-99964149D01*
X128388939Y-100060975D01*
X128343103Y-100146729D01*
X128211765Y-100306765D01*
X128051729Y-100438103D01*
X127965975Y-100483939D01*
X127869149Y-100535694D01*
X127869146Y-100535695D01*
X127671032Y-100595793D01*
X127465000Y-100616085D01*
X127258969Y-100595793D01*
X127060855Y-100535695D01*
X127060852Y-100535694D01*
X126964026Y-100483939D01*
X126878272Y-100438103D01*
X126718236Y-100306765D01*
X126586898Y-100146729D01*
X126564184Y-100104235D01*
X126489305Y-99964147D01*
X126429207Y-99766030D01*
X126414000Y-99611631D01*
X126414000Y-98508370D01*
X126429207Y-98353971D01*
X126429207Y-98353969D01*
X126489305Y-98155855D01*
X126489306Y-98155852D01*
X126524521Y-98089970D01*
X126586897Y-97973271D01*
X126718235Y-97813235D01*
X126878271Y-97681897D01*
X126964025Y-97636061D01*
X127060851Y-97584306D01*
X127060854Y-97584305D01*
X127258968Y-97524207D01*
X127465000Y-97503915D01*
X127671031Y-97524207D01*
G37*
G36*
X123671031Y-97524207D02*
G01*
X123869145Y-97584305D01*
X123869148Y-97584306D01*
X123935030Y-97619521D01*
X124051729Y-97681897D01*
X124211765Y-97813235D01*
X124343103Y-97973271D01*
X124343104Y-97973273D01*
X124440694Y-98155851D01*
X124440694Y-98155852D01*
X124440695Y-98155854D01*
X124500793Y-98353968D01*
X124516000Y-98508370D01*
X124516000Y-99611630D01*
X124500793Y-99766032D01*
X124440695Y-99964146D01*
X124440694Y-99964149D01*
X124388939Y-100060975D01*
X124343103Y-100146729D01*
X124211765Y-100306765D01*
X124051729Y-100438103D01*
X123965975Y-100483939D01*
X123869149Y-100535694D01*
X123869146Y-100535695D01*
X123671032Y-100595793D01*
X123465000Y-100616085D01*
X123258969Y-100595793D01*
X123060855Y-100535695D01*
X123060852Y-100535694D01*
X122964026Y-100483939D01*
X122878272Y-100438103D01*
X122718236Y-100306765D01*
X122586898Y-100146729D01*
X122564184Y-100104235D01*
X122489305Y-99964147D01*
X122429207Y-99766030D01*
X122414000Y-99611631D01*
X122414000Y-98508370D01*
X122429207Y-98353971D01*
X122429207Y-98353969D01*
X122489305Y-98155855D01*
X122489306Y-98155852D01*
X122524521Y-98089970D01*
X122586897Y-97973271D01*
X122718235Y-97813235D01*
X122878271Y-97681897D01*
X122964025Y-97636061D01*
X123060851Y-97584306D01*
X123060854Y-97584305D01*
X123258968Y-97524207D01*
X123465000Y-97503915D01*
X123671031Y-97524207D01*
G37*
G36*
X119671031Y-97524207D02*
G01*
X119869145Y-97584305D01*
X119869148Y-97584306D01*
X119935030Y-97619521D01*
X120051729Y-97681897D01*
X120211765Y-97813235D01*
X120343103Y-97973271D01*
X120343104Y-97973273D01*
X120440694Y-98155851D01*
X120440694Y-98155852D01*
X120440695Y-98155854D01*
X120500793Y-98353968D01*
X120516000Y-98508370D01*
X120516000Y-99611630D01*
X120500793Y-99766032D01*
X120440695Y-99964146D01*
X120440694Y-99964149D01*
X120388939Y-100060975D01*
X120343103Y-100146729D01*
X120211765Y-100306765D01*
X120051729Y-100438103D01*
X119965975Y-100483939D01*
X119869149Y-100535694D01*
X119869146Y-100535695D01*
X119671032Y-100595793D01*
X119465000Y-100616085D01*
X119258969Y-100595793D01*
X119060855Y-100535695D01*
X119060852Y-100535694D01*
X118964026Y-100483939D01*
X118878272Y-100438103D01*
X118718236Y-100306765D01*
X118586898Y-100146729D01*
X118564184Y-100104234D01*
X118489305Y-99964147D01*
X118429207Y-99766030D01*
X118414000Y-99611631D01*
X118414000Y-98508370D01*
X118429207Y-98353971D01*
X118429207Y-98353969D01*
X118489305Y-98155855D01*
X118489306Y-98155852D01*
X118524521Y-98089970D01*
X118586897Y-97973271D01*
X118718235Y-97813235D01*
X118878271Y-97681897D01*
X118964025Y-97636061D01*
X119060851Y-97584306D01*
X119060854Y-97584305D01*
X119258968Y-97524207D01*
X119465000Y-97503915D01*
X119671031Y-97524207D01*
G37*
G36*
X113171031Y-97524207D02*
G01*
X113369145Y-97584305D01*
X113369148Y-97584306D01*
X113435030Y-97619521D01*
X113551729Y-97681897D01*
X113711765Y-97813235D01*
X113843103Y-97973271D01*
X113843104Y-97973273D01*
X113940694Y-98155851D01*
X113940694Y-98155852D01*
X113940695Y-98155854D01*
X114000793Y-98353968D01*
X114016000Y-98508370D01*
X114016000Y-99611630D01*
X114000793Y-99766032D01*
X113940695Y-99964146D01*
X113940694Y-99964149D01*
X113888939Y-100060975D01*
X113843103Y-100146729D01*
X113711765Y-100306765D01*
X113551729Y-100438103D01*
X113465975Y-100483939D01*
X113369149Y-100535694D01*
X113369146Y-100535695D01*
X113171032Y-100595793D01*
X112965000Y-100616085D01*
X112758969Y-100595793D01*
X112560855Y-100535695D01*
X112560852Y-100535694D01*
X112464026Y-100483939D01*
X112378272Y-100438103D01*
X112218236Y-100306765D01*
X112086898Y-100146729D01*
X112064184Y-100104234D01*
X111989305Y-99964147D01*
X111929207Y-99766030D01*
X111914000Y-99611631D01*
X111914000Y-98508370D01*
X111929207Y-98353971D01*
X111929207Y-98353969D01*
X111989305Y-98155855D01*
X111989306Y-98155852D01*
X112024521Y-98089970D01*
X112086897Y-97973271D01*
X112218235Y-97813235D01*
X112378271Y-97681897D01*
X112464025Y-97636061D01*
X112560851Y-97584306D01*
X112560854Y-97584305D01*
X112758968Y-97524207D01*
X112965000Y-97503915D01*
X113171031Y-97524207D01*
G37*
G36*
X109171031Y-97524207D02*
G01*
X109369145Y-97584305D01*
X109369148Y-97584306D01*
X109435030Y-97619521D01*
X109551729Y-97681897D01*
X109711765Y-97813235D01*
X109843103Y-97973271D01*
X109843104Y-97973273D01*
X109940694Y-98155851D01*
X109940694Y-98155852D01*
X109940695Y-98155854D01*
X110000793Y-98353968D01*
X110016000Y-98508370D01*
X110016000Y-99611630D01*
X110000793Y-99766032D01*
X109940695Y-99964146D01*
X109940694Y-99964149D01*
X109888939Y-100060975D01*
X109843103Y-100146729D01*
X109711765Y-100306765D01*
X109551729Y-100438103D01*
X109465975Y-100483939D01*
X109369149Y-100535694D01*
X109369146Y-100535695D01*
X109171032Y-100595793D01*
X108965000Y-100616085D01*
X108758969Y-100595793D01*
X108560855Y-100535695D01*
X108560852Y-100535694D01*
X108464026Y-100483939D01*
X108378272Y-100438103D01*
X108218236Y-100306765D01*
X108086898Y-100146729D01*
X108064184Y-100104234D01*
X107989305Y-99964147D01*
X107929207Y-99766030D01*
X107914000Y-99611631D01*
X107914000Y-98508370D01*
X107929207Y-98353971D01*
X107929207Y-98353969D01*
X107989305Y-98155855D01*
X107989306Y-98155852D01*
X108024521Y-98089970D01*
X108086897Y-97973271D01*
X108218235Y-97813235D01*
X108378271Y-97681897D01*
X108464025Y-97636061D01*
X108560851Y-97584306D01*
X108560854Y-97584305D01*
X108758968Y-97524207D01*
X108965000Y-97503915D01*
X109171031Y-97524207D01*
G37*
G36*
X146891031Y-97524207D02*
G01*
X147089145Y-97584305D01*
X147089148Y-97584306D01*
X147155030Y-97619521D01*
X147271729Y-97681897D01*
X147431765Y-97813235D01*
X147563103Y-97973271D01*
X147563104Y-97973273D01*
X147660694Y-98155851D01*
X147660694Y-98155852D01*
X147660695Y-98155854D01*
X147720793Y-98353968D01*
X147736000Y-98508370D01*
X147736000Y-99611630D01*
X147720793Y-99766032D01*
X147660695Y-99964146D01*
X147660694Y-99964149D01*
X147608939Y-100060975D01*
X147563103Y-100146729D01*
X147431765Y-100306765D01*
X147271729Y-100438103D01*
X147185975Y-100483939D01*
X147089149Y-100535694D01*
X147089146Y-100535695D01*
X146891032Y-100595793D01*
X146685000Y-100616085D01*
X146478969Y-100595793D01*
X146280855Y-100535695D01*
X146280852Y-100535694D01*
X146184026Y-100483939D01*
X146098272Y-100438103D01*
X145938236Y-100306765D01*
X145806898Y-100146729D01*
X145784184Y-100104235D01*
X145709305Y-99964147D01*
X145649207Y-99766030D01*
X145634000Y-99611631D01*
X145634000Y-98508370D01*
X145649207Y-98353971D01*
X145649207Y-98353969D01*
X145709305Y-98155855D01*
X145709306Y-98155852D01*
X145744521Y-98089970D01*
X145806897Y-97973271D01*
X145938235Y-97813235D01*
X146098271Y-97681897D01*
X146184025Y-97636061D01*
X146280851Y-97584306D01*
X146280854Y-97584305D01*
X146478968Y-97524207D01*
X146685000Y-97503915D01*
X146891031Y-97524207D01*
G37*
G36*
X137748674Y-95263465D02*
G01*
X137786367Y-95274899D01*
X137821103Y-95293466D01*
X137851548Y-95318452D01*
X137876534Y-95348897D01*
X137895101Y-95383633D01*
X137906535Y-95421326D01*
X137911000Y-95466661D01*
X137911000Y-96303339D01*
X137906535Y-96348674D01*
X137895101Y-96386367D01*
X137876534Y-96421103D01*
X137851548Y-96451548D01*
X137821103Y-96476534D01*
X137786367Y-96495101D01*
X137748674Y-96506535D01*
X137703339Y-96511000D01*
X136616661Y-96511000D01*
X136571326Y-96506535D01*
X136533633Y-96495101D01*
X136498897Y-96476534D01*
X136468452Y-96451548D01*
X136443466Y-96421103D01*
X136424899Y-96386367D01*
X136413465Y-96348674D01*
X136409000Y-96303339D01*
X136409000Y-95466661D01*
X136413465Y-95421326D01*
X136424899Y-95383633D01*
X136443466Y-95348897D01*
X136468452Y-95318452D01*
X136498897Y-95293466D01*
X136533633Y-95274899D01*
X136571326Y-95263465D01*
X136616661Y-95259000D01*
X137703339Y-95259000D01*
X137748674Y-95263465D01*
G37*
G36*
X124231239Y-93908820D02*
G01*
X124268932Y-93920254D01*
X124303668Y-93938821D01*
X124338881Y-93967719D01*
X125107281Y-94736119D01*
X125136179Y-94771332D01*
X125154746Y-94806068D01*
X125166180Y-94843761D01*
X125170040Y-94882956D01*
X125166180Y-94922151D01*
X125154746Y-94959844D01*
X125136179Y-94994580D01*
X125107281Y-95029793D01*
X124515657Y-95621417D01*
X124480444Y-95650315D01*
X124445708Y-95668882D01*
X124408015Y-95680316D01*
X124368820Y-95684176D01*
X124329625Y-95680316D01*
X124291932Y-95668882D01*
X124257196Y-95650315D01*
X124221983Y-95621417D01*
X123453583Y-94853017D01*
X123424685Y-94817804D01*
X123406118Y-94783068D01*
X123394684Y-94745375D01*
X123390824Y-94706180D01*
X123394684Y-94666985D01*
X123406118Y-94629292D01*
X123424685Y-94594556D01*
X123453583Y-94559343D01*
X124045207Y-93967719D01*
X124080420Y-93938821D01*
X124115156Y-93920254D01*
X124152849Y-93908820D01*
X124192044Y-93904960D01*
X124231239Y-93908820D01*
G37*
G36*
X127035845Y-89167958D02*
G01*
X126486424Y-89717379D01*
X125920738Y-90283064D01*
X125427177Y-90776626D01*
X122526626Y-93677177D01*
X121960940Y-94242862D01*
X121467379Y-94736424D01*
X120917958Y-95285845D01*
X119785173Y-94153060D01*
X120246206Y-93692027D01*
X120262471Y-93675763D01*
X120262480Y-93675752D01*
X121465954Y-92472278D01*
X121465965Y-92472269D01*
X121482230Y-92456005D01*
X121482229Y-92456004D01*
X121943262Y-91994971D01*
X121943263Y-91994972D01*
X121959527Y-91978707D01*
X121959536Y-91978696D01*
X122597325Y-91340907D01*
X122597336Y-91340898D01*
X122613601Y-91324634D01*
X122613600Y-91324633D01*
X123074633Y-90863600D01*
X123074634Y-90863601D01*
X123090898Y-90847336D01*
X123090907Y-90847325D01*
X123728696Y-90209536D01*
X123728707Y-90209527D01*
X123744972Y-90193263D01*
X123744971Y-90193262D01*
X124206004Y-89732229D01*
X124206005Y-89732230D01*
X124222269Y-89715965D01*
X124222278Y-89715954D01*
X125425752Y-88512480D01*
X125425763Y-88512471D01*
X125442027Y-88496206D01*
X125903060Y-88035173D01*
X127035845Y-89167958D01*
G37*
G36*
X113334238Y-88512471D02*
G01*
X113334244Y-88512476D01*
X114537727Y-89715959D01*
X114537732Y-89715965D01*
X115031294Y-90209527D01*
X115031300Y-90209532D01*
X115669098Y-90847330D01*
X115669103Y-90847336D01*
X116162665Y-91340898D01*
X116162671Y-91340903D01*
X116800469Y-91978701D01*
X116800474Y-91978707D01*
X117294036Y-92472269D01*
X117294042Y-92472274D01*
X118497525Y-93675757D01*
X118497530Y-93675763D01*
X118974827Y-94153060D01*
X117842042Y-95285845D01*
X117292627Y-94736430D01*
X117292622Y-94736424D01*
X116233375Y-93677177D01*
X116233369Y-93677172D01*
X115595571Y-93039374D01*
X115595566Y-93039368D01*
X115102004Y-92545806D01*
X115101998Y-92545801D01*
X114464200Y-91908003D01*
X114464195Y-91907997D01*
X113970633Y-91414435D01*
X113970627Y-91414430D01*
X113332829Y-90776632D01*
X113332824Y-90776626D01*
X112273577Y-89717379D01*
X112273571Y-89717374D01*
X111724155Y-89167958D01*
X112856940Y-88035173D01*
X113334238Y-88512471D01*
G37*
G36*
X182566000Y-94471000D02*
G01*
X180264000Y-94471000D01*
X180264000Y-93169000D01*
X182566000Y-93169000D01*
X182566000Y-94471000D01*
G37*
G36*
X171666000Y-93044001D02*
G01*
X171668402Y-93068387D01*
X171675515Y-93091836D01*
X171687066Y-93113447D01*
X171702611Y-93132389D01*
X171721553Y-93147934D01*
X171743164Y-93159485D01*
X171766613Y-93166598D01*
X171790999Y-93169000D01*
X172616000Y-93169000D01*
X172616000Y-94471000D01*
X171014000Y-94471000D01*
X171014000Y-93145999D01*
X171011598Y-93121613D01*
X171004485Y-93098164D01*
X170992934Y-93076553D01*
X170977389Y-93057611D01*
X170958447Y-93042066D01*
X170936836Y-93030515D01*
X170913387Y-93023402D01*
X170889001Y-93021000D01*
X169964000Y-93021000D01*
X169964000Y-92219000D01*
X171666000Y-92219000D01*
X171666000Y-93044001D01*
G37*
G36*
X137748674Y-93213465D02*
G01*
X137786367Y-93224899D01*
X137821103Y-93243466D01*
X137851548Y-93268452D01*
X137876534Y-93298897D01*
X137895101Y-93333633D01*
X137906535Y-93371326D01*
X137911000Y-93416661D01*
X137911000Y-94253339D01*
X137906535Y-94298674D01*
X137895101Y-94336367D01*
X137876534Y-94371103D01*
X137851548Y-94401548D01*
X137821103Y-94426534D01*
X137786367Y-94445101D01*
X137748674Y-94456535D01*
X137703339Y-94461000D01*
X136616661Y-94461000D01*
X136571326Y-94456535D01*
X136533633Y-94445101D01*
X136498897Y-94426534D01*
X136468452Y-94401548D01*
X136443466Y-94371103D01*
X136424899Y-94336367D01*
X136413465Y-94298674D01*
X136409000Y-94253339D01*
X136409000Y-93416661D01*
X136413465Y-93371326D01*
X136424899Y-93333633D01*
X136443466Y-93298897D01*
X136468452Y-93268452D01*
X136498897Y-93243466D01*
X136533633Y-93224899D01*
X136571326Y-93213465D01*
X136616661Y-93209000D01*
X137703339Y-93209000D01*
X137748674Y-93213465D01*
G37*
G36*
X125680807Y-92459252D02*
G01*
X125718500Y-92470686D01*
X125753236Y-92489253D01*
X125788449Y-92518151D01*
X126556849Y-93286551D01*
X126585747Y-93321764D01*
X126604314Y-93356500D01*
X126615748Y-93394193D01*
X126619608Y-93433388D01*
X126615748Y-93472583D01*
X126604314Y-93510276D01*
X126585747Y-93545012D01*
X126556849Y-93580225D01*
X125965225Y-94171849D01*
X125930012Y-94200747D01*
X125895276Y-94219314D01*
X125857583Y-94230748D01*
X125818388Y-94234608D01*
X125779193Y-94230748D01*
X125741500Y-94219314D01*
X125706764Y-94200747D01*
X125671551Y-94171849D01*
X124903151Y-93403449D01*
X124874253Y-93368236D01*
X124855686Y-93333500D01*
X124844252Y-93295807D01*
X124840392Y-93256612D01*
X124844252Y-93217417D01*
X124855686Y-93179724D01*
X124874253Y-93144988D01*
X124903151Y-93109775D01*
X125494775Y-92518151D01*
X125529988Y-92489253D01*
X125564724Y-92470686D01*
X125602417Y-92459252D01*
X125641612Y-92455392D01*
X125680807Y-92459252D01*
G37*
G36*
X132948642Y-92374781D02*
G01*
X133094414Y-92435162D01*
X133094416Y-92435163D01*
X133225608Y-92522822D01*
X133337178Y-92634392D01*
X133376388Y-92693075D01*
X133424838Y-92765586D01*
X133485219Y-92911358D01*
X133516000Y-93066107D01*
X133516000Y-93223893D01*
X133485219Y-93378642D01*
X133454076Y-93453827D01*
X133424837Y-93524416D01*
X133337178Y-93655608D01*
X133225608Y-93767178D01*
X133094416Y-93854837D01*
X133094415Y-93854838D01*
X133094414Y-93854838D01*
X132948642Y-93915219D01*
X132793893Y-93946000D01*
X132636107Y-93946000D01*
X132481358Y-93915219D01*
X132335586Y-93854838D01*
X132335585Y-93854838D01*
X132335584Y-93854837D01*
X132204392Y-93767178D01*
X132092822Y-93655608D01*
X132005163Y-93524416D01*
X131975924Y-93453827D01*
X131944781Y-93378642D01*
X131914000Y-93223893D01*
X131914000Y-93066107D01*
X131944781Y-92911358D01*
X132005162Y-92765586D01*
X132053612Y-92693075D01*
X132092822Y-92634392D01*
X132204392Y-92522822D01*
X132335584Y-92435163D01*
X132335586Y-92435162D01*
X132481358Y-92374781D01*
X132636107Y-92344000D01*
X132793893Y-92344000D01*
X132948642Y-92374781D01*
G37*
G36*
X101553674Y-92478465D02*
G01*
X101591367Y-92489899D01*
X101626103Y-92508466D01*
X101656548Y-92533452D01*
X101681534Y-92563897D01*
X101700101Y-92598633D01*
X101711535Y-92636326D01*
X101716000Y-92681661D01*
X101716000Y-93518339D01*
X101711535Y-93563674D01*
X101700101Y-93601367D01*
X101681534Y-93636103D01*
X101656548Y-93666548D01*
X101626103Y-93691534D01*
X101591367Y-93710101D01*
X101553674Y-93721535D01*
X101508339Y-93726000D01*
X100421661Y-93726000D01*
X100376326Y-93721535D01*
X100338633Y-93710101D01*
X100303897Y-93691534D01*
X100273452Y-93666548D01*
X100248466Y-93636103D01*
X100229899Y-93601367D01*
X100218465Y-93563674D01*
X100214000Y-93518339D01*
X100214000Y-92681661D01*
X100218465Y-92636326D01*
X100229899Y-92598633D01*
X100248466Y-92563897D01*
X100273452Y-92533452D01*
X100303897Y-92508466D01*
X100338633Y-92489899D01*
X100376326Y-92478465D01*
X100421661Y-92474000D01*
X101508339Y-92474000D01*
X101553674Y-92478465D01*
G37*
G36*
X94296000Y-93661000D02*
G01*
X92394000Y-93661000D01*
X92394000Y-91759000D01*
X94296000Y-91759000D01*
X94296000Y-93661000D01*
G37*
G36*
X96162395Y-91795546D02*
G01*
X96335466Y-91867234D01*
X96372130Y-91891732D01*
X96491227Y-91971310D01*
X96623690Y-92103773D01*
X96623691Y-92103775D01*
X96727766Y-92259534D01*
X96799454Y-92432605D01*
X96836000Y-92616333D01*
X96836000Y-92803667D01*
X96799454Y-92987395D01*
X96727766Y-93160466D01*
X96692353Y-93213465D01*
X96623690Y-93316227D01*
X96491227Y-93448690D01*
X96434661Y-93486486D01*
X96335466Y-93552766D01*
X96162395Y-93624454D01*
X95978667Y-93661000D01*
X95791333Y-93661000D01*
X95607605Y-93624454D01*
X95434534Y-93552766D01*
X95335339Y-93486486D01*
X95278773Y-93448690D01*
X95146310Y-93316227D01*
X95077647Y-93213465D01*
X95042234Y-93160466D01*
X94970546Y-92987395D01*
X94934000Y-92803667D01*
X94934000Y-92616333D01*
X94970546Y-92432605D01*
X95042234Y-92259534D01*
X95146309Y-92103775D01*
X95146310Y-92103773D01*
X95278773Y-91971310D01*
X95397870Y-91891732D01*
X95434534Y-91867234D01*
X95607605Y-91795546D01*
X95791333Y-91759000D01*
X95978667Y-91759000D01*
X96162395Y-91795546D01*
G37*
G36*
X171666000Y-91921000D02*
G01*
X169964000Y-91921000D01*
X169964000Y-91119000D01*
X171666000Y-91119000D01*
X171666000Y-91921000D01*
G37*
G36*
X159741000Y-91851000D02*
G01*
X158089000Y-91851000D01*
X158089000Y-90449000D01*
X159741000Y-90449000D01*
X159741000Y-91851000D01*
G37*
G36*
X151791000Y-91851000D02*
G01*
X150139000Y-91851000D01*
X150139000Y-90449000D01*
X151791000Y-90449000D01*
X151791000Y-91851000D01*
G37*
G36*
X101553674Y-90428465D02*
G01*
X101591367Y-90439899D01*
X101626103Y-90458466D01*
X101656548Y-90483452D01*
X101681534Y-90513897D01*
X101700101Y-90548633D01*
X101711535Y-90586326D01*
X101716000Y-90631661D01*
X101716000Y-91468339D01*
X101711535Y-91513674D01*
X101700101Y-91551367D01*
X101681534Y-91586103D01*
X101656548Y-91616548D01*
X101626103Y-91641534D01*
X101591367Y-91660101D01*
X101553674Y-91671535D01*
X101508339Y-91676000D01*
X100421661Y-91676000D01*
X100376326Y-91671535D01*
X100338633Y-91660101D01*
X100303897Y-91641534D01*
X100273452Y-91616548D01*
X100248466Y-91586103D01*
X100229899Y-91551367D01*
X100218465Y-91513674D01*
X100214000Y-91468339D01*
X100214000Y-90631661D01*
X100218465Y-90586326D01*
X100229899Y-90548633D01*
X100248466Y-90513897D01*
X100273452Y-90483452D01*
X100303897Y-90458466D01*
X100338633Y-90439899D01*
X100376326Y-90428465D01*
X100421661Y-90424000D01*
X101508339Y-90424000D01*
X101553674Y-90428465D01*
G37*
G36*
X181951601Y-90434397D02*
G01*
X181990305Y-90442096D01*
X182022340Y-90455365D01*
X182099680Y-90487400D01*
X182198115Y-90553173D01*
X182281827Y-90636885D01*
X182347600Y-90735320D01*
X182392904Y-90844696D01*
X182416000Y-90960805D01*
X182416000Y-91079195D01*
X182392904Y-91195304D01*
X182347600Y-91304680D01*
X182281827Y-91403115D01*
X182198115Y-91486827D01*
X182099680Y-91552600D01*
X182022340Y-91584635D01*
X181990305Y-91597904D01*
X181951601Y-91605603D01*
X181874195Y-91621000D01*
X181755805Y-91621000D01*
X181678399Y-91605603D01*
X181639695Y-91597904D01*
X181607660Y-91584635D01*
X181530320Y-91552600D01*
X181431885Y-91486827D01*
X181348173Y-91403115D01*
X181282400Y-91304680D01*
X181237096Y-91195304D01*
X181214000Y-91079195D01*
X181214000Y-90960805D01*
X181237096Y-90844696D01*
X181282400Y-90735320D01*
X181348173Y-90636885D01*
X181431885Y-90553173D01*
X181530320Y-90487400D01*
X181607660Y-90455365D01*
X181639695Y-90442096D01*
X181678399Y-90434397D01*
X181755805Y-90419000D01*
X181874195Y-90419000D01*
X181951601Y-90434397D01*
G37*
G36*
X167468674Y-90058465D02*
G01*
X167506367Y-90069899D01*
X167541103Y-90088466D01*
X167571548Y-90113452D01*
X167596534Y-90143897D01*
X167615101Y-90178633D01*
X167626535Y-90216326D01*
X167631000Y-90261661D01*
X167631000Y-91348339D01*
X167626535Y-91393674D01*
X167615101Y-91431367D01*
X167596534Y-91466103D01*
X167571548Y-91496548D01*
X167541103Y-91521534D01*
X167506367Y-91540101D01*
X167468674Y-91551535D01*
X167423339Y-91556000D01*
X166586661Y-91556000D01*
X166541326Y-91551535D01*
X166503633Y-91540101D01*
X166468897Y-91521534D01*
X166438452Y-91496548D01*
X166413466Y-91466103D01*
X166394899Y-91431367D01*
X166383465Y-91393674D01*
X166379000Y-91348339D01*
X166379000Y-90261661D01*
X166383465Y-90216326D01*
X166394899Y-90178633D01*
X166413466Y-90143897D01*
X166438452Y-90113452D01*
X166468897Y-90088466D01*
X166503633Y-90069899D01*
X166541326Y-90058465D01*
X166586661Y-90054000D01*
X167423339Y-90054000D01*
X167468674Y-90058465D01*
G37*
G36*
X165418674Y-90058465D02*
G01*
X165456367Y-90069899D01*
X165491103Y-90088466D01*
X165521548Y-90113452D01*
X165546534Y-90143897D01*
X165565101Y-90178633D01*
X165576535Y-90216326D01*
X165581000Y-90261661D01*
X165581000Y-91348339D01*
X165576535Y-91393674D01*
X165565101Y-91431367D01*
X165546534Y-91466103D01*
X165521548Y-91496548D01*
X165491103Y-91521534D01*
X165456367Y-91540101D01*
X165418674Y-91551535D01*
X165373339Y-91556000D01*
X164536661Y-91556000D01*
X164491326Y-91551535D01*
X164453633Y-91540101D01*
X164418897Y-91521534D01*
X164388452Y-91496548D01*
X164363466Y-91466103D01*
X164344899Y-91431367D01*
X164333465Y-91393674D01*
X164329000Y-91348339D01*
X164329000Y-90261661D01*
X164333465Y-90216326D01*
X164344899Y-90178633D01*
X164363466Y-90143897D01*
X164388452Y-90113452D01*
X164418897Y-90088466D01*
X164453633Y-90069899D01*
X164491326Y-90058465D01*
X164536661Y-90054000D01*
X165373339Y-90054000D01*
X165418674Y-90058465D01*
G37*
G36*
X171666000Y-90821000D02*
G01*
X169964000Y-90821000D01*
X169964000Y-90019000D01*
X171666000Y-90019000D01*
X171666000Y-90821000D01*
G37*
G36*
X146638674Y-89303465D02*
G01*
X146676367Y-89314899D01*
X146711103Y-89333466D01*
X146741548Y-89358452D01*
X146766534Y-89388897D01*
X146785101Y-89423633D01*
X146796535Y-89461326D01*
X146801000Y-89506661D01*
X146801000Y-90343339D01*
X146796535Y-90388674D01*
X146785101Y-90426367D01*
X146766534Y-90461103D01*
X146741548Y-90491548D01*
X146711103Y-90516534D01*
X146676367Y-90535101D01*
X146638674Y-90546535D01*
X146593339Y-90551000D01*
X145506661Y-90551000D01*
X145461326Y-90546535D01*
X145423633Y-90535101D01*
X145388897Y-90516534D01*
X145358452Y-90491548D01*
X145333466Y-90461103D01*
X145314899Y-90426367D01*
X145303465Y-90388674D01*
X145299000Y-90343339D01*
X145299000Y-89506661D01*
X145303465Y-89461326D01*
X145314899Y-89423633D01*
X145333466Y-89388897D01*
X145358452Y-89358452D01*
X145388897Y-89333466D01*
X145423633Y-89314899D01*
X145461326Y-89303465D01*
X145506661Y-89299000D01*
X146593339Y-89299000D01*
X146638674Y-89303465D01*
G37*
G36*
X171666000Y-89721000D02*
G01*
X169964000Y-89721000D01*
X169964000Y-88919000D01*
X171666000Y-88919000D01*
X171666000Y-89721000D01*
G37*
G36*
X132948642Y-87494781D02*
G01*
X133078248Y-87548466D01*
X133094416Y-87555163D01*
X133225608Y-87642822D01*
X133337178Y-87754392D01*
X133358413Y-87786173D01*
X133424838Y-87885586D01*
X133485219Y-88031358D01*
X133516000Y-88186107D01*
X133516000Y-88343893D01*
X133485219Y-88498642D01*
X133424838Y-88644414D01*
X133424837Y-88644416D01*
X133337178Y-88775608D01*
X133225608Y-88887178D01*
X133094416Y-88974837D01*
X133094415Y-88974838D01*
X133094414Y-88974838D01*
X132948642Y-89035219D01*
X132793893Y-89066000D01*
X132636107Y-89066000D01*
X132481358Y-89035219D01*
X132335586Y-88974838D01*
X132335585Y-88974838D01*
X132335584Y-88974837D01*
X132204392Y-88887178D01*
X132092822Y-88775608D01*
X132005163Y-88644416D01*
X132005162Y-88644414D01*
X131944781Y-88498642D01*
X131914000Y-88343893D01*
X131914000Y-88186107D01*
X131944781Y-88031358D01*
X132005162Y-87885586D01*
X132071587Y-87786173D01*
X132092822Y-87754392D01*
X132204392Y-87642822D01*
X132335584Y-87555163D01*
X132351752Y-87548466D01*
X132481358Y-87494781D01*
X132636107Y-87464000D01*
X132793893Y-87464000D01*
X132948642Y-87494781D01*
G37*
G36*
X167468674Y-87518465D02*
G01*
X167506367Y-87529899D01*
X167541103Y-87548466D01*
X167571548Y-87573452D01*
X167596534Y-87603897D01*
X167615101Y-87638633D01*
X167626535Y-87676326D01*
X167631000Y-87721661D01*
X167631000Y-88808339D01*
X167626535Y-88853674D01*
X167615101Y-88891367D01*
X167596534Y-88926103D01*
X167571548Y-88956548D01*
X167541103Y-88981534D01*
X167506367Y-89000101D01*
X167468674Y-89011535D01*
X167423339Y-89016000D01*
X166586661Y-89016000D01*
X166541326Y-89011535D01*
X166503633Y-89000101D01*
X166468897Y-88981534D01*
X166438452Y-88956548D01*
X166413466Y-88926103D01*
X166394899Y-88891367D01*
X166383465Y-88853674D01*
X166379000Y-88808339D01*
X166379000Y-87721661D01*
X166383465Y-87676326D01*
X166394899Y-87638633D01*
X166413466Y-87603897D01*
X166438452Y-87573452D01*
X166468897Y-87548466D01*
X166503633Y-87529899D01*
X166541326Y-87518465D01*
X166586661Y-87514000D01*
X167423339Y-87514000D01*
X167468674Y-87518465D01*
G37*
G36*
X165418674Y-87518465D02*
G01*
X165456367Y-87529899D01*
X165491103Y-87548466D01*
X165521548Y-87573452D01*
X165546534Y-87603897D01*
X165565101Y-87638633D01*
X165576535Y-87676326D01*
X165581000Y-87721661D01*
X165581000Y-88808339D01*
X165576535Y-88853674D01*
X165565101Y-88891367D01*
X165546534Y-88926103D01*
X165521548Y-88956548D01*
X165491103Y-88981534D01*
X165456367Y-89000101D01*
X165418674Y-89011535D01*
X165373339Y-89016000D01*
X164536661Y-89016000D01*
X164491326Y-89011535D01*
X164453633Y-89000101D01*
X164418897Y-88981534D01*
X164388452Y-88956548D01*
X164363466Y-88926103D01*
X164344899Y-88891367D01*
X164333465Y-88853674D01*
X164329000Y-88808339D01*
X164329000Y-87721661D01*
X164333465Y-87676326D01*
X164344899Y-87638633D01*
X164363466Y-87603897D01*
X164388452Y-87573452D01*
X164418897Y-87548466D01*
X164453633Y-87529899D01*
X164491326Y-87518465D01*
X164536661Y-87514000D01*
X165373339Y-87514000D01*
X165418674Y-87518465D01*
G37*
G36*
X137748674Y-87398465D02*
G01*
X137786367Y-87409899D01*
X137821103Y-87428466D01*
X137851548Y-87453452D01*
X137876534Y-87483897D01*
X137895101Y-87518633D01*
X137906535Y-87556326D01*
X137911000Y-87601661D01*
X137911000Y-88438339D01*
X137906535Y-88483674D01*
X137895101Y-88521367D01*
X137876534Y-88556103D01*
X137851548Y-88586548D01*
X137821103Y-88611534D01*
X137786367Y-88630101D01*
X137748674Y-88641535D01*
X137703339Y-88646000D01*
X136616661Y-88646000D01*
X136571326Y-88641535D01*
X136533633Y-88630101D01*
X136498897Y-88611534D01*
X136468452Y-88586548D01*
X136443466Y-88556103D01*
X136424899Y-88521367D01*
X136413465Y-88483674D01*
X136409000Y-88438339D01*
X136409000Y-87601661D01*
X136413465Y-87556326D01*
X136424899Y-87518633D01*
X136443466Y-87483897D01*
X136468452Y-87453452D01*
X136498897Y-87428466D01*
X136533633Y-87409899D01*
X136571326Y-87398465D01*
X136616661Y-87394000D01*
X137703339Y-87394000D01*
X137748674Y-87398465D01*
G37*
G36*
X171666000Y-88621000D02*
G01*
X169964000Y-88621000D01*
X169964000Y-87819000D01*
X171666000Y-87819000D01*
X171666000Y-88621000D01*
G37*
G36*
X146638674Y-87253465D02*
G01*
X146676367Y-87264899D01*
X146711103Y-87283466D01*
X146741548Y-87308452D01*
X146766534Y-87338897D01*
X146785101Y-87373633D01*
X146796535Y-87411326D01*
X146801000Y-87456661D01*
X146801000Y-88293339D01*
X146796535Y-88338674D01*
X146785101Y-88376367D01*
X146766534Y-88411103D01*
X146741548Y-88441548D01*
X146711103Y-88466534D01*
X146676367Y-88485101D01*
X146638674Y-88496535D01*
X146593339Y-88501000D01*
X145506661Y-88501000D01*
X145461326Y-88496535D01*
X145423633Y-88485101D01*
X145388897Y-88466534D01*
X145358452Y-88441548D01*
X145333466Y-88411103D01*
X145314899Y-88376367D01*
X145303465Y-88338674D01*
X145299000Y-88293339D01*
X145299000Y-87456661D01*
X145303465Y-87411326D01*
X145314899Y-87373633D01*
X145333466Y-87338897D01*
X145358452Y-87308452D01*
X145388897Y-87283466D01*
X145423633Y-87264899D01*
X145461326Y-87253465D01*
X145506661Y-87249000D01*
X146593339Y-87249000D01*
X146638674Y-87253465D01*
G37*
G36*
X171666000Y-87521000D02*
G01*
X169964000Y-87521000D01*
X169964000Y-86719000D01*
X171666000Y-86719000D01*
X171666000Y-87521000D01*
G37*
G36*
X101553674Y-86128465D02*
G01*
X101591367Y-86139899D01*
X101626103Y-86158466D01*
X101656548Y-86183452D01*
X101681534Y-86213897D01*
X101700101Y-86248633D01*
X101711535Y-86286326D01*
X101716000Y-86331661D01*
X101716000Y-87168339D01*
X101711535Y-87213674D01*
X101700101Y-87251367D01*
X101681534Y-87286103D01*
X101656548Y-87316548D01*
X101626103Y-87341534D01*
X101591367Y-87360101D01*
X101553674Y-87371535D01*
X101508339Y-87376000D01*
X100421661Y-87376000D01*
X100376326Y-87371535D01*
X100338633Y-87360101D01*
X100303897Y-87341534D01*
X100273452Y-87316548D01*
X100248466Y-87286103D01*
X100229899Y-87251367D01*
X100218465Y-87213674D01*
X100214000Y-87168339D01*
X100214000Y-86331661D01*
X100218465Y-86286326D01*
X100229899Y-86248633D01*
X100248466Y-86213897D01*
X100273452Y-86183452D01*
X100303897Y-86158466D01*
X100338633Y-86139899D01*
X100376326Y-86128465D01*
X100421661Y-86124000D01*
X101508339Y-86124000D01*
X101553674Y-86128465D01*
G37*
G36*
X151791000Y-87351000D02*
G01*
X150139000Y-87351000D01*
X150139000Y-85949000D01*
X151791000Y-85949000D01*
X151791000Y-87351000D01*
G37*
G36*
X159741000Y-87351000D02*
G01*
X158089000Y-87351000D01*
X158089000Y-85949000D01*
X159741000Y-85949000D01*
X159741000Y-87351000D01*
G37*
G36*
X121467374Y-80523571D02*
G01*
X121467379Y-80523577D01*
X122526626Y-81582824D01*
X122526632Y-81582829D01*
X123164430Y-82220627D01*
X123164435Y-82220633D01*
X123657997Y-82714195D01*
X123658003Y-82714200D01*
X124295801Y-83351998D01*
X124295806Y-83352004D01*
X124789368Y-83845566D01*
X124789374Y-83845571D01*
X125427172Y-84483369D01*
X125427177Y-84483375D01*
X126486424Y-85542622D01*
X126486430Y-85542627D01*
X127035845Y-86092042D01*
X125903060Y-87224827D01*
X125425763Y-86747530D01*
X125425757Y-86747525D01*
X124222274Y-85544042D01*
X124222269Y-85544036D01*
X123728707Y-85050474D01*
X123728701Y-85050469D01*
X123090903Y-84412671D01*
X123090898Y-84412665D01*
X122597336Y-83919103D01*
X122597330Y-83919098D01*
X121959532Y-83281300D01*
X121959527Y-83281294D01*
X121465965Y-82787732D01*
X121465959Y-82787727D01*
X120262476Y-81584244D01*
X120262471Y-81584238D01*
X119785173Y-81106940D01*
X120917958Y-79974155D01*
X121467374Y-80523571D01*
G37*
G36*
X118974827Y-81106940D02*
G01*
X118497530Y-81584238D01*
X113334238Y-86747530D01*
X112856940Y-87224827D01*
X111724155Y-86092042D01*
X112273566Y-85542631D01*
X112273577Y-85542622D01*
X112289841Y-85526357D01*
X113316559Y-84499639D01*
X113332824Y-84483375D01*
X113332833Y-84483364D01*
X113970622Y-83845575D01*
X113970633Y-83845566D01*
X113986898Y-83829302D01*
X113986897Y-83829301D01*
X114447930Y-83368268D01*
X114447931Y-83368269D01*
X114464195Y-83352004D01*
X114464204Y-83351993D01*
X115101993Y-82714204D01*
X115102004Y-82714195D01*
X115118269Y-82697931D01*
X115118268Y-82697930D01*
X115579301Y-82236897D01*
X115579302Y-82236898D01*
X115595566Y-82220633D01*
X115595575Y-82220622D01*
X116233364Y-81582833D01*
X116233375Y-81582824D01*
X116249639Y-81566559D01*
X117276357Y-80539841D01*
X117292622Y-80523577D01*
X117292631Y-80523566D01*
X117842042Y-79974155D01*
X118974827Y-81106940D01*
G37*
G36*
X96836000Y-86676000D02*
G01*
X94934000Y-86676000D01*
X94934000Y-84774000D01*
X96836000Y-84774000D01*
X96836000Y-86676000D01*
G37*
G36*
X93622395Y-84810546D02*
G01*
X93795466Y-84882234D01*
X93795467Y-84882235D01*
X93951227Y-84986310D01*
X94083690Y-85118773D01*
X94083691Y-85118775D01*
X94187766Y-85274534D01*
X94259454Y-85447605D01*
X94296000Y-85631333D01*
X94296000Y-85818667D01*
X94259454Y-86002395D01*
X94187766Y-86175466D01*
X94168816Y-86203827D01*
X94083690Y-86331227D01*
X93951227Y-86463690D01*
X93887751Y-86506103D01*
X93795466Y-86567766D01*
X93622395Y-86639454D01*
X93438667Y-86676000D01*
X93251333Y-86676000D01*
X93067605Y-86639454D01*
X92894534Y-86567766D01*
X92802249Y-86506103D01*
X92738773Y-86463690D01*
X92606310Y-86331227D01*
X92521184Y-86203827D01*
X92502234Y-86175466D01*
X92430546Y-86002395D01*
X92394000Y-85818667D01*
X92394000Y-85631333D01*
X92430546Y-85447605D01*
X92502234Y-85274534D01*
X92606309Y-85118775D01*
X92606310Y-85118773D01*
X92738773Y-84986310D01*
X92894533Y-84882235D01*
X92894534Y-84882234D01*
X93067605Y-84810546D01*
X93251333Y-84774000D01*
X93438667Y-84774000D01*
X93622395Y-84810546D01*
G37*
G36*
X137748674Y-85348465D02*
G01*
X137786367Y-85359899D01*
X137821103Y-85378466D01*
X137851548Y-85403452D01*
X137876534Y-85433897D01*
X137895101Y-85468633D01*
X137906535Y-85506326D01*
X137911000Y-85551661D01*
X137911000Y-86388339D01*
X137906535Y-86433674D01*
X137895101Y-86471367D01*
X137876534Y-86506103D01*
X137851548Y-86536548D01*
X137821103Y-86561534D01*
X137786367Y-86580101D01*
X137748674Y-86591535D01*
X137703339Y-86596000D01*
X136616661Y-86596000D01*
X136571326Y-86591535D01*
X136533633Y-86580101D01*
X136498897Y-86561534D01*
X136468452Y-86536548D01*
X136443466Y-86506103D01*
X136424899Y-86471367D01*
X136413465Y-86433674D01*
X136409000Y-86388339D01*
X136409000Y-85551661D01*
X136413465Y-85506326D01*
X136424899Y-85468633D01*
X136443466Y-85433897D01*
X136468452Y-85403452D01*
X136498897Y-85378466D01*
X136533633Y-85359899D01*
X136571326Y-85348465D01*
X136616661Y-85344000D01*
X137703339Y-85344000D01*
X137748674Y-85348465D01*
G37*
G36*
X167468674Y-84978465D02*
G01*
X167506367Y-84989899D01*
X167541103Y-85008466D01*
X167571548Y-85033452D01*
X167596534Y-85063897D01*
X167615101Y-85098633D01*
X167626535Y-85136326D01*
X167631000Y-85181661D01*
X167631000Y-86268339D01*
X167626535Y-86313674D01*
X167615101Y-86351367D01*
X167596534Y-86386103D01*
X167571548Y-86416548D01*
X167541103Y-86441534D01*
X167506367Y-86460101D01*
X167468674Y-86471535D01*
X167423339Y-86476000D01*
X166586661Y-86476000D01*
X166541326Y-86471535D01*
X166503633Y-86460101D01*
X166468897Y-86441534D01*
X166438452Y-86416548D01*
X166413466Y-86386103D01*
X166394899Y-86351367D01*
X166383465Y-86313674D01*
X166379000Y-86268339D01*
X166379000Y-85181661D01*
X166383465Y-85136326D01*
X166394899Y-85098633D01*
X166413466Y-85063897D01*
X166438452Y-85033452D01*
X166468897Y-85008466D01*
X166503633Y-84989899D01*
X166541326Y-84978465D01*
X166586661Y-84974000D01*
X167423339Y-84974000D01*
X167468674Y-84978465D01*
G37*
G36*
X165418674Y-84978465D02*
G01*
X165456367Y-84989899D01*
X165491103Y-85008466D01*
X165521548Y-85033452D01*
X165546534Y-85063897D01*
X165565101Y-85098633D01*
X165576535Y-85136326D01*
X165581000Y-85181661D01*
X165581000Y-86268339D01*
X165576535Y-86313674D01*
X165565101Y-86351367D01*
X165546534Y-86386103D01*
X165521548Y-86416548D01*
X165491103Y-86441534D01*
X165456367Y-86460101D01*
X165418674Y-86471535D01*
X165373339Y-86476000D01*
X164536661Y-86476000D01*
X164491326Y-86471535D01*
X164453633Y-86460101D01*
X164418897Y-86441534D01*
X164388452Y-86416548D01*
X164363466Y-86386103D01*
X164344899Y-86351367D01*
X164333465Y-86313674D01*
X164329000Y-86268339D01*
X164329000Y-85181661D01*
X164333465Y-85136326D01*
X164344899Y-85098633D01*
X164363466Y-85063897D01*
X164388452Y-85033452D01*
X164418897Y-85008466D01*
X164453633Y-84989899D01*
X164491326Y-84978465D01*
X164536661Y-84974000D01*
X165373339Y-84974000D01*
X165418674Y-84978465D01*
G37*
G36*
X171666000Y-86421000D02*
G01*
X169964000Y-86421000D01*
X169964000Y-85619000D01*
X171666000Y-85619000D01*
X171666000Y-86421000D01*
G37*
G36*
X101553674Y-84078465D02*
G01*
X101591367Y-84089899D01*
X101626103Y-84108466D01*
X101656548Y-84133452D01*
X101681534Y-84163897D01*
X101700101Y-84198633D01*
X101711535Y-84236326D01*
X101716000Y-84281661D01*
X101716000Y-85118339D01*
X101711535Y-85163674D01*
X101700101Y-85201367D01*
X101681534Y-85236103D01*
X101656548Y-85266548D01*
X101626103Y-85291534D01*
X101591367Y-85310101D01*
X101553674Y-85321535D01*
X101508339Y-85326000D01*
X100421661Y-85326000D01*
X100376326Y-85321535D01*
X100338633Y-85310101D01*
X100303897Y-85291534D01*
X100273452Y-85266548D01*
X100248466Y-85236103D01*
X100229899Y-85201367D01*
X100218465Y-85163674D01*
X100214000Y-85118339D01*
X100214000Y-84281661D01*
X100218465Y-84236326D01*
X100229899Y-84198633D01*
X100248466Y-84163897D01*
X100273452Y-84133452D01*
X100303897Y-84108466D01*
X100338633Y-84089899D01*
X100376326Y-84078465D01*
X100421661Y-84074000D01*
X101508339Y-84074000D01*
X101553674Y-84078465D01*
G37*
G36*
X171666000Y-85321000D02*
G01*
X169964000Y-85321000D01*
X169964000Y-84519000D01*
X171666000Y-84519000D01*
X171666000Y-85321000D01*
G37*
G36*
X171666000Y-84221000D02*
G01*
X169964000Y-84221000D01*
X169964000Y-83419000D01*
X171666000Y-83419000D01*
X171666000Y-84221000D01*
G37*
G36*
X167468674Y-82438465D02*
G01*
X167506367Y-82449899D01*
X167541103Y-82468466D01*
X167571548Y-82493452D01*
X167596534Y-82523897D01*
X167615101Y-82558633D01*
X167626535Y-82596326D01*
X167631000Y-82641661D01*
X167631000Y-83728339D01*
X167626535Y-83773674D01*
X167615101Y-83811367D01*
X167596534Y-83846103D01*
X167571548Y-83876548D01*
X167541103Y-83901534D01*
X167506367Y-83920101D01*
X167468674Y-83931535D01*
X167423339Y-83936000D01*
X166586661Y-83936000D01*
X166541326Y-83931535D01*
X166503633Y-83920101D01*
X166468897Y-83901534D01*
X166438452Y-83876548D01*
X166413466Y-83846103D01*
X166394899Y-83811367D01*
X166383465Y-83773674D01*
X166379000Y-83728339D01*
X166379000Y-82641661D01*
X166383465Y-82596326D01*
X166394899Y-82558633D01*
X166413466Y-82523897D01*
X166438452Y-82493452D01*
X166468897Y-82468466D01*
X166503633Y-82449899D01*
X166541326Y-82438465D01*
X166586661Y-82434000D01*
X167423339Y-82434000D01*
X167468674Y-82438465D01*
G37*
G36*
X165418674Y-82438465D02*
G01*
X165456367Y-82449899D01*
X165491103Y-82468466D01*
X165521548Y-82493452D01*
X165546534Y-82523897D01*
X165565101Y-82558633D01*
X165576535Y-82596326D01*
X165581000Y-82641661D01*
X165581000Y-83728339D01*
X165576535Y-83773674D01*
X165565101Y-83811367D01*
X165546534Y-83846103D01*
X165521548Y-83876548D01*
X165491103Y-83901534D01*
X165456367Y-83920101D01*
X165418674Y-83931535D01*
X165373339Y-83936000D01*
X164536661Y-83936000D01*
X164491326Y-83931535D01*
X164453633Y-83920101D01*
X164418897Y-83901534D01*
X164388452Y-83876548D01*
X164363466Y-83846103D01*
X164344899Y-83811367D01*
X164333465Y-83773674D01*
X164329000Y-83728339D01*
X164329000Y-82641661D01*
X164333465Y-82596326D01*
X164344899Y-82558633D01*
X164363466Y-82523897D01*
X164388452Y-82493452D01*
X164418897Y-82468466D01*
X164453633Y-82449899D01*
X164491326Y-82438465D01*
X164536661Y-82434000D01*
X165373339Y-82434000D01*
X165418674Y-82438465D01*
G37*
G36*
X181951601Y-82434397D02*
G01*
X181990305Y-82442096D01*
X182009143Y-82449899D01*
X182099680Y-82487400D01*
X182198115Y-82553173D01*
X182281827Y-82636885D01*
X182347600Y-82735320D01*
X182392904Y-82844696D01*
X182416000Y-82960805D01*
X182416000Y-83079195D01*
X182392904Y-83195304D01*
X182347600Y-83304680D01*
X182281827Y-83403115D01*
X182198115Y-83486827D01*
X182099680Y-83552600D01*
X182022340Y-83584635D01*
X181990305Y-83597904D01*
X181951601Y-83605603D01*
X181874195Y-83621000D01*
X181755805Y-83621000D01*
X181678399Y-83605603D01*
X181639695Y-83597904D01*
X181607660Y-83584635D01*
X181530320Y-83552600D01*
X181431885Y-83486827D01*
X181348173Y-83403115D01*
X181282400Y-83304680D01*
X181237096Y-83195304D01*
X181214000Y-83079195D01*
X181214000Y-82960805D01*
X181237096Y-82844696D01*
X181282400Y-82735320D01*
X181348173Y-82636885D01*
X181431885Y-82553173D01*
X181530320Y-82487400D01*
X181620857Y-82449899D01*
X181639695Y-82442096D01*
X181678399Y-82434397D01*
X181755805Y-82419000D01*
X181874195Y-82419000D01*
X181951601Y-82434397D01*
G37*
G36*
X153936000Y-81546000D02*
G01*
X152134000Y-81546000D01*
X152134000Y-79744000D01*
X153936000Y-79744000D01*
X153936000Y-81546000D01*
G37*
G36*
X155688512Y-79748927D02*
G01*
X155837812Y-79778624D01*
X156001784Y-79846544D01*
X156149354Y-79945147D01*
X156274853Y-80070646D01*
X156373456Y-80218216D01*
X156441376Y-80382188D01*
X156476000Y-80556259D01*
X156476000Y-80733741D01*
X156441376Y-80907812D01*
X156373456Y-81071784D01*
X156274853Y-81219354D01*
X156149354Y-81344853D01*
X156001784Y-81443456D01*
X155837812Y-81511376D01*
X155688512Y-81541073D01*
X155663742Y-81546000D01*
X155486258Y-81546000D01*
X155461488Y-81541073D01*
X155312188Y-81511376D01*
X155148216Y-81443456D01*
X155000646Y-81344853D01*
X154875147Y-81219354D01*
X154776544Y-81071784D01*
X154708624Y-80907812D01*
X154674000Y-80733741D01*
X154674000Y-80556259D01*
X154708624Y-80382188D01*
X154776544Y-80218216D01*
X154875147Y-80070646D01*
X155000646Y-79945147D01*
X155148216Y-79846544D01*
X155312188Y-79778624D01*
X155461488Y-79748927D01*
X155486258Y-79744000D01*
X155663742Y-79744000D01*
X155688512Y-79748927D01*
G37*
G36*
X158228512Y-79748927D02*
G01*
X158377812Y-79778624D01*
X158541784Y-79846544D01*
X158689354Y-79945147D01*
X158814853Y-80070646D01*
X158913456Y-80218216D01*
X158981376Y-80382188D01*
X159016000Y-80556259D01*
X159016000Y-80733741D01*
X158981376Y-80907812D01*
X158913456Y-81071784D01*
X158814853Y-81219354D01*
X158689354Y-81344853D01*
X158541784Y-81443456D01*
X158377812Y-81511376D01*
X158228512Y-81541073D01*
X158203742Y-81546000D01*
X158026258Y-81546000D01*
X158001488Y-81541073D01*
X157852188Y-81511376D01*
X157688216Y-81443456D01*
X157540646Y-81344853D01*
X157415147Y-81219354D01*
X157316544Y-81071784D01*
X157248624Y-80907812D01*
X157214000Y-80733741D01*
X157214000Y-80556259D01*
X157248624Y-80382188D01*
X157316544Y-80218216D01*
X157415147Y-80070646D01*
X157540646Y-79945147D01*
X157688216Y-79846544D01*
X157852188Y-79778624D01*
X158001488Y-79748927D01*
X158026258Y-79744000D01*
X158203742Y-79744000D01*
X158228512Y-79748927D01*
G37*
G36*
X133938674Y-80168465D02*
G01*
X133976367Y-80179899D01*
X134011103Y-80198466D01*
X134041548Y-80223452D01*
X134066534Y-80253897D01*
X134085101Y-80288633D01*
X134096535Y-80326326D01*
X134101000Y-80371661D01*
X134101000Y-81208339D01*
X134096535Y-81253674D01*
X134085101Y-81291367D01*
X134066534Y-81326103D01*
X134041548Y-81356548D01*
X134011103Y-81381534D01*
X133976367Y-81400101D01*
X133938674Y-81411535D01*
X133893339Y-81416000D01*
X132806661Y-81416000D01*
X132761326Y-81411535D01*
X132723633Y-81400101D01*
X132688897Y-81381534D01*
X132658452Y-81356548D01*
X132633466Y-81326103D01*
X132614899Y-81291367D01*
X132603465Y-81253674D01*
X132599000Y-81208339D01*
X132599000Y-80371661D01*
X132603465Y-80326326D01*
X132614899Y-80288633D01*
X132633466Y-80253897D01*
X132658452Y-80223452D01*
X132688897Y-80198466D01*
X132723633Y-80179899D01*
X132761326Y-80168465D01*
X132806661Y-80164000D01*
X133893339Y-80164000D01*
X133938674Y-80168465D01*
G37*
G36*
X107903674Y-80168465D02*
G01*
X107941367Y-80179899D01*
X107976103Y-80198466D01*
X108006548Y-80223452D01*
X108031534Y-80253897D01*
X108050101Y-80288633D01*
X108061535Y-80326326D01*
X108066000Y-80371661D01*
X108066000Y-81208339D01*
X108061535Y-81253674D01*
X108050101Y-81291367D01*
X108031534Y-81326103D01*
X108006548Y-81356548D01*
X107976103Y-81381534D01*
X107941367Y-81400101D01*
X107903674Y-81411535D01*
X107858339Y-81416000D01*
X106771661Y-81416000D01*
X106726326Y-81411535D01*
X106688633Y-81400101D01*
X106653897Y-81381534D01*
X106623452Y-81356548D01*
X106598466Y-81326103D01*
X106579899Y-81291367D01*
X106568465Y-81253674D01*
X106564000Y-81208339D01*
X106564000Y-80371661D01*
X106568465Y-80326326D01*
X106579899Y-80288633D01*
X106598466Y-80253897D01*
X106623452Y-80223452D01*
X106653897Y-80198466D01*
X106688633Y-80179899D01*
X106726326Y-80168465D01*
X106771661Y-80164000D01*
X107858339Y-80164000D01*
X107903674Y-80168465D01*
G37*
G36*
X92028674Y-80168465D02*
G01*
X92066367Y-80179899D01*
X92101103Y-80198466D01*
X92131548Y-80223452D01*
X92156534Y-80253897D01*
X92175101Y-80288633D01*
X92186535Y-80326326D01*
X92191000Y-80371661D01*
X92191000Y-81208339D01*
X92186535Y-81253674D01*
X92175101Y-81291367D01*
X92156534Y-81326103D01*
X92131548Y-81356548D01*
X92101103Y-81381534D01*
X92066367Y-81400101D01*
X92028674Y-81411535D01*
X91983339Y-81416000D01*
X90896661Y-81416000D01*
X90851326Y-81411535D01*
X90813633Y-81400101D01*
X90778897Y-81381534D01*
X90748452Y-81356548D01*
X90723466Y-81326103D01*
X90704899Y-81291367D01*
X90693465Y-81253674D01*
X90689000Y-81208339D01*
X90689000Y-80371661D01*
X90693465Y-80326326D01*
X90704899Y-80288633D01*
X90723466Y-80253897D01*
X90748452Y-80223452D01*
X90778897Y-80198466D01*
X90813633Y-80179899D01*
X90851326Y-80168465D01*
X90896661Y-80164000D01*
X91983339Y-80164000D01*
X92028674Y-80168465D01*
G37*
G36*
X140288674Y-80168465D02*
G01*
X140326367Y-80179899D01*
X140361103Y-80198466D01*
X140391548Y-80223452D01*
X140416534Y-80253897D01*
X140435101Y-80288633D01*
X140446535Y-80326326D01*
X140451000Y-80371661D01*
X140451000Y-81208339D01*
X140446535Y-81253674D01*
X140435101Y-81291367D01*
X140416534Y-81326103D01*
X140391548Y-81356548D01*
X140361103Y-81381534D01*
X140326367Y-81400101D01*
X140288674Y-81411535D01*
X140243339Y-81416000D01*
X139156661Y-81416000D01*
X139111326Y-81411535D01*
X139073633Y-81400101D01*
X139038897Y-81381534D01*
X139008452Y-81356548D01*
X138983466Y-81326103D01*
X138964899Y-81291367D01*
X138953465Y-81253674D01*
X138949000Y-81208339D01*
X138949000Y-80371661D01*
X138953465Y-80326326D01*
X138964899Y-80288633D01*
X138983466Y-80253897D01*
X139008452Y-80223452D01*
X139038897Y-80198466D01*
X139073633Y-80179899D01*
X139111326Y-80168465D01*
X139156661Y-80164000D01*
X140243339Y-80164000D01*
X140288674Y-80168465D01*
G37*
G36*
X137113674Y-80168465D02*
G01*
X137151367Y-80179899D01*
X137186103Y-80198466D01*
X137216548Y-80223452D01*
X137241534Y-80253897D01*
X137260101Y-80288633D01*
X137271535Y-80326326D01*
X137276000Y-80371661D01*
X137276000Y-81208339D01*
X137271535Y-81253674D01*
X137260101Y-81291367D01*
X137241534Y-81326103D01*
X137216548Y-81356548D01*
X137186103Y-81381534D01*
X137151367Y-81400101D01*
X137113674Y-81411535D01*
X137068339Y-81416000D01*
X135981661Y-81416000D01*
X135936326Y-81411535D01*
X135898633Y-81400101D01*
X135863897Y-81381534D01*
X135833452Y-81356548D01*
X135808466Y-81326103D01*
X135789899Y-81291367D01*
X135778465Y-81253674D01*
X135774000Y-81208339D01*
X135774000Y-80371661D01*
X135778465Y-80326326D01*
X135789899Y-80288633D01*
X135808466Y-80253897D01*
X135833452Y-80223452D01*
X135863897Y-80198466D01*
X135898633Y-80179899D01*
X135936326Y-80168465D01*
X135981661Y-80164000D01*
X137068339Y-80164000D01*
X137113674Y-80168465D01*
G37*
G36*
X130763674Y-80168465D02*
G01*
X130801367Y-80179899D01*
X130836103Y-80198466D01*
X130866548Y-80223452D01*
X130891534Y-80253897D01*
X130910101Y-80288633D01*
X130921535Y-80326326D01*
X130926000Y-80371661D01*
X130926000Y-81208339D01*
X130921535Y-81253674D01*
X130910101Y-81291367D01*
X130891534Y-81326103D01*
X130866548Y-81356548D01*
X130836103Y-81381534D01*
X130801367Y-81400101D01*
X130763674Y-81411535D01*
X130718339Y-81416000D01*
X129631661Y-81416000D01*
X129586326Y-81411535D01*
X129548633Y-81400101D01*
X129513897Y-81381534D01*
X129483452Y-81356548D01*
X129458466Y-81326103D01*
X129439899Y-81291367D01*
X129428465Y-81253674D01*
X129424000Y-81208339D01*
X129424000Y-80371661D01*
X129428465Y-80326326D01*
X129439899Y-80288633D01*
X129458466Y-80253897D01*
X129483452Y-80223452D01*
X129513897Y-80198466D01*
X129548633Y-80179899D01*
X129586326Y-80168465D01*
X129631661Y-80164000D01*
X130718339Y-80164000D01*
X130763674Y-80168465D01*
G37*
G36*
X104728674Y-80168465D02*
G01*
X104766367Y-80179899D01*
X104801103Y-80198466D01*
X104831548Y-80223452D01*
X104856534Y-80253897D01*
X104875101Y-80288633D01*
X104886535Y-80326326D01*
X104891000Y-80371661D01*
X104891000Y-81208339D01*
X104886535Y-81253674D01*
X104875101Y-81291367D01*
X104856534Y-81326103D01*
X104831548Y-81356548D01*
X104801103Y-81381534D01*
X104766367Y-81400101D01*
X104728674Y-81411535D01*
X104683339Y-81416000D01*
X103596661Y-81416000D01*
X103551326Y-81411535D01*
X103513633Y-81400101D01*
X103478897Y-81381534D01*
X103448452Y-81356548D01*
X103423466Y-81326103D01*
X103404899Y-81291367D01*
X103393465Y-81253674D01*
X103389000Y-81208339D01*
X103389000Y-80371661D01*
X103393465Y-80326326D01*
X103404899Y-80288633D01*
X103423466Y-80253897D01*
X103448452Y-80223452D01*
X103478897Y-80198466D01*
X103513633Y-80179899D01*
X103551326Y-80168465D01*
X103596661Y-80164000D01*
X104683339Y-80164000D01*
X104728674Y-80168465D01*
G37*
G36*
X95203674Y-80168465D02*
G01*
X95241367Y-80179899D01*
X95276103Y-80198466D01*
X95306548Y-80223452D01*
X95331534Y-80253897D01*
X95350101Y-80288633D01*
X95361535Y-80326326D01*
X95366000Y-80371661D01*
X95366000Y-81208339D01*
X95361535Y-81253674D01*
X95350101Y-81291367D01*
X95331534Y-81326103D01*
X95306548Y-81356548D01*
X95276103Y-81381534D01*
X95241367Y-81400101D01*
X95203674Y-81411535D01*
X95158339Y-81416000D01*
X94071661Y-81416000D01*
X94026326Y-81411535D01*
X93988633Y-81400101D01*
X93953897Y-81381534D01*
X93923452Y-81356548D01*
X93898466Y-81326103D01*
X93879899Y-81291367D01*
X93868465Y-81253674D01*
X93864000Y-81208339D01*
X93864000Y-80371661D01*
X93868465Y-80326326D01*
X93879899Y-80288633D01*
X93898466Y-80253897D01*
X93923452Y-80223452D01*
X93953897Y-80198466D01*
X93988633Y-80179899D01*
X94026326Y-80168465D01*
X94071661Y-80164000D01*
X95158339Y-80164000D01*
X95203674Y-80168465D01*
G37*
G36*
X143463674Y-80168465D02*
G01*
X143501367Y-80179899D01*
X143536103Y-80198466D01*
X143566548Y-80223452D01*
X143591534Y-80253897D01*
X143610101Y-80288633D01*
X143621535Y-80326326D01*
X143626000Y-80371661D01*
X143626000Y-81208339D01*
X143621535Y-81253674D01*
X143610101Y-81291367D01*
X143591534Y-81326103D01*
X143566548Y-81356548D01*
X143536103Y-81381534D01*
X143501367Y-81400101D01*
X143463674Y-81411535D01*
X143418339Y-81416000D01*
X142331661Y-81416000D01*
X142286326Y-81411535D01*
X142248633Y-81400101D01*
X142213897Y-81381534D01*
X142183452Y-81356548D01*
X142158466Y-81326103D01*
X142139899Y-81291367D01*
X142128465Y-81253674D01*
X142124000Y-81208339D01*
X142124000Y-80371661D01*
X142128465Y-80326326D01*
X142139899Y-80288633D01*
X142158466Y-80253897D01*
X142183452Y-80223452D01*
X142213897Y-80198466D01*
X142248633Y-80179899D01*
X142286326Y-80168465D01*
X142331661Y-80164000D01*
X143418339Y-80164000D01*
X143463674Y-80168465D01*
G37*
G36*
X146638674Y-80168465D02*
G01*
X146676367Y-80179899D01*
X146711103Y-80198466D01*
X146741548Y-80223452D01*
X146766534Y-80253897D01*
X146785101Y-80288633D01*
X146796535Y-80326326D01*
X146801000Y-80371661D01*
X146801000Y-81208339D01*
X146796535Y-81253674D01*
X146785101Y-81291367D01*
X146766534Y-81326103D01*
X146741548Y-81356548D01*
X146711103Y-81381534D01*
X146676367Y-81400101D01*
X146638674Y-81411535D01*
X146593339Y-81416000D01*
X145506661Y-81416000D01*
X145461326Y-81411535D01*
X145423633Y-81400101D01*
X145388897Y-81381534D01*
X145358452Y-81356548D01*
X145333466Y-81326103D01*
X145314899Y-81291367D01*
X145303465Y-81253674D01*
X145299000Y-81208339D01*
X145299000Y-80371661D01*
X145303465Y-80326326D01*
X145314899Y-80288633D01*
X145333466Y-80253897D01*
X145358452Y-80223452D01*
X145388897Y-80198466D01*
X145423633Y-80179899D01*
X145461326Y-80168465D01*
X145506661Y-80164000D01*
X146593339Y-80164000D01*
X146638674Y-80168465D01*
G37*
G36*
X98378674Y-80168465D02*
G01*
X98416367Y-80179899D01*
X98451103Y-80198466D01*
X98481548Y-80223452D01*
X98506534Y-80253897D01*
X98525101Y-80288633D01*
X98536535Y-80326326D01*
X98541000Y-80371661D01*
X98541000Y-81208339D01*
X98536535Y-81253674D01*
X98525101Y-81291367D01*
X98506534Y-81326103D01*
X98481548Y-81356548D01*
X98451103Y-81381534D01*
X98416367Y-81400101D01*
X98378674Y-81411535D01*
X98333339Y-81416000D01*
X97246661Y-81416000D01*
X97201326Y-81411535D01*
X97163633Y-81400101D01*
X97128897Y-81381534D01*
X97098452Y-81356548D01*
X97073466Y-81326103D01*
X97054899Y-81291367D01*
X97043465Y-81253674D01*
X97039000Y-81208339D01*
X97039000Y-80371661D01*
X97043465Y-80326326D01*
X97054899Y-80288633D01*
X97073466Y-80253897D01*
X97098452Y-80223452D01*
X97128897Y-80198466D01*
X97163633Y-80179899D01*
X97201326Y-80168465D01*
X97246661Y-80164000D01*
X98333339Y-80164000D01*
X98378674Y-80168465D01*
G37*
G36*
X101553674Y-80168465D02*
G01*
X101591367Y-80179899D01*
X101626103Y-80198466D01*
X101656548Y-80223452D01*
X101681534Y-80253897D01*
X101700101Y-80288633D01*
X101711535Y-80326326D01*
X101716000Y-80371661D01*
X101716000Y-81208339D01*
X101711535Y-81253674D01*
X101700101Y-81291367D01*
X101681534Y-81326103D01*
X101656548Y-81356548D01*
X101626103Y-81381534D01*
X101591367Y-81400101D01*
X101553674Y-81411535D01*
X101508339Y-81416000D01*
X100421661Y-81416000D01*
X100376326Y-81411535D01*
X100338633Y-81400101D01*
X100303897Y-81381534D01*
X100273452Y-81356548D01*
X100248466Y-81326103D01*
X100229899Y-81291367D01*
X100218465Y-81253674D01*
X100214000Y-81208339D01*
X100214000Y-80371661D01*
X100218465Y-80326326D01*
X100229899Y-80288633D01*
X100248466Y-80253897D01*
X100273452Y-80223452D01*
X100303897Y-80198466D01*
X100338633Y-80179899D01*
X100376326Y-80168465D01*
X100421661Y-80164000D01*
X101508339Y-80164000D01*
X101553674Y-80168465D01*
G37*
G36*
X165418674Y-79898465D02*
G01*
X165456367Y-79909899D01*
X165491103Y-79928466D01*
X165521548Y-79953452D01*
X165546534Y-79983897D01*
X165565101Y-80018633D01*
X165576535Y-80056326D01*
X165581000Y-80101661D01*
X165581000Y-81188339D01*
X165576535Y-81233674D01*
X165565101Y-81271367D01*
X165546534Y-81306103D01*
X165521548Y-81336548D01*
X165491103Y-81361534D01*
X165456367Y-81380101D01*
X165418674Y-81391535D01*
X165373339Y-81396000D01*
X164536661Y-81396000D01*
X164491326Y-81391535D01*
X164453633Y-81380101D01*
X164418897Y-81361534D01*
X164388452Y-81336548D01*
X164363466Y-81306103D01*
X164344899Y-81271367D01*
X164333465Y-81233674D01*
X164329000Y-81188339D01*
X164329000Y-80101661D01*
X164333465Y-80056326D01*
X164344899Y-80018633D01*
X164363466Y-79983897D01*
X164388452Y-79953452D01*
X164418897Y-79928466D01*
X164453633Y-79909899D01*
X164491326Y-79898465D01*
X164536661Y-79894000D01*
X165373339Y-79894000D01*
X165418674Y-79898465D01*
G37*
G36*
X167468674Y-79898465D02*
G01*
X167506367Y-79909899D01*
X167541103Y-79928466D01*
X167571548Y-79953452D01*
X167596534Y-79983897D01*
X167615101Y-80018633D01*
X167626535Y-80056326D01*
X167631000Y-80101661D01*
X167631000Y-81188339D01*
X167626535Y-81233674D01*
X167615101Y-81271367D01*
X167596534Y-81306103D01*
X167571548Y-81336548D01*
X167541103Y-81361534D01*
X167506367Y-81380101D01*
X167468674Y-81391535D01*
X167423339Y-81396000D01*
X166586661Y-81396000D01*
X166541326Y-81391535D01*
X166503633Y-81380101D01*
X166468897Y-81361534D01*
X166438452Y-81336548D01*
X166413466Y-81306103D01*
X166394899Y-81271367D01*
X166383465Y-81233674D01*
X166379000Y-81188339D01*
X166379000Y-80101661D01*
X166383465Y-80056326D01*
X166394899Y-80018633D01*
X166413466Y-79983897D01*
X166438452Y-79953452D01*
X166468897Y-79928466D01*
X166503633Y-79909899D01*
X166541326Y-79898465D01*
X166586661Y-79894000D01*
X167423339Y-79894000D01*
X167468674Y-79898465D01*
G37*
G36*
X172616000Y-80071000D02*
G01*
X171014000Y-80071000D01*
X171014000Y-78369000D01*
X172616000Y-78369000D01*
X172616000Y-80071000D01*
G37*
G36*
X95203674Y-78118465D02*
G01*
X95241367Y-78129899D01*
X95276103Y-78148466D01*
X95306548Y-78173452D01*
X95331534Y-78203897D01*
X95350101Y-78238633D01*
X95361535Y-78276326D01*
X95366000Y-78321661D01*
X95366000Y-79158339D01*
X95361535Y-79203674D01*
X95350101Y-79241367D01*
X95331534Y-79276103D01*
X95306548Y-79306548D01*
X95276103Y-79331534D01*
X95241367Y-79350101D01*
X95203674Y-79361535D01*
X95158339Y-79366000D01*
X94071661Y-79366000D01*
X94026326Y-79361535D01*
X93988633Y-79350101D01*
X93953897Y-79331534D01*
X93923452Y-79306548D01*
X93898466Y-79276103D01*
X93879899Y-79241367D01*
X93868465Y-79203674D01*
X93864000Y-79158339D01*
X93864000Y-78321661D01*
X93868465Y-78276326D01*
X93879899Y-78238633D01*
X93898466Y-78203897D01*
X93923452Y-78173452D01*
X93953897Y-78148466D01*
X93988633Y-78129899D01*
X94026326Y-78118465D01*
X94071661Y-78114000D01*
X95158339Y-78114000D01*
X95203674Y-78118465D01*
G37*
G36*
X146638674Y-78118465D02*
G01*
X146676367Y-78129899D01*
X146711103Y-78148466D01*
X146741548Y-78173452D01*
X146766534Y-78203897D01*
X146785101Y-78238633D01*
X146796535Y-78276326D01*
X146801000Y-78321661D01*
X146801000Y-79158339D01*
X146796535Y-79203674D01*
X146785101Y-79241367D01*
X146766534Y-79276103D01*
X146741548Y-79306548D01*
X146711103Y-79331534D01*
X146676367Y-79350101D01*
X146638674Y-79361535D01*
X146593339Y-79366000D01*
X145506661Y-79366000D01*
X145461326Y-79361535D01*
X145423633Y-79350101D01*
X145388897Y-79331534D01*
X145358452Y-79306548D01*
X145333466Y-79276103D01*
X145314899Y-79241367D01*
X145303465Y-79203674D01*
X145299000Y-79158339D01*
X145299000Y-78321661D01*
X145303465Y-78276326D01*
X145314899Y-78238633D01*
X145333466Y-78203897D01*
X145358452Y-78173452D01*
X145388897Y-78148466D01*
X145423633Y-78129899D01*
X145461326Y-78118465D01*
X145506661Y-78114000D01*
X146593339Y-78114000D01*
X146638674Y-78118465D01*
G37*
G36*
X133938674Y-78118465D02*
G01*
X133976367Y-78129899D01*
X134011103Y-78148466D01*
X134041548Y-78173452D01*
X134066534Y-78203897D01*
X134085101Y-78238633D01*
X134096535Y-78276326D01*
X134101000Y-78321661D01*
X134101000Y-79158339D01*
X134096535Y-79203674D01*
X134085101Y-79241367D01*
X134066534Y-79276103D01*
X134041548Y-79306548D01*
X134011103Y-79331534D01*
X133976367Y-79350101D01*
X133938674Y-79361535D01*
X133893339Y-79366000D01*
X132806661Y-79366000D01*
X132761326Y-79361535D01*
X132723633Y-79350101D01*
X132688897Y-79331534D01*
X132658452Y-79306548D01*
X132633466Y-79276103D01*
X132614899Y-79241367D01*
X132603465Y-79203674D01*
X132599000Y-79158339D01*
X132599000Y-78321661D01*
X132603465Y-78276326D01*
X132614899Y-78238633D01*
X132633466Y-78203897D01*
X132658452Y-78173452D01*
X132688897Y-78148466D01*
X132723633Y-78129899D01*
X132761326Y-78118465D01*
X132806661Y-78114000D01*
X133893339Y-78114000D01*
X133938674Y-78118465D01*
G37*
G36*
X101553674Y-78118465D02*
G01*
X101591367Y-78129899D01*
X101626103Y-78148466D01*
X101656548Y-78173452D01*
X101681534Y-78203897D01*
X101700101Y-78238633D01*
X101711535Y-78276326D01*
X101716000Y-78321661D01*
X101716000Y-79158339D01*
X101711535Y-79203674D01*
X101700101Y-79241367D01*
X101681534Y-79276103D01*
X101656548Y-79306548D01*
X101626103Y-79331534D01*
X101591367Y-79350101D01*
X101553674Y-79361535D01*
X101508339Y-79366000D01*
X100421661Y-79366000D01*
X100376326Y-79361535D01*
X100338633Y-79350101D01*
X100303897Y-79331534D01*
X100273452Y-79306548D01*
X100248466Y-79276103D01*
X100229899Y-79241367D01*
X100218465Y-79203674D01*
X100214000Y-79158339D01*
X100214000Y-78321661D01*
X100218465Y-78276326D01*
X100229899Y-78238633D01*
X100248466Y-78203897D01*
X100273452Y-78173452D01*
X100303897Y-78148466D01*
X100338633Y-78129899D01*
X100376326Y-78118465D01*
X100421661Y-78114000D01*
X101508339Y-78114000D01*
X101553674Y-78118465D01*
G37*
G36*
X104728674Y-78118465D02*
G01*
X104766367Y-78129899D01*
X104801103Y-78148466D01*
X104831548Y-78173452D01*
X104856534Y-78203897D01*
X104875101Y-78238633D01*
X104886535Y-78276326D01*
X104891000Y-78321661D01*
X104891000Y-79158339D01*
X104886535Y-79203674D01*
X104875101Y-79241367D01*
X104856534Y-79276103D01*
X104831548Y-79306548D01*
X104801103Y-79331534D01*
X104766367Y-79350101D01*
X104728674Y-79361535D01*
X104683339Y-79366000D01*
X103596661Y-79366000D01*
X103551326Y-79361535D01*
X103513633Y-79350101D01*
X103478897Y-79331534D01*
X103448452Y-79306548D01*
X103423466Y-79276103D01*
X103404899Y-79241367D01*
X103393465Y-79203674D01*
X103389000Y-79158339D01*
X103389000Y-78321661D01*
X103393465Y-78276326D01*
X103404899Y-78238633D01*
X103423466Y-78203897D01*
X103448452Y-78173452D01*
X103478897Y-78148466D01*
X103513633Y-78129899D01*
X103551326Y-78118465D01*
X103596661Y-78114000D01*
X104683339Y-78114000D01*
X104728674Y-78118465D01*
G37*
G36*
X107903674Y-78118465D02*
G01*
X107941367Y-78129899D01*
X107976103Y-78148466D01*
X108006548Y-78173452D01*
X108031534Y-78203897D01*
X108050101Y-78238633D01*
X108061535Y-78276326D01*
X108066000Y-78321661D01*
X108066000Y-79158339D01*
X108061535Y-79203674D01*
X108050101Y-79241367D01*
X108031534Y-79276103D01*
X108006548Y-79306548D01*
X107976103Y-79331534D01*
X107941367Y-79350101D01*
X107903674Y-79361535D01*
X107858339Y-79366000D01*
X106771661Y-79366000D01*
X106726326Y-79361535D01*
X106688633Y-79350101D01*
X106653897Y-79331534D01*
X106623452Y-79306548D01*
X106598466Y-79276103D01*
X106579899Y-79241367D01*
X106568465Y-79203674D01*
X106564000Y-79158339D01*
X106564000Y-78321661D01*
X106568465Y-78276326D01*
X106579899Y-78238633D01*
X106598466Y-78203897D01*
X106623452Y-78173452D01*
X106653897Y-78148466D01*
X106688633Y-78129899D01*
X106726326Y-78118465D01*
X106771661Y-78114000D01*
X107858339Y-78114000D01*
X107903674Y-78118465D01*
G37*
G36*
X137113674Y-78118465D02*
G01*
X137151367Y-78129899D01*
X137186103Y-78148466D01*
X137216548Y-78173452D01*
X137241534Y-78203897D01*
X137260101Y-78238633D01*
X137271535Y-78276326D01*
X137276000Y-78321661D01*
X137276000Y-79158339D01*
X137271535Y-79203674D01*
X137260101Y-79241367D01*
X137241534Y-79276103D01*
X137216548Y-79306548D01*
X137186103Y-79331534D01*
X137151367Y-79350101D01*
X137113674Y-79361535D01*
X137068339Y-79366000D01*
X135981661Y-79366000D01*
X135936326Y-79361535D01*
X135898633Y-79350101D01*
X135863897Y-79331534D01*
X135833452Y-79306548D01*
X135808466Y-79276103D01*
X135789899Y-79241367D01*
X135778465Y-79203674D01*
X135774000Y-79158339D01*
X135774000Y-78321661D01*
X135778465Y-78276326D01*
X135789899Y-78238633D01*
X135808466Y-78203897D01*
X135833452Y-78173452D01*
X135863897Y-78148466D01*
X135898633Y-78129899D01*
X135936326Y-78118465D01*
X135981661Y-78114000D01*
X137068339Y-78114000D01*
X137113674Y-78118465D01*
G37*
G36*
X98378674Y-78118465D02*
G01*
X98416367Y-78129899D01*
X98451103Y-78148466D01*
X98481548Y-78173452D01*
X98506534Y-78203897D01*
X98525101Y-78238633D01*
X98536535Y-78276326D01*
X98541000Y-78321661D01*
X98541000Y-79158339D01*
X98536535Y-79203674D01*
X98525101Y-79241367D01*
X98506534Y-79276103D01*
X98481548Y-79306548D01*
X98451103Y-79331534D01*
X98416367Y-79350101D01*
X98378674Y-79361535D01*
X98333339Y-79366000D01*
X97246661Y-79366000D01*
X97201326Y-79361535D01*
X97163633Y-79350101D01*
X97128897Y-79331534D01*
X97098452Y-79306548D01*
X97073466Y-79276103D01*
X97054899Y-79241367D01*
X97043465Y-79203674D01*
X97039000Y-79158339D01*
X97039000Y-78321661D01*
X97043465Y-78276326D01*
X97054899Y-78238633D01*
X97073466Y-78203897D01*
X97098452Y-78173452D01*
X97128897Y-78148466D01*
X97163633Y-78129899D01*
X97201326Y-78118465D01*
X97246661Y-78114000D01*
X98333339Y-78114000D01*
X98378674Y-78118465D01*
G37*
G36*
X140288674Y-78118465D02*
G01*
X140326367Y-78129899D01*
X140361103Y-78148466D01*
X140391548Y-78173452D01*
X140416534Y-78203897D01*
X140435101Y-78238633D01*
X140446535Y-78276326D01*
X140451000Y-78321661D01*
X140451000Y-79158339D01*
X140446535Y-79203674D01*
X140435101Y-79241367D01*
X140416534Y-79276103D01*
X140391548Y-79306548D01*
X140361103Y-79331534D01*
X140326367Y-79350101D01*
X140288674Y-79361535D01*
X140243339Y-79366000D01*
X139156661Y-79366000D01*
X139111326Y-79361535D01*
X139073633Y-79350101D01*
X139038897Y-79331534D01*
X139008452Y-79306548D01*
X138983466Y-79276103D01*
X138964899Y-79241367D01*
X138953465Y-79203674D01*
X138949000Y-79158339D01*
X138949000Y-78321661D01*
X138953465Y-78276326D01*
X138964899Y-78238633D01*
X138983466Y-78203897D01*
X139008452Y-78173452D01*
X139038897Y-78148466D01*
X139073633Y-78129899D01*
X139111326Y-78118465D01*
X139156661Y-78114000D01*
X140243339Y-78114000D01*
X140288674Y-78118465D01*
G37*
G36*
X143463674Y-78118465D02*
G01*
X143501367Y-78129899D01*
X143536103Y-78148466D01*
X143566548Y-78173452D01*
X143591534Y-78203897D01*
X143610101Y-78238633D01*
X143621535Y-78276326D01*
X143626000Y-78321661D01*
X143626000Y-79158339D01*
X143621535Y-79203674D01*
X143610101Y-79241367D01*
X143591534Y-79276103D01*
X143566548Y-79306548D01*
X143536103Y-79331534D01*
X143501367Y-79350101D01*
X143463674Y-79361535D01*
X143418339Y-79366000D01*
X142331661Y-79366000D01*
X142286326Y-79361535D01*
X142248633Y-79350101D01*
X142213897Y-79331534D01*
X142183452Y-79306548D01*
X142158466Y-79276103D01*
X142139899Y-79241367D01*
X142128465Y-79203674D01*
X142124000Y-79158339D01*
X142124000Y-78321661D01*
X142128465Y-78276326D01*
X142139899Y-78238633D01*
X142158466Y-78203897D01*
X142183452Y-78173452D01*
X142213897Y-78148466D01*
X142248633Y-78129899D01*
X142286326Y-78118465D01*
X142331661Y-78114000D01*
X143418339Y-78114000D01*
X143463674Y-78118465D01*
G37*
G36*
X92028674Y-78118465D02*
G01*
X92066367Y-78129899D01*
X92101103Y-78148466D01*
X92131548Y-78173452D01*
X92156534Y-78203897D01*
X92175101Y-78238633D01*
X92186535Y-78276326D01*
X92191000Y-78321661D01*
X92191000Y-79158339D01*
X92186535Y-79203674D01*
X92175101Y-79241367D01*
X92156534Y-79276103D01*
X92131548Y-79306548D01*
X92101103Y-79331534D01*
X92066367Y-79350101D01*
X92028674Y-79361535D01*
X91983339Y-79366000D01*
X90896661Y-79366000D01*
X90851326Y-79361535D01*
X90813633Y-79350101D01*
X90778897Y-79331534D01*
X90748452Y-79306548D01*
X90723466Y-79276103D01*
X90704899Y-79241367D01*
X90693465Y-79203674D01*
X90689000Y-79158339D01*
X90689000Y-78321661D01*
X90693465Y-78276326D01*
X90704899Y-78238633D01*
X90723466Y-78203897D01*
X90748452Y-78173452D01*
X90778897Y-78148466D01*
X90813633Y-78129899D01*
X90851326Y-78118465D01*
X90896661Y-78114000D01*
X91983339Y-78114000D01*
X92028674Y-78118465D01*
G37*
G36*
X130763674Y-78118465D02*
G01*
X130801367Y-78129899D01*
X130836103Y-78148466D01*
X130866548Y-78173452D01*
X130891534Y-78203897D01*
X130910101Y-78238633D01*
X130921535Y-78276326D01*
X130926000Y-78321661D01*
X130926000Y-79158339D01*
X130921535Y-79203674D01*
X130910101Y-79241367D01*
X130891534Y-79276103D01*
X130866548Y-79306548D01*
X130836103Y-79331534D01*
X130801367Y-79350101D01*
X130763674Y-79361535D01*
X130718339Y-79366000D01*
X129631661Y-79366000D01*
X129586326Y-79361535D01*
X129548633Y-79350101D01*
X129513897Y-79331534D01*
X129483452Y-79306548D01*
X129458466Y-79276103D01*
X129439899Y-79241367D01*
X129428465Y-79203674D01*
X129424000Y-79158339D01*
X129424000Y-78321661D01*
X129428465Y-78276326D01*
X129439899Y-78238633D01*
X129458466Y-78203897D01*
X129483452Y-78173452D01*
X129513897Y-78148466D01*
X129548633Y-78129899D01*
X129586326Y-78118465D01*
X129631661Y-78114000D01*
X130718339Y-78114000D01*
X130763674Y-78118465D01*
G37*
G36*
X155688512Y-77208927D02*
G01*
X155837812Y-77238624D01*
X156001784Y-77306544D01*
X156149354Y-77405147D01*
X156274853Y-77530646D01*
X156373456Y-77678216D01*
X156441376Y-77842188D01*
X156476000Y-78016259D01*
X156476000Y-78193741D01*
X156441376Y-78367812D01*
X156373456Y-78531784D01*
X156274853Y-78679354D01*
X156149354Y-78804853D01*
X156001784Y-78903456D01*
X155837812Y-78971376D01*
X155688512Y-79001073D01*
X155663742Y-79006000D01*
X155486258Y-79006000D01*
X155461488Y-79001073D01*
X155312188Y-78971376D01*
X155148216Y-78903456D01*
X155000646Y-78804853D01*
X154875147Y-78679354D01*
X154776544Y-78531784D01*
X154708624Y-78367812D01*
X154674000Y-78193741D01*
X154674000Y-78016259D01*
X154708624Y-77842188D01*
X154776544Y-77678216D01*
X154875147Y-77530646D01*
X155000646Y-77405147D01*
X155148216Y-77306544D01*
X155312188Y-77238624D01*
X155461488Y-77208927D01*
X155486258Y-77204000D01*
X155663742Y-77204000D01*
X155688512Y-77208927D01*
G37*
G36*
X153148512Y-77208927D02*
G01*
X153297812Y-77238624D01*
X153461784Y-77306544D01*
X153609354Y-77405147D01*
X153734853Y-77530646D01*
X153833456Y-77678216D01*
X153901376Y-77842188D01*
X153936000Y-78016259D01*
X153936000Y-78193741D01*
X153901376Y-78367812D01*
X153833456Y-78531784D01*
X153734853Y-78679354D01*
X153609354Y-78804853D01*
X153461784Y-78903456D01*
X153297812Y-78971376D01*
X153148512Y-79001073D01*
X153123742Y-79006000D01*
X152946258Y-79006000D01*
X152921488Y-79001073D01*
X152772188Y-78971376D01*
X152608216Y-78903456D01*
X152460646Y-78804853D01*
X152335147Y-78679354D01*
X152236544Y-78531784D01*
X152168624Y-78367812D01*
X152134000Y-78193741D01*
X152134000Y-78016259D01*
X152168624Y-77842188D01*
X152236544Y-77678216D01*
X152335147Y-77530646D01*
X152460646Y-77405147D01*
X152608216Y-77306544D01*
X152772188Y-77238624D01*
X152921488Y-77208927D01*
X152946258Y-77204000D01*
X153123742Y-77204000D01*
X153148512Y-77208927D01*
G37*
G36*
X158228512Y-77208927D02*
G01*
X158377812Y-77238624D01*
X158541784Y-77306544D01*
X158689354Y-77405147D01*
X158814853Y-77530646D01*
X158913456Y-77678216D01*
X158981376Y-77842188D01*
X159016000Y-78016259D01*
X159016000Y-78193741D01*
X158981376Y-78367812D01*
X158913456Y-78531784D01*
X158814853Y-78679354D01*
X158689354Y-78804853D01*
X158541784Y-78903456D01*
X158377812Y-78971376D01*
X158228512Y-79001073D01*
X158203742Y-79006000D01*
X158026258Y-79006000D01*
X158001488Y-79001073D01*
X157852188Y-78971376D01*
X157688216Y-78903456D01*
X157540646Y-78804853D01*
X157415147Y-78679354D01*
X157316544Y-78531784D01*
X157248624Y-78367812D01*
X157214000Y-78193741D01*
X157214000Y-78016259D01*
X157248624Y-77842188D01*
X157316544Y-77678216D01*
X157415147Y-77530646D01*
X157540646Y-77405147D01*
X157688216Y-77306544D01*
X157852188Y-77238624D01*
X158001488Y-77208927D01*
X158026258Y-77204000D01*
X158203742Y-77204000D01*
X158228512Y-77208927D01*
G37*
G36*
X182566000Y-78971000D02*
G01*
X180264000Y-78971000D01*
X180264000Y-77669000D01*
X182566000Y-77669000D01*
X182566000Y-78971000D01*
G37*
G36*
X167468674Y-77358465D02*
G01*
X167506367Y-77369899D01*
X167541103Y-77388466D01*
X167571548Y-77413452D01*
X167596534Y-77443897D01*
X167615101Y-77478633D01*
X167626535Y-77516326D01*
X167631000Y-77561661D01*
X167631000Y-78648339D01*
X167626535Y-78693674D01*
X167615101Y-78731367D01*
X167596534Y-78766103D01*
X167571548Y-78796548D01*
X167541103Y-78821534D01*
X167506367Y-78840101D01*
X167468674Y-78851535D01*
X167423339Y-78856000D01*
X166586661Y-78856000D01*
X166541326Y-78851535D01*
X166503633Y-78840101D01*
X166468897Y-78821534D01*
X166438452Y-78796548D01*
X166413466Y-78766103D01*
X166394899Y-78731367D01*
X166383465Y-78693674D01*
X166379000Y-78648339D01*
X166379000Y-77561661D01*
X166383465Y-77516326D01*
X166394899Y-77478633D01*
X166413466Y-77443897D01*
X166438452Y-77413452D01*
X166468897Y-77388466D01*
X166503633Y-77369899D01*
X166541326Y-77358465D01*
X166586661Y-77354000D01*
X167423339Y-77354000D01*
X167468674Y-77358465D01*
G37*
G36*
X165418674Y-77358465D02*
G01*
X165456367Y-77369899D01*
X165491103Y-77388466D01*
X165521548Y-77413452D01*
X165546534Y-77443897D01*
X165565101Y-77478633D01*
X165576535Y-77516326D01*
X165581000Y-77561661D01*
X165581000Y-78648339D01*
X165576535Y-78693674D01*
X165565101Y-78731367D01*
X165546534Y-78766103D01*
X165521548Y-78796548D01*
X165491103Y-78821534D01*
X165456367Y-78840101D01*
X165418674Y-78851535D01*
X165373339Y-78856000D01*
X164536661Y-78856000D01*
X164491326Y-78851535D01*
X164453633Y-78840101D01*
X164418897Y-78821534D01*
X164388452Y-78796548D01*
X164363466Y-78766103D01*
X164344899Y-78731367D01*
X164333465Y-78693674D01*
X164329000Y-78648339D01*
X164329000Y-77561661D01*
X164333465Y-77516326D01*
X164344899Y-77478633D01*
X164363466Y-77443897D01*
X164388452Y-77413452D01*
X164418897Y-77388466D01*
X164453633Y-77369899D01*
X164491326Y-77358465D01*
X164536661Y-77354000D01*
X165373339Y-77354000D01*
X165418674Y-77358465D01*
G37*
G36*
X183546000Y-73191000D02*
G01*
X183405445Y-73191000D01*
X183381059Y-73193402D01*
X183357610Y-73200515D01*
X183335999Y-73212066D01*
X183317057Y-73227611D01*
X183301512Y-73246553D01*
X183289961Y-73268164D01*
X183282848Y-73291613D01*
X183280446Y-73315999D01*
X183282848Y-73340385D01*
X183289961Y-73363834D01*
X183301512Y-73385445D01*
X183317057Y-73404387D01*
X183335999Y-73419932D01*
X183346521Y-73426238D01*
X183537555Y-73528347D01*
X183712818Y-73672182D01*
X183856653Y-73847445D01*
X183932469Y-73989288D01*
X183963530Y-74047400D01*
X184025162Y-74250572D01*
X184029346Y-74264366D01*
X184051569Y-74490000D01*
X184029346Y-74715634D01*
X183963529Y-74932602D01*
X183856653Y-75132555D01*
X183712818Y-75307818D01*
X183537555Y-75451653D01*
X183337602Y-75558529D01*
X183337600Y-75558530D01*
X183120635Y-75624346D01*
X183064271Y-75629897D01*
X182951545Y-75641000D01*
X181538455Y-75641000D01*
X181425729Y-75629897D01*
X181369365Y-75624346D01*
X181152400Y-75558530D01*
X181152398Y-75558529D01*
X180952445Y-75451653D01*
X180777182Y-75307818D01*
X180633347Y-75132555D01*
X180526471Y-74932602D01*
X180460654Y-74715634D01*
X180438431Y-74490000D01*
X180460654Y-74264366D01*
X180464838Y-74250572D01*
X180526470Y-74047400D01*
X180557531Y-73989288D01*
X180633347Y-73847445D01*
X180777182Y-73672182D01*
X180952445Y-73528347D01*
X181143479Y-73426238D01*
X181163853Y-73412625D01*
X181181180Y-73395298D01*
X181194794Y-73374923D01*
X181204172Y-73352285D01*
X181208952Y-73328251D01*
X181208952Y-73303747D01*
X181204172Y-73279714D01*
X181194794Y-73257075D01*
X181181181Y-73236701D01*
X181163854Y-73219374D01*
X181143479Y-73205760D01*
X181120841Y-73196382D01*
X181096807Y-73191602D01*
X181084555Y-73191000D01*
X180944000Y-73191000D01*
X180944000Y-71589000D01*
X183546000Y-71589000D01*
X183546000Y-73191000D01*
G37*
G36*
X148543674Y-74063465D02*
G01*
X148581367Y-74074899D01*
X148616103Y-74093466D01*
X148646548Y-74118452D01*
X148671534Y-74148897D01*
X148690101Y-74183633D01*
X148701535Y-74221326D01*
X148706000Y-74266661D01*
X148706000Y-75103339D01*
X148701535Y-75148674D01*
X148690101Y-75186367D01*
X148671534Y-75221103D01*
X148646548Y-75251548D01*
X148616103Y-75276534D01*
X148581367Y-75295101D01*
X148543674Y-75306535D01*
X148498339Y-75311000D01*
X147411661Y-75311000D01*
X147366326Y-75306535D01*
X147328633Y-75295101D01*
X147293897Y-75276534D01*
X147263452Y-75251548D01*
X147238466Y-75221103D01*
X147219899Y-75186367D01*
X147208465Y-75148674D01*
X147204000Y-75103339D01*
X147204000Y-74266661D01*
X147208465Y-74221326D01*
X147219899Y-74183633D01*
X147238466Y-74148897D01*
X147263452Y-74118452D01*
X147293897Y-74093466D01*
X147328633Y-74074899D01*
X147366326Y-74063465D01*
X147411661Y-74059000D01*
X148498339Y-74059000D01*
X148543674Y-74063465D01*
G37*
G36*
X144733674Y-74063465D02*
G01*
X144771367Y-74074899D01*
X144806103Y-74093466D01*
X144836548Y-74118452D01*
X144861534Y-74148897D01*
X144880101Y-74183633D01*
X144891535Y-74221326D01*
X144896000Y-74266661D01*
X144896000Y-75103339D01*
X144891535Y-75148674D01*
X144880101Y-75186367D01*
X144861534Y-75221103D01*
X144836548Y-75251548D01*
X144806103Y-75276534D01*
X144771367Y-75295101D01*
X144733674Y-75306535D01*
X144688339Y-75311000D01*
X143601661Y-75311000D01*
X143556326Y-75306535D01*
X143518633Y-75295101D01*
X143483897Y-75276534D01*
X143453452Y-75251548D01*
X143428466Y-75221103D01*
X143409899Y-75186367D01*
X143398465Y-75148674D01*
X143394000Y-75103339D01*
X143394000Y-74266661D01*
X143398465Y-74221326D01*
X143409899Y-74183633D01*
X143428466Y-74148897D01*
X143453452Y-74118452D01*
X143483897Y-74093466D01*
X143518633Y-74074899D01*
X143556326Y-74063465D01*
X143601661Y-74059000D01*
X144688339Y-74059000D01*
X144733674Y-74063465D01*
G37*
G36*
X126036416Y-72309519D02*
G01*
X126227592Y-72388707D01*
X126227594Y-72388708D01*
X126399648Y-72503671D01*
X126545969Y-72649992D01*
X126660933Y-72822048D01*
X126740121Y-73013224D01*
X126780490Y-73216174D01*
X126780490Y-73423106D01*
X126740121Y-73626056D01*
X126660933Y-73817232D01*
X126660932Y-73817234D01*
X126545969Y-73989288D01*
X126399648Y-74135609D01*
X126227594Y-74250572D01*
X126227593Y-74250573D01*
X126227592Y-74250573D01*
X126036416Y-74329761D01*
X125833466Y-74370130D01*
X125626534Y-74370130D01*
X125423584Y-74329761D01*
X125232408Y-74250573D01*
X125232407Y-74250573D01*
X125232406Y-74250572D01*
X125060352Y-74135609D01*
X124914031Y-73989288D01*
X124799068Y-73817234D01*
X124799067Y-73817232D01*
X124719879Y-73626056D01*
X124679510Y-73423106D01*
X124679510Y-73216174D01*
X124719879Y-73013224D01*
X124799067Y-72822048D01*
X124914031Y-72649992D01*
X125060352Y-72503671D01*
X125232406Y-72388708D01*
X125232408Y-72388707D01*
X125423584Y-72309519D01*
X125626534Y-72269150D01*
X125833466Y-72269150D01*
X126036416Y-72309519D01*
G37*
G36*
X122226416Y-72309519D02*
G01*
X122417592Y-72388707D01*
X122417594Y-72388708D01*
X122589648Y-72503671D01*
X122735969Y-72649992D01*
X122850933Y-72822048D01*
X122930121Y-73013224D01*
X122970490Y-73216174D01*
X122970490Y-73423106D01*
X122930121Y-73626056D01*
X122850933Y-73817232D01*
X122850932Y-73817234D01*
X122735969Y-73989288D01*
X122589648Y-74135609D01*
X122417594Y-74250572D01*
X122417593Y-74250573D01*
X122417592Y-74250573D01*
X122226416Y-74329761D01*
X122023466Y-74370130D01*
X121816534Y-74370130D01*
X121613584Y-74329761D01*
X121422408Y-74250573D01*
X121422407Y-74250573D01*
X121422406Y-74250572D01*
X121250352Y-74135609D01*
X121104031Y-73989288D01*
X120989068Y-73817234D01*
X120989067Y-73817232D01*
X120909879Y-73626056D01*
X120869510Y-73423106D01*
X120869510Y-73216174D01*
X120909879Y-73013224D01*
X120989067Y-72822048D01*
X121104031Y-72649992D01*
X121250352Y-72503671D01*
X121422406Y-72388708D01*
X121422408Y-72388707D01*
X121613584Y-72309519D01*
X121816534Y-72269150D01*
X122023466Y-72269150D01*
X122226416Y-72309519D01*
G37*
G36*
X129846416Y-72309519D02*
G01*
X130037592Y-72388707D01*
X130037594Y-72388708D01*
X130209648Y-72503671D01*
X130355969Y-72649992D01*
X130470933Y-72822048D01*
X130550121Y-73013224D01*
X130590490Y-73216174D01*
X130590490Y-73423106D01*
X130550121Y-73626056D01*
X130470933Y-73817232D01*
X130470932Y-73817234D01*
X130355969Y-73989288D01*
X130209648Y-74135609D01*
X130037594Y-74250572D01*
X130037593Y-74250573D01*
X130037592Y-74250573D01*
X129846416Y-74329761D01*
X129643466Y-74370130D01*
X129436534Y-74370130D01*
X129233584Y-74329761D01*
X129042408Y-74250573D01*
X129042407Y-74250573D01*
X129042406Y-74250572D01*
X128870352Y-74135609D01*
X128724031Y-73989288D01*
X128609068Y-73817234D01*
X128609067Y-73817232D01*
X128529879Y-73626056D01*
X128489510Y-73423106D01*
X128489510Y-73216174D01*
X128529879Y-73013224D01*
X128609067Y-72822048D01*
X128724031Y-72649992D01*
X128870352Y-72503671D01*
X129042406Y-72388708D01*
X129042408Y-72388707D01*
X129233584Y-72309519D01*
X129436534Y-72269150D01*
X129643466Y-72269150D01*
X129846416Y-72309519D01*
G37*
G36*
X118416416Y-72309519D02*
G01*
X118607592Y-72388707D01*
X118607594Y-72388708D01*
X118779648Y-72503671D01*
X118925969Y-72649992D01*
X119040933Y-72822048D01*
X119120121Y-73013224D01*
X119160490Y-73216174D01*
X119160490Y-73423106D01*
X119120121Y-73626056D01*
X119040933Y-73817232D01*
X119040932Y-73817234D01*
X118925969Y-73989288D01*
X118779648Y-74135609D01*
X118607594Y-74250572D01*
X118607593Y-74250573D01*
X118607592Y-74250573D01*
X118416416Y-74329761D01*
X118213466Y-74370130D01*
X118006534Y-74370130D01*
X117803584Y-74329761D01*
X117612408Y-74250573D01*
X117612407Y-74250573D01*
X117612406Y-74250572D01*
X117440352Y-74135609D01*
X117294031Y-73989288D01*
X117179068Y-73817234D01*
X117179067Y-73817232D01*
X117099879Y-73626056D01*
X117059510Y-73423106D01*
X117059510Y-73216174D01*
X117099879Y-73013224D01*
X117179067Y-72822048D01*
X117294031Y-72649992D01*
X117440352Y-72503671D01*
X117612406Y-72388708D01*
X117612408Y-72388707D01*
X117803584Y-72309519D01*
X118006534Y-72269150D01*
X118213466Y-72269150D01*
X118416416Y-72309519D01*
G37*
G36*
X133656416Y-72309519D02*
G01*
X133847592Y-72388707D01*
X133847594Y-72388708D01*
X134019648Y-72503671D01*
X134165969Y-72649992D01*
X134280933Y-72822048D01*
X134360121Y-73013224D01*
X134400490Y-73216174D01*
X134400490Y-73423106D01*
X134360121Y-73626056D01*
X134280933Y-73817232D01*
X134280932Y-73817234D01*
X134165969Y-73989288D01*
X134019648Y-74135609D01*
X133847594Y-74250572D01*
X133847593Y-74250573D01*
X133847592Y-74250573D01*
X133656416Y-74329761D01*
X133453466Y-74370130D01*
X133246534Y-74370130D01*
X133043584Y-74329761D01*
X132852408Y-74250573D01*
X132852407Y-74250573D01*
X132852406Y-74250572D01*
X132680352Y-74135609D01*
X132534031Y-73989288D01*
X132419068Y-73817234D01*
X132419067Y-73817232D01*
X132339879Y-73626056D01*
X132299510Y-73423106D01*
X132299510Y-73216174D01*
X132339879Y-73013224D01*
X132419067Y-72822048D01*
X132534031Y-72649992D01*
X132680352Y-72503671D01*
X132852406Y-72388708D01*
X132852408Y-72388707D01*
X133043584Y-72309519D01*
X133246534Y-72269150D01*
X133453466Y-72269150D01*
X133656416Y-72309519D01*
G37*
G36*
X137466416Y-72309519D02*
G01*
X137657592Y-72388707D01*
X137657594Y-72388708D01*
X137829648Y-72503671D01*
X137975969Y-72649992D01*
X138090933Y-72822048D01*
X138170121Y-73013224D01*
X138210490Y-73216174D01*
X138210490Y-73423106D01*
X138170121Y-73626056D01*
X138090933Y-73817232D01*
X138090932Y-73817234D01*
X137975969Y-73989288D01*
X137829648Y-74135609D01*
X137657594Y-74250572D01*
X137657593Y-74250573D01*
X137657592Y-74250573D01*
X137466416Y-74329761D01*
X137263466Y-74370130D01*
X137056534Y-74370130D01*
X136853584Y-74329761D01*
X136662408Y-74250573D01*
X136662407Y-74250573D01*
X136662406Y-74250572D01*
X136490352Y-74135609D01*
X136344031Y-73989288D01*
X136229068Y-73817234D01*
X136229067Y-73817232D01*
X136149879Y-73626056D01*
X136109510Y-73423106D01*
X136109510Y-73216174D01*
X136149879Y-73013224D01*
X136229067Y-72822048D01*
X136344031Y-72649992D01*
X136490352Y-72503671D01*
X136662406Y-72388708D01*
X136662408Y-72388707D01*
X136853584Y-72309519D01*
X137056534Y-72269150D01*
X137263466Y-72269150D01*
X137466416Y-72309519D01*
G37*
G36*
X110796416Y-72309519D02*
G01*
X110987592Y-72388707D01*
X110987594Y-72388708D01*
X111159648Y-72503671D01*
X111305969Y-72649992D01*
X111420933Y-72822048D01*
X111500121Y-73013224D01*
X111540490Y-73216174D01*
X111540490Y-73423106D01*
X111500121Y-73626056D01*
X111420933Y-73817232D01*
X111420932Y-73817234D01*
X111305969Y-73989288D01*
X111159648Y-74135609D01*
X110987594Y-74250572D01*
X110987593Y-74250573D01*
X110987592Y-74250573D01*
X110796416Y-74329761D01*
X110593466Y-74370130D01*
X110386534Y-74370130D01*
X110183584Y-74329761D01*
X109992408Y-74250573D01*
X109992407Y-74250573D01*
X109992406Y-74250572D01*
X109820352Y-74135609D01*
X109674031Y-73989288D01*
X109559068Y-73817234D01*
X109559067Y-73817232D01*
X109479879Y-73626056D01*
X109439510Y-73423106D01*
X109439510Y-73216174D01*
X109479879Y-73013224D01*
X109559067Y-72822048D01*
X109674031Y-72649992D01*
X109820352Y-72503671D01*
X109992406Y-72388708D01*
X109992408Y-72388707D01*
X110183584Y-72309519D01*
X110386534Y-72269150D01*
X110593466Y-72269150D01*
X110796416Y-72309519D01*
G37*
G36*
X106986416Y-72309519D02*
G01*
X107177592Y-72388707D01*
X107177594Y-72388708D01*
X107349648Y-72503671D01*
X107495969Y-72649992D01*
X107610933Y-72822048D01*
X107690121Y-73013224D01*
X107730490Y-73216174D01*
X107730490Y-73423106D01*
X107690121Y-73626056D01*
X107610933Y-73817232D01*
X107610932Y-73817234D01*
X107495969Y-73989288D01*
X107349648Y-74135609D01*
X107177594Y-74250572D01*
X107177593Y-74250573D01*
X107177592Y-74250573D01*
X106986416Y-74329761D01*
X106783466Y-74370130D01*
X106576534Y-74370130D01*
X106373584Y-74329761D01*
X106182408Y-74250573D01*
X106182407Y-74250573D01*
X106182406Y-74250572D01*
X106010352Y-74135609D01*
X105864031Y-73989288D01*
X105749068Y-73817234D01*
X105749067Y-73817232D01*
X105669879Y-73626056D01*
X105629510Y-73423106D01*
X105629510Y-73216174D01*
X105669879Y-73013224D01*
X105749067Y-72822048D01*
X105864031Y-72649992D01*
X106010352Y-72503671D01*
X106182406Y-72388708D01*
X106182408Y-72388707D01*
X106373584Y-72309519D01*
X106576534Y-72269150D01*
X106783466Y-72269150D01*
X106986416Y-72309519D01*
G37*
G36*
X103176416Y-72309519D02*
G01*
X103367592Y-72388707D01*
X103367594Y-72388708D01*
X103539648Y-72503671D01*
X103685969Y-72649992D01*
X103800933Y-72822048D01*
X103880121Y-73013224D01*
X103920490Y-73216174D01*
X103920490Y-73423106D01*
X103880121Y-73626056D01*
X103800933Y-73817232D01*
X103800932Y-73817234D01*
X103685969Y-73989288D01*
X103539648Y-74135609D01*
X103367594Y-74250572D01*
X103367593Y-74250573D01*
X103367592Y-74250573D01*
X103176416Y-74329761D01*
X102973466Y-74370130D01*
X102766534Y-74370130D01*
X102563584Y-74329761D01*
X102372408Y-74250573D01*
X102372407Y-74250573D01*
X102372406Y-74250572D01*
X102200352Y-74135609D01*
X102054031Y-73989288D01*
X101939068Y-73817234D01*
X101939067Y-73817232D01*
X101859879Y-73626056D01*
X101819510Y-73423106D01*
X101819510Y-73216174D01*
X101859879Y-73013224D01*
X101939067Y-72822048D01*
X102054031Y-72649992D01*
X102200352Y-72503671D01*
X102372406Y-72388708D01*
X102372408Y-72388707D01*
X102563584Y-72309519D01*
X102766534Y-72269150D01*
X102973466Y-72269150D01*
X103176416Y-72309519D01*
G37*
G36*
X99366416Y-72309519D02*
G01*
X99557592Y-72388707D01*
X99557594Y-72388708D01*
X99729648Y-72503671D01*
X99875969Y-72649992D01*
X99990933Y-72822048D01*
X100070121Y-73013224D01*
X100110490Y-73216174D01*
X100110490Y-73423106D01*
X100070121Y-73626056D01*
X99990933Y-73817232D01*
X99990932Y-73817234D01*
X99875969Y-73989288D01*
X99729648Y-74135609D01*
X99557594Y-74250572D01*
X99557593Y-74250573D01*
X99557592Y-74250573D01*
X99366416Y-74329761D01*
X99163466Y-74370130D01*
X98956534Y-74370130D01*
X98753584Y-74329761D01*
X98562408Y-74250573D01*
X98562407Y-74250573D01*
X98562406Y-74250572D01*
X98390352Y-74135609D01*
X98244031Y-73989288D01*
X98129068Y-73817234D01*
X98129067Y-73817232D01*
X98049879Y-73626056D01*
X98009510Y-73423106D01*
X98009510Y-73216174D01*
X98049879Y-73013224D01*
X98129067Y-72822048D01*
X98244031Y-72649992D01*
X98390352Y-72503671D01*
X98562406Y-72388708D01*
X98562408Y-72388707D01*
X98753584Y-72309519D01*
X98956534Y-72269150D01*
X99163466Y-72269150D01*
X99366416Y-72309519D01*
G37*
G36*
X114606416Y-72309519D02*
G01*
X114797592Y-72388707D01*
X114797594Y-72388708D01*
X114969648Y-72503671D01*
X115115969Y-72649992D01*
X115230933Y-72822048D01*
X115310121Y-73013224D01*
X115350490Y-73216174D01*
X115350490Y-73423106D01*
X115310121Y-73626056D01*
X115230933Y-73817232D01*
X115230932Y-73817234D01*
X115115969Y-73989288D01*
X114969648Y-74135609D01*
X114797594Y-74250572D01*
X114797593Y-74250573D01*
X114797592Y-74250573D01*
X114606416Y-74329761D01*
X114403466Y-74370130D01*
X114196534Y-74370130D01*
X113993584Y-74329761D01*
X113802408Y-74250573D01*
X113802407Y-74250573D01*
X113802406Y-74250572D01*
X113630352Y-74135609D01*
X113484031Y-73989288D01*
X113369068Y-73817234D01*
X113369067Y-73817232D01*
X113289879Y-73626056D01*
X113249510Y-73423106D01*
X113249510Y-73216174D01*
X113289879Y-73013224D01*
X113369067Y-72822048D01*
X113484031Y-72649992D01*
X113630352Y-72503671D01*
X113802406Y-72388708D01*
X113802408Y-72388707D01*
X113993584Y-72309519D01*
X114196534Y-72269150D01*
X114403466Y-72269150D01*
X114606416Y-72309519D01*
G37*
G36*
X148543674Y-72013465D02*
G01*
X148581367Y-72024899D01*
X148616103Y-72043466D01*
X148646548Y-72068452D01*
X148671534Y-72098897D01*
X148690101Y-72133633D01*
X148701535Y-72171326D01*
X148706000Y-72216661D01*
X148706000Y-73053339D01*
X148701535Y-73098674D01*
X148690101Y-73136367D01*
X148671534Y-73171103D01*
X148646548Y-73201548D01*
X148616103Y-73226534D01*
X148581367Y-73245101D01*
X148543674Y-73256535D01*
X148498339Y-73261000D01*
X147411661Y-73261000D01*
X147366326Y-73256535D01*
X147328633Y-73245101D01*
X147293897Y-73226534D01*
X147263452Y-73201548D01*
X147238466Y-73171103D01*
X147219899Y-73136367D01*
X147208465Y-73098674D01*
X147204000Y-73053339D01*
X147204000Y-72216661D01*
X147208465Y-72171326D01*
X147219899Y-72133633D01*
X147238466Y-72098897D01*
X147263452Y-72068452D01*
X147293897Y-72043466D01*
X147328633Y-72024899D01*
X147366326Y-72013465D01*
X147411661Y-72009000D01*
X148498339Y-72009000D01*
X148543674Y-72013465D01*
G37*
G36*
X144733674Y-72013465D02*
G01*
X144771367Y-72024899D01*
X144806103Y-72043466D01*
X144836548Y-72068452D01*
X144861534Y-72098897D01*
X144880101Y-72133633D01*
X144891535Y-72171326D01*
X144896000Y-72216661D01*
X144896000Y-73053339D01*
X144891535Y-73098674D01*
X144880101Y-73136367D01*
X144861534Y-73171103D01*
X144836548Y-73201548D01*
X144806103Y-73226534D01*
X144771367Y-73245101D01*
X144733674Y-73256535D01*
X144688339Y-73261000D01*
X143601661Y-73261000D01*
X143556326Y-73256535D01*
X143518633Y-73245101D01*
X143483897Y-73226534D01*
X143453452Y-73201548D01*
X143428466Y-73171103D01*
X143409899Y-73136367D01*
X143398465Y-73098674D01*
X143394000Y-73053339D01*
X143394000Y-72216661D01*
X143398465Y-72171326D01*
X143409899Y-72133633D01*
X143428466Y-72098897D01*
X143453452Y-72068452D01*
X143483897Y-72043466D01*
X143518633Y-72024899D01*
X143556326Y-72013465D01*
X143601661Y-72009000D01*
X144688339Y-72009000D01*
X144733674Y-72013465D01*
G37*
G36*
X174971000Y-72706000D02*
G01*
X170469000Y-72706000D01*
X170469000Y-70804000D01*
X174971000Y-70804000D01*
X174971000Y-72706000D01*
G37*
G36*
X153085298Y-69763247D02*
G01*
X153120867Y-69774037D01*
X153153639Y-69791554D01*
X153182369Y-69815131D01*
X153205946Y-69843861D01*
X153223463Y-69876633D01*
X153234253Y-69912202D01*
X153238500Y-69955325D01*
X153238500Y-71014675D01*
X153234253Y-71057798D01*
X153223463Y-71093367D01*
X153205946Y-71126139D01*
X153182369Y-71154869D01*
X153153639Y-71178446D01*
X153120867Y-71195963D01*
X153085298Y-71206753D01*
X153042175Y-71211000D01*
X151757825Y-71211000D01*
X151714702Y-71206753D01*
X151679133Y-71195963D01*
X151646361Y-71178446D01*
X151617631Y-71154869D01*
X151594054Y-71126139D01*
X151576537Y-71093367D01*
X151565747Y-71057798D01*
X151561500Y-71014675D01*
X151561500Y-69955325D01*
X151565747Y-69912202D01*
X151576537Y-69876633D01*
X151594054Y-69843861D01*
X151617631Y-69815131D01*
X151646361Y-69791554D01*
X151679133Y-69774037D01*
X151714702Y-69763247D01*
X151757825Y-69759000D01*
X153042175Y-69759000D01*
X153085298Y-69763247D01*
G37*
G36*
X159435298Y-69763247D02*
G01*
X159470867Y-69774037D01*
X159503639Y-69791554D01*
X159532369Y-69815131D01*
X159555946Y-69843861D01*
X159573463Y-69876633D01*
X159584253Y-69912202D01*
X159588500Y-69955325D01*
X159588500Y-71014675D01*
X159584253Y-71057798D01*
X159573463Y-71093367D01*
X159555946Y-71126139D01*
X159532369Y-71154869D01*
X159503639Y-71178446D01*
X159470867Y-71195963D01*
X159435298Y-71206753D01*
X159392175Y-71211000D01*
X158107825Y-71211000D01*
X158064702Y-71206753D01*
X158029133Y-71195963D01*
X157996361Y-71178446D01*
X157967631Y-71154869D01*
X157944054Y-71126139D01*
X157926537Y-71093367D01*
X157915747Y-71057798D01*
X157911500Y-71014675D01*
X157911500Y-69955325D01*
X157915747Y-69912202D01*
X157926537Y-69876633D01*
X157944054Y-69843861D01*
X157967631Y-69815131D01*
X157996361Y-69791554D01*
X158029133Y-69774037D01*
X158064702Y-69763247D01*
X158107825Y-69759000D01*
X159392175Y-69759000D01*
X159435298Y-69763247D01*
G37*
G36*
X162310298Y-69763247D02*
G01*
X162345867Y-69774037D01*
X162378639Y-69791554D01*
X162407369Y-69815131D01*
X162430946Y-69843861D01*
X162448463Y-69876633D01*
X162459253Y-69912202D01*
X162463500Y-69955325D01*
X162463500Y-71014675D01*
X162459253Y-71057798D01*
X162448463Y-71093367D01*
X162430946Y-71126139D01*
X162407369Y-71154869D01*
X162378639Y-71178446D01*
X162345867Y-71195963D01*
X162310298Y-71206753D01*
X162267175Y-71211000D01*
X160982825Y-71211000D01*
X160939702Y-71206753D01*
X160904133Y-71195963D01*
X160871361Y-71178446D01*
X160842631Y-71154869D01*
X160819054Y-71126139D01*
X160801537Y-71093367D01*
X160790747Y-71057798D01*
X160786500Y-71014675D01*
X160786500Y-69955325D01*
X160790747Y-69912202D01*
X160801537Y-69876633D01*
X160819054Y-69843861D01*
X160842631Y-69815131D01*
X160871361Y-69791554D01*
X160904133Y-69774037D01*
X160939702Y-69763247D01*
X160982825Y-69759000D01*
X162267175Y-69759000D01*
X162310298Y-69763247D01*
G37*
G36*
X155960298Y-69763247D02*
G01*
X155995867Y-69774037D01*
X156028639Y-69791554D01*
X156057369Y-69815131D01*
X156080946Y-69843861D01*
X156098463Y-69876633D01*
X156109253Y-69912202D01*
X156113500Y-69955325D01*
X156113500Y-71014675D01*
X156109253Y-71057798D01*
X156098463Y-71093367D01*
X156080946Y-71126139D01*
X156057369Y-71154869D01*
X156028639Y-71178446D01*
X155995867Y-71195963D01*
X155960298Y-71206753D01*
X155917175Y-71211000D01*
X154632825Y-71211000D01*
X154589702Y-71206753D01*
X154554133Y-71195963D01*
X154521361Y-71178446D01*
X154492631Y-71154869D01*
X154469054Y-71126139D01*
X154451537Y-71093367D01*
X154440747Y-71057798D01*
X154436500Y-71014675D01*
X154436500Y-69955325D01*
X154440747Y-69912202D01*
X154451537Y-69876633D01*
X154469054Y-69843861D01*
X154492631Y-69815131D01*
X154521361Y-69791554D01*
X154554133Y-69774037D01*
X154589702Y-69763247D01*
X154632825Y-69759000D01*
X155917175Y-69759000D01*
X155960298Y-69763247D01*
G37*
G36*
X182823571Y-69592863D02*
G01*
X182902023Y-69600590D01*
X183002682Y-69631125D01*
X183053013Y-69646392D01*
X183192165Y-69720771D01*
X183314133Y-69820867D01*
X183414229Y-69942835D01*
X183488608Y-70081987D01*
X183488608Y-70081988D01*
X183534410Y-70232977D01*
X183549875Y-70390000D01*
X183534410Y-70547023D01*
X183503875Y-70647682D01*
X183488608Y-70698013D01*
X183414229Y-70837165D01*
X183314133Y-70959133D01*
X183192165Y-71059229D01*
X183053013Y-71133608D01*
X183002682Y-71148875D01*
X182902023Y-71179410D01*
X182823571Y-71187137D01*
X182784346Y-71191000D01*
X181705654Y-71191000D01*
X181666429Y-71187137D01*
X181587977Y-71179410D01*
X181487318Y-71148875D01*
X181436987Y-71133608D01*
X181297835Y-71059229D01*
X181175867Y-70959133D01*
X181075771Y-70837165D01*
X181001392Y-70698013D01*
X180986125Y-70647682D01*
X180955590Y-70547023D01*
X180940125Y-70390000D01*
X180955590Y-70232977D01*
X181001392Y-70081988D01*
X181001392Y-70081987D01*
X181075771Y-69942835D01*
X181175867Y-69820867D01*
X181297835Y-69720771D01*
X181436987Y-69646392D01*
X181487318Y-69631125D01*
X181587977Y-69600590D01*
X181666429Y-69592863D01*
X181705654Y-69589000D01*
X182784346Y-69589000D01*
X182823571Y-69592863D01*
G37*
G36*
X168106425Y-66717760D02*
G01*
X168106428Y-66717761D01*
X168106429Y-66717761D01*
X168285693Y-66772140D01*
X168285696Y-66772142D01*
X168285697Y-66772142D01*
X168450903Y-66860446D01*
X168595712Y-66979288D01*
X168714554Y-67124097D01*
X168786117Y-67257983D01*
X168802860Y-67289307D01*
X168852182Y-67451900D01*
X168857240Y-67468575D01*
X168871000Y-67608282D01*
X168871000Y-69901718D01*
X168857240Y-70041425D01*
X168857239Y-70041428D01*
X168857239Y-70041429D01*
X168802860Y-70220693D01*
X168802858Y-70220696D01*
X168802858Y-70220697D01*
X168714554Y-70385903D01*
X168595712Y-70530712D01*
X168450903Y-70649554D01*
X168285696Y-70737858D01*
X168285692Y-70737860D01*
X168106428Y-70792239D01*
X168106427Y-70792239D01*
X168106424Y-70792240D01*
X167920000Y-70810601D01*
X167733575Y-70792240D01*
X167733572Y-70792239D01*
X167733571Y-70792239D01*
X167554307Y-70737860D01*
X167554303Y-70737858D01*
X167389097Y-70649554D01*
X167244288Y-70530712D01*
X167125446Y-70385903D01*
X167037142Y-70220696D01*
X167037141Y-70220693D01*
X167037140Y-70220692D01*
X166982761Y-70041428D01*
X166982761Y-70041427D01*
X166982760Y-70041424D01*
X166969000Y-69901717D01*
X166969001Y-67608282D01*
X166982761Y-67468575D01*
X166987819Y-67451900D01*
X167037141Y-67289307D01*
X167053884Y-67257983D01*
X167125447Y-67124097D01*
X167244289Y-66979288D01*
X167389098Y-66860446D01*
X167554304Y-66772142D01*
X167554305Y-66772142D01*
X167554308Y-66772140D01*
X167733572Y-66717761D01*
X167733573Y-66717761D01*
X167733576Y-66717760D01*
X167920000Y-66699399D01*
X168106425Y-66717760D01*
G37*
G36*
X124131416Y-67229519D02*
G01*
X124313734Y-67305038D01*
X124322594Y-67308708D01*
X124429486Y-67380131D01*
X124494648Y-67423671D01*
X124640969Y-67569992D01*
X124755933Y-67742048D01*
X124835121Y-67933224D01*
X124875490Y-68136174D01*
X124875490Y-68343106D01*
X124835121Y-68546056D01*
X124772178Y-68698013D01*
X124755932Y-68737234D01*
X124640969Y-68909288D01*
X124494648Y-69055609D01*
X124322594Y-69170572D01*
X124322593Y-69170573D01*
X124322592Y-69170573D01*
X124131416Y-69249761D01*
X123928466Y-69290130D01*
X123721534Y-69290130D01*
X123518584Y-69249761D01*
X123327408Y-69170573D01*
X123327407Y-69170573D01*
X123327406Y-69170572D01*
X123155352Y-69055609D01*
X123009031Y-68909288D01*
X122894068Y-68737234D01*
X122877822Y-68698013D01*
X122814879Y-68546056D01*
X122774510Y-68343106D01*
X122774510Y-68136174D01*
X122814879Y-67933224D01*
X122894067Y-67742048D01*
X123009031Y-67569992D01*
X123155352Y-67423671D01*
X123220514Y-67380131D01*
X123327406Y-67308708D01*
X123336266Y-67305038D01*
X123518584Y-67229519D01*
X123721534Y-67189150D01*
X123928466Y-67189150D01*
X124131416Y-67229519D01*
G37*
G36*
X135561416Y-67229519D02*
G01*
X135743734Y-67305038D01*
X135752594Y-67308708D01*
X135859486Y-67380131D01*
X135924648Y-67423671D01*
X136070969Y-67569992D01*
X136185933Y-67742048D01*
X136265121Y-67933224D01*
X136305490Y-68136174D01*
X136305490Y-68343106D01*
X136265121Y-68546056D01*
X136202178Y-68698013D01*
X136185932Y-68737234D01*
X136070969Y-68909288D01*
X135924648Y-69055609D01*
X135752594Y-69170572D01*
X135752593Y-69170573D01*
X135752592Y-69170573D01*
X135561416Y-69249761D01*
X135358466Y-69290130D01*
X135151534Y-69290130D01*
X134948584Y-69249761D01*
X134757408Y-69170573D01*
X134757407Y-69170573D01*
X134757406Y-69170572D01*
X134585352Y-69055609D01*
X134439031Y-68909288D01*
X134324068Y-68737234D01*
X134307822Y-68698013D01*
X134244879Y-68546056D01*
X134204510Y-68343106D01*
X134204510Y-68136174D01*
X134244879Y-67933224D01*
X134324067Y-67742048D01*
X134439031Y-67569992D01*
X134585352Y-67423671D01*
X134650514Y-67380131D01*
X134757406Y-67308708D01*
X134766266Y-67305038D01*
X134948584Y-67229519D01*
X135151534Y-67189150D01*
X135358466Y-67189150D01*
X135561416Y-67229519D01*
G37*
G36*
X131751416Y-67229519D02*
G01*
X131933734Y-67305038D01*
X131942594Y-67308708D01*
X132049486Y-67380131D01*
X132114648Y-67423671D01*
X132260969Y-67569992D01*
X132375933Y-67742048D01*
X132455121Y-67933224D01*
X132495490Y-68136174D01*
X132495490Y-68343106D01*
X132455121Y-68546056D01*
X132392178Y-68698013D01*
X132375932Y-68737234D01*
X132260969Y-68909288D01*
X132114648Y-69055609D01*
X131942594Y-69170572D01*
X131942593Y-69170573D01*
X131942592Y-69170573D01*
X131751416Y-69249761D01*
X131548466Y-69290130D01*
X131341534Y-69290130D01*
X131138584Y-69249761D01*
X130947408Y-69170573D01*
X130947407Y-69170573D01*
X130947406Y-69170572D01*
X130775352Y-69055609D01*
X130629031Y-68909288D01*
X130514068Y-68737234D01*
X130497822Y-68698013D01*
X130434879Y-68546056D01*
X130394510Y-68343106D01*
X130394510Y-68136174D01*
X130434879Y-67933224D01*
X130514067Y-67742048D01*
X130629031Y-67569992D01*
X130775352Y-67423671D01*
X130840514Y-67380131D01*
X130947406Y-67308708D01*
X130956266Y-67305038D01*
X131138584Y-67229519D01*
X131341534Y-67189150D01*
X131548466Y-67189150D01*
X131751416Y-67229519D01*
G37*
G36*
X127941416Y-67229519D02*
G01*
X128123734Y-67305038D01*
X128132594Y-67308708D01*
X128239486Y-67380131D01*
X128304648Y-67423671D01*
X128450969Y-67569992D01*
X128565933Y-67742048D01*
X128645121Y-67933224D01*
X128685490Y-68136174D01*
X128685490Y-68343106D01*
X128645121Y-68546056D01*
X128582178Y-68698013D01*
X128565932Y-68737234D01*
X128450969Y-68909288D01*
X128304648Y-69055609D01*
X128132594Y-69170572D01*
X128132593Y-69170573D01*
X128132592Y-69170573D01*
X127941416Y-69249761D01*
X127738466Y-69290130D01*
X127531534Y-69290130D01*
X127328584Y-69249761D01*
X127137408Y-69170573D01*
X127137407Y-69170573D01*
X127137406Y-69170572D01*
X126965352Y-69055609D01*
X126819031Y-68909288D01*
X126704068Y-68737234D01*
X126687822Y-68698013D01*
X126624879Y-68546056D01*
X126584510Y-68343106D01*
X126584510Y-68136174D01*
X126624879Y-67933224D01*
X126704067Y-67742048D01*
X126819031Y-67569992D01*
X126965352Y-67423671D01*
X127030514Y-67380131D01*
X127137406Y-67308708D01*
X127146266Y-67305038D01*
X127328584Y-67229519D01*
X127531534Y-67189150D01*
X127738466Y-67189150D01*
X127941416Y-67229519D01*
G37*
G36*
X120321416Y-67229519D02*
G01*
X120503734Y-67305038D01*
X120512594Y-67308708D01*
X120619486Y-67380131D01*
X120684648Y-67423671D01*
X120830969Y-67569992D01*
X120945933Y-67742048D01*
X121025121Y-67933224D01*
X121065490Y-68136174D01*
X121065490Y-68343106D01*
X121025121Y-68546056D01*
X120962178Y-68698013D01*
X120945932Y-68737234D01*
X120830969Y-68909288D01*
X120684648Y-69055609D01*
X120512594Y-69170572D01*
X120512593Y-69170573D01*
X120512592Y-69170573D01*
X120321416Y-69249761D01*
X120118466Y-69290130D01*
X119911534Y-69290130D01*
X119708584Y-69249761D01*
X119517408Y-69170573D01*
X119517407Y-69170573D01*
X119517406Y-69170572D01*
X119345352Y-69055609D01*
X119199031Y-68909288D01*
X119084068Y-68737234D01*
X119067822Y-68698013D01*
X119004879Y-68546056D01*
X118964510Y-68343106D01*
X118964510Y-68136174D01*
X119004879Y-67933224D01*
X119084067Y-67742048D01*
X119199031Y-67569992D01*
X119345352Y-67423671D01*
X119410514Y-67380131D01*
X119517406Y-67308708D01*
X119526266Y-67305038D01*
X119708584Y-67229519D01*
X119911534Y-67189150D01*
X120118466Y-67189150D01*
X120321416Y-67229519D01*
G37*
G36*
X112701416Y-67229519D02*
G01*
X112883734Y-67305038D01*
X112892594Y-67308708D01*
X112999486Y-67380131D01*
X113064648Y-67423671D01*
X113210969Y-67569992D01*
X113325933Y-67742048D01*
X113405121Y-67933224D01*
X113445490Y-68136174D01*
X113445490Y-68343106D01*
X113405121Y-68546056D01*
X113342178Y-68698013D01*
X113325932Y-68737234D01*
X113210969Y-68909288D01*
X113064648Y-69055609D01*
X112892594Y-69170572D01*
X112892593Y-69170573D01*
X112892592Y-69170573D01*
X112701416Y-69249761D01*
X112498466Y-69290130D01*
X112291534Y-69290130D01*
X112088584Y-69249761D01*
X111897408Y-69170573D01*
X111897407Y-69170573D01*
X111897406Y-69170572D01*
X111725352Y-69055609D01*
X111579031Y-68909288D01*
X111464068Y-68737234D01*
X111447822Y-68698013D01*
X111384879Y-68546056D01*
X111344510Y-68343106D01*
X111344510Y-68136174D01*
X111384879Y-67933224D01*
X111464067Y-67742048D01*
X111579031Y-67569992D01*
X111725352Y-67423671D01*
X111790514Y-67380131D01*
X111897406Y-67308708D01*
X111906266Y-67305038D01*
X112088584Y-67229519D01*
X112291534Y-67189150D01*
X112498466Y-67189150D01*
X112701416Y-67229519D01*
G37*
G36*
X108891416Y-67229519D02*
G01*
X109073734Y-67305038D01*
X109082594Y-67308708D01*
X109189486Y-67380131D01*
X109254648Y-67423671D01*
X109400969Y-67569992D01*
X109515933Y-67742048D01*
X109595121Y-67933224D01*
X109635490Y-68136174D01*
X109635490Y-68343106D01*
X109595121Y-68546056D01*
X109532178Y-68698013D01*
X109515932Y-68737234D01*
X109400969Y-68909288D01*
X109254648Y-69055609D01*
X109082594Y-69170572D01*
X109082593Y-69170573D01*
X109082592Y-69170573D01*
X108891416Y-69249761D01*
X108688466Y-69290130D01*
X108481534Y-69290130D01*
X108278584Y-69249761D01*
X108087408Y-69170573D01*
X108087407Y-69170573D01*
X108087406Y-69170572D01*
X107915352Y-69055609D01*
X107769031Y-68909288D01*
X107654068Y-68737234D01*
X107637822Y-68698013D01*
X107574879Y-68546056D01*
X107534510Y-68343106D01*
X107534510Y-68136174D01*
X107574879Y-67933224D01*
X107654067Y-67742048D01*
X107769031Y-67569992D01*
X107915352Y-67423671D01*
X107980514Y-67380131D01*
X108087406Y-67308708D01*
X108096266Y-67305038D01*
X108278584Y-67229519D01*
X108481534Y-67189150D01*
X108688466Y-67189150D01*
X108891416Y-67229519D01*
G37*
G36*
X105081416Y-67229519D02*
G01*
X105263734Y-67305038D01*
X105272594Y-67308708D01*
X105379486Y-67380131D01*
X105444648Y-67423671D01*
X105590969Y-67569992D01*
X105705933Y-67742048D01*
X105785121Y-67933224D01*
X105825490Y-68136174D01*
X105825490Y-68343106D01*
X105785121Y-68546056D01*
X105722178Y-68698013D01*
X105705932Y-68737234D01*
X105590969Y-68909288D01*
X105444648Y-69055609D01*
X105272594Y-69170572D01*
X105272593Y-69170573D01*
X105272592Y-69170573D01*
X105081416Y-69249761D01*
X104878466Y-69290130D01*
X104671534Y-69290130D01*
X104468584Y-69249761D01*
X104277408Y-69170573D01*
X104277407Y-69170573D01*
X104277406Y-69170572D01*
X104105352Y-69055609D01*
X103959031Y-68909288D01*
X103844068Y-68737234D01*
X103827822Y-68698013D01*
X103764879Y-68546056D01*
X103724510Y-68343106D01*
X103724510Y-68136174D01*
X103764879Y-67933224D01*
X103844067Y-67742048D01*
X103959031Y-67569992D01*
X104105352Y-67423671D01*
X104170514Y-67380131D01*
X104277406Y-67308708D01*
X104286266Y-67305038D01*
X104468584Y-67229519D01*
X104671534Y-67189150D01*
X104878466Y-67189150D01*
X105081416Y-67229519D01*
G37*
G36*
X101271416Y-67229519D02*
G01*
X101453734Y-67305038D01*
X101462594Y-67308708D01*
X101569486Y-67380131D01*
X101634648Y-67423671D01*
X101780969Y-67569992D01*
X101895933Y-67742048D01*
X101975121Y-67933224D01*
X102015490Y-68136174D01*
X102015490Y-68343106D01*
X101975121Y-68546056D01*
X101912178Y-68698013D01*
X101895932Y-68737234D01*
X101780969Y-68909288D01*
X101634648Y-69055609D01*
X101462594Y-69170572D01*
X101462593Y-69170573D01*
X101462592Y-69170573D01*
X101271416Y-69249761D01*
X101068466Y-69290130D01*
X100861534Y-69290130D01*
X100658584Y-69249761D01*
X100467408Y-69170573D01*
X100467407Y-69170573D01*
X100467406Y-69170572D01*
X100295352Y-69055609D01*
X100149031Y-68909288D01*
X100034068Y-68737234D01*
X100017822Y-68698013D01*
X99954879Y-68546056D01*
X99914510Y-68343106D01*
X99914510Y-68136174D01*
X99954879Y-67933224D01*
X100034067Y-67742048D01*
X100149031Y-67569992D01*
X100295352Y-67423671D01*
X100360514Y-67380131D01*
X100467406Y-67308708D01*
X100476266Y-67305038D01*
X100658584Y-67229519D01*
X100861534Y-67189150D01*
X101068466Y-67189150D01*
X101271416Y-67229519D01*
G37*
G36*
X116511416Y-67229519D02*
G01*
X116693734Y-67305038D01*
X116702594Y-67308708D01*
X116809486Y-67380131D01*
X116874648Y-67423671D01*
X117020969Y-67569992D01*
X117135933Y-67742048D01*
X117215121Y-67933224D01*
X117255490Y-68136174D01*
X117255490Y-68343106D01*
X117215121Y-68546056D01*
X117152178Y-68698013D01*
X117135932Y-68737234D01*
X117020969Y-68909288D01*
X116874648Y-69055609D01*
X116702594Y-69170572D01*
X116702593Y-69170573D01*
X116702592Y-69170573D01*
X116511416Y-69249761D01*
X116308466Y-69290130D01*
X116101534Y-69290130D01*
X115898584Y-69249761D01*
X115707408Y-69170573D01*
X115707407Y-69170573D01*
X115707406Y-69170572D01*
X115535352Y-69055609D01*
X115389031Y-68909288D01*
X115274068Y-68737234D01*
X115257822Y-68698013D01*
X115194879Y-68546056D01*
X115154510Y-68343106D01*
X115154510Y-68136174D01*
X115194879Y-67933224D01*
X115274067Y-67742048D01*
X115389031Y-67569992D01*
X115535352Y-67423671D01*
X115600514Y-67380131D01*
X115707406Y-67308708D01*
X115716266Y-67305038D01*
X115898584Y-67229519D01*
X116101534Y-67189150D01*
X116308466Y-67189150D01*
X116511416Y-67229519D01*
G37*
G36*
X183064271Y-65150103D02*
G01*
X183120635Y-65155654D01*
X183337600Y-65221470D01*
X183337602Y-65221471D01*
X183537555Y-65328347D01*
X183712818Y-65472182D01*
X183856653Y-65647445D01*
X183963529Y-65847398D01*
X183963530Y-65847400D01*
X184029346Y-66064365D01*
X184051569Y-66290000D01*
X184029346Y-66515635D01*
X183968032Y-66717760D01*
X183963529Y-66732602D01*
X183856653Y-66932555D01*
X183712818Y-67107818D01*
X183537555Y-67251653D01*
X183337602Y-67358529D01*
X183337600Y-67358530D01*
X183120635Y-67424346D01*
X183120631Y-67424346D01*
X183118516Y-67424988D01*
X183098803Y-67428909D01*
X183076164Y-67438285D01*
X183055790Y-67451899D01*
X183038462Y-67469225D01*
X183024848Y-67489599D01*
X183015470Y-67512238D01*
X183010689Y-67536271D01*
X183010689Y-67560775D01*
X183015469Y-67584809D01*
X183024845Y-67607448D01*
X183038459Y-67627822D01*
X183055785Y-67645150D01*
X183076161Y-67658765D01*
X183192165Y-67720771D01*
X183314133Y-67820867D01*
X183414229Y-67942835D01*
X183488608Y-68081987D01*
X183488608Y-68081988D01*
X183534410Y-68232977D01*
X183549875Y-68390000D01*
X183534410Y-68547023D01*
X183503875Y-68647682D01*
X183488608Y-68698013D01*
X183414229Y-68837165D01*
X183314133Y-68959133D01*
X183192165Y-69059229D01*
X183053013Y-69133608D01*
X183002682Y-69148875D01*
X182902023Y-69179410D01*
X182823571Y-69187137D01*
X182784346Y-69191000D01*
X181705654Y-69191000D01*
X181666429Y-69187137D01*
X181587977Y-69179410D01*
X181487318Y-69148875D01*
X181436987Y-69133608D01*
X181297835Y-69059229D01*
X181175867Y-68959133D01*
X181075771Y-68837165D01*
X181001392Y-68698013D01*
X180986125Y-68647682D01*
X180955590Y-68547023D01*
X180940125Y-68390000D01*
X180955590Y-68232977D01*
X181001392Y-68081988D01*
X181001392Y-68081987D01*
X181075771Y-67942835D01*
X181175867Y-67820867D01*
X181297835Y-67720771D01*
X181413839Y-67658765D01*
X181434213Y-67645151D01*
X181451540Y-67627824D01*
X181465154Y-67607450D01*
X181474531Y-67584811D01*
X181479311Y-67560777D01*
X181479311Y-67536273D01*
X181474530Y-67512240D01*
X181465153Y-67489601D01*
X181451539Y-67469227D01*
X181434212Y-67451900D01*
X181413838Y-67438286D01*
X181391199Y-67428909D01*
X181371484Y-67424988D01*
X181369369Y-67424346D01*
X181369365Y-67424346D01*
X181152400Y-67358530D01*
X181152398Y-67358529D01*
X180952445Y-67251653D01*
X180777182Y-67107818D01*
X180633347Y-66932555D01*
X180526471Y-66732602D01*
X180521969Y-66717760D01*
X180460654Y-66515635D01*
X180438431Y-66290000D01*
X180460654Y-66064365D01*
X180526470Y-65847400D01*
X180526471Y-65847398D01*
X180633347Y-65647445D01*
X180777182Y-65472182D01*
X180952445Y-65328347D01*
X181152398Y-65221471D01*
X181152400Y-65221470D01*
X181369365Y-65155654D01*
X181425729Y-65150103D01*
X181538455Y-65139000D01*
X182951545Y-65139000D01*
X183064271Y-65150103D01*
G37*
G36*
X91924029Y-64162825D02*
G01*
X92004054Y-64187100D01*
X92225820Y-64254372D01*
X92353750Y-64322752D01*
X92503950Y-64403036D01*
X92747736Y-64603104D01*
X92947803Y-64846889D01*
X93096468Y-65125020D01*
X93143264Y-65279288D01*
X93188015Y-65426811D01*
X93211180Y-65662011D01*
X93211180Y-66819309D01*
X93188015Y-67054509D01*
X93163740Y-67134534D01*
X93096468Y-67356300D01*
X93036455Y-67468575D01*
X92947804Y-67634430D01*
X92747736Y-67878216D01*
X92503949Y-68078284D01*
X92353749Y-68158568D01*
X92225819Y-68226948D01*
X92004053Y-68294220D01*
X91924028Y-68318495D01*
X91610180Y-68349406D01*
X91296331Y-68318495D01*
X91216306Y-68294220D01*
X90994540Y-68226948D01*
X90866610Y-68158568D01*
X90716410Y-68078284D01*
X90472624Y-67878216D01*
X90272556Y-67634429D01*
X90136631Y-67380131D01*
X90123892Y-67356299D01*
X90032346Y-67054510D01*
X90032345Y-67054508D01*
X90009180Y-66819308D01*
X90009180Y-65662011D01*
X90032345Y-65426811D01*
X90077096Y-65279288D01*
X90123892Y-65125020D01*
X90272557Y-64846889D01*
X90334719Y-64771145D01*
X90472625Y-64603104D01*
X90716411Y-64403036D01*
X90866611Y-64322752D01*
X90994541Y-64254372D01*
X91216307Y-64187100D01*
X91296332Y-64162825D01*
X91610180Y-64131914D01*
X91924029Y-64162825D01*
G37*
G36*
X144923669Y-64162825D02*
G01*
X145003694Y-64187100D01*
X145225460Y-64254372D01*
X145353390Y-64322752D01*
X145503590Y-64403036D01*
X145747376Y-64603104D01*
X145947443Y-64846889D01*
X146096108Y-65125020D01*
X146142904Y-65279288D01*
X146187655Y-65426811D01*
X146210820Y-65662011D01*
X146210820Y-66819309D01*
X146187655Y-67054509D01*
X146163380Y-67134534D01*
X146096108Y-67356300D01*
X146036095Y-67468575D01*
X145947444Y-67634430D01*
X145747376Y-67878216D01*
X145503589Y-68078284D01*
X145353389Y-68158568D01*
X145225459Y-68226948D01*
X145003693Y-68294220D01*
X144923668Y-68318495D01*
X144609820Y-68349406D01*
X144295971Y-68318495D01*
X144215946Y-68294220D01*
X143994180Y-68226948D01*
X143866250Y-68158568D01*
X143716050Y-68078284D01*
X143472264Y-67878216D01*
X143272196Y-67634429D01*
X143136271Y-67380131D01*
X143123532Y-67356299D01*
X143031986Y-67054510D01*
X143031985Y-67054508D01*
X143008820Y-66819308D01*
X143008820Y-65662011D01*
X143031985Y-65426811D01*
X143076736Y-65279288D01*
X143123532Y-65125020D01*
X143272197Y-64846889D01*
X143334359Y-64771145D01*
X143472265Y-64603104D01*
X143716051Y-64403036D01*
X143866251Y-64322752D01*
X143994181Y-64254372D01*
X144215947Y-64187100D01*
X144295972Y-64162825D01*
X144609820Y-64131914D01*
X144923669Y-64162825D01*
G37*
G36*
X149688674Y-65928465D02*
G01*
X149726367Y-65939899D01*
X149761103Y-65958466D01*
X149791548Y-65983452D01*
X149816534Y-66013897D01*
X149835101Y-66048633D01*
X149846535Y-66086326D01*
X149851000Y-66131661D01*
X149851000Y-67218339D01*
X149846535Y-67263674D01*
X149835101Y-67301367D01*
X149816534Y-67336103D01*
X149791548Y-67366548D01*
X149761103Y-67391534D01*
X149726367Y-67410101D01*
X149688674Y-67421535D01*
X149643339Y-67426000D01*
X148806661Y-67426000D01*
X148761326Y-67421535D01*
X148723633Y-67410101D01*
X148688897Y-67391534D01*
X148658452Y-67366548D01*
X148633466Y-67336103D01*
X148614899Y-67301367D01*
X148603465Y-67263674D01*
X148599000Y-67218339D01*
X148599000Y-66131661D01*
X148603465Y-66086326D01*
X148614899Y-66048633D01*
X148633466Y-66013897D01*
X148658452Y-65983452D01*
X148688897Y-65958466D01*
X148723633Y-65939899D01*
X148761326Y-65928465D01*
X148806661Y-65924000D01*
X149643339Y-65924000D01*
X149688674Y-65928465D01*
G37*
G36*
X158088674Y-65928465D02*
G01*
X158126367Y-65939899D01*
X158161103Y-65958466D01*
X158191548Y-65983452D01*
X158216534Y-66013897D01*
X158235101Y-66048633D01*
X158246535Y-66086326D01*
X158251000Y-66131661D01*
X158251000Y-67218339D01*
X158246535Y-67263674D01*
X158235101Y-67301367D01*
X158216534Y-67336103D01*
X158191548Y-67366548D01*
X158161103Y-67391534D01*
X158126367Y-67410101D01*
X158088674Y-67421535D01*
X158043339Y-67426000D01*
X157206661Y-67426000D01*
X157161326Y-67421535D01*
X157123633Y-67410101D01*
X157088897Y-67391534D01*
X157058452Y-67366548D01*
X157033466Y-67336103D01*
X157014899Y-67301367D01*
X157003465Y-67263674D01*
X156999000Y-67218339D01*
X156999000Y-66131661D01*
X157003465Y-66086326D01*
X157014899Y-66048633D01*
X157033466Y-66013897D01*
X157058452Y-65983452D01*
X157088897Y-65958466D01*
X157123633Y-65939899D01*
X157161326Y-65928465D01*
X157206661Y-65924000D01*
X158043339Y-65924000D01*
X158088674Y-65928465D01*
G37*
G36*
X151738674Y-65928465D02*
G01*
X151776367Y-65939899D01*
X151811103Y-65958466D01*
X151841548Y-65983452D01*
X151866534Y-66013897D01*
X151885101Y-66048633D01*
X151896535Y-66086326D01*
X151901000Y-66131661D01*
X151901000Y-67218339D01*
X151896535Y-67263674D01*
X151885101Y-67301367D01*
X151866534Y-67336103D01*
X151841548Y-67366548D01*
X151811103Y-67391534D01*
X151776367Y-67410101D01*
X151738674Y-67421535D01*
X151693339Y-67426000D01*
X150856661Y-67426000D01*
X150811326Y-67421535D01*
X150773633Y-67410101D01*
X150738897Y-67391534D01*
X150708452Y-67366548D01*
X150683466Y-67336103D01*
X150664899Y-67301367D01*
X150653465Y-67263674D01*
X150649000Y-67218339D01*
X150649000Y-66131661D01*
X150653465Y-66086326D01*
X150664899Y-66048633D01*
X150683466Y-66013897D01*
X150708452Y-65983452D01*
X150738897Y-65958466D01*
X150773633Y-65939899D01*
X150811326Y-65928465D01*
X150856661Y-65924000D01*
X151693339Y-65924000D01*
X151738674Y-65928465D01*
G37*
G36*
X164048674Y-65928465D02*
G01*
X164086367Y-65939899D01*
X164121103Y-65958466D01*
X164151548Y-65983452D01*
X164176534Y-66013897D01*
X164195101Y-66048633D01*
X164206535Y-66086326D01*
X164211000Y-66131661D01*
X164211000Y-67218339D01*
X164206535Y-67263674D01*
X164195101Y-67301367D01*
X164176534Y-67336103D01*
X164151548Y-67366548D01*
X164121103Y-67391534D01*
X164086367Y-67410101D01*
X164048674Y-67421535D01*
X164003339Y-67426000D01*
X163166661Y-67426000D01*
X163121326Y-67421535D01*
X163083633Y-67410101D01*
X163048897Y-67391534D01*
X163018452Y-67366548D01*
X162993466Y-67336103D01*
X162974899Y-67301367D01*
X162963465Y-67263674D01*
X162959000Y-67218339D01*
X162959000Y-66131661D01*
X162963465Y-66086326D01*
X162974899Y-66048633D01*
X162993466Y-66013897D01*
X163018452Y-65983452D01*
X163048897Y-65958466D01*
X163083633Y-65939899D01*
X163121326Y-65928465D01*
X163166661Y-65924000D01*
X164003339Y-65924000D01*
X164048674Y-65928465D01*
G37*
G36*
X161998674Y-65928465D02*
G01*
X162036367Y-65939899D01*
X162071103Y-65958466D01*
X162101548Y-65983452D01*
X162126534Y-66013897D01*
X162145101Y-66048633D01*
X162156535Y-66086326D01*
X162161000Y-66131661D01*
X162161000Y-67218339D01*
X162156535Y-67263674D01*
X162145101Y-67301367D01*
X162126534Y-67336103D01*
X162101548Y-67366548D01*
X162071103Y-67391534D01*
X162036367Y-67410101D01*
X161998674Y-67421535D01*
X161953339Y-67426000D01*
X161116661Y-67426000D01*
X161071326Y-67421535D01*
X161033633Y-67410101D01*
X160998897Y-67391534D01*
X160968452Y-67366548D01*
X160943466Y-67336103D01*
X160924899Y-67301367D01*
X160913465Y-67263674D01*
X160909000Y-67218339D01*
X160909000Y-66131661D01*
X160913465Y-66086326D01*
X160924899Y-66048633D01*
X160943466Y-66013897D01*
X160968452Y-65983452D01*
X160998897Y-65958466D01*
X161033633Y-65939899D01*
X161071326Y-65928465D01*
X161116661Y-65924000D01*
X161953339Y-65924000D01*
X161998674Y-65928465D01*
G37*
G36*
X156038674Y-65928465D02*
G01*
X156076367Y-65939899D01*
X156111103Y-65958466D01*
X156141548Y-65983452D01*
X156166534Y-66013897D01*
X156185101Y-66048633D01*
X156196535Y-66086326D01*
X156201000Y-66131661D01*
X156201000Y-67218339D01*
X156196535Y-67263674D01*
X156185101Y-67301367D01*
X156166534Y-67336103D01*
X156141548Y-67366548D01*
X156111103Y-67391534D01*
X156076367Y-67410101D01*
X156038674Y-67421535D01*
X155993339Y-67426000D01*
X155156661Y-67426000D01*
X155111326Y-67421535D01*
X155073633Y-67410101D01*
X155038897Y-67391534D01*
X155008452Y-67366548D01*
X154983466Y-67336103D01*
X154964899Y-67301367D01*
X154953465Y-67263674D01*
X154949000Y-67218339D01*
X154949000Y-66131661D01*
X154953465Y-66086326D01*
X154964899Y-66048633D01*
X154983466Y-66013897D01*
X155008452Y-65983452D01*
X155038897Y-65958466D01*
X155073633Y-65939899D01*
X155111326Y-65928465D01*
X155156661Y-65924000D01*
X155993339Y-65924000D01*
X156038674Y-65928465D01*
G37*
G36*
X174006425Y-65017760D02*
G01*
X174006428Y-65017761D01*
X174006429Y-65017761D01*
X174185693Y-65072140D01*
X174185696Y-65072142D01*
X174185697Y-65072142D01*
X174350903Y-65160446D01*
X174495712Y-65279288D01*
X174614554Y-65424097D01*
X174702858Y-65589303D01*
X174702860Y-65589307D01*
X174724914Y-65662011D01*
X174757240Y-65768575D01*
X174775601Y-65955000D01*
X174757240Y-66141425D01*
X174757239Y-66141428D01*
X174757239Y-66141429D01*
X174702860Y-66320693D01*
X174702858Y-66320696D01*
X174702858Y-66320697D01*
X174614554Y-66485903D01*
X174495712Y-66630712D01*
X174350903Y-66749554D01*
X174185697Y-66837858D01*
X174185693Y-66837860D01*
X174006429Y-66892239D01*
X174006428Y-66892239D01*
X174006425Y-66892240D01*
X173866718Y-66906000D01*
X171573282Y-66906000D01*
X171433575Y-66892240D01*
X171433572Y-66892239D01*
X171433571Y-66892239D01*
X171254307Y-66837860D01*
X171254303Y-66837858D01*
X171089097Y-66749554D01*
X170944288Y-66630712D01*
X170825446Y-66485903D01*
X170737142Y-66320697D01*
X170737142Y-66320696D01*
X170737140Y-66320693D01*
X170682761Y-66141429D01*
X170682761Y-66141428D01*
X170682760Y-66141425D01*
X170664399Y-65955000D01*
X170682760Y-65768575D01*
X170715086Y-65662011D01*
X170737140Y-65589307D01*
X170737142Y-65589303D01*
X170825446Y-65424097D01*
X170944288Y-65279288D01*
X171089097Y-65160446D01*
X171254303Y-65072142D01*
X171254304Y-65072142D01*
X171254307Y-65072140D01*
X171433571Y-65017761D01*
X171433572Y-65017761D01*
X171433575Y-65017760D01*
X171573282Y-65004000D01*
X173866718Y-65004000D01*
X174006425Y-65017760D01*
G37*
G36*
X165066000Y-64231000D02*
G01*
X163864000Y-64231000D01*
X163864000Y-63029000D01*
X165066000Y-63029000D01*
X165066000Y-64231000D01*
G37*
G36*
X148091000Y-63096000D02*
G01*
X147189000Y-63096000D01*
X147189000Y-62094000D01*
X148091000Y-62094000D01*
X148091000Y-63096000D01*
G37*
G36*
X149991000Y-63096000D02*
G01*
X149089000Y-63096000D01*
X149089000Y-62094000D01*
X149991000Y-62094000D01*
X149991000Y-63096000D01*
G37*
G36*
X157041720Y-59923520D02*
G01*
X157230881Y-59980901D01*
X157405212Y-60074083D01*
X157558015Y-60199485D01*
X157683417Y-60352288D01*
X157727182Y-60434167D01*
X157776598Y-60526617D01*
X157776599Y-60526620D01*
X157833980Y-60715781D01*
X157848500Y-60863207D01*
X157848500Y-61056794D01*
X157833980Y-61204220D01*
X157776599Y-61393381D01*
X157683417Y-61567712D01*
X157558015Y-61720515D01*
X157405212Y-61845917D01*
X157323333Y-61889682D01*
X157230883Y-61939098D01*
X157230880Y-61939099D01*
X157041719Y-61996480D01*
X156845000Y-62015855D01*
X156648280Y-61996480D01*
X156459119Y-61939099D01*
X156284788Y-61845917D01*
X156131985Y-61720515D01*
X156006583Y-61567712D01*
X155933509Y-61431000D01*
X155913402Y-61393383D01*
X155913401Y-61393380D01*
X155856020Y-61204219D01*
X155846340Y-61105935D01*
X155841500Y-61056794D01*
X155841500Y-60863205D01*
X155856020Y-60715782D01*
X155856020Y-60715780D01*
X155913401Y-60526619D01*
X156006583Y-60352288D01*
X156131985Y-60199485D01*
X156284788Y-60074083D01*
X156459120Y-59980901D01*
X156648281Y-59923520D01*
X156845000Y-59904145D01*
X157041720Y-59923520D01*
G37*
G36*
X154501720Y-59923520D02*
G01*
X154690881Y-59980901D01*
X154865212Y-60074083D01*
X155018015Y-60199485D01*
X155143417Y-60352288D01*
X155187182Y-60434167D01*
X155236598Y-60526617D01*
X155236599Y-60526620D01*
X155293980Y-60715781D01*
X155308500Y-60863207D01*
X155308500Y-61056794D01*
X155293980Y-61204220D01*
X155236599Y-61393381D01*
X155143417Y-61567712D01*
X155018015Y-61720515D01*
X154865212Y-61845917D01*
X154783333Y-61889682D01*
X154690883Y-61939098D01*
X154690880Y-61939099D01*
X154501719Y-61996480D01*
X154305000Y-62015855D01*
X154108280Y-61996480D01*
X153919119Y-61939099D01*
X153744788Y-61845917D01*
X153591985Y-61720515D01*
X153466583Y-61567712D01*
X153393509Y-61431000D01*
X153373402Y-61393383D01*
X153373401Y-61393380D01*
X153316020Y-61204219D01*
X153306340Y-61105935D01*
X153301500Y-61056794D01*
X153301500Y-60863205D01*
X153316020Y-60715782D01*
X153316020Y-60715780D01*
X153373401Y-60526619D01*
X153466583Y-60352288D01*
X153591985Y-60199485D01*
X153744788Y-60074083D01*
X153919120Y-59980901D01*
X154108281Y-59923520D01*
X154305000Y-59904145D01*
X154501720Y-59923520D01*
G37*
G36*
X160388500Y-62011000D02*
G01*
X158381500Y-62011000D01*
X158381500Y-59909000D01*
X160388500Y-59909000D01*
X160388500Y-62011000D01*
G37*
G36*
X165066000Y-61431000D02*
G01*
X163864000Y-61431000D01*
X163864000Y-60229000D01*
X165066000Y-60229000D01*
X165066000Y-61431000D01*
G37*
G36*
X149041000Y-61096000D02*
G01*
X148139000Y-61096000D01*
X148139000Y-60094000D01*
X149041000Y-60094000D01*
X149041000Y-61096000D01*
G37*
M02*
