M48
; DRILL file {KiCad 5.1.5-52549c5~84~ubuntu19.10.1} date mar 04 feb 2020 21:36:04 CET
; FORMAT={-:-/ absolute / inch / decimal}
; #@! TF.CreationDate,2020-02-04T21:36:04+01:00
; #@! TF.GenerationSoftware,Kicad,Pcbnew,5.1.5-52549c5~84~ubuntu19.10.1
; #@! TF.FileFunction,Plated,1,2,PTH
FMAT,2
INCH
T1C0.0157
T2C0.0315
T3C0.0354
T4C0.0394
T5C0.0433
T6C0.0472
T7C0.0512
T8C0.0591
%
G90
G05
T1
X3.6Y-3.25
X4.575Y-3.525
X4.6Y-3.35
X4.625Y-3.575
X4.675Y-3.65
X4.7151Y-3.2901
X4.75Y-3.625
X4.8Y-3.325
X4.8Y-3.575
X4.825Y-3.75
X4.85Y-3.4
X5.15Y-3.825
X5.6Y-2.95
X5.65Y-3.45
X5.75Y-3.6
X5.8996Y-2.9404
X5.915Y-2.385
X5.95Y-4.1
X6.1Y-4.05
X6.125Y-2.55
X6.25Y-2.7
X6.425Y-3.125
X6.425Y-3.325
X6.475Y-3.0
X6.65Y-3.55
T2
X5.225Y-3.475
X5.225Y-3.6671
T3
X7.175Y-2.6925
X7.175Y-2.7713
X7.175Y-2.85
X3.675Y-3.375
X3.775Y-3.375
X3.675Y-3.65
X3.775Y-3.65
T4
X7.1581Y-3.2685
X7.1581Y-3.5835
X6.025Y-3.075
X6.025Y-3.175
X6.125Y-3.075
X6.125Y-3.175
X6.225Y-3.075
X6.225Y-3.175
T5
X6.075Y-2.4
X6.175Y-2.4
X6.275Y-2.4
T6
X3.9Y-2.8866
X3.975Y-2.6866
X4.05Y-2.8866
X4.125Y-2.6866
X4.2Y-2.8866
X4.275Y-2.6866
X4.35Y-2.8866
X4.425Y-2.6866
X4.5Y-2.8866
X4.575Y-2.6866
X4.65Y-2.8866
X4.725Y-2.6866
X4.8Y-2.8866
X4.875Y-2.6866
X4.95Y-2.8866
X5.025Y-2.6866
X5.1Y-2.8866
X5.175Y-2.6866
X5.25Y-2.8866
X5.325Y-2.6866
X5.4Y-2.8866
T7
X3.975Y-3.9
X4.1325Y-3.9
X4.29Y-3.9
X4.4474Y-3.9
X4.7033Y-3.9
X4.8608Y-3.9
X5.0183Y-3.9
X5.775Y-3.9
X5.9325Y-3.9
X6.09Y-3.9
X6.2474Y-3.9
X6.5033Y-3.9
X6.6608Y-3.9
X6.8183Y-3.9
T8
X7.175Y-2.6098
X7.175Y-2.9327
T2
G00X6.611Y-2.6636
M15
G01X6.611Y-2.7502
M16
G05
G00X6.8433Y-2.5967
M15
G01X6.7567Y-2.5967
M16
G05
G00X6.8512Y-2.825
M15
G01X6.7488Y-2.825
M16
G05
T0
M30
