G04 #@! TF.GenerationSoftware,KiCad,Pcbnew,5.1.5-52549c5~84~ubuntu19.10.1*
G04 #@! TF.CreationDate,2019-12-01T23:59:15+01:00*
G04 #@! TF.ProjectId,eduzebox,6564757a-6562-46f7-982e-6b696361645f,rev?*
G04 #@! TF.SameCoordinates,Original*
G04 #@! TF.FileFunction,Legend,Top*
G04 #@! TF.FilePolarity,Positive*
%FSLAX46Y46*%
G04 Gerber Fmt 4.6, Leading zero omitted, Abs format (unit mm)*
G04 Created by KiCad (PCBNEW 5.1.5-52549c5~84~ubuntu19.10.1) date 2019-12-01 23:59:15*
%MOMM*%
%LPD*%
G04 APERTURE LIST*
%ADD10C,0.300000*%
%ADD11C,0.120000*%
%ADD12C,0.150000*%
%ADD13C,0.381000*%
%ADD14C,0.304800*%
G04 APERTURE END LIST*
D10*
X142425000Y-95777857D02*
X142925000Y-95777857D01*
X143139285Y-96563571D02*
X142425000Y-96563571D01*
X142425000Y-95063571D01*
X143139285Y-95063571D01*
X144425000Y-96563571D02*
X144425000Y-95063571D01*
X144425000Y-96492142D02*
X144282142Y-96563571D01*
X143996428Y-96563571D01*
X143853571Y-96492142D01*
X143782142Y-96420714D01*
X143710714Y-96277857D01*
X143710714Y-95849285D01*
X143782142Y-95706428D01*
X143853571Y-95635000D01*
X143996428Y-95563571D01*
X144282142Y-95563571D01*
X144425000Y-95635000D01*
X145139285Y-95063571D02*
X145139285Y-96277857D01*
X145210714Y-96420714D01*
X145282142Y-96492142D01*
X145425000Y-96563571D01*
X145710714Y-96563571D01*
X145853571Y-96492142D01*
X145925000Y-96420714D01*
X145996428Y-96277857D01*
X145996428Y-95063571D01*
X146567857Y-95563571D02*
X147353571Y-95563571D01*
X146567857Y-96563571D01*
X147353571Y-96563571D01*
X148496428Y-96492142D02*
X148353571Y-96563571D01*
X148067857Y-96563571D01*
X147925000Y-96492142D01*
X147853571Y-96349285D01*
X147853571Y-95777857D01*
X147925000Y-95635000D01*
X148067857Y-95563571D01*
X148353571Y-95563571D01*
X148496428Y-95635000D01*
X148567857Y-95777857D01*
X148567857Y-95920714D01*
X147853571Y-96063571D01*
X149210714Y-96563571D02*
X149210714Y-95063571D01*
X149210714Y-95635000D02*
X149353571Y-95563571D01*
X149639285Y-95563571D01*
X149782142Y-95635000D01*
X149853571Y-95706428D01*
X149925000Y-95849285D01*
X149925000Y-96277857D01*
X149853571Y-96420714D01*
X149782142Y-96492142D01*
X149639285Y-96563571D01*
X149353571Y-96563571D01*
X149210714Y-96492142D01*
X150782142Y-96563571D02*
X150639285Y-96492142D01*
X150567857Y-96420714D01*
X150496428Y-96277857D01*
X150496428Y-95849285D01*
X150567857Y-95706428D01*
X150639285Y-95635000D01*
X150782142Y-95563571D01*
X150996428Y-95563571D01*
X151139285Y-95635000D01*
X151210714Y-95706428D01*
X151282142Y-95849285D01*
X151282142Y-96277857D01*
X151210714Y-96420714D01*
X151139285Y-96492142D01*
X150996428Y-96563571D01*
X150782142Y-96563571D01*
X151782142Y-96563571D02*
X152567857Y-95563571D01*
X151782142Y-95563571D02*
X152567857Y-96563571D01*
X154139285Y-95563571D02*
X154496428Y-96563571D01*
X154853571Y-95563571D01*
X156210714Y-96563571D02*
X155353571Y-96563571D01*
X155782142Y-96563571D02*
X155782142Y-95063571D01*
X155639285Y-95277857D01*
X155496428Y-95420714D01*
X155353571Y-95492142D01*
X160210714Y-95206428D02*
X160282142Y-95135000D01*
X160425000Y-95063571D01*
X160782142Y-95063571D01*
X160925000Y-95135000D01*
X160996428Y-95206428D01*
X161067857Y-95349285D01*
X161067857Y-95492142D01*
X160996428Y-95706428D01*
X160139285Y-96563571D01*
X161067857Y-96563571D01*
X161996428Y-95063571D02*
X162139285Y-95063571D01*
X162282142Y-95135000D01*
X162353571Y-95206428D01*
X162425000Y-95349285D01*
X162496428Y-95635000D01*
X162496428Y-95992142D01*
X162425000Y-96277857D01*
X162353571Y-96420714D01*
X162282142Y-96492142D01*
X162139285Y-96563571D01*
X161996428Y-96563571D01*
X161853571Y-96492142D01*
X161782142Y-96420714D01*
X161710714Y-96277857D01*
X161639285Y-95992142D01*
X161639285Y-95635000D01*
X161710714Y-95349285D01*
X161782142Y-95206428D01*
X161853571Y-95135000D01*
X161996428Y-95063571D01*
X163925000Y-96563571D02*
X163067857Y-96563571D01*
X163496428Y-96563571D02*
X163496428Y-95063571D01*
X163353571Y-95277857D01*
X163210714Y-95420714D01*
X163067857Y-95492142D01*
X164639285Y-96563571D02*
X164925000Y-96563571D01*
X165067857Y-96492142D01*
X165139285Y-96420714D01*
X165282142Y-96206428D01*
X165353571Y-95920714D01*
X165353571Y-95349285D01*
X165282142Y-95206428D01*
X165210714Y-95135000D01*
X165067857Y-95063571D01*
X164782142Y-95063571D01*
X164639285Y-95135000D01*
X164567857Y-95206428D01*
X164496428Y-95349285D01*
X164496428Y-95706428D01*
X164567857Y-95849285D01*
X164639285Y-95920714D01*
X164782142Y-95992142D01*
X165067857Y-95992142D01*
X165210714Y-95920714D01*
X165282142Y-95849285D01*
X165353571Y-95706428D01*
X169996428Y-96492142D02*
X169853571Y-96563571D01*
X169567857Y-96563571D01*
X169425000Y-96492142D01*
X169353571Y-96349285D01*
X169353571Y-95777857D01*
X169425000Y-95635000D01*
X169567857Y-95563571D01*
X169853571Y-95563571D01*
X169996428Y-95635000D01*
X170067857Y-95777857D01*
X170067857Y-95920714D01*
X169353571Y-96063571D01*
X171353571Y-96563571D02*
X171353571Y-95063571D01*
X171353571Y-96492142D02*
X171210714Y-96563571D01*
X170925000Y-96563571D01*
X170782142Y-96492142D01*
X170710714Y-96420714D01*
X170639285Y-96277857D01*
X170639285Y-95849285D01*
X170710714Y-95706428D01*
X170782142Y-95635000D01*
X170925000Y-95563571D01*
X171210714Y-95563571D01*
X171353571Y-95635000D01*
X172710714Y-95563571D02*
X172710714Y-96563571D01*
X172067857Y-95563571D02*
X172067857Y-96349285D01*
X172139285Y-96492142D01*
X172282142Y-96563571D01*
X172496428Y-96563571D01*
X172639285Y-96492142D01*
X172710714Y-96420714D01*
X174067857Y-96563571D02*
X174067857Y-95777857D01*
X173996428Y-95635000D01*
X173853571Y-95563571D01*
X173567857Y-95563571D01*
X173425000Y-95635000D01*
X174067857Y-96492142D02*
X173925000Y-96563571D01*
X173567857Y-96563571D01*
X173425000Y-96492142D01*
X173353571Y-96349285D01*
X173353571Y-96206428D01*
X173425000Y-96063571D01*
X173567857Y-95992142D01*
X173925000Y-95992142D01*
X174067857Y-95920714D01*
X174782142Y-96563571D02*
X174782142Y-95563571D01*
X174782142Y-95849285D02*
X174853571Y-95706428D01*
X174925000Y-95635000D01*
X175067857Y-95563571D01*
X175210714Y-95563571D01*
X176353571Y-96563571D02*
X176353571Y-95063571D01*
X176353571Y-96492142D02*
X176210714Y-96563571D01*
X175925000Y-96563571D01*
X175782142Y-96492142D01*
X175710714Y-96420714D01*
X175639285Y-96277857D01*
X175639285Y-95849285D01*
X175710714Y-95706428D01*
X175782142Y-95635000D01*
X175925000Y-95563571D01*
X176210714Y-95563571D01*
X176353571Y-95635000D01*
X177282142Y-96563571D02*
X177139285Y-96492142D01*
X177067857Y-96420714D01*
X176996428Y-96277857D01*
X176996428Y-95849285D01*
X177067857Y-95706428D01*
X177139285Y-95635000D01*
X177282142Y-95563571D01*
X177496428Y-95563571D01*
X177639285Y-95635000D01*
X177710714Y-95706428D01*
X177782142Y-95849285D01*
X177782142Y-96277857D01*
X177710714Y-96420714D01*
X177639285Y-96492142D01*
X177496428Y-96563571D01*
X177282142Y-96563571D01*
X178210714Y-95563571D02*
X178782142Y-95563571D01*
X178425000Y-96563571D02*
X178425000Y-95277857D01*
X178496428Y-95135000D01*
X178639285Y-95063571D01*
X178782142Y-95063571D01*
X179282142Y-96563571D02*
X179282142Y-95563571D01*
X179282142Y-95063571D02*
X179210714Y-95135000D01*
X179282142Y-95206428D01*
X179353571Y-95135000D01*
X179282142Y-95063571D01*
X179282142Y-95206428D01*
X180210714Y-96563571D02*
X180067857Y-96492142D01*
X179996428Y-96349285D01*
X179996428Y-95063571D01*
X180996428Y-96563571D02*
X180853571Y-96492142D01*
X180782142Y-96420714D01*
X180710714Y-96277857D01*
X180710714Y-95849285D01*
X180782142Y-95706428D01*
X180853571Y-95635000D01*
X180996428Y-95563571D01*
X181210714Y-95563571D01*
X181353571Y-95635000D01*
X181425000Y-95706428D01*
X181496428Y-95849285D01*
X181496428Y-96277857D01*
X181425000Y-96420714D01*
X181353571Y-96492142D01*
X181210714Y-96563571D01*
X180996428Y-96563571D01*
D11*
X136450000Y-87256252D02*
X136450000Y-86733748D01*
X137870000Y-87256252D02*
X137870000Y-86733748D01*
X92055000Y-91165000D02*
X92055000Y-94255000D01*
X97115000Y-92710000D02*
G75*
G03X97115000Y-92710000I-2500000J0D01*
G01*
X97605000Y-92709538D02*
G75*
G02X92055000Y-94254830I-2990000J-462D01*
G01*
X97605000Y-92710462D02*
G75*
G03X92055000Y-91165170I-2990000J462D01*
G01*
X182955000Y-110560000D02*
X180455000Y-110560000D01*
X182955000Y-111560000D02*
X182955000Y-110560000D01*
X139455000Y-111560000D02*
X182955000Y-111560000D01*
X139455000Y-110560000D02*
X139455000Y-111560000D01*
X141955000Y-110560000D02*
X139455000Y-110560000D01*
X150455000Y-110560000D02*
X150455000Y-99060000D01*
X149455000Y-99060000D02*
X149455000Y-110560000D01*
X172955000Y-99060000D02*
X172955000Y-110560000D01*
X171955000Y-99060000D02*
X171955000Y-110560000D01*
X180455000Y-110560000D02*
X180455000Y-99060000D01*
X141955000Y-110560000D02*
X180455000Y-110560000D01*
X141955000Y-99060000D02*
X141955000Y-110560000D01*
X180455000Y-99060000D02*
X141955000Y-99060000D01*
X175955000Y-97060000D02*
X175955000Y-99060000D01*
X146455000Y-97060000D02*
X175955000Y-97060000D01*
X146455000Y-99060000D02*
X146455000Y-97060000D01*
X134695000Y-110560000D02*
X132195000Y-110560000D01*
X134695000Y-111560000D02*
X134695000Y-110560000D01*
X91195000Y-111560000D02*
X134695000Y-111560000D01*
X91195000Y-110560000D02*
X91195000Y-111560000D01*
X93695000Y-110560000D02*
X91195000Y-110560000D01*
X102195000Y-110560000D02*
X102195000Y-99060000D01*
X101195000Y-99060000D02*
X101195000Y-110560000D01*
X124695000Y-99060000D02*
X124695000Y-110560000D01*
X123695000Y-99060000D02*
X123695000Y-110560000D01*
X132195000Y-110560000D02*
X132195000Y-99060000D01*
X93695000Y-110560000D02*
X132195000Y-110560000D01*
X93695000Y-99060000D02*
X93695000Y-110560000D01*
X132195000Y-99060000D02*
X93695000Y-99060000D01*
X127695000Y-97060000D02*
X127695000Y-99060000D01*
X98195000Y-97060000D02*
X127695000Y-97060000D01*
X98195000Y-99060000D02*
X98195000Y-97060000D01*
X151352500Y-71420000D02*
X155437500Y-71420000D01*
X151352500Y-69550000D02*
X151352500Y-71420000D01*
X155437500Y-69550000D02*
X151352500Y-69550000D01*
X157702500Y-71420000D02*
X161787500Y-71420000D01*
X157702500Y-69550000D02*
X157702500Y-71420000D01*
X161787500Y-69550000D02*
X157702500Y-69550000D01*
X149988748Y-67385000D02*
X150511252Y-67385000D01*
X149988748Y-65965000D02*
X150511252Y-65965000D01*
D12*
X184545000Y-64580000D02*
X184545000Y-62280000D01*
X184545000Y-70880000D02*
X184545000Y-68680000D01*
X179945000Y-70880000D02*
X179945000Y-62280000D01*
D11*
X162298748Y-67385000D02*
X162821252Y-67385000D01*
X162298748Y-65965000D02*
X162821252Y-65965000D01*
X156338748Y-65965000D02*
X156861252Y-65965000D01*
X156338748Y-67385000D02*
X156861252Y-67385000D01*
X136450000Y-94598748D02*
X136450000Y-95121252D01*
X137870000Y-94598748D02*
X137870000Y-95121252D01*
X125691995Y-94387097D02*
X125322529Y-94756563D01*
X124687903Y-93383005D02*
X124318437Y-93752471D01*
X163465000Y-64430000D02*
X165465000Y-64430000D01*
X165465000Y-64430000D02*
X165465000Y-60580000D01*
X163465000Y-64430000D02*
X163465000Y-60580000D01*
X91625000Y-85724538D02*
G75*
G03X97175000Y-87269830I2990000J-462D01*
G01*
X91625000Y-85725462D02*
G75*
G02X97175000Y-84180170I2990000J462D01*
G01*
X97115000Y-85725000D02*
G75*
G03X97115000Y-85725000I-2500000J0D01*
G01*
X97175000Y-87270000D02*
X97175000Y-84180000D01*
X168120000Y-66555000D02*
X168120000Y-58055000D01*
X168120000Y-58055000D02*
X177320000Y-58055000D01*
X177320000Y-58055000D02*
X177320000Y-72755000D01*
X170220000Y-72755000D02*
X168120000Y-72755000D01*
X168120000Y-72755000D02*
X168120000Y-70955000D01*
X175920000Y-73055000D02*
X177620000Y-73055000D01*
X177620000Y-73055000D02*
X177620000Y-71455000D01*
X177320000Y-72755000D02*
X175220000Y-72755000D01*
X185680000Y-91360000D02*
X185780000Y-91860000D01*
X185380000Y-90060000D02*
X185680000Y-91360000D01*
X185180000Y-88560000D02*
X185380000Y-90060000D01*
X185080000Y-87260000D02*
X185180000Y-88560000D01*
X185080000Y-85460000D02*
X185080000Y-87260000D01*
X185180000Y-84160000D02*
X185080000Y-85460000D01*
X185280000Y-83360000D02*
X185180000Y-84160000D01*
X185580000Y-81660000D02*
X185280000Y-83360000D01*
X185780000Y-80860000D02*
X185580000Y-81660000D01*
X186380000Y-81360000D02*
X186380000Y-91360000D01*
X184880000Y-80860000D02*
X185880000Y-80860000D01*
X184880000Y-91860000D02*
X185880000Y-91860000D01*
X184880000Y-79450000D02*
X184880000Y-93270000D01*
X170960000Y-93270000D02*
X170960000Y-79450000D01*
X173660000Y-93270000D02*
X170960000Y-93270000D01*
X184880000Y-93270000D02*
X184480000Y-93270000D01*
X181960000Y-93270000D02*
X176180000Y-93270000D01*
X173660000Y-79450000D02*
X170960000Y-79450000D01*
X181960000Y-79450000D02*
X176180000Y-79450000D01*
X184880000Y-79450000D02*
X184480000Y-79450000D01*
X185880000Y-91860000D02*
G75*
G03X186380000Y-91360000I0J500000D01*
G01*
X186380000Y-81360000D02*
G75*
G03X185880000Y-80860000I-500000J0D01*
G01*
X151705000Y-81975000D02*
X151705000Y-80645000D01*
X153035000Y-81975000D02*
X151705000Y-81975000D01*
X151705000Y-79375000D02*
X151705000Y-76775000D01*
X154305000Y-79375000D02*
X151705000Y-79375000D01*
X154305000Y-81975000D02*
X154305000Y-79375000D01*
X151705000Y-76775000D02*
X159445000Y-76775000D01*
X154305000Y-81975000D02*
X159445000Y-81975000D01*
X159445000Y-81975000D02*
X159445000Y-76775000D01*
D13*
X94234000Y-57531000D02*
X94234000Y-64389000D01*
X141478000Y-57531000D02*
X141478000Y-64389000D01*
X94234000Y-64389000D02*
X141478000Y-64389000D01*
X141478000Y-67437000D02*
X94259400Y-67437000D01*
X94234000Y-74549000D02*
X94234000Y-67437000D01*
X141478000Y-74549000D02*
X94234000Y-74549000D01*
X141478000Y-67437000D02*
X141478000Y-74549000D01*
X141478000Y-57531000D02*
X94234000Y-57531000D01*
D11*
X146760000Y-89161252D02*
X146760000Y-88638748D01*
X145340000Y-89161252D02*
X145340000Y-88638748D01*
X100255000Y-92336252D02*
X100255000Y-91813748D01*
X101675000Y-92336252D02*
X101675000Y-91813748D01*
X143435000Y-73398748D02*
X143435000Y-73921252D01*
X144855000Y-73398748D02*
X144855000Y-73921252D01*
X90730000Y-79503748D02*
X90730000Y-80026252D01*
X92150000Y-79503748D02*
X92150000Y-80026252D01*
X100255000Y-85463748D02*
X100255000Y-85986252D01*
X101675000Y-85463748D02*
X101675000Y-85986252D01*
X143585000Y-79503748D02*
X143585000Y-80026252D01*
X142165000Y-79503748D02*
X142165000Y-80026252D01*
X138990000Y-79503748D02*
X138990000Y-80026252D01*
X140410000Y-79503748D02*
X140410000Y-80026252D01*
X137235000Y-79503748D02*
X137235000Y-80026252D01*
X135815000Y-79503748D02*
X135815000Y-80026252D01*
X130885000Y-79503748D02*
X130885000Y-80026252D01*
X129465000Y-79503748D02*
X129465000Y-80026252D01*
X106605000Y-79503748D02*
X106605000Y-80026252D01*
X108025000Y-79503748D02*
X108025000Y-80026252D01*
X104850000Y-79503748D02*
X104850000Y-80026252D01*
X103430000Y-79503748D02*
X103430000Y-80026252D01*
X98500000Y-79503748D02*
X98500000Y-80026252D01*
X97080000Y-79503748D02*
X97080000Y-80026252D01*
X93905000Y-79503748D02*
X93905000Y-80026252D01*
X95325000Y-79503748D02*
X95325000Y-80026252D01*
X145340000Y-80026252D02*
X145340000Y-79503748D01*
X146760000Y-80026252D02*
X146760000Y-79503748D01*
X134060000Y-80026252D02*
X134060000Y-79503748D01*
X132640000Y-80026252D02*
X132640000Y-79503748D01*
X100255000Y-80026252D02*
X100255000Y-79503748D01*
X101675000Y-80026252D02*
X101675000Y-79503748D01*
X167511252Y-84380000D02*
X166988748Y-84380000D01*
X167511252Y-85800000D02*
X166988748Y-85800000D01*
X167511252Y-80720000D02*
X166988748Y-80720000D01*
X167511252Y-79300000D02*
X166988748Y-79300000D01*
X167511252Y-90880000D02*
X166988748Y-90880000D01*
X167511252Y-89460000D02*
X166988748Y-89460000D01*
X167511252Y-81840000D02*
X166988748Y-81840000D01*
X167511252Y-83260000D02*
X166988748Y-83260000D01*
X167511252Y-88340000D02*
X166988748Y-88340000D01*
X167511252Y-86920000D02*
X166988748Y-86920000D01*
X167511252Y-92000000D02*
X166988748Y-92000000D01*
X167511252Y-93420000D02*
X166988748Y-93420000D01*
X148665000Y-73921252D02*
X148665000Y-73398748D01*
X147245000Y-73921252D02*
X147245000Y-73398748D01*
X151710000Y-92130000D02*
X158170000Y-92130000D01*
X151710000Y-87600000D02*
X151710000Y-90200000D01*
X151710000Y-85670000D02*
X158170000Y-85670000D01*
X158170000Y-87600000D02*
X158170000Y-90200000D01*
X151710000Y-85700000D02*
X151710000Y-85670000D01*
X151710000Y-92130000D02*
X151710000Y-92100000D01*
X158170000Y-92130000D02*
X158170000Y-92100000D01*
X158170000Y-85670000D02*
X158170000Y-85700000D01*
X161965000Y-64230000D02*
X151725000Y-64230000D01*
X161965000Y-59589000D02*
X151725000Y-59589000D01*
X161965000Y-64230000D02*
X161965000Y-59589000D01*
X151725000Y-64230000D02*
X151725000Y-59589000D01*
X161965000Y-62720000D02*
X151725000Y-62720000D01*
X158695000Y-64230000D02*
X158695000Y-62720000D01*
X154994000Y-64230000D02*
X154994000Y-62720000D01*
X150170000Y-60835000D02*
X149240000Y-60835000D01*
X147010000Y-60835000D02*
X147940000Y-60835000D01*
X147010000Y-60835000D02*
X147010000Y-62995000D01*
X150170000Y-60835000D02*
X150170000Y-62295000D01*
D12*
X119380000Y-94948555D02*
X119786586Y-94541969D01*
X112061445Y-87630000D02*
X112538742Y-87152703D01*
X119380000Y-80311445D02*
X118902703Y-80788742D01*
X126698555Y-87630000D02*
X126221258Y-88107297D01*
X119380000Y-94948555D02*
X118902703Y-94471258D01*
X126698555Y-87630000D02*
X126221258Y-87152703D01*
X119380000Y-80311445D02*
X119857297Y-80788742D01*
X112061445Y-87630000D02*
X112538742Y-88107297D01*
X119786586Y-94541969D02*
X120688148Y-95443530D01*
D11*
X130190000Y-93905000D02*
G75*
G03X135240000Y-93905000I2525000J0D01*
G01*
X130190000Y-87505000D02*
G75*
G02X135240000Y-87505000I2525000J0D01*
G01*
X130190000Y-87505000D02*
X130190000Y-93905000D01*
X135240000Y-87505000D02*
X135240000Y-93905000D01*
D12*
X139422142Y-87406666D02*
X139469761Y-87454285D01*
X139517380Y-87597142D01*
X139517380Y-87692380D01*
X139469761Y-87835238D01*
X139374523Y-87930476D01*
X139279285Y-87978095D01*
X139088809Y-88025714D01*
X138945952Y-88025714D01*
X138755476Y-87978095D01*
X138660238Y-87930476D01*
X138565000Y-87835238D01*
X138517380Y-87692380D01*
X138517380Y-87597142D01*
X138565000Y-87454285D01*
X138612619Y-87406666D01*
X138517380Y-86501904D02*
X138517380Y-86978095D01*
X138993571Y-87025714D01*
X138945952Y-86978095D01*
X138898333Y-86882857D01*
X138898333Y-86644761D01*
X138945952Y-86549523D01*
X138993571Y-86501904D01*
X139088809Y-86454285D01*
X139326904Y-86454285D01*
X139422142Y-86501904D01*
X139469761Y-86549523D01*
X139517380Y-86644761D01*
X139517380Y-86882857D01*
X139469761Y-86978095D01*
X139422142Y-87025714D01*
X91257380Y-93448095D02*
X90257380Y-93448095D01*
X90257380Y-93210000D01*
X90305000Y-93067142D01*
X90400238Y-92971904D01*
X90495476Y-92924285D01*
X90685952Y-92876666D01*
X90828809Y-92876666D01*
X91019285Y-92924285D01*
X91114523Y-92971904D01*
X91209761Y-93067142D01*
X91257380Y-93210000D01*
X91257380Y-93448095D01*
X90257380Y-92543333D02*
X90257380Y-91924285D01*
X90638333Y-92257619D01*
X90638333Y-92114761D01*
X90685952Y-92019523D01*
X90733571Y-91971904D01*
X90828809Y-91924285D01*
X91066904Y-91924285D01*
X91162142Y-91971904D01*
X91209761Y-92019523D01*
X91257380Y-92114761D01*
X91257380Y-92400476D01*
X91209761Y-92495714D01*
X91162142Y-92543333D01*
X143970476Y-97242380D02*
X144637142Y-98242380D01*
X144637142Y-97242380D02*
X143970476Y-98242380D01*
X144970476Y-97337619D02*
X145018095Y-97290000D01*
X145113333Y-97242380D01*
X145351428Y-97242380D01*
X145446666Y-97290000D01*
X145494285Y-97337619D01*
X145541904Y-97432857D01*
X145541904Y-97528095D01*
X145494285Y-97670952D01*
X144922857Y-98242380D01*
X145541904Y-98242380D01*
X95710476Y-97242380D02*
X96377142Y-98242380D01*
X96377142Y-97242380D02*
X95710476Y-98242380D01*
X97281904Y-98242380D02*
X96710476Y-98242380D01*
X96996190Y-98242380D02*
X96996190Y-97242380D01*
X96900952Y-97385238D01*
X96805714Y-97480476D01*
X96710476Y-97528095D01*
X151019642Y-70651666D02*
X151067261Y-70699285D01*
X151114880Y-70842142D01*
X151114880Y-70937380D01*
X151067261Y-71080238D01*
X150972023Y-71175476D01*
X150876785Y-71223095D01*
X150686309Y-71270714D01*
X150543452Y-71270714D01*
X150352976Y-71223095D01*
X150257738Y-71175476D01*
X150162500Y-71080238D01*
X150114880Y-70937380D01*
X150114880Y-70842142D01*
X150162500Y-70699285D01*
X150210119Y-70651666D01*
X150448214Y-69794523D02*
X151114880Y-69794523D01*
X150067261Y-70032619D02*
X150781547Y-70270714D01*
X150781547Y-69651666D01*
X157369642Y-70651666D02*
X157417261Y-70699285D01*
X157464880Y-70842142D01*
X157464880Y-70937380D01*
X157417261Y-71080238D01*
X157322023Y-71175476D01*
X157226785Y-71223095D01*
X157036309Y-71270714D01*
X156893452Y-71270714D01*
X156702976Y-71223095D01*
X156607738Y-71175476D01*
X156512500Y-71080238D01*
X156464880Y-70937380D01*
X156464880Y-70842142D01*
X156512500Y-70699285D01*
X156560119Y-70651666D01*
X156464880Y-70318333D02*
X156464880Y-69699285D01*
X156845833Y-70032619D01*
X156845833Y-69889761D01*
X156893452Y-69794523D01*
X156941071Y-69746904D01*
X157036309Y-69699285D01*
X157274404Y-69699285D01*
X157369642Y-69746904D01*
X157417261Y-69794523D01*
X157464880Y-69889761D01*
X157464880Y-70175476D01*
X157417261Y-70270714D01*
X157369642Y-70318333D01*
X148067142Y-66841666D02*
X148114761Y-66889285D01*
X148162380Y-67032142D01*
X148162380Y-67127380D01*
X148114761Y-67270238D01*
X148019523Y-67365476D01*
X147924285Y-67413095D01*
X147733809Y-67460714D01*
X147590952Y-67460714D01*
X147400476Y-67413095D01*
X147305238Y-67365476D01*
X147210000Y-67270238D01*
X147162380Y-67127380D01*
X147162380Y-67032142D01*
X147210000Y-66889285D01*
X147257619Y-66841666D01*
X147590952Y-66270238D02*
X147543333Y-66365476D01*
X147495714Y-66413095D01*
X147400476Y-66460714D01*
X147352857Y-66460714D01*
X147257619Y-66413095D01*
X147210000Y-66365476D01*
X147162380Y-66270238D01*
X147162380Y-66079761D01*
X147210000Y-65984523D01*
X147257619Y-65936904D01*
X147352857Y-65889285D01*
X147400476Y-65889285D01*
X147495714Y-65936904D01*
X147543333Y-65984523D01*
X147590952Y-66079761D01*
X147590952Y-66270238D01*
X147638571Y-66365476D01*
X147686190Y-66413095D01*
X147781428Y-66460714D01*
X147971904Y-66460714D01*
X148067142Y-66413095D01*
X148114761Y-66365476D01*
X148162380Y-66270238D01*
X148162380Y-66079761D01*
X148114761Y-65984523D01*
X148067142Y-65936904D01*
X147971904Y-65889285D01*
X147781428Y-65889285D01*
X147686190Y-65936904D01*
X147638571Y-65984523D01*
X147590952Y-66079761D01*
X179049761Y-68513333D02*
X179097380Y-68370476D01*
X179097380Y-68132380D01*
X179049761Y-68037142D01*
X179002142Y-67989523D01*
X178906904Y-67941904D01*
X178811666Y-67941904D01*
X178716428Y-67989523D01*
X178668809Y-68037142D01*
X178621190Y-68132380D01*
X178573571Y-68322857D01*
X178525952Y-68418095D01*
X178478333Y-68465714D01*
X178383095Y-68513333D01*
X178287857Y-68513333D01*
X178192619Y-68465714D01*
X178145000Y-68418095D01*
X178097380Y-68322857D01*
X178097380Y-68084761D01*
X178145000Y-67941904D01*
X178097380Y-67608571D02*
X179097380Y-67370476D01*
X178383095Y-67180000D01*
X179097380Y-66989523D01*
X178097380Y-66751428D01*
X178192619Y-66418095D02*
X178145000Y-66370476D01*
X178097380Y-66275238D01*
X178097380Y-66037142D01*
X178145000Y-65941904D01*
X178192619Y-65894285D01*
X178287857Y-65846666D01*
X178383095Y-65846666D01*
X178525952Y-65894285D01*
X179097380Y-66465714D01*
X179097380Y-65846666D01*
X160377142Y-66841666D02*
X160424761Y-66889285D01*
X160472380Y-67032142D01*
X160472380Y-67127380D01*
X160424761Y-67270238D01*
X160329523Y-67365476D01*
X160234285Y-67413095D01*
X160043809Y-67460714D01*
X159900952Y-67460714D01*
X159710476Y-67413095D01*
X159615238Y-67365476D01*
X159520000Y-67270238D01*
X159472380Y-67127380D01*
X159472380Y-67032142D01*
X159520000Y-66889285D01*
X159567619Y-66841666D01*
X160472380Y-65889285D02*
X160472380Y-66460714D01*
X160472380Y-66175000D02*
X159472380Y-66175000D01*
X159615238Y-66270238D01*
X159710476Y-66365476D01*
X159758095Y-66460714D01*
X154417142Y-66841666D02*
X154464761Y-66889285D01*
X154512380Y-67032142D01*
X154512380Y-67127380D01*
X154464761Y-67270238D01*
X154369523Y-67365476D01*
X154274285Y-67413095D01*
X154083809Y-67460714D01*
X153940952Y-67460714D01*
X153750476Y-67413095D01*
X153655238Y-67365476D01*
X153560000Y-67270238D01*
X153512380Y-67127380D01*
X153512380Y-67032142D01*
X153560000Y-66889285D01*
X153607619Y-66841666D01*
X153607619Y-66460714D02*
X153560000Y-66413095D01*
X153512380Y-66317857D01*
X153512380Y-66079761D01*
X153560000Y-65984523D01*
X153607619Y-65936904D01*
X153702857Y-65889285D01*
X153798095Y-65889285D01*
X153940952Y-65936904D01*
X154512380Y-66508333D01*
X154512380Y-65889285D01*
X139422142Y-94781666D02*
X139469761Y-94829285D01*
X139517380Y-94972142D01*
X139517380Y-95067380D01*
X139469761Y-95210238D01*
X139374523Y-95305476D01*
X139279285Y-95353095D01*
X139088809Y-95400714D01*
X138945952Y-95400714D01*
X138755476Y-95353095D01*
X138660238Y-95305476D01*
X138565000Y-95210238D01*
X138517380Y-95067380D01*
X138517380Y-94972142D01*
X138565000Y-94829285D01*
X138612619Y-94781666D01*
X138517380Y-93924523D02*
X138517380Y-94115000D01*
X138565000Y-94210238D01*
X138612619Y-94257857D01*
X138755476Y-94353095D01*
X138945952Y-94400714D01*
X139326904Y-94400714D01*
X139422142Y-94353095D01*
X139469761Y-94305476D01*
X139517380Y-94210238D01*
X139517380Y-94019761D01*
X139469761Y-93924523D01*
X139422142Y-93876904D01*
X139326904Y-93829285D01*
X139088809Y-93829285D01*
X138993571Y-93876904D01*
X138945952Y-93924523D01*
X138898333Y-94019761D01*
X138898333Y-94210238D01*
X138945952Y-94305476D01*
X138993571Y-94353095D01*
X139088809Y-94400714D01*
X126706649Y-92132648D02*
X126639306Y-92132648D01*
X126504619Y-92065304D01*
X126437275Y-91997961D01*
X126369932Y-91863273D01*
X126369932Y-91728586D01*
X126403603Y-91627571D01*
X126504619Y-91459212D01*
X126605634Y-91358197D01*
X126773993Y-91257182D01*
X126875008Y-91223510D01*
X127009695Y-91223510D01*
X127144382Y-91290854D01*
X127211726Y-91358197D01*
X127279069Y-91492884D01*
X127279069Y-91560228D01*
X127582115Y-91728586D02*
X128053519Y-92199991D01*
X127043367Y-92604052D01*
X166822380Y-62968095D02*
X165822380Y-62968095D01*
X165822380Y-62730000D01*
X165870000Y-62587142D01*
X165965238Y-62491904D01*
X166060476Y-62444285D01*
X166250952Y-62396666D01*
X166393809Y-62396666D01*
X166584285Y-62444285D01*
X166679523Y-62491904D01*
X166774761Y-62587142D01*
X166822380Y-62730000D01*
X166822380Y-62968095D01*
X166822380Y-61444285D02*
X166822380Y-62015714D01*
X166822380Y-61730000D02*
X165822380Y-61730000D01*
X165965238Y-61825238D01*
X166060476Y-61920476D01*
X166108095Y-62015714D01*
X91257380Y-86463095D02*
X90257380Y-86463095D01*
X90257380Y-86225000D01*
X90305000Y-86082142D01*
X90400238Y-85986904D01*
X90495476Y-85939285D01*
X90685952Y-85891666D01*
X90828809Y-85891666D01*
X91019285Y-85939285D01*
X91114523Y-85986904D01*
X91209761Y-86082142D01*
X91257380Y-86225000D01*
X91257380Y-86463095D01*
X90352619Y-85510714D02*
X90305000Y-85463095D01*
X90257380Y-85367857D01*
X90257380Y-85129761D01*
X90305000Y-85034523D01*
X90352619Y-84986904D01*
X90447857Y-84939285D01*
X90543095Y-84939285D01*
X90685952Y-84986904D01*
X91257380Y-85558333D01*
X91257380Y-84939285D01*
X172386666Y-73707380D02*
X172386666Y-74421666D01*
X172339047Y-74564523D01*
X172243809Y-74659761D01*
X172100952Y-74707380D01*
X172005714Y-74707380D01*
X173386666Y-74707380D02*
X172815238Y-74707380D01*
X173100952Y-74707380D02*
X173100952Y-73707380D01*
X173005714Y-73850238D01*
X172910476Y-73945476D01*
X172815238Y-73993095D01*
X178101666Y-77557380D02*
X178101666Y-78271666D01*
X178054047Y-78414523D01*
X177958809Y-78509761D01*
X177815952Y-78557380D01*
X177720714Y-78557380D01*
X178530238Y-77652619D02*
X178577857Y-77605000D01*
X178673095Y-77557380D01*
X178911190Y-77557380D01*
X179006428Y-77605000D01*
X179054047Y-77652619D01*
X179101666Y-77747857D01*
X179101666Y-77843095D01*
X179054047Y-77985952D01*
X178482619Y-78557380D01*
X179101666Y-78557380D01*
X149947380Y-79708333D02*
X150661666Y-79708333D01*
X150804523Y-79755952D01*
X150899761Y-79851190D01*
X150947380Y-79994047D01*
X150947380Y-80089285D01*
X149947380Y-79327380D02*
X149947380Y-78708333D01*
X150328333Y-79041666D01*
X150328333Y-78898809D01*
X150375952Y-78803571D01*
X150423571Y-78755952D01*
X150518809Y-78708333D01*
X150756904Y-78708333D01*
X150852142Y-78755952D01*
X150899761Y-78803571D01*
X150947380Y-78898809D01*
X150947380Y-79184523D01*
X150899761Y-79279761D01*
X150852142Y-79327380D01*
D14*
X139192000Y-65205428D02*
X139192000Y-66294000D01*
X139119428Y-66511714D01*
X138974285Y-66656857D01*
X138756571Y-66729428D01*
X138611428Y-66729428D01*
X140570857Y-65713428D02*
X140570857Y-66729428D01*
X140208000Y-65132857D02*
X139845142Y-66221428D01*
X140788571Y-66221428D01*
D12*
X144852380Y-89066666D02*
X144376190Y-89400000D01*
X144852380Y-89638095D02*
X143852380Y-89638095D01*
X143852380Y-89257142D01*
X143900000Y-89161904D01*
X143947619Y-89114285D01*
X144042857Y-89066666D01*
X144185714Y-89066666D01*
X144280952Y-89114285D01*
X144328571Y-89161904D01*
X144376190Y-89257142D01*
X144376190Y-89638095D01*
X144852380Y-88114285D02*
X144852380Y-88685714D01*
X144852380Y-88400000D02*
X143852380Y-88400000D01*
X143995238Y-88495238D01*
X144090476Y-88590476D01*
X144138095Y-88685714D01*
X99767380Y-92241666D02*
X99291190Y-92575000D01*
X99767380Y-92813095D02*
X98767380Y-92813095D01*
X98767380Y-92432142D01*
X98815000Y-92336904D01*
X98862619Y-92289285D01*
X98957857Y-92241666D01*
X99100714Y-92241666D01*
X99195952Y-92289285D01*
X99243571Y-92336904D01*
X99291190Y-92432142D01*
X99291190Y-92813095D01*
X98862619Y-91860714D02*
X98815000Y-91813095D01*
X98767380Y-91717857D01*
X98767380Y-91479761D01*
X98815000Y-91384523D01*
X98862619Y-91336904D01*
X98957857Y-91289285D01*
X99053095Y-91289285D01*
X99195952Y-91336904D01*
X99767380Y-91908333D01*
X99767380Y-91289285D01*
X142692380Y-73826666D02*
X142216190Y-74160000D01*
X142692380Y-74398095D02*
X141692380Y-74398095D01*
X141692380Y-74017142D01*
X141740000Y-73921904D01*
X141787619Y-73874285D01*
X141882857Y-73826666D01*
X142025714Y-73826666D01*
X142120952Y-73874285D01*
X142168571Y-73921904D01*
X142216190Y-74017142D01*
X142216190Y-74398095D01*
X141692380Y-73493333D02*
X141692380Y-72874285D01*
X142073333Y-73207619D01*
X142073333Y-73064761D01*
X142120952Y-72969523D01*
X142168571Y-72921904D01*
X142263809Y-72874285D01*
X142501904Y-72874285D01*
X142597142Y-72921904D01*
X142644761Y-72969523D01*
X142692380Y-73064761D01*
X142692380Y-73350476D01*
X142644761Y-73445714D01*
X142597142Y-73493333D01*
X91273333Y-77922380D02*
X90940000Y-77446190D01*
X90701904Y-77922380D02*
X90701904Y-76922380D01*
X91082857Y-76922380D01*
X91178095Y-76970000D01*
X91225714Y-77017619D01*
X91273333Y-77112857D01*
X91273333Y-77255714D01*
X91225714Y-77350952D01*
X91178095Y-77398571D01*
X91082857Y-77446190D01*
X90701904Y-77446190D01*
X92130476Y-77255714D02*
X92130476Y-77922380D01*
X91892380Y-76874761D02*
X91654285Y-77589047D01*
X92273333Y-77589047D01*
X99512380Y-85891666D02*
X99036190Y-86225000D01*
X99512380Y-86463095D02*
X98512380Y-86463095D01*
X98512380Y-86082142D01*
X98560000Y-85986904D01*
X98607619Y-85939285D01*
X98702857Y-85891666D01*
X98845714Y-85891666D01*
X98940952Y-85939285D01*
X98988571Y-85986904D01*
X99036190Y-86082142D01*
X99036190Y-86463095D01*
X98512380Y-84986904D02*
X98512380Y-85463095D01*
X98988571Y-85510714D01*
X98940952Y-85463095D01*
X98893333Y-85367857D01*
X98893333Y-85129761D01*
X98940952Y-85034523D01*
X98988571Y-84986904D01*
X99083809Y-84939285D01*
X99321904Y-84939285D01*
X99417142Y-84986904D01*
X99464761Y-85034523D01*
X99512380Y-85129761D01*
X99512380Y-85367857D01*
X99464761Y-85463095D01*
X99417142Y-85510714D01*
X142708333Y-77922380D02*
X142375000Y-77446190D01*
X142136904Y-77922380D02*
X142136904Y-76922380D01*
X142517857Y-76922380D01*
X142613095Y-76970000D01*
X142660714Y-77017619D01*
X142708333Y-77112857D01*
X142708333Y-77255714D01*
X142660714Y-77350952D01*
X142613095Y-77398571D01*
X142517857Y-77446190D01*
X142136904Y-77446190D01*
X143565476Y-76922380D02*
X143375000Y-76922380D01*
X143279761Y-76970000D01*
X143232142Y-77017619D01*
X143136904Y-77160476D01*
X143089285Y-77350952D01*
X143089285Y-77731904D01*
X143136904Y-77827142D01*
X143184523Y-77874761D01*
X143279761Y-77922380D01*
X143470238Y-77922380D01*
X143565476Y-77874761D01*
X143613095Y-77827142D01*
X143660714Y-77731904D01*
X143660714Y-77493809D01*
X143613095Y-77398571D01*
X143565476Y-77350952D01*
X143470238Y-77303333D01*
X143279761Y-77303333D01*
X143184523Y-77350952D01*
X143136904Y-77398571D01*
X143089285Y-77493809D01*
X139533333Y-77922380D02*
X139200000Y-77446190D01*
X138961904Y-77922380D02*
X138961904Y-76922380D01*
X139342857Y-76922380D01*
X139438095Y-76970000D01*
X139485714Y-77017619D01*
X139533333Y-77112857D01*
X139533333Y-77255714D01*
X139485714Y-77350952D01*
X139438095Y-77398571D01*
X139342857Y-77446190D01*
X138961904Y-77446190D01*
X139866666Y-76922380D02*
X140533333Y-76922380D01*
X140104761Y-77922380D01*
X136358333Y-77922380D02*
X136025000Y-77446190D01*
X135786904Y-77922380D02*
X135786904Y-76922380D01*
X136167857Y-76922380D01*
X136263095Y-76970000D01*
X136310714Y-77017619D01*
X136358333Y-77112857D01*
X136358333Y-77255714D01*
X136310714Y-77350952D01*
X136263095Y-77398571D01*
X136167857Y-77446190D01*
X135786904Y-77446190D01*
X136929761Y-77350952D02*
X136834523Y-77303333D01*
X136786904Y-77255714D01*
X136739285Y-77160476D01*
X136739285Y-77112857D01*
X136786904Y-77017619D01*
X136834523Y-76970000D01*
X136929761Y-76922380D01*
X137120238Y-76922380D01*
X137215476Y-76970000D01*
X137263095Y-77017619D01*
X137310714Y-77112857D01*
X137310714Y-77160476D01*
X137263095Y-77255714D01*
X137215476Y-77303333D01*
X137120238Y-77350952D01*
X136929761Y-77350952D01*
X136834523Y-77398571D01*
X136786904Y-77446190D01*
X136739285Y-77541428D01*
X136739285Y-77731904D01*
X136786904Y-77827142D01*
X136834523Y-77874761D01*
X136929761Y-77922380D01*
X137120238Y-77922380D01*
X137215476Y-77874761D01*
X137263095Y-77827142D01*
X137310714Y-77731904D01*
X137310714Y-77541428D01*
X137263095Y-77446190D01*
X137215476Y-77398571D01*
X137120238Y-77350952D01*
X130008333Y-77922380D02*
X129675000Y-77446190D01*
X129436904Y-77922380D02*
X129436904Y-76922380D01*
X129817857Y-76922380D01*
X129913095Y-76970000D01*
X129960714Y-77017619D01*
X130008333Y-77112857D01*
X130008333Y-77255714D01*
X129960714Y-77350952D01*
X129913095Y-77398571D01*
X129817857Y-77446190D01*
X129436904Y-77446190D01*
X130484523Y-77922380D02*
X130675000Y-77922380D01*
X130770238Y-77874761D01*
X130817857Y-77827142D01*
X130913095Y-77684285D01*
X130960714Y-77493809D01*
X130960714Y-77112857D01*
X130913095Y-77017619D01*
X130865476Y-76970000D01*
X130770238Y-76922380D01*
X130579761Y-76922380D01*
X130484523Y-76970000D01*
X130436904Y-77017619D01*
X130389285Y-77112857D01*
X130389285Y-77350952D01*
X130436904Y-77446190D01*
X130484523Y-77493809D01*
X130579761Y-77541428D01*
X130770238Y-77541428D01*
X130865476Y-77493809D01*
X130913095Y-77446190D01*
X130960714Y-77350952D01*
X106672142Y-77922380D02*
X106338809Y-77446190D01*
X106100714Y-77922380D02*
X106100714Y-76922380D01*
X106481666Y-76922380D01*
X106576904Y-76970000D01*
X106624523Y-77017619D01*
X106672142Y-77112857D01*
X106672142Y-77255714D01*
X106624523Y-77350952D01*
X106576904Y-77398571D01*
X106481666Y-77446190D01*
X106100714Y-77446190D01*
X107624523Y-77922380D02*
X107053095Y-77922380D01*
X107338809Y-77922380D02*
X107338809Y-76922380D01*
X107243571Y-77065238D01*
X107148333Y-77160476D01*
X107053095Y-77208095D01*
X108243571Y-76922380D02*
X108338809Y-76922380D01*
X108434047Y-76970000D01*
X108481666Y-77017619D01*
X108529285Y-77112857D01*
X108576904Y-77303333D01*
X108576904Y-77541428D01*
X108529285Y-77731904D01*
X108481666Y-77827142D01*
X108434047Y-77874761D01*
X108338809Y-77922380D01*
X108243571Y-77922380D01*
X108148333Y-77874761D01*
X108100714Y-77827142D01*
X108053095Y-77731904D01*
X108005476Y-77541428D01*
X108005476Y-77303333D01*
X108053095Y-77112857D01*
X108100714Y-77017619D01*
X108148333Y-76970000D01*
X108243571Y-76922380D01*
X103497142Y-77922380D02*
X103163809Y-77446190D01*
X102925714Y-77922380D02*
X102925714Y-76922380D01*
X103306666Y-76922380D01*
X103401904Y-76970000D01*
X103449523Y-77017619D01*
X103497142Y-77112857D01*
X103497142Y-77255714D01*
X103449523Y-77350952D01*
X103401904Y-77398571D01*
X103306666Y-77446190D01*
X102925714Y-77446190D01*
X104449523Y-77922380D02*
X103878095Y-77922380D01*
X104163809Y-77922380D02*
X104163809Y-76922380D01*
X104068571Y-77065238D01*
X103973333Y-77160476D01*
X103878095Y-77208095D01*
X105401904Y-77922380D02*
X104830476Y-77922380D01*
X105116190Y-77922380D02*
X105116190Y-76922380D01*
X105020952Y-77065238D01*
X104925714Y-77160476D01*
X104830476Y-77208095D01*
X97147142Y-77922380D02*
X96813809Y-77446190D01*
X96575714Y-77922380D02*
X96575714Y-76922380D01*
X96956666Y-76922380D01*
X97051904Y-76970000D01*
X97099523Y-77017619D01*
X97147142Y-77112857D01*
X97147142Y-77255714D01*
X97099523Y-77350952D01*
X97051904Y-77398571D01*
X96956666Y-77446190D01*
X96575714Y-77446190D01*
X98099523Y-77922380D02*
X97528095Y-77922380D01*
X97813809Y-77922380D02*
X97813809Y-76922380D01*
X97718571Y-77065238D01*
X97623333Y-77160476D01*
X97528095Y-77208095D01*
X98480476Y-77017619D02*
X98528095Y-76970000D01*
X98623333Y-76922380D01*
X98861428Y-76922380D01*
X98956666Y-76970000D01*
X99004285Y-77017619D01*
X99051904Y-77112857D01*
X99051904Y-77208095D01*
X99004285Y-77350952D01*
X98432857Y-77922380D01*
X99051904Y-77922380D01*
X93972142Y-77922380D02*
X93638809Y-77446190D01*
X93400714Y-77922380D02*
X93400714Y-76922380D01*
X93781666Y-76922380D01*
X93876904Y-76970000D01*
X93924523Y-77017619D01*
X93972142Y-77112857D01*
X93972142Y-77255714D01*
X93924523Y-77350952D01*
X93876904Y-77398571D01*
X93781666Y-77446190D01*
X93400714Y-77446190D01*
X94924523Y-77922380D02*
X94353095Y-77922380D01*
X94638809Y-77922380D02*
X94638809Y-76922380D01*
X94543571Y-77065238D01*
X94448333Y-77160476D01*
X94353095Y-77208095D01*
X95257857Y-76922380D02*
X95876904Y-76922380D01*
X95543571Y-77303333D01*
X95686428Y-77303333D01*
X95781666Y-77350952D01*
X95829285Y-77398571D01*
X95876904Y-77493809D01*
X95876904Y-77731904D01*
X95829285Y-77827142D01*
X95781666Y-77874761D01*
X95686428Y-77922380D01*
X95400714Y-77922380D01*
X95305476Y-77874761D01*
X95257857Y-77827142D01*
X145407142Y-77922380D02*
X145073809Y-77446190D01*
X144835714Y-77922380D02*
X144835714Y-76922380D01*
X145216666Y-76922380D01*
X145311904Y-76970000D01*
X145359523Y-77017619D01*
X145407142Y-77112857D01*
X145407142Y-77255714D01*
X145359523Y-77350952D01*
X145311904Y-77398571D01*
X145216666Y-77446190D01*
X144835714Y-77446190D01*
X146359523Y-77922380D02*
X145788095Y-77922380D01*
X146073809Y-77922380D02*
X146073809Y-76922380D01*
X145978571Y-77065238D01*
X145883333Y-77160476D01*
X145788095Y-77208095D01*
X147216666Y-77255714D02*
X147216666Y-77922380D01*
X146978571Y-76874761D02*
X146740476Y-77589047D01*
X147359523Y-77589047D01*
X132707142Y-77922380D02*
X132373809Y-77446190D01*
X132135714Y-77922380D02*
X132135714Y-76922380D01*
X132516666Y-76922380D01*
X132611904Y-76970000D01*
X132659523Y-77017619D01*
X132707142Y-77112857D01*
X132707142Y-77255714D01*
X132659523Y-77350952D01*
X132611904Y-77398571D01*
X132516666Y-77446190D01*
X132135714Y-77446190D01*
X133659523Y-77922380D02*
X133088095Y-77922380D01*
X133373809Y-77922380D02*
X133373809Y-76922380D01*
X133278571Y-77065238D01*
X133183333Y-77160476D01*
X133088095Y-77208095D01*
X134564285Y-76922380D02*
X134088095Y-76922380D01*
X134040476Y-77398571D01*
X134088095Y-77350952D01*
X134183333Y-77303333D01*
X134421428Y-77303333D01*
X134516666Y-77350952D01*
X134564285Y-77398571D01*
X134611904Y-77493809D01*
X134611904Y-77731904D01*
X134564285Y-77827142D01*
X134516666Y-77874761D01*
X134421428Y-77922380D01*
X134183333Y-77922380D01*
X134088095Y-77874761D01*
X134040476Y-77827142D01*
X100322142Y-77922380D02*
X99988809Y-77446190D01*
X99750714Y-77922380D02*
X99750714Y-76922380D01*
X100131666Y-76922380D01*
X100226904Y-76970000D01*
X100274523Y-77017619D01*
X100322142Y-77112857D01*
X100322142Y-77255714D01*
X100274523Y-77350952D01*
X100226904Y-77398571D01*
X100131666Y-77446190D01*
X99750714Y-77446190D01*
X101274523Y-77922380D02*
X100703095Y-77922380D01*
X100988809Y-77922380D02*
X100988809Y-76922380D01*
X100893571Y-77065238D01*
X100798333Y-77160476D01*
X100703095Y-77208095D01*
X102131666Y-76922380D02*
X101941190Y-76922380D01*
X101845952Y-76970000D01*
X101798333Y-77017619D01*
X101703095Y-77160476D01*
X101655476Y-77350952D01*
X101655476Y-77731904D01*
X101703095Y-77827142D01*
X101750714Y-77874761D01*
X101845952Y-77922380D01*
X102036428Y-77922380D01*
X102131666Y-77874761D01*
X102179285Y-77827142D01*
X102226904Y-77731904D01*
X102226904Y-77493809D01*
X102179285Y-77398571D01*
X102131666Y-77350952D01*
X102036428Y-77303333D01*
X101845952Y-77303333D01*
X101750714Y-77350952D01*
X101703095Y-77398571D01*
X101655476Y-77493809D01*
X162797142Y-85542380D02*
X162463809Y-85066190D01*
X162225714Y-85542380D02*
X162225714Y-84542380D01*
X162606666Y-84542380D01*
X162701904Y-84590000D01*
X162749523Y-84637619D01*
X162797142Y-84732857D01*
X162797142Y-84875714D01*
X162749523Y-84970952D01*
X162701904Y-85018571D01*
X162606666Y-85066190D01*
X162225714Y-85066190D01*
X163749523Y-85542380D02*
X163178095Y-85542380D01*
X163463809Y-85542380D02*
X163463809Y-84542380D01*
X163368571Y-84685238D01*
X163273333Y-84780476D01*
X163178095Y-84828095D01*
X164082857Y-84542380D02*
X164749523Y-84542380D01*
X164320952Y-85542380D01*
X162797142Y-80462380D02*
X162463809Y-79986190D01*
X162225714Y-80462380D02*
X162225714Y-79462380D01*
X162606666Y-79462380D01*
X162701904Y-79510000D01*
X162749523Y-79557619D01*
X162797142Y-79652857D01*
X162797142Y-79795714D01*
X162749523Y-79890952D01*
X162701904Y-79938571D01*
X162606666Y-79986190D01*
X162225714Y-79986190D01*
X163749523Y-80462380D02*
X163178095Y-80462380D01*
X163463809Y-80462380D02*
X163463809Y-79462380D01*
X163368571Y-79605238D01*
X163273333Y-79700476D01*
X163178095Y-79748095D01*
X164320952Y-79890952D02*
X164225714Y-79843333D01*
X164178095Y-79795714D01*
X164130476Y-79700476D01*
X164130476Y-79652857D01*
X164178095Y-79557619D01*
X164225714Y-79510000D01*
X164320952Y-79462380D01*
X164511428Y-79462380D01*
X164606666Y-79510000D01*
X164654285Y-79557619D01*
X164701904Y-79652857D01*
X164701904Y-79700476D01*
X164654285Y-79795714D01*
X164606666Y-79843333D01*
X164511428Y-79890952D01*
X164320952Y-79890952D01*
X164225714Y-79938571D01*
X164178095Y-79986190D01*
X164130476Y-80081428D01*
X164130476Y-80271904D01*
X164178095Y-80367142D01*
X164225714Y-80414761D01*
X164320952Y-80462380D01*
X164511428Y-80462380D01*
X164606666Y-80414761D01*
X164654285Y-80367142D01*
X164701904Y-80271904D01*
X164701904Y-80081428D01*
X164654285Y-79986190D01*
X164606666Y-79938571D01*
X164511428Y-79890952D01*
X163042142Y-90622380D02*
X162708809Y-90146190D01*
X162470714Y-90622380D02*
X162470714Y-89622380D01*
X162851666Y-89622380D01*
X162946904Y-89670000D01*
X162994523Y-89717619D01*
X163042142Y-89812857D01*
X163042142Y-89955714D01*
X162994523Y-90050952D01*
X162946904Y-90098571D01*
X162851666Y-90146190D01*
X162470714Y-90146190D01*
X163994523Y-90622380D02*
X163423095Y-90622380D01*
X163708809Y-90622380D02*
X163708809Y-89622380D01*
X163613571Y-89765238D01*
X163518333Y-89860476D01*
X163423095Y-89908095D01*
X164470714Y-90622380D02*
X164661190Y-90622380D01*
X164756428Y-90574761D01*
X164804047Y-90527142D01*
X164899285Y-90384285D01*
X164946904Y-90193809D01*
X164946904Y-89812857D01*
X164899285Y-89717619D01*
X164851666Y-89670000D01*
X164756428Y-89622380D01*
X164565952Y-89622380D01*
X164470714Y-89670000D01*
X164423095Y-89717619D01*
X164375476Y-89812857D01*
X164375476Y-90050952D01*
X164423095Y-90146190D01*
X164470714Y-90193809D01*
X164565952Y-90241428D01*
X164756428Y-90241428D01*
X164851666Y-90193809D01*
X164899285Y-90146190D01*
X164946904Y-90050952D01*
X162797142Y-83002380D02*
X162463809Y-82526190D01*
X162225714Y-83002380D02*
X162225714Y-82002380D01*
X162606666Y-82002380D01*
X162701904Y-82050000D01*
X162749523Y-82097619D01*
X162797142Y-82192857D01*
X162797142Y-82335714D01*
X162749523Y-82430952D01*
X162701904Y-82478571D01*
X162606666Y-82526190D01*
X162225714Y-82526190D01*
X163178095Y-82097619D02*
X163225714Y-82050000D01*
X163320952Y-82002380D01*
X163559047Y-82002380D01*
X163654285Y-82050000D01*
X163701904Y-82097619D01*
X163749523Y-82192857D01*
X163749523Y-82288095D01*
X163701904Y-82430952D01*
X163130476Y-83002380D01*
X163749523Y-83002380D01*
X164368571Y-82002380D02*
X164463809Y-82002380D01*
X164559047Y-82050000D01*
X164606666Y-82097619D01*
X164654285Y-82192857D01*
X164701904Y-82383333D01*
X164701904Y-82621428D01*
X164654285Y-82811904D01*
X164606666Y-82907142D01*
X164559047Y-82954761D01*
X164463809Y-83002380D01*
X164368571Y-83002380D01*
X164273333Y-82954761D01*
X164225714Y-82907142D01*
X164178095Y-82811904D01*
X164130476Y-82621428D01*
X164130476Y-82383333D01*
X164178095Y-82192857D01*
X164225714Y-82097619D01*
X164273333Y-82050000D01*
X164368571Y-82002380D01*
X162797142Y-88082380D02*
X162463809Y-87606190D01*
X162225714Y-88082380D02*
X162225714Y-87082380D01*
X162606666Y-87082380D01*
X162701904Y-87130000D01*
X162749523Y-87177619D01*
X162797142Y-87272857D01*
X162797142Y-87415714D01*
X162749523Y-87510952D01*
X162701904Y-87558571D01*
X162606666Y-87606190D01*
X162225714Y-87606190D01*
X163178095Y-87177619D02*
X163225714Y-87130000D01*
X163320952Y-87082380D01*
X163559047Y-87082380D01*
X163654285Y-87130000D01*
X163701904Y-87177619D01*
X163749523Y-87272857D01*
X163749523Y-87368095D01*
X163701904Y-87510952D01*
X163130476Y-88082380D01*
X163749523Y-88082380D01*
X164701904Y-88082380D02*
X164130476Y-88082380D01*
X164416190Y-88082380D02*
X164416190Y-87082380D01*
X164320952Y-87225238D01*
X164225714Y-87320476D01*
X164130476Y-87368095D01*
X163042142Y-93162380D02*
X162708809Y-92686190D01*
X162470714Y-93162380D02*
X162470714Y-92162380D01*
X162851666Y-92162380D01*
X162946904Y-92210000D01*
X162994523Y-92257619D01*
X163042142Y-92352857D01*
X163042142Y-92495714D01*
X162994523Y-92590952D01*
X162946904Y-92638571D01*
X162851666Y-92686190D01*
X162470714Y-92686190D01*
X163423095Y-92257619D02*
X163470714Y-92210000D01*
X163565952Y-92162380D01*
X163804047Y-92162380D01*
X163899285Y-92210000D01*
X163946904Y-92257619D01*
X163994523Y-92352857D01*
X163994523Y-92448095D01*
X163946904Y-92590952D01*
X163375476Y-93162380D01*
X163994523Y-93162380D01*
X164375476Y-92257619D02*
X164423095Y-92210000D01*
X164518333Y-92162380D01*
X164756428Y-92162380D01*
X164851666Y-92210000D01*
X164899285Y-92257619D01*
X164946904Y-92352857D01*
X164946904Y-92448095D01*
X164899285Y-92590952D01*
X164327857Y-93162380D01*
X164946904Y-93162380D01*
X146757380Y-74302857D02*
X146281190Y-74636190D01*
X146757380Y-74874285D02*
X145757380Y-74874285D01*
X145757380Y-74493333D01*
X145805000Y-74398095D01*
X145852619Y-74350476D01*
X145947857Y-74302857D01*
X146090714Y-74302857D01*
X146185952Y-74350476D01*
X146233571Y-74398095D01*
X146281190Y-74493333D01*
X146281190Y-74874285D01*
X145852619Y-73921904D02*
X145805000Y-73874285D01*
X145757380Y-73779047D01*
X145757380Y-73540952D01*
X145805000Y-73445714D01*
X145852619Y-73398095D01*
X145947857Y-73350476D01*
X146043095Y-73350476D01*
X146185952Y-73398095D01*
X146757380Y-73969523D01*
X146757380Y-73350476D01*
X145757380Y-73017142D02*
X145757380Y-72398095D01*
X146138333Y-72731428D01*
X146138333Y-72588571D01*
X146185952Y-72493333D01*
X146233571Y-72445714D01*
X146328809Y-72398095D01*
X146566904Y-72398095D01*
X146662142Y-72445714D01*
X146709761Y-72493333D01*
X146757380Y-72588571D01*
X146757380Y-72874285D01*
X146709761Y-72969523D01*
X146662142Y-73017142D01*
X149629761Y-90233333D02*
X149677380Y-90090476D01*
X149677380Y-89852380D01*
X149629761Y-89757142D01*
X149582142Y-89709523D01*
X149486904Y-89661904D01*
X149391666Y-89661904D01*
X149296428Y-89709523D01*
X149248809Y-89757142D01*
X149201190Y-89852380D01*
X149153571Y-90042857D01*
X149105952Y-90138095D01*
X149058333Y-90185714D01*
X148963095Y-90233333D01*
X148867857Y-90233333D01*
X148772619Y-90185714D01*
X148725000Y-90138095D01*
X148677380Y-90042857D01*
X148677380Y-89804761D01*
X148725000Y-89661904D01*
X148677380Y-89328571D02*
X149677380Y-89090476D01*
X148963095Y-88900000D01*
X149677380Y-88709523D01*
X148677380Y-88471428D01*
X149677380Y-87566666D02*
X149677380Y-88138095D01*
X149677380Y-87852380D02*
X148677380Y-87852380D01*
X148820238Y-87947619D01*
X148915476Y-88042857D01*
X148963095Y-88138095D01*
X159893095Y-62952380D02*
X159893095Y-63761904D01*
X159940714Y-63857142D01*
X159988333Y-63904761D01*
X160083571Y-63952380D01*
X160274047Y-63952380D01*
X160369285Y-63904761D01*
X160416904Y-63857142D01*
X160464523Y-63761904D01*
X160464523Y-62952380D01*
X161464523Y-63952380D02*
X160893095Y-63952380D01*
X161178809Y-63952380D02*
X161178809Y-62952380D01*
X161083571Y-63095238D01*
X160988333Y-63190476D01*
X160893095Y-63238095D01*
X145502380Y-62356904D02*
X146311904Y-62356904D01*
X146407142Y-62309285D01*
X146454761Y-62261666D01*
X146502380Y-62166428D01*
X146502380Y-61975952D01*
X146454761Y-61880714D01*
X146407142Y-61833095D01*
X146311904Y-61785476D01*
X145502380Y-61785476D01*
X145597619Y-61356904D02*
X145550000Y-61309285D01*
X145502380Y-61214047D01*
X145502380Y-60975952D01*
X145550000Y-60880714D01*
X145597619Y-60833095D01*
X145692857Y-60785476D01*
X145788095Y-60785476D01*
X145930952Y-60833095D01*
X146502380Y-61404523D01*
X146502380Y-60785476D01*
X113960531Y-91971972D02*
X113388111Y-92544392D01*
X113354439Y-92645407D01*
X113354439Y-92712751D01*
X113388111Y-92813766D01*
X113522798Y-92948453D01*
X113623813Y-92982125D01*
X113691157Y-92982125D01*
X113792172Y-92948453D01*
X114364592Y-92376033D01*
X114633966Y-92645407D02*
X115071698Y-93083140D01*
X114566622Y-93116812D01*
X114667637Y-93217827D01*
X114701309Y-93318842D01*
X114701309Y-93386186D01*
X114667637Y-93487201D01*
X114499279Y-93655560D01*
X114398263Y-93689232D01*
X114330920Y-93689232D01*
X114229905Y-93655560D01*
X114027874Y-93453529D01*
X113994202Y-93352514D01*
X113994202Y-93285171D01*
X129516190Y-86836190D02*
X129992380Y-86836190D01*
X128992380Y-87169523D02*
X129516190Y-86836190D01*
X128992380Y-86502857D01*
X129992380Y-85645714D02*
X129992380Y-86217142D01*
X129992380Y-85931428D02*
X128992380Y-85931428D01*
X129135238Y-86026666D01*
X129230476Y-86121904D01*
X129278095Y-86217142D01*
M02*
